<svg xmlns="http://www.w3.org/2000/svg" viewBox="0 0 20 16">
  <g id="Icons">
    <path id="acm" d="M10,0,2,8l8,8,8-8Zm0,3.1A4.9,4.9,0,1,1,5.1,8,4.9,4.9,0,0,1,10,3.1Zm0,.49A4.415,4.415,0,1,0,14.414,8,4.415,4.415,0,0,0,10,3.585ZM7.041,6.9a1.376,1.376,0,0,1,.8.183.646.646,0,0,1,.251.558V9.085H7.429V8.86l-.121.1a.688.688,0,0,1-.145.091.87.87,0,0,1-.172.065.956.956,0,0,1-.235.022.627.627,0,0,1-.467-.189A.651.651,0,0,1,6.1,8.474.692.692,0,0,1,6.2,8.091a.654.654,0,0,1,.272-.231A1.461,1.461,0,0,1,6.9,7.739c.167-.022.345-.04.537-.053V7.675a.25.25,0,0,0-.13-.243.866.866,0,0,0-.388-.067,1.033,1.033,0,0,0-.273.043,2.182,2.182,0,0,0-.306.109H6.281V7c.065-.019.171-.042.318-.068A2.513,2.513,0,0,1,7.041,6.9Zm2.488,0a1.575,1.575,0,0,1,.353.041,1.62,1.62,0,0,1,.354.13V7.64h-.085c-.027-.026-.059-.053-.1-.084a.886.886,0,0,0-.126-.083.84.84,0,0,0-.163-.068.708.708,0,0,0-.2-.027.472.472,0,0,0-.394.177.742.742,0,0,0-.139.475.668.668,0,0,0,.149.475.521.521,0,0,0,.395.157.8.8,0,0,0,.22-.028.736.736,0,0,0,.164-.068.646.646,0,0,0,.113-.082c.032-.027.059-.053.082-.075h.085v.566l-.132.057a1.3,1.3,0,0,1-.152.053c-.065.017-.125.031-.181.04a1.443,1.443,0,0,1-.223.015h0a1.669,1.669,0,0,1-.483-.066,1.021,1.021,0,0,1-.379-.2.92.92,0,0,1-.249-.347,1.235,1.235,0,0,1-.089-.492,1.249,1.249,0,0,1,.1-.519.968.968,0,0,1,.261-.351,1.018,1.018,0,0,1,.375-.2A1.585,1.585,0,0,1,9.529,6.9Zm2.349,0a.626.626,0,0,1,.342.093.582.582,0,0,1,.226.277A1.93,1.93,0,0,1,12.806,7a.7.7,0,0,1,.608-.048.509.509,0,0,1,.2.142.652.652,0,0,1,.133.243,1.241,1.241,0,0,1,.045.368V9.085h-.663V8.022c0-.105,0-.193-.006-.265a.55.55,0,0,0-.034-.177.192.192,0,0,0-.089-.1.409.409,0,0,0-.318,0,1.05,1.05,0,0,0-.161.094V9.085h-.664V8.022c0-.1,0-.192-.006-.264a.547.547,0,0,0-.036-.178.191.191,0,0,0-.088-.1.361.361,0,0,0-.166-.031.367.367,0,0,0-.16.037,1.238,1.238,0,0,0-.152.09V9.085h-.663V6.96h.663v.234a1.817,1.817,0,0,1,.307-.216.665.665,0,0,1,.323-.078ZM7.43,8.088c-.112.011-.2.021-.27.029a.9.9,0,0,0-.2.048.277.277,0,0,0-.135.092.26.26,0,0,0-.048.162.235.235,0,0,0,.08.2.414.414,0,0,0,.236.055.442.442,0,0,0,.176-.039.541.541,0,0,0,.164-.111Z"/>
  </g>
</svg>
