<svg xmlns="http://www.w3.org/2000/svg" width="20" height="16" viewBox="0 0 20 16"><defs><style>.cls-1{fill-rule:evenodd;}</style></defs><g id="Icons"><path class="cls-1" d="M20,8a4.909,4.909,0,0,0-4.927-4.878,4.488,4.488,0,0,0-.757.057A6.514,6.514,0,0,0,10,6.241,6.514,6.514,0,0,0,5.684,3.179a5.358,5.358,0,0,0-.757-.057,4.878,4.878,0,1,0,0,9.756,4.606,4.606,0,0,0,.763-.057,6.544,6.544,0,0,0,4.317-3.069,6.544,6.544,0,0,0,4.316,3.069,5.379,5.379,0,0,0,.764.057A4.906,4.906,0,0,0,20,8ZM5.441,11.112a3.26,3.26,0,0,1-.521.036A3.2,3.2,0,0,1,1.679,8,3.2,3.2,0,0,1,4.927,4.852a4.343,4.343,0,0,1,.521.036C7.439,5.18,8.654,7.2,9.07,8,8.647,8.812,7.425,10.82,5.441,11.112Zm9.111-6.224C12.561,5.18,11.339,7.2,10.93,8c.409.8,1.631,2.82,3.622,3.112a4.343,4.343,0,0,0,.521.036A3.2,3.2,0,0,0,18.314,8a3.2,3.2,0,0,0-3.241-3.148A4.343,4.343,0,0,0,14.552,4.888ZM3.537,7.477h2.98v.938H3.537Zm12.911.945H15.443v.986H14.48V8.422H13.475V7.477H14.48V6.492h.963v.985h1.005Z"/></g></svg>