<svg id="ICONS_HERE_" data-name="ICONS HERE!" xmlns="http://www.w3.org/2000/svg" viewBox="0 0 20 16"><path id="arxiv" d="M5.173,0A1.2,1.2,0,0,0,4.1.683h0c0,.195-.1.488,0,.683l.293.585h0l4,4.878-.488.391a1.388,1.388,0,0,0-.1,1.951h0l.586.488L5.856,12.878a1.272,1.272,0,0,0-.292,1.268h0a1.176,1.176,0,0,0,1.17.781h0a.889.889,0,0,0,.781-.39h0l3.024-2.83,4.293,4.1a.745.745,0,0,0,.488.2.66.66,0,0,0,.585-.39.759.759,0,0,0-.195-.781L12,10.341l.975-.878a1.665,1.665,0,0,0,0-2.536L12,6.049l2.439-2.927c.2-.293.292-.488.2-.683a.735.735,0,0,0-.683-.488c-.2,0-.293.1-.488.195L10.539,4.78,6.149.39A1.2,1.2,0,0,0,5.368,0h-.2Zm.1.488A.834.834,0,0,1,5.759.78l4.585,4.293,1.463,1.366.878.878a1.24,1.24,0,0,1,.1,1.756l-.1.1-.878.878L10.246,8.2h0l-.682-.78-.781-.976-4-4.78c-.2-.391-.293-.488-.2-.781A.652.652,0,0,1,5.271.488Zm3.512,9.561,1.463,1.366L7.222,14.244a.75.75,0,0,1-.488.2.735.735,0,0,1-.683-.488,1,1,0,0,1,.2-.878Z"/></svg>