<svg xmlns="http://www.w3.org/2000/svg" viewBox="0 0 20 16">
  <g id="Icons">
    <path d="M15.664,14.78l-3.657-4.408.932-.866a1.729,1.729,0,0,0,.123-2.436,1.612,1.612,0,0,0-.124-.124L11.832,5.885,14.45,2.81c.232-.31.342-.472.232-.736a.8.8,0,0,0-.7-.493.626.626,0,0,0-.469.173l-3.1,2.767L6.2.478a1.4,1.4,0,0,0-.8-.469L5.35,0H5.281a1.193,1.193,0,0,0-1.1.725,1.227,1.227,0,0,0,.253,1.253L8.408,6.8l-.521.47a1.317,1.317,0,0,0-.03,1.863l.03.031.529.509-2.581,3.17a1.336,1.336,0,0,0-.3,1.285l.008.026.01.025a1.208,1.208,0,0,0,1.12.75,1.136,1.136,0,0,0,.846-.387l3.028-2.814,4.243,4.089a.593.593,0,0,0,.474.18.663.663,0,0,0,.609-.426A.8.8,0,0,0,15.664,14.78ZM4.641.922A.7.7,0,0,1,5.281.5H5.3a.9.9,0,0,1,.532.319l4.207,4.035.353.339L12.6,7.316c.031.028.06.058.088.088A1.23,1.23,0,0,1,12.6,9.14l-.911.847L10.233,8.234l0,0-5.39-6.54C4.611,1.357,4.534,1.177,4.641.922ZM7.158,14.2a.633.633,0,0,1-.477.233H6.674a.709.709,0,0,1-.657-.44.851.851,0,0,1,.206-.83l2.554-3.138,1.41,1.359Z"/>
  </g>
</svg>
