<?xml version="1.0" encoding="UTF-8" standalone="no"?>
<!-- Created with Inkscape (http://www.inkscape.org/) -->

<svg
   width="20"
   height="20"
   viewBox="0 0 5.2916666 5.2916666"
   version="1.1"
   id="svg274"
   xml:space="preserve"
   inkscape:version="1.2 (dc2aedaf03, 2022-05-15)"
   sodipodi:docname="arxiv.svg"
   xmlns:inkscape="http://www.inkscape.org/namespaces/inkscape"
   xmlns:sodipodi="http://sodipodi.sourceforge.net/DTD/sodipodi-0.dtd"
   xmlns="http://www.w3.org/2000/svg"
   xmlns:svg="http://www.w3.org/2000/svg"><sodipodi:namedview
     id="namedview276"
     pagecolor="#ffffff"
     bordercolor="#000000"
     borderopacity="0.25"
     inkscape:showpageshadow="false"
     inkscape:pageopacity="0.0"
     inkscape:pagecheckerboard="0"
     inkscape:deskcolor="#d1d1d1"
     inkscape:document-units="px"
     showgrid="true"
     inkscape:zoom="45.254835"
     inkscape:cx="12.451708"
     inkscape:cy="8.7946404"
     inkscape:window-width="2560"
     inkscape:window-height="1377"
     inkscape:window-x="-8"
     inkscape:window-y="-8"
     inkscape:window-maximized="1"
     inkscape:current-layer="layer1"
     showborder="true"
     showguides="true"><inkscape:grid
       type="xygrid"
       id="grid561"
       originx="0"
       originy="0" /></sodipodi:namedview><defs
     id="defs271"><style
       id="style432">.cls-1{fill:#130754;}.cls-2{fill:#ffca00;}.cls-3{fill:#e70488;}</style></defs><g
     inkscape:label="Layer 1"
     inkscape:groupmode="layer"
     id="layer1"><path
       id="path10977"
       style="fill:#000000;stroke-width:0.17441;stroke:none"
       d="M 1.2722737 0.46508788 C 1.150591 0.47156188 1.040697 0.5468236 0.99218749 0.65990803 L 0.99218749 0.66197509 C 0.96904081 0.71741523 0.96306813 0.78911667 0.98030191 0.84749348 C 0.99753579 0.90587022 1.0260278 0.94856927 1.0604004 0.99787189 L 1.0645345 1.0040731 L 2.1461222 2.3156209 L 2.0009114 2.446879 A 0.35980837 0.35980837 0 0 0 2.0009114 2.9641601 L 2.1481893 3.1057535 L 1.4510742 3.9630655 C 1.3602213 4.0570144 1.3269067 4.193054 1.3632243 4.3185994 L 1.3652913 4.3263509 L 1.3673584 4.3320353 C 1.4179803 4.4550404 1.5387233 4.536297 1.6717326 4.5351236 L 1.6737996 4.5351236 C 1.7571385 4.5333736 1.8362718 4.4964951 1.8923909 4.4353881 L 1.8929077 4.4348714 L 1.8934245 4.4343546 L 2.7243815 3.6612752 L 3.8865844 4.7811035 A 0.16132949 0.16132949 0 0 0 4.0157755 4.8301961 A 0.18121226 0.18121226 0 0 0 4.1821736 4.7139241 A 0.21993134 0.21993134 0 0 0 4.1248128 4.4979166 L 3.1233235 3.2907552 L 3.3770548 3.0545939 C 3.5814345 2.8706873 3.5806571 2.5458631 3.3770548 2.3610962 L 3.1352091 2.1285522 L 3.8054524 1.3410034 C 3.8670194 1.2590306 3.8960734 1.2159472 3.8669474 1.1461833 A 0.2124317 0.2124317 0 0 0 3.6819458 1.0159586 A 0.16621298 0.16621298 0 0 0 3.5579223 1.0614339 L 2.7621053 1.7709513 L 1.5311727 0.58962809 C 1.4757551 0.52625647 1.4012343 0.4824913 1.3182658 0.46663818 L 1.306897 0.46508788 L 1.2970784 0.46508788 C 1.2888784 0.46489763 1.2803867 0.46465633 1.2722737 0.46508788 z M 1.2934611 0.59789631 A 0.2464417 0.2464417 0 0 1 1.4386719 0.68471272 L 2.6634033 1.859318 L 3.0494262 2.2293213 L 3.2886881 2.4592814 A 0.33556534 0.33556534 0 0 1 3.2876546 2.9574422 L 3.0385742 3.1889526 L 2.6411824 2.7099121 L 2.6416992 2.7093953 L 2.4690999 2.5001058 L 2.2468912 2.2303548 L 1.1699544 0.92294107 C 1.1061176 0.83137586 1.0850169 0.78238195 1.1141439 0.71261799 A 0.19010718 0.19010718 0 0 1 1.2934611 0.59789631 z M 2.2437907 3.1982544 L 2.6292968 3.5698079 L 1.8019572 4.3387532 A 0.17301498 0.17301498 0 0 1 1.6712158 4.4023152 A 0.19429303 0.19429303 0 0 1 1.4898315 4.2819091 A 0.23301211 0.23301211 0 0 1 1.5461588 4.0550496 L 2.2437907 3.1982544 z " /></g></svg>
