<svg xmlns="http://www.w3.org/2000/svg" width="20" height="16" viewBox="0 0 20 16"><g id="Icons"><path id="_Compound_Path_" data-name="&lt;Compound Path&gt;" d="M2.528,2a1.335,1.335,0,0,1-.672.28H.4v.3A1.149,1.149,0,0,1,1,3.609v8.729c0,1.028-.552,1.1-.552,1.1l.011.233A26.417,26.417,0,0,0,3.7,14c3.709,0,5.15-2.291,5.15-4.631A3.729,3.729,0,0,0,5.2,5.427a3.94,3.94,0,0,0-1.336.2L2.751,7.369V2Zm6.462.273v.283c.287.013.727.392.727,1.261v8.469c0,.716-.423,1.21-.727,1.21v.276h3.533V13.5c-.265,0-.806-.28-.806-1.693V3.727a3.59,3.59,0,0,1,1.152-.14A1.828,1.828,0,0,1,14.84,5.436c0,1.679-2.3,2.259-3.055,2.259v.021A40.256,40.256,0,0,0,15.993,13.3a2.445,2.445,0,0,0,1.559.445H19.6a12.082,12.082,0,0,1-2.3-1.795,46.24,46.24,0,0,1-3.068-3.712s2.587-.7,2.587-3.182c0-1.933-1.882-2.787-3.622-2.787ZM4.514,6.922c1.422,0,2.375,1.11,2.375,2.817A2.631,2.631,0,0,1,4.07,12.547a3.44,3.44,0,0,1-1.319-.206V7.474A3.544,3.544,0,0,1,4.514,6.922Z"/></g></svg>