<svg xmlns="http://www.w3.org/2000/svg" viewBox="0 0 20 16">
  <g id="Icons">
    <path id="path22906" d="M10,0a8,8,0,1,0,8,8A8,8,0,0,0,10,0Zm0,.356A7.644,7.644,0,1,1,2.356,8,7.641,7.641,0,0,1,10,.356ZM9.583,2.79A2.2,2.2,0,0,0,7.13,4.878a1.877,1.877,0,0,0,1.963,1.91h.294c.342-.046.54-.09.687-.09.49,0,.736.463.736,1.352a4.979,4.979,0,0,1-2.8,4c-.491.266-.638.444-.638.668,0,.311.2.487.54.487a1.909,1.909,0,0,0,.737-.266A7.231,7.231,0,0,0,12.87,6.521C12.87,4.3,11.5,2.79,9.583,2.79Z"/>
  </g>
</svg>
