<svg xmlns="http://www.w3.org/2000/svg" viewBox="0 0 20 16">
  <g id="Icons">
    <path id="path7947" d="M12.349.032h0A.9.9,0,0,1,12.4.144v15.68a.135.135,0,0,1-.033.1.149.149,0,0,1-.114.048H1.226a.122.122,0,0,1-.081-.016.142.142,0,0,1-.05-.112V.128A.127.127,0,0,1,1.177,0H12.252A.175.175,0,0,1,12.349.032ZM10.821,14.321V1.663a.126.126,0,0,0-.081-.128H2.721a.127.127,0,0,0-.082.128V14.321a.127.127,0,0,0,.082.128H10.74A.126.126,0,0,0,10.821,14.321Zm7.938.128a.128.128,0,0,1,.146.144v1.263a.136.136,0,0,1-.146.144H14.013a.135.135,0,0,1-.146-.144V14.593a.135.135,0,0,1,.145-.144ZM6.978,5.882A2.923,2.923,0,0,1,9.3,6.921a.145.145,0,0,1-.016.192l-.877.767a.136.136,0,0,1-.2-.032,1.525,1.525,0,0,0-1.236-.575,1.231,1.231,0,0,0-1.251.847,3.81,3.81,0,0,0-.146,1.231A3.944,3.944,0,0,0,5.726,10.6a1.227,1.227,0,0,0,1.252.863,1.543,1.543,0,0,0,1.236-.575.134.134,0,0,1,.2-.016l.877.767c.065.048.049.128.016.192a2.959,2.959,0,0,1-2.324,1.023,2.7,2.7,0,0,1-2.762-1.838A5,5,0,0,1,4,9.367,5.054,5.054,0,0,1,4.215,7.72,2.705,2.705,0,0,1,6.979,5.882Z"/>
  </g>
</svg>
