<svg xmlns="http://www.w3.org/2000/svg" width="20" height="16" viewBox="0 0 20 16"><g id="Icons"><path d="M16.434,3.505,10.676.181a1.354,1.354,0,0,0-1.352,0L3.566,3.505a1.353,1.353,0,0,0-.675,1.171v6.648A1.353,1.353,0,0,0,3.566,12.5l5.758,3.324a1.354,1.354,0,0,0,1.352,0L16.434,12.5a1.353,1.353,0,0,0,.675-1.171V4.676A1.353,1.353,0,0,0,16.434,3.505ZM10,12.74a4.74,4.74,0,0,1,0-9.48h0a4.742,4.742,0,0,1,4.1,2.37l-2.05,1.186v0A2.369,2.369,0,0,0,7.63,8h0a2.369,2.369,0,0,0,4.423,1.18v0L14.1,10.37A4.741,4.741,0,0,1,10,12.74Zm4.739-4.477h-.526V8.79h-.527V8.263H13.16V7.737h.526V7.21h.527v.527h.526Zm1.975,0h-.526V8.79h-.527V8.263h-.527V7.737h.527V7.21h.527v.527h.526Z"/></g></svg>