<svg xmlns="http://www.w3.org/2000/svg" width="20" height="16" viewBox="0 0 20 16"><g id="Icons"><path d="M14.142,7.75h.5v.5h-.5Zm2.967-3.074v6.648a1.353,1.353,0,0,1-.675,1.171l-5.758,3.324a1.354,1.354,0,0,1-1.352,0L3.566,12.5a1.353,1.353,0,0,1-.675-1.171V4.676a1.353,1.353,0,0,1,.675-1.171L9.324.181a1.354,1.354,0,0,1,1.352,0l5.758,3.324A1.353,1.353,0,0,1,17.109,4.676ZM14.1,10.37l-2.05-1.186v0A2.369,2.369,0,0,1,7.63,8h0a2.369,2.369,0,0,1,4.423-1.18v0L14.1,5.63A4.742,4.742,0,0,0,10,3.26h0a4.74,4.74,0,1,0,4.1,7.11Zm1.448-3.12h-.409V6.842h-.5V7.25h-.5V6.842h-.5V7.25h-.408v.5h.408v.5h-.408v.5h.408v.408h.5V8.75h.5v.408h.5V8.75h.409v-.5h-.409v-.5h.409Z"/></g></svg>