<svg xmlns="http://www.w3.org/2000/svg" viewBox="0 0 20 16">
  <g id="Icons">
    <path d="M14.788,10.9l1.277-.6a.487.487,0,0,0,.265-.568L14.7,3.636a.487.487,0,0,0-.6-.348.435.435,0,0,0-.083.03L9.976,5.208l.445,1.653h0l.791,2.926a.489.489,0,0,1-.266.571l-.93.434.41,1.52h0l.1.371a.5.5,0,0,0,.223.293l4.989,2.989a.222.222,0,0,0,.333-.251L14.788,10.9h0M5.212,5.1l-1.278.6a.487.487,0,0,0-.264.568l1.626,6.1a.488.488,0,0,0,.6.347.573.573,0,0,0,.082-.03l4.047-1.89L9.577,9.138h0l-.8-2.925a.489.489,0,0,1,.266-.571l.93-.434L9.569,3.689h0l-.1-.372a.5.5,0,0,0-.222-.293L4.26.035a.222.222,0,0,0-.333.251L5.212,5.1h0"/>
  </g>
</svg>
