<svg xmlns="http://www.w3.org/2000/svg" width="20" height="16" viewBox="0 0 20 16"><g id="Icons"><path d="M11.255,8.453c-.265,0,.05.137.4.19.1-.074.182-.15.26-.223a1.979,1.979,0,0,1-.656.033M12.678,8.1a1.676,1.676,0,0,0,.313-.7,1.722,1.722,0,0,1-.22.488c-.5.312-.047-.185,0-.374-.533.671-.073.4-.092.59M13.2,6.732c.032-.478-.094-.327-.136-.144.049.025.088.336.136.144M10.25.206c.141.026.3.045.282.079.155-.034.19-.065-.282-.079m.282.079-.1.021L10.525.3l.007-.012m4.412,6.628a2.345,2.345,0,0,1-.253,1l-.229.114c-.187.364.018.232-.116.521a6.308,6.308,0,0,1-1.079.865c-.139,0,.1-.164.125-.227-.392.269-.314.4-.914.567l-.017-.039a2.669,2.669,0,0,1-3.5-2.563c-.016.12-.045.09-.078.138a2.369,2.369,0,0,1,1.329-2.336,2.242,2.242,0,0,1,2.492.325,2.22,2.22,0,0,0-1.816-.872A2.052,2.052,0,0,0,9.121,5.463c-.4.253-.448.975-.624,1.107-.235,1.732.444,2.48,1.592,3.36.181.122.051.14.075.233a3.11,3.11,0,0,1-1.018-.778,2.734,2.734,0,0,0,.53.61c-.36-.122-.841-.872-.981-.9.62,1.11,2.516,1.947,3.509,1.532a4.136,4.136,0,0,1-1.559-.182c-.217-.111-.512-.342-.459-.385A3.87,3.87,0,0,0,14.112,9.5c.3-.232.624-.627.718-.633-.142.214.024.1-.085.291.3-.479-.129-.2.308-.827l.161.222c-.06-.4.494-.881.437-1.51.127-.193.142.207.007.649.187-.491.05-.57.1-.975a3.649,3.649,0,0,1,.155.425A1.869,1.869,0,0,1,16.1,6.068c-.06-.027-.188.21-.217-.351,0-.243.067-.127.092-.187a1.081,1.081,0,0,1-.25-.572c.056-.084.148.218.223.23a5.7,5.7,0,0,1-.135-.72c-.22-.459-.077.062-.256-.2-.234-.73.194-.169.223-.5a5.859,5.859,0,0,1,.65,1.64A6.72,6.72,0,0,0,16.1,4.241c.108.046-.174-.827.14-.249A5.208,5.208,0,0,0,13.8,1.068c.124.113.28.255.224.278-.5-.3-.414-.323-.486-.449-.41-.167-.437.013-.708,0A8.375,8.375,0,0,0,11.2.275l.032.151c-.511-.17-.6.064-1.148,0-.034-.026.177-.095.351-.12-.495.065-.472-.1-.955.018A3.991,3.991,0,0,1,9.85.114c-.4.025-.962.235-.789.044A9.293,9.293,0,0,0,6.58,1.477l-.02-.138c-.3.361-1.31,1.077-1.39,1.544L5.09,2.9a8.809,8.809,0,0,0-.381.837c-.205.348-.3.134-.271.188a12.788,12.788,0,0,0-.774,2.061,11.858,11.858,0,0,1,.05,1.844,8.235,8.235,0,0,0,5.574,8A6.071,6.071,0,0,0,10.947,16c-.66-.189-.745-.1-1.388-.324-.463-.218-.565-.468-.894-.753l.13.23c-.644-.228-.374-.282-.9-.448l.139-.182a1.187,1.187,0,0,1-.647-.537L7.16,14c-.274-.339-.42-.583-.41-.772l-.074.131c-.083-.143-1.009-1.269-.529-1.007a1.084,1.084,0,0,1-.336-.367l.1-.112a1.853,1.853,0,0,1-.41-.8.528.528,0,0,0,.293.226c-.583-1.449-.616-.08-1.058-1.475l.093-.007a3.1,3.1,0,0,1-.173-.34l.041-.406c-.42-.486-.118-2.067-.057-2.933a8.386,8.386,0,0,1,.586-1.316L5.08,4.787c.273-.477,1.561-1.916,2.158-1.842.289-.363-.057,0-.114-.093.635-.657.835-.464,1.263-.582.462-.274-.4.107-.177-.1.8-.2.566-.464,1.608-.567.11.062-.255.1-.347.178a4.294,4.294,0,0,1,3.042.18,4.456,4.456,0,0,1,2.353,3.419l.055.014A6.582,6.582,0,0,1,14.81,7.2l.134-.282m-6.583,1.9L8.324,9a3.531,3.531,0,0,0,.535.678c-.16-.312-.279-.441-.5-.864M8.773,8.8a1.487,1.487,0,0,1-.208-.347,2.42,2.42,0,0,0,.29.588L8.773,8.8m7.289-1.584-.039.1a4.734,4.734,0,0,1-.462,1.475,4.64,4.64,0,0,0,.5-1.572M10.3.079A5.815,5.815,0,0,1,10.933,0c-.248.021-.495.033-.738.065L10.3.079M4.009,3.426c.041.382-.288.53.073.278.193-.435-.076-.12-.073-.278M3.585,5.2a4.231,4.231,0,0,0,.13-.555c-.23.293-.106.356-.13.555"/></g></svg>