<svg xmlns="http://www.w3.org/2000/svg" width="20" height="16" viewBox="0 0 20 16"><g id="Icons"><path d="M16.219,3.718h0a6,6,0,0,0-1.553-1.959l-.255-.211-.3.359A7.2,7.2,0,0,0,12.62.849a7.486,7.486,0,0,0-2.485-.8L9.808,0,9.717.655,10.044.7A6.175,6.175,0,0,0,4.68,2.947L4.471,3.2l.548.417a6.963,6.963,0,0,0-.7,1.313l-.612-.2-.1.316A9.683,9.683,0,0,0,4.154,12.3l.146.3.594-.293-.045-.091a8.058,8.058,0,0,0,1.8,2.185l.251.216L7.25,14.2a7.653,7.653,0,0,0,4.076,1.759l.329.038.056-.484a11.4,11.4,0,0,0,2.451.239l.331,0-.007-.662-.331,0a10.733,10.733,0,0,1-5.488-1.44l-.287-.166h0l-.3.523A7.458,7.458,0,0,1,5.161,9.259h0a7.663,7.663,0,0,1,1.02-5.2l.174-.282-.419-.257c.045-.051.09-.1.136-.149A4.9,4.9,0,0,1,8.618,1.937a4.4,4.4,0,0,1,2.167.119,4.546,4.546,0,0,1,1.889,1.131l.228.239.479-.457-.07-.073a5.407,5.407,0,0,1,.61.7,5.493,5.493,0,0,1,.967,3.436l-.011.33.581.02a4.662,4.662,0,0,1-1.292,2.473l-.337-.463-.267.2a3.879,3.879,0,0,1-3.052.642,3.589,3.589,0,0,1-.983-.37l.321-.51-.28-.176a2.1,2.1,0,0,1-.932-1.4A2.047,2.047,0,0,1,8.7,6.822l.627.251.125-.306a1.3,1.3,0,0,1,.391-.519h0a1.285,1.285,0,0,1,1.775.172,1.284,1.284,0,0,1-.166,1.833l-.257.209.417.513.257-.208a1.946,1.946,0,0,0,.252-2.777c-.014-.017-.029-.033-.044-.05l.364-.469-.262-.2a2.561,2.561,0,0,0-1.47-.5h0a2.641,2.641,0,0,0-1.458.362l-.328-.447-.267.195A3.37,3.37,0,0,0,7.6,6.3a3.16,3.16,0,0,0-.178,1.731A3.24,3.24,0,0,0,7.8,9.063l-.4.247.174.282a4.377,4.377,0,0,0,3.561,1.963A4.625,4.625,0,0,0,14.555,10.4h0q.145-.136.279-.285-.15.178-.316.344l-.234.233.468.469.234-.234a6.4,6.4,0,0,0,1.787-3.5A6.212,6.212,0,0,0,16.219,3.718Zm-7.443,2.9,0,0c.018-.042.038-.084.06-.125l-.015.035C8.807,6.557,8.791,6.588,8.776,6.619Zm6.749-.448A6.549,6.549,0,0,0,15.3,4.944,5.362,5.362,0,0,1,15.525,6.171Z"/></g></svg>