<svg xmlns="http://www.w3.org/2000/svg" viewBox="0 0 20 16">
  <defs>
    <style>
      .cls-1 {
        fill-rule: evenodd;
      }
    </style>
  </defs>
  <g id="Icons">
    <path id="path8849" class="cls-1" d="M10,16a7.791,7.791,0,0,1-4.377-1.348,7.965,7.965,0,0,1-2.9-3.59,8.094,8.094,0,0,1,1.708-8.72A7.816,7.816,0,0,1,16.552,3.555a8.094,8.094,0,0,1-.98,10.1A7.823,7.823,0,0,1,10,16Zm.059-3.2a6.04,6.04,0,0,0,5.926-6.145A6.038,6.038,0,0,0,10.059.512,6.039,6.039,0,0,0,4.134,6.655,6.041,6.041,0,0,0,10.06,12.8ZM10,11.392A5.352,5.352,0,0,1,4.609,6.08a5.392,5.392,0,0,1,10.782,0A5.352,5.352,0,0,1,10,11.392ZM9.886,9.215a4.027,4.027,0,0,0,4.086-3.967A4.036,4.036,0,0,0,9.885,1.279,4.034,4.034,0,0,0,5.8,5.248,4.033,4.033,0,0,0,9.885,9.215Zm.059-.767a3.336,3.336,0,0,1-3.2-3.457,3.333,3.333,0,0,1,3.2-3.457,3.336,3.336,0,0,1,3.2,3.457,3.335,3.335,0,0,1-3.2,3.457Zm-.06-3.032a1.727,1.727,0,0,0,.968-.3,1.761,1.761,0,0,0,.642-.795,1.794,1.794,0,0,0-.377-1.929,1.738,1.738,0,0,0-.893-.484,1.72,1.72,0,0,0-1.007.1,1.754,1.754,0,0,0-.783.652A1.79,1.79,0,0,0,8.653,4.9a1.736,1.736,0,0,0,1.232.52Z"/>
  </g>
</svg>
