<svg xmlns="http://www.w3.org/2000/svg" viewBox="0 0 20 16">
  <g id="Icons">
    <path d="M16,2H4A2,2,0,0,0,2,4v8a2,2,0,0,0,2,2H16a2,2,0,0,0,2-2V4A2,2,0,0,0,16,2ZM10.29,9.856a.626.626,0,1,1-1.252,0V8.174l-.626,1c-.175.278-.335.386-.567.386s-.394-.108-.569-.386l-.626-1V9.856a.626.626,0,1,1-1.252,0v-3.7a.619.619,0,0,1,.626-.648c.255,0,.43.123.634.458L7.845,7.877,9.031,5.969c.2-.335.378-.458.633-.458a.618.618,0,0,1,.626.648Zm2.551.633a2.4,2.4,0,0,1-1.507-.531.709.709,0,0,1-.255-.509A.559.559,0,0,1,11.64,8.9a.512.512,0,0,1,.283.088,1.447,1.447,0,0,0,.918.407c.334,0,.494-.116.494-.349s-.152-.3-.487-.444l-.5-.219c-.764-.334-1.215-.771-1.215-1.448a1.5,1.5,0,0,1,1.68-1.419,1.693,1.693,0,0,1,1.369.553.551.551,0,0,1,.145.371.575.575,0,0,1-.56.561.531.531,0,0,1-.32-.11.949.949,0,0,0-.619-.276c-.247,0-.43.087-.43.306,0,.181.118.269.415.392l.554.234c.8.335,1.23.742,1.23,1.448A1.563,1.563,0,0,1,12.841,10.489Z"/>
  </g>
</svg>
