<svg xmlns="http://www.w3.org/2000/svg" viewBox="0 0 20 16">
  <g id="Icons">
    <path d="M12.941,7.378l.488,1.4h-.976ZM18,4v8a2,2,0,0,1-2,2H4a2,2,0,0,1-2-2V4A2,2,0,0,1,4,2H16A2,2,0,0,1,18,4ZM10.07,6.163a.618.618,0,0,0-.626-.648c-.255,0-.429.123-.633.458L7.625,7.88,6.438,5.973c-.2-.335-.378-.458-.633-.458a.618.618,0,0,0-.626.648v3.7a.626.626,0,1,0,1.252,0V8.178l.626,1c.174.278.335.386.568.386s.393-.108.567-.386l.626-1V9.86a.626.626,0,1,0,1.252,0ZM15.11,9.9a.858.858,0,0,0-.066-.306L13.538,5.929a.637.637,0,0,0-1.194,0L10.838,9.59a.858.858,0,0,0-.066.306.591.591,0,0,0,.619.6.618.618,0,0,0,.589-.451l.1-.255H13.8l.1.255a.619.619,0,0,0,.59.451A.591.591,0,0,0,15.11,9.9Z"/>
  </g>
</svg>
