<svg xmlns="http://www.w3.org/2000/svg" viewBox="0 0 20 16">
  <g id="Icons">
    <path d="M13.969,7.986a1.247,1.247,0,0,1-1.347,1.288h-.415V6.734h.415A1.2,1.2,0,0,1,13.969,7.986ZM18,4v8a2,2,0,0,1-2,2H4a2,2,0,0,1-2-2V4A2,2,0,0,1,4,2H16A2,2,0,0,1,18,4ZM10.013,6.159a.618.618,0,0,0-.626-.648c-.254,0-.429.123-.632.458L7.568,7.876,6.382,5.969c-.205-.335-.379-.458-.634-.458a.619.619,0,0,0-.626.648v3.7a.626.626,0,1,0,1.252,0V8.174l.626,1c.175.278.335.386.568.386s.393-.108.567-.386l.626-1V9.856a.626.626,0,1,0,1.252,0ZM15.25,7.986A2.4,2.4,0,0,0,12.63,5.6H11.589a.616.616,0,0,0-.634.633V9.769a.616.616,0,0,0,.634.633H12.63A2.429,2.429,0,0,0,15.25,7.986Z"/>
  </g>
</svg>
