<svg xmlns="http://www.w3.org/2000/svg" viewBox="0 0 20 16">
  <g id="Icons">
    <path d="M10.483,7.5h-.451V6.654h.451a.426.426,0,1,1,0,.844ZM14.73,8.779h.976l-.487-1.4ZM10.993,8.5h-.961v.844h.961c.306,0,.48-.152.48-.422S11.3,8.5,10.993,8.5ZM19,4v8a2,2,0,0,1-2,2H3a2,2,0,0,1-2-2V4A2,2,0,0,1,3,2H17A2,2,0,0,1,19,4ZM7.889,6.159a.618.618,0,0,0-.626-.648c-.254,0-.429.123-.632.458L5.444,7.876,4.258,5.969c-.2-.335-.379-.458-.634-.458A.619.619,0,0,0,3,6.159v3.7a.626.626,0,1,0,1.252,0V8.174l.626,1c.175.278.335.386.568.386s.393-.108.568-.386l.626-1V9.856a.626.626,0,1,0,1.251,0ZM12.7,8.975a1.19,1.19,0,0,0-.8-1.149,1.183,1.183,0,0,0,.291-.809A1.473,1.473,0,0,0,10.563,5.6h-1.1a.616.616,0,0,0-.634.633V9.769a.616.616,0,0,0,.634.633h1.608A1.483,1.483,0,0,0,12.7,8.975Zm4.692.917a.862.862,0,0,0-.067-.306L15.815,5.925a.637.637,0,0,0-1.194,0L13.115,9.586a.858.858,0,0,0-.066.306.591.591,0,0,0,.619.6.62.62,0,0,0,.59-.451l.1-.255h1.718l.1.255a.618.618,0,0,0,.589.451A.592.592,0,0,0,17.388,9.892Z"/>
  </g>
</svg>
