<svg xmlns="http://www.w3.org/2000/svg" viewBox="0 0 20 16">
  <g id="Icons">
    <path d="M7.7,7.5H7.251V6.654H7.7a.426.426,0,1,1,0,.844Zm.51,1H7.251v.843h.961c.306,0,.48-.152.48-.422S8.518,8.5,8.212,8.5ZM18,4v8a2,2,0,0,1-2,2H4a2,2,0,0,1-2-2V4A2,2,0,0,1,4,2H16A2,2,0,0,1,18,4ZM9.915,8.975a1.19,1.19,0,0,0-.8-1.149A1.183,1.183,0,0,0,9.4,7.017,1.473,1.473,0,0,0,7.782,5.6h-1.1a.616.616,0,0,0-.634.633V9.769a.616.616,0,0,0,.634.633H8.292A1.483,1.483,0,0,0,9.915,8.975Zm4.035.015c0-.706-.429-1.113-1.229-1.448l-.554-.234c-.3-.123-.415-.211-.415-.392,0-.219.183-.306.43-.306a.949.949,0,0,1,.619.276.529.529,0,0,0,.32.11.576.576,0,0,0,.56-.561.548.548,0,0,0-.146-.371,1.689,1.689,0,0,0-1.368-.553A1.5,1.5,0,0,0,10.486,6.93c0,.677.452,1.114,1.215,1.448L12.2,8.6c.335.146.488.218.488.444s-.161.349-.495.349a1.453,1.453,0,0,1-.918-.407.507.507,0,0,0-.283-.088.558.558,0,0,0-.56.554.7.7,0,0,0,.255.509,2.4,2.4,0,0,0,1.506.531A1.562,1.562,0,0,0,13.95,8.99Z"/>
  </g>
</svg>
