<svg xmlns="http://www.w3.org/2000/svg" viewBox="0 0 20 16">
  <g id="Icons">
    <path d="M17,2H3A2,2,0,0,0,1,4v8a2,2,0,0,0,2,2H17a2,2,0,0,0,2-2V4A2,2,0,0,0,17,2ZM5.109,8.91H4.476v.946a.626.626,0,1,1-1.252,0V6.231A.616.616,0,0,1,3.857,5.6H5.109A1.678,1.678,0,0,1,6.965,7.25,1.7,1.7,0,0,1,5.109,8.91Zm6.781.931a.626.626,0,1,1-1.252,0V8.48H8.883V9.841a.626.626,0,1,1-1.252,0V6.159a.626.626,0,1,1,1.252,0V7.352h1.755V6.144a.626.626,0,1,1,1.252,0Zm2.616.561H13.465a.617.617,0,0,1-.634-.633V6.231a.617.617,0,0,1,.634-.633h1.041a2.4,2.4,0,0,1,2.62,2.388A2.429,2.429,0,0,1,14.506,10.4Zm1.339-2.416A1.246,1.246,0,0,1,14.5,9.274h-.415V6.734H14.5A1.2,1.2,0,0,1,15.845,7.986ZM5.691,7.25a.537.537,0,0,1-.575.568h-.64V6.69h.64A.535.535,0,0,1,5.691,7.25Z"/>
  </g>
</svg>
