<svg id="ICONS_HERE_" data-name="ICONS HERE!" xmlns="http://www.w3.org/2000/svg" viewBox="0 0 20 16"><path id="devto" d="M6.773,6.5a.747.747,0,0,0-.4-.1h-.6V9.7h.5a.747.747,0,0,0,.4-.1.521.521,0,0,0,.2-.4V6.9C6.872,6.7,6.872,6.6,6.773,6.5ZM15.511,1H4.39A1.362,1.362,0,0,0,3,2.4V13.7A1.342,1.342,0,0,0,4.39,15H15.61A1.362,1.362,0,0,0,17,13.6V2.4A1.513,1.513,0,0,0,15.511,1ZM7.766,9.1a1.455,1.455,0,0,1-1.489,1.5H4.887V5.4H6.376A1.455,1.455,0,0,1,7.865,6.9Zm3.177-2.8H9.255V7.5h.993v.9H9.255V9.6h1.688v.9H8.957a.643.643,0,0,1-.6-.6V6.1a.643.643,0,0,1,.6-.6h1.986Zm3.178,3.6c-.4,1-1.192.8-1.49,0L11.44,5.4h.993L13.326,9l.894-3.6h.993Z"/></svg>