<svg xmlns="http://www.w3.org/2000/svg" viewBox="0 0 20 16">
  <g id="Icons">
    <path d="M6.754,6.509a.6.6,0,0,0-.364-.136H5.845V9.638H6.39A.611.611,0,0,0,6.754,9.5a.478.478,0,0,0,.182-.408V6.917a.478.478,0,0,0-.182-.408ZM15.628,1H4.372A1.372,1.372,0,0,0,3,2.369V13.631A1.372,1.372,0,0,0,4.372,15H15.628A1.372,1.372,0,0,0,17,13.631V2.369A1.372,1.372,0,0,0,15.628,1ZM7.819,9.1a1.427,1.427,0,0,1-1.512,1.476H4.857V5.406H6.338a1.426,1.426,0,0,1,1.48,1.477V9.1Zm3.146-2.771H9.3v1.2h1.018v.924H9.3v1.2h1.665v.924H9.022a.63.63,0,0,1-.647-.615V6.053a.631.631,0,0,1,.616-.646h1.974v.922Zm3.239,3.6c-.413.961-1.152.77-1.483,0l-1.2-4.525h1.018l.928,3.554.925-3.554h1.018L14.2,9.932Z"/>
  </g>
</svg>
