<svg id="ICONS_HERE_" data-name="ICONS HERE!" xmlns="http://www.w3.org/2000/svg" viewBox="0 0 20 16"><path id="doi" d="M10,0A8.024,8.024,0,0,0,2,8H2a8,8,0,1,0,8-8ZM6.6,3H8.1v7.4H6.6V9.8c-.1.2-.5.4-.6.5a1.645,1.645,0,0,1-1,.2,2.2,2.2,0,0,1-1.5-.6A2.56,2.56,0,0,1,2.7,8a2.2,2.2,0,0,1,.8-1.8A3.168,3.168,0,0,1,5,5.6a1.8,1.8,0,0,1,1,.2c.2.1.5.2.6.4Zm8.5.1a.713.713,0,0,1,.6.3A.864.864,0,0,1,16,4a.713.713,0,0,1-.3.6.864.864,0,0,1-.6.3.713.713,0,0,1-.6-.3.864.864,0,0,1-.3-.6.713.713,0,0,1,.3-.6A.6.6,0,0,1,15.1,3.1ZM11.2,5.6a2.542,2.542,0,0,1,2.6,2.6,2.523,2.523,0,0,1-.6,1.7,2.583,2.583,0,0,1-2.1.9A2.583,2.583,0,0,1,9,9.9a2.523,2.523,0,0,1-.6-1.7A2.271,2.271,0,0,1,9,6.6,2.254,2.254,0,0,1,11.2,5.6Zm3.1.1h1.6v4.7H14.3ZM5.5,6.9a1.02,1.02,0,0,0-.8.5.952.952,0,0,0-.2.7,1.08,1.08,0,0,0,.3.7,1.012,1.012,0,0,0,.7.4,1.135,1.135,0,0,0,.8-.3,1.234,1.234,0,0,0,.4-.8,1.135,1.135,0,0,0-.3-.8A1.8,1.8,0,0,0,5.5,6.9Zm5.6.1a.909.909,0,0,0-.8.4.844.844,0,0,0-.2.7,1.445,1.445,0,0,0,.2.7.985.985,0,0,0,1.5.1,1.217,1.217,0,0,0,0-1.6.908.908,0,0,0-.7-.3Z"/></svg>