<svg xmlns="http://www.w3.org/2000/svg" viewBox="0 0 20 16">
  <g id="Icons">
    <path d="M6.312,7.294a1.184,1.184,0,0,1,.275.814,1.243,1.243,0,0,1-.363.808,1.233,1.233,0,0,1-.819.315.918.918,0,0,1-.729-.4,1.139,1.139,0,0,1-.256-.713,1.188,1.188,0,0,1,.245-.734,1.151,1.151,0,0,1,.806-.465A1.358,1.358,0,0,1,6.312,7.294ZM11.1,7a.973.973,0,0,0-.8.385,1.127,1.127,0,0,0,0,1.413.974.974,0,0,0,.8.386.987.987,0,0,0,.74-.315,1.089,1.089,0,0,0,.3-.78,1.059,1.059,0,0,0-.307-.77A.979.979,0,0,0,11.1,7ZM18,8a8,8,0,1,1-8-8A8,8,0,0,1,18,8ZM8.1,3.047H6.621V6.224A2.492,2.492,0,0,0,6,5.791a2.411,2.411,0,0,0-.986-.163,2.344,2.344,0,0,0-1.476.651A2.286,2.286,0,0,0,2.75,8.1,2.478,2.478,0,0,0,3.507,10a2.158,2.158,0,0,0,1.479.556,2.088,2.088,0,0,0,.977-.249,2.557,2.557,0,0,0,.658-.467v.6H8.1Zm5.682,5.039a2.437,2.437,0,0,0-.615-1.666,2.553,2.553,0,0,0-2.017-.857,2.654,2.654,0,0,0-2.117.857A2.408,2.408,0,0,0,8.42,8.046a2.524,2.524,0,0,0,.61,1.717,2.6,2.6,0,0,0,2.074.851,2.6,2.6,0,0,0,2.07-.851A2.468,2.468,0,0,0,13.784,8.086Zm.386-4.125a.868.868,0,0,0,.254.629.887.887,0,0,0,1.518-.629.839.839,0,0,0-.26-.624.883.883,0,0,0-1.512.624Zm1.671,1.776H14.266v4.7h1.575Z"/>
  </g>
</svg>
