<svg xmlns="http://www.w3.org/2000/svg" width="20" height="16" viewBox="0 0 20 16"><g id="Icons"><path d="M3,1V15H17V1ZM5.75,9.845a.355.355,0,0,1-.255.1.351.351,0,0,1-.252-.1.326.326,0,0,1-.1-.241.33.33,0,0,1,.1-.243.346.346,0,0,1,.252-.1.349.349,0,0,1,.255.1.326.326,0,0,1,.107.243A.321.321,0,0,1,5.75,9.845Zm3.7.044H8.809L7.114,7.214A1.187,1.187,0,0,1,7.007,7H6.993a3.912,3.912,0,0,1,.019.5V9.889H6.443V6.25h.686L8.767,8.861c.069.108.114.183.134.223h.01A3.221,3.221,0,0,1,8.886,8.6V6.25h.566Zm2.772,0H10.232V6.25h1.913v.513H10.821v1.03h1.22V8.3h-1.22V9.379h1.4Zm2.832-3.126h-1.02V9.889h-.589V6.763H12.43V6.25h2.626Z"/></g></svg>