<svg xmlns="http://www.w3.org/2000/svg" viewBox="0 0 20 16">
  <g id="Icons">
    <path id="path2785" d="M1.856,2.38,0,11.246H9.461L8.943,13.62H18l2-9.4H12.787l.385-1.842Zm9.1,1.212h.75l-1.366,6.442H9.622l.133-.63h-.07a1.811,1.811,0,0,1-1.45.707,1.571,1.571,0,0,1-.651-.133,1.555,1.555,0,0,1-.532-.371,1.779,1.779,0,0,1-.364-.588,2.1,2.1,0,0,1-.133-.777,3.655,3.655,0,0,1,.084-.792,3.17,3.17,0,0,1,.238-.7,2.575,2.575,0,0,1,.371-.581,2.345,2.345,0,0,1,.476-.441,1.976,1.976,0,0,1,.567-.281,2.164,2.164,0,0,1,.638-.1,1.463,1.463,0,0,1,.469.07,1.805,1.805,0,0,1,.406.19,1.571,1.571,0,0,1,.315.294,1.277,1.277,0,0,1,.189.378h.07ZM4.377,5.342a1.792,1.792,0,0,1,.672.126,1.647,1.647,0,0,1,.938.946,2.165,2.165,0,0,1,.14.8,1.351,1.351,0,0,1-.007.161,1.716,1.716,0,0,1-.014.189,1.716,1.716,0,0,0-.014.189c-.007.063-.014.112-.021.154H2.752c0,.042-.007.077-.007.113V8.13a1.521,1.521,0,0,0,.1.6,1.138,1.138,0,0,0,.266.406,1.033,1.033,0,0,0,.371.231,1.225,1.225,0,0,0,.414.07,1.467,1.467,0,0,0,.735-.161,1.028,1.028,0,0,0,.42-.427H5.84a1.548,1.548,0,0,1-.238.5,1.633,1.633,0,0,1-.42.4,2.06,2.06,0,0,1-.588.266,2.705,2.705,0,0,1-.735.1,2.1,2.1,0,0,1-.729-.126,1.679,1.679,0,0,1-.595-.371,1.741,1.741,0,0,1-.4-.6,2.148,2.148,0,0,1-.147-.826,3.586,3.586,0,0,1,.175-1.163,2.584,2.584,0,0,1,.5-.9,2.191,2.191,0,0,1,.756-.581,2.153,2.153,0,0,1,.96-.2Zm7.8.091h1.688l.959,2.255h.091l1.821-2.255H18.4L15.42,8.872l1.6,3.536h-1.66l-1.085-2.374h-.133l-2,2.374H10.5l3.123-3.7Zm-7.864.554a1.456,1.456,0,0,0-.5.091,1.463,1.463,0,0,0-.421.266,1.593,1.593,0,0,0-.322.413,2.478,2.478,0,0,0-.217.539h2.5c0-.014.007-.042.007-.077V7.107A1.4,1.4,0,0,0,5.3,6.68a1.109,1.109,0,0,0-.2-.357.965.965,0,0,0-.329-.245,1.208,1.208,0,0,0-.462-.091ZM8.985,6a1.408,1.408,0,0,0-.659.161A1.58,1.58,0,0,0,7.8,6.6a2.184,2.184,0,0,0-.35.672,2.768,2.768,0,0,0-.126.855,1.6,1.6,0,0,0,.084.532,1.352,1.352,0,0,0,.231.42A.957.957,0,0,0,8,9.348a1.123,1.123,0,0,0,.469.1,1.364,1.364,0,0,0,.666-.168,1.749,1.749,0,0,0,.532-.462,2.361,2.361,0,0,0,.357-.686,2.81,2.81,0,0,0,.126-.855,1.6,1.6,0,0,0-.084-.532,1.245,1.245,0,0,0-.231-.4.947.947,0,0,0-.364-.252A1.291,1.291,0,0,0,8.985,6Z"/>
  </g>
</svg>
