<svg xmlns="http://www.w3.org/2000/svg" viewBox="0 0 20 16">
  <g id="Icons">
    <path id="use13495" d="M4.155,2c-.263,0-.654.278-1.117.8a6.864,6.864,0,0,0-1.931,5.02A7.625,7.625,0,0,0,2.8,12.878C3.383,13.619,3.83,14,4.155,14a.42.42,0,0,0,.263-.124.518.518,0,0,0,.118-.262c0-.175-.123-.381-.411-.639A6.816,6.816,0,0,1,2.014,7.823,6.412,6.412,0,0,1,4.037,3c.324-.329.5-.529.5-.678a.341.341,0,0,0-.118-.233A.461.461,0,0,0,4.155,2ZM15.846,2a.477.477,0,0,0-.263.087.368.368,0,0,0-.123.232c0,.149.175.355.5.684a6.378,6.378,0,0,1,2.029,4.815,6.78,6.78,0,0,1-2.111,5.152c-.294.263-.412.469-.412.644a.556.556,0,0,0,.118.262.414.414,0,0,0,.263.119c.319,0,.772-.376,1.359-1.117a7.628,7.628,0,0,0,1.688-5.055,6.867,6.867,0,0,0-1.93-5.02c-.463-.53-.855-.8-1.117-.8Zm-6.461.664s.484,1.545-1.961,4.989A3.576,3.576,0,0,0,8.443,13.1c-.291-.212-1.35-1.235.339-3.992a18.1,18.1,0,0,0,1.36-2.255,3.143,3.143,0,0,1,.237,2.224c-.386,2.3,1.683,1.642,1.713,1.673.726.85-.6,2.348-.678,2.394s3.778-2.316,1.034-5.878c-.185.185-.427,1.069-.937.936s1.575-2.59-2.126-5.534Z"/>
  </g>
</svg>
