<svg xmlns="http://www.w3.org/2000/svg" width="20" height="16" viewBox="0 0 20 16"><g id="Icons"><path id="_Compound_Path_" data-name="&lt;Compound Path&gt;" d="M18.031,6.334l-.023-.06L15.746.372a.589.589,0,0,0-.232-.28.606.606,0,0,0-.692.037.606.606,0,0,0-.2.305L13.094,5.105H6.911L5.384.434a.588.588,0,0,0-.2-.306A.606.606,0,0,0,4.491.091a.594.594,0,0,0-.232.28l-2.266,5.9L1.97,6.33a4.2,4.2,0,0,0,1.393,4.854l.008.006.021.014,3.445,2.58,1.7,1.29,1.038.784a.7.7,0,0,0,.844,0l1.039-.784,1.7-1.29,3.465-2.6.009-.007A4.2,4.2,0,0,0,18.031,6.334Z"/></g></svg>