<svg xmlns="http://www.w3.org/2000/svg" width="20" height="16" viewBox="0 0 20 16"><g id="Icons"><path id="_Compound_Path_" data-name="&lt;Compound Path&gt;" d="M16,0H8.336v4.34h.075a2.435,2.435,0,0,1,2.36-.889c1.313.078,2.595.878,2.681,3.427v5.036a.191.191,0,0,1-.191.187H11.854a.192.192,0,0,1-.192-.187V7.031c0-1.188-.388-2.076-1.564-2.076a1.732,1.732,0,0,0-1.764,1.7q0,.074,0,.147v5.114a.191.191,0,0,1-.191.187H6.739a.192.192,0,0,1-.192-.187V0H4.113A1.019,1.019,0,0,0,3.052.974v14A1.065,1.065,0,0,0,4.113,16H16a.973.973,0,0,0,.953-.992l0-.037v-14A.924.924,0,0,0,16.07,0,.626.626,0,0,0,16,0ZM14.3,13.956H5.694V13.1H14.3Z"/></g></svg>