<svg xmlns="http://www.w3.org/2000/svg" width="20" height="16" viewBox="0 0 20 16"><g id="Icons"><path d="M14.529,3.552a1.7,1.7,0,0,1-.108-2.276,8.067,8.067,0,0,1,2.366,2.41,1.67,1.67,0,0,1-1.054.369h-.006A1.692,1.692,0,0,1,14.529,3.552ZM17.5,7.22h.024c.159,0,.317-.006.473-.018a8.126,8.126,0,0,0-.377-1.773,4.846,4.846,0,0,1-3.525-1.4A4.706,4.706,0,0,1,12.7.662c0-.084,0-.165.006-.246A8.028,8.028,0,0,0,10.945,0q-.032.324-.036.653a6.456,6.456,0,0,0,1.925,4.635A6.613,6.613,0,0,0,17.5,7.22ZM12.4,5.762a14.133,14.133,0,0,1-3.15-4.717Q9.046.538,8.882.021a8.253,8.253,0,0,0-1.737.44c.131.422.281.842.449,1.255a15.913,15.913,0,0,0,3.545,5.312,16.123,16.123,0,0,0,5.352,3.534c.326.132.659.254.991.365A8.134,8.134,0,0,0,17.946,9.2c-.26-.087-.524-.185-.781-.29A14.393,14.393,0,0,1,12.4,5.762ZM3.752,2.917,15.026,14.269A8.167,8.167,0,0,0,16.287,13L5.028,1.662A7.972,7.972,0,0,0,3.752,2.917ZM8.971,9.08A16.088,16.088,0,0,0,3.62,5.546q-.57-.23-1.15-.416a8.013,8.013,0,0,0-.446,1.734c.311.1.62.215.925.338a14.393,14.393,0,0,1,4.762,3.144,14.176,14.176,0,0,1,3.15,4.72c.12.29.228.587.326.883a7.955,7.955,0,0,0,1.731-.461c-.12-.368-.251-.734-.4-1.1A15.841,15.841,0,0,0,8.971,9.08Zm-6.36-.192c-.207,0-.41.009-.611.027a8.073,8.073,0,0,0,.407,1.767c.06,0,.12,0,.18,0a4.854,4.854,0,0,1,3.429,1.407,4.7,4.7,0,0,1,1.4,3.363c0,.054,0,.111,0,.165A8.081,8.081,0,0,0,9.178,16c.015-.18.024-.359.024-.542a6.459,6.459,0,0,0-1.926-4.639A6.607,6.607,0,0,0,2.611,8.888Zm.683,3.56a8.067,8.067,0,0,0,2.419,2.357,1.7,1.7,0,0,0,.366-1.045,1.7,1.7,0,0,0-2.785-1.312Z"/></g></svg>