<svg xmlns="http://www.w3.org/2000/svg" viewBox="0 0 20 16">
  <g id="Icons">
    <path id="ieee" d="M9.554,9.394c-.044.856-.055,1.648-.118,2.506a4.707,4.707,0,0,0,1.082.008L10.41,9.516,10.391,9.4a5.881,5.881,0,0,1-.837-.008M7.439,6.99c-.418.209-1.031.525-.964,1.1a1.221,1.221,0,0,0,.7.643,7.543,7.543,0,0,0,5.006.187c.386-.149.9-.364.975-.837,0-.39-.418-.636-.715-.785V7.277a1.315,1.315,0,0,1,.33-.089v-.01c-.523-.094-1.029-.231-1.535-.365.1.223.168.457.249.688a2.805,2.805,0,0,1,.473-.108c.267.1.65.253.688.587.03.313-.313.465-.529.592a6.128,6.128,0,0,1-3.63.141c-.33-.1-.807-.238-.848-.658.235-.554.841-.669,1.347-.8-.26-.168-.525-.316-.777-.5a2.26,2.26,0,0,0-.766.241M9.971,3.651l-.149.477-.744,2.13c.186.019.417,0,.6.019V6.3l-.109,2.41.019.026a3.119,3.119,0,0,0,.778-.007V8.686l-.1-2.338.014-.079.655-.011c-.327-.863-.644-1.734-.948-2.607Zm-.346-1.07c.547-.373,1.038.148,1.462.446a22.139,22.139,0,0,1,4.366,4.536.835.835,0,0,1,.083.811,12.175,12.175,0,0,1-1.109,1.448v.026a29.541,29.541,0,0,1-3.117,2.983c-.543.331-1.041,1.052-1.741.605A25.144,25.144,0,0,1,5.162,9.275a6.383,6.383,0,0,1-.714-1.008c-.212-.524.257-.9.525-1.294A23.2,23.2,0,0,1,9.625,2.581M11,1.03,10.391.171a1.113,1.113,0,0,0-.249-.143.534.534,0,0,0-.517.127l-1.1,1.429A29.555,29.555,0,0,1,2.414,7.357c-.18.14-.447.277-.5.509a.513.513,0,0,0,.178.509A29.844,29.844,0,0,1,7.2,12.813c.275.289.5.575.766.847.453.6.986,1.21,1.4,1.856.13.137.153.361.357.428a.611.611,0,0,0,.509,0l.152-.153a30.345,30.345,0,0,1,6.938-7c.267-.238.777-.327.784-.77a.706.706,0,0,0-.313-.517L17.748,7.5a26.87,26.87,0,0,1-3.857-3.188L12.56,2.922C12.02,2.324,11.5,1.662,11,1.03M9.428,2.253c.535-.416,1.209-.071,1.659.313a15.969,15.969,0,0,1,1.394,1.186l.079.045a23.15,23.15,0,0,1,3.214,3.641.948.948,0,0,1,.2.784,8.43,8.43,0,0,1-1.46,2.028,24.715,24.715,0,0,1-3.779,3.444,1.028,1.028,0,0,1-.989.223,14.675,14.675,0,0,1-2.759-2.2A19.109,19.109,0,0,1,4.136,8.491a.95.95,0,0,1-.145-.581,3.063,3.063,0,0,1,.636-1.071,26.573,26.573,0,0,1,3.194-3.31.819.819,0,0,1,.116-.108c.491-.424.978-.8,1.491-1.168"/>
  </g>
</svg>
