<svg xmlns="http://www.w3.org/2000/svg" viewBox="0 0 20 16">
  <g id="Icons">
    <path id="path1752" d="M7.512,1a.7.7,0,0,0-.7.7V6.676a.7.7,0,0,0,.7.7H9.783l-.92-1.592a1.135,1.135,0,0,1-.076-.162.3.3,0,0,1-.228-.293V3.047a.3.3,0,0,1,.3-.3h2.283a.3.3,0,0,1,.275.18L13.188,1.9V1.7a.7.7,0,0,0-.7-.7Zm-1.7.994a.7.7,0,0,0-.625.352L2.693,6.654a.7.7,0,0,0,.256.955L7.26,10.1a.7.7,0,0,0,.955-.256L9.352,7.875H7.512a1.192,1.192,0,0,1-.18-.016.3.3,0,0,1-.367.053L4.99,6.771a.3.3,0,0,1-.111-.41L6.021,4.383a.3.3,0,0,1,.291-.147V2.191l-.175-.1A.694.694,0,0,0,5.807,1.994Zm8.386,0a.694.694,0,0,0-.33.1L9.553,4.578a.7.7,0,0,0-.256.955L10.432,7.5l.92-1.592a1.114,1.114,0,0,1,.1-.148.3.3,0,0,1,.139-.344l1.974-1.141a.3.3,0,0,1,.41.108l1.143,1.978a.3.3,0,0,1-.018.327l1.772,1.023.175-.1a.7.7,0,0,0,.256-.955L14.818,2.346a.7.7,0,0,0-.625-.352ZM12.41,5.807a.7.7,0,0,0-.625.351L10.648,8.125h1.84a1.155,1.155,0,0,1,.178.016.3.3,0,0,1,.369-.053L15.01,9.229a.3.3,0,0,1,.111.408L13.98,11.615a.3.3,0,0,1-.293.149v2.045l.176.1a.7.7,0,0,0,.955-.256l2.489-4.308a.7.7,0,0,0-.256-.955L12.74,5.9a.7.7,0,0,0-.33-.095ZM3.125,8.289l-.176.1a.7.7,0,0,0-.256.955l2.489,4.308a.7.7,0,0,0,.955.256l4.31-2.488a.7.7,0,0,0,.256-.955L9.568,8.5l-.92,1.592a1.114,1.114,0,0,1-.1.148.3.3,0,0,1-.139.344L6.432,11.725a.3.3,0,0,1-.413-.11L4.879,9.637A.3.3,0,0,1,4.9,9.312Zm7.092.336.92,1.592a1.056,1.056,0,0,1,.076.164.3.3,0,0,1,.228.291v2.281a.3.3,0,0,1-.3.3H8.857a.3.3,0,0,1-.273-.18L6.812,14.1v.2a.7.7,0,0,0,.7.7h4.977a.7.7,0,0,0,.7-.7V9.324a.7.7,0,0,0-.7-.7Z"/>
  </g>
</svg>
