<svg xmlns="http://www.w3.org/2000/svg" viewBox="0 0 20 16">
  <g id="Icons">
    <path id="impact-story" d="M8.29,0a1.468,1.468,0,0,0-.42.052c-.789.211-.989.912-1.7,1.32s-1.415.232-1.993.809-.4,1.285-.808,1.993-1.11.907-1.321,1.7S2.347,7.183,2.347,8s-.507,1.341-.295,2.13.912.989,1.321,1.7.231,1.415.808,1.993,1.285.4,1.993.809.907,1.109,1.7,1.32,1.313-.295,2.13-.295,1.341.507,2.13.295.989-.912,1.7-1.32,1.415-.232,1.993-.809.4-1.285.808-1.993,1.11-.907,1.321-1.7-.3-1.313-.3-2.13.507-1.341.3-2.13-.912-.989-1.321-1.7-.231-1.415-.808-1.993-1.285-.4-1.993-.809S12.919.263,12.13.052s-1.313.3-2.13.3C9.336.347,8.866.013,8.29,0ZM10,1.073a6.927,6.927,0,0,1,0,13.854h0A6.927,6.927,0,0,1,3.073,8h0A6.927,6.927,0,0,1,10,1.073Zm0,.662A6.265,6.265,0,0,0,3.735,8h0A6.265,6.265,0,0,0,10,14.265h0a6.265,6.265,0,0,0,0-12.53ZM9.372,3.7h1.393a.213.213,0,0,1,.214.214V5.1a.214.214,0,0,1-.214.214H9.372A.214.214,0,0,1,9.158,5.1V3.91A.214.214,0,0,1,9.372,3.7ZM8.388,6.257h2.377a.214.214,0,0,1,.214.214v3.765h.77a.214.214,0,0,1,.214.214v1.23a.214.214,0,0,1-.214.215H8.388a.214.214,0,0,1-.214-.215V10.45a.215.215,0,0,1,.214-.214h.77V7.915h-.77A.213.213,0,0,1,8.174,7.7V6.471a.215.215,0,0,1,.214-.214Z"/>
  </g>
</svg>
