<svg xmlns="http://www.w3.org/2000/svg" viewBox="0 0 20 16">
  <g id="Icons">
    <path id="path45063" d="M3.02,1V15H16.98V1Zm5.313.977,3.543,0a.127.127,0,0,1,.1.113c.01.072-.02.143-.165.167a1.569,1.569,0,0,0-.736.326,1.527,1.527,0,0,0-.369.623,9.618,9.618,0,0,0-.043,1.47v5.45a8.733,8.733,0,0,1-.124,1.6,3.279,3.279,0,0,1-.9,1.672,2.5,2.5,0,0,1-1.429.681v0a7.032,7.032,0,0,1-1.6-.054l-.54-1.754q.415.4.857.764a1.458,1.458,0,0,0,.99.363,1.232,1.232,0,0,0,1.012-.437,2.274,2.274,0,0,0,.5-1.255,13.237,13.237,0,0,0,.031-1.407v-.189l.076-5.438a9.292,9.292,0,0,0-.046-1.468,1.523,1.523,0,0,0-.367-.623,1.558,1.558,0,0,0-.736-.326c-.146-.024-.176-.095-.167-.167a.145.145,0,0,1,.108-.12Zm-2.852.011a2.08,2.08,0,0,1,.856.13,2.031,2.031,0,0,1,.428.248v0h0c.171.121.3.217.5.156a.422.422,0,0,0,.291-.354.464.464,0,0,1,.028-.082c.011,0,.05.013.085.065s.149.295-.142.712a.717.717,0,0,1-.43.282.043.043,0,0,0-.028.018c0,.011-.01.022,0,.032a.635.635,0,0,1,.022.144v0a1,1,0,0,1-.1.516.994.994,0,0,1-.835.626.779.779,0,0,1-.8-.4.88.88,0,0,1-.015-.7.18.18,0,0,1,.093-.109.04.04,0,0,1,.039.011c.033.026.035.091.037.176a1.022,1.022,0,0,0,.046.306.478.478,0,0,0,.5.315.66.66,0,0,0,.612-.712A.956.956,0,0,0,5.6,2.409a1.118,1.118,0,0,0-.836.339,1.549,1.549,0,0,0-.434,1.035,1.61,1.61,0,0,0,.692,1.4,1.674,1.674,0,0,0,1.474.044c.231-.076.457-.163.68-.261v0h0c.191-.08.386-.162.575-.228A2.242,2.242,0,0,1,8.1,4.639l.017,0-.011-.016-.191-.26a1.046,1.046,0,0,1-.158-.745.078.078,0,0,1,.061-.043.04.04,0,0,1,.015,0h0v.03a.28.28,0,0,0,.046.169.16.16,0,0,0,.169.063.045.045,0,0,0,.024-.028,1.412,1.412,0,0,1,.17-.365.842.842,0,0,1,.49-.312h.013a.093.093,0,0,1,.085.056c.022.041-.043.108-.065.13a1,1,0,0,0-.3.691.528.528,0,0,0,.137.4.851.851,0,0,0,.554.218v.349H9.13c-.311,0-.554.373-.641.758a2.581,2.581,0,0,0,.019.886c.024.121,0,.147,0,.151s-.011,0-.022,0c-.065-.015-.185-.151-.319-.366a.681.681,0,0,1-.054-.46c.011-.059.011-.085-.011-.1v0a.108.108,0,0,0-.059-.023h0a.142.142,0,0,0-.1.058l-.054.07c-.013.024-.013.023-.056.008l-.01-.008A1.109,1.109,0,0,1,8,5.408a1.262,1.262,0,0,1,.315-.367l.039-.03-.05.01a3.791,3.791,0,0,0-1.172.467,3.017,3.017,0,0,0-.851.845A1.1,1.1,0,0,0,5.9,6.185c.089-.119.236-.28.3-.345l.01-.007a.045.045,0,0,0,0-.045.037.037,0,0,0-.043-.013A1.653,1.653,0,0,1,5.044,5.67,1.878,1.878,0,0,1,3.911,3.738a1.718,1.718,0,0,1,1.578-1.75Zm8.646.141a4.132,4.132,0,0,1,.947.109l.035.008.054.011a1.757,1.757,0,0,0,.716.065,1.148,1.148,0,0,0,.252-.1h0a.271.271,0,0,1,.089-.035v.006a.6.6,0,0,1-.149.337.765.765,0,0,1-.235.2c-.061.039-.1.065-.1.106a.379.379,0,0,0,.057.12v0a2.255,2.255,0,0,1,.326,1.246,2.057,2.057,0,0,1-.785,1.6l-.035.033v0a.525.525,0,0,0-.115.571.872.872,0,0,0,.522.456,1.916,1.916,0,0,0,.4.078c.087.011.165.02.174.037.025.057-.05.145-.217.254a.683.683,0,0,1-.259.1l-.01.006v.01a1.153,1.153,0,0,1,.371.687.884.884,0,0,1-.225.812A.6.6,0,0,1,15.455,9a.048.048,0,0,1-.026-.011c-.013-.05.063-.1.152-.163a.644.644,0,0,1,.061-.043c.112-.083.177-.218.14-.294a.057.057,0,0,0-.059-.028.309.309,0,0,0-.065.016c-.048.013-.1.028-.119,0s-.018-.055.01-.105a.447.447,0,0,0,.048-.16c.011-.15-.01-.552-.223-.595a.024.024,0,0,0-.024.007c-.019.017-.022.067-.022.143a.621.621,0,0,1-.061.33.538.538,0,0,1-.3.25.034.034,0,0,1-.033-.016c-.01-.013,0-.045.01-.093a1.878,1.878,0,0,0,0-.732,1.414,1.414,0,0,0-.187-.438,1.264,1.264,0,0,1-.167-.389c-.03-.215,0-.3.115-.395a.167.167,0,0,0,.082-.137.127.127,0,0,0-.074-.115l-.01,0h0a.612.612,0,0,0-.131-.011,1.278,1.278,0,0,1-1.129-.5,1.588,1.588,0,0,1-.267-1.259A.594.594,0,0,0,13,3.954a.678.678,0,0,0-.188-.122c-.03-.015-.063-.03-.063-.041l.011-.013a.434.434,0,0,1,.341-.065.717.717,0,0,1,.225.074h.013a1.154,1.154,0,0,1,.925-.369.786.786,0,0,1,.68.729.58.58,0,0,1-.309.612.337.337,0,0,1-.3-.011.112.112,0,0,1-.051-.082c0-.03.026-.046.076-.069a.361.361,0,0,0,.224-.339.433.433,0,0,0-.109-.319.37.37,0,0,0-.3-.12.609.609,0,0,0-.477.233,1.014,1.014,0,0,0-.135.79.937.937,0,0,0,1.04.751,1.149,1.149,0,0,0,.782-.469,1.536,1.536,0,0,0,.314-.9A1.516,1.516,0,0,0,14.2,2.575,2.275,2.275,0,0,0,12.3,3.53a4.709,4.709,0,0,0-.5,1.03.686.686,0,0,1,.426.048c.176.086.384.3.348.39-.01.024-.063.011-.137-.008a1.158,1.158,0,0,0-.411,0,.893.893,0,0,0-.416.117V5.091l-.01.018-.376-.23a4.326,4.326,0,0,1,.891-1.865,2.672,2.672,0,0,1,2-.886ZM11.622,5.092v0l.01-.026Zm-.556.025a3.586,3.586,0,0,1,.61.371,3.8,3.8,0,0,1,.408.4l-.074.486a6.258,6.258,0,0,0-.445-.458,1.469,1.469,0,0,0-.5-.326Zm1.652.512c.037.024.037.1.037.217v0c0,.084,0,.168.01.252a.69.69,0,0,0,.169.473.031.031,0,0,0,.022.007c.019-.011.024-.046.033-.1a.9.9,0,0,1,.083-.275c.091-.191.27-.421.33-.4.017,0,.022.022.022.054-.01.089-.02.17-.035.252a3.015,3.015,0,0,0-.043.73c.026.529.274.6.3.608a2.236,2.236,0,0,1,.308-.42l.1-.108.01-.008c.109-.122.2-.219.257-.219h0a.059.059,0,0,1,.042.03c.022.035-.012.119-.072.26v0a3.518,3.518,0,0,0-.247.845,5.435,5.435,0,0,0,0,1.361l.01.046L14.039,9.2a2.612,2.612,0,0,0-.3-.52,2.825,2.825,0,0,0-.275-.345,2.376,2.376,0,0,1-.341-.451,1.751,1.751,0,0,1-.222-.593c-.022-.113-.03-.167-.1-.174-.01,0-.013,0-.02.014a1.426,1.426,0,0,0,.124.853,2.5,2.5,0,0,0,.278.412,5.776,5.776,0,0,1,.866,1.531l.041.13a.873.873,0,0,1,.1-.158,1.193,1.193,0,0,1,1.2-.5h0a.854.854,0,0,1,.53.354,1.011,1.011,0,0,1,.174.732c-.09.532-.391.757-.645.792l-.061,0c-.074,0-.132-.019-.148-.054a.024.024,0,0,1,0-.035c.01-.022.035-.033.078-.048a.609.609,0,0,0,.194-.1c.217-.171.2-.249.2-.306,0-.007,0-.011-.01-.013s-.045.009-.084.031l-.015.008a.158.158,0,0,1-.13.013.073.073,0,0,1-.039-.052c-.01-.026.022-.051.059-.083a.425.425,0,0,0,.082-.087.552.552,0,0,0,.044-.547A.458.458,0,0,0,15.2,9.73h-.026a.949.949,0,0,0-.733.48v.009a1.882,1.882,0,0,0-.237.742v.02a3.77,3.77,0,0,1-.966,1.906.524.524,0,0,0-.116.454.506.506,0,0,0,.331.343c.03.013.05.022.048.03,0,.042-.065.046-.174.037a.272.272,0,0,1-.152-.043s-.028.071.157.206a.687.687,0,0,0,.217.1c.05.013.085.022.087.043a.651.651,0,0,1-.925-.625v-.059c-.943.862-1.22.908-1.286.817-.014-.022,0-.031.035-.057a1.146,1.146,0,0,0,.205-.182c.184-.211.188-.3.188-.3a1.559,1.559,0,0,1-.792.158c-.434-.039-.8-.345-.771-.464.013-.05.081-.033.181-.011a1.026,1.026,0,0,0,.416.035c.287-.046.313-.161.313-.161s-.054,0-.152-.1a.783.783,0,0,0-.067-.061c-.078-.071-.15-.136-.087-.2.022-.023.093-.011.187.011a1.275,1.275,0,0,0,.289.041,1.428,1.428,0,0,0,.445-.063.69.69,0,0,1-.226-.151c-.12-.116-.144-.233-.109-.261.01-.009.017,0,.033.013a.306.306,0,0,0,.187.058c.174,0,.2-.043.2-.043a.621.621,0,0,1-.108-.137V12.3c-.038-.076-.133-.261-.067-.337.01-.007.03.014.069.044a.863.863,0,0,0,.447.21,1.9,1.9,0,0,0,1.068-.362A7.5,7.5,0,0,1,11.922,13.1c-.182.126-.31.217-.295.25.03.076.4-.012,1.042-.548a3.768,3.768,0,0,0,.614-.629,2.231,2.231,0,0,0,.509-1.813h0a2.817,2.817,0,0,0-.161-.561,1.8,1.8,0,0,0-1.064-1.074,1.175,1.175,0,0,0-.981.078c-.105.048-.174.078-.2.039-.091-.128.091-.3.251-.454a1.771,1.771,0,0,1,.376-.291.889.889,0,0,0-.3-.091.963.963,0,0,0-.207.015c-.1.018-.184.031-.2-.021-.022-.1.4-.287.627-.363a1.692,1.692,0,0,1,.45-.087,5.939,5.939,0,0,1,0-1,2.517,2.517,0,0,1,.117-.626.566.566,0,0,1,.171-.289.065.065,0,0,1,.062,0Zm-1.55.356a1.56,1.56,0,0,1,.4.328,1.79,1.79,0,0,0,.039.413,4.1,4.1,0,0,0,.13.547l.013.043-.386.18a5.438,5.438,0,0,1-.152-.7,3.389,3.389,0,0,1-.047-.81ZM4.207,6.17a.37.37,0,0,1,.239.178,1.314,1.314,0,0,1,.109.4c.01.007.015,0,.048-.021A1.421,1.421,0,0,1,5.5,6.435h.01a1.585,1.585,0,0,1,1.352.877v.006h.01a.591.591,0,0,0,.376-.072A.727.727,0,0,0,7.458,7.1a.532.532,0,0,1,.4-.161.459.459,0,0,1,.434.215.056.056,0,0,1-.019.072c-.035.023-.039.021-.061.011a.409.409,0,0,0-.256-.014c-.144.024-.211.155-.28.3s-.157.308-.337.356a.437.437,0,0,1-.395-.126c-.011-.018-.024-.037-.045-.035s-.022.03-.022.037a1.721,1.721,0,0,1-.1.393.974.974,0,0,1-1.2.582.826.826,0,0,1-.614-.817c.01-.086.035-.143.074-.147a.071.071,0,0,1,.07.043,1.37,1.37,0,0,0,.121.283.655.655,0,0,0,.374.291.713.713,0,0,0,.638-.148.746.746,0,0,0,.207-.582.815.815,0,0,0-.307-.6.969.969,0,0,0-.588-.222,1.151,1.151,0,0,0-.777.3,1.548,1.548,0,0,0-.059,2.145,1.038,1.038,0,0,0,.751.369h.013a2.374,2.374,0,0,0,1.646-.9,3.821,3.821,0,0,1,1.65-1.081,3,3,0,0,1,.361-.041l-.011.4c-.413.076-.984.341-.956.626a.737.737,0,0,0,.295.506l.041.034s-.01.011-.034.02a.607.607,0,0,1-.4-.015,1.222,1.222,0,0,1-.375-.4l-.01-.011-.011.009a9.835,9.835,0,0,1-.868.816,2.2,2.2,0,0,1-1.338.5,1.56,1.56,0,0,1-1.111-.55A2.023,2.023,0,0,1,3.9,8.193,2.871,2.871,0,0,1,4.125,7.04c.028-.08.054-.139.076-.189v0a.852.852,0,0,0,.087-.332.514.514,0,0,0-.076-.348Zm1.249.946a.455.455,0,0,1,.391.1,3.677,3.677,0,0,0-.27.769c-.082-.037-.2-.154-.3-.445A1.075,1.075,0,0,1,5.456,7.116ZM4.969,8.6a.952.952,0,0,0,.391.369,1.389,1.389,0,0,0-.028.362.994.994,0,0,1-.43-.26h0A2.08,2.08,0,0,1,4.967,8.6Zm7.161.378a.67.67,0,0,1,.391.095.393.393,0,0,1,.169.209c.017.063.017.112-.026.134-.022.011-.069-.011-.134-.041a.729.729,0,0,0-.417-.076.748.748,0,0,0-.471.289.714.714,0,0,0-.132.521.726.726,0,0,0,.779.666.652.652,0,0,0,.406-.2l-.024-.031a4.227,4.227,0,0,1-.678-.79l-.047-.065s.056-.042.217-.035a.734.734,0,0,1,.4.184c.113.125.228.247.345.368a3.671,3.671,0,0,0,.573.506,1.88,1.88,0,0,1-.061.405A3.049,3.049,0,0,1,13,10.8v0l-.028-.024a1.032,1.032,0,0,1-.537.347.72.72,0,0,1-.187.022,1.082,1.082,0,0,1-1.024-.843,1.715,1.715,0,0,1-.018-.444.852.852,0,0,0-.013-.326.6.6,0,0,0-.1-.18c-.026-.035-.043-.059-.026-.079.03-.037.126-.015.217.046a.247.247,0,0,1,.093.109,1,1,0,0,1,.76-.452Zm-5.039.973c.033-.02.115.115.148.217a.585.585,0,0,1,.021.1c.011.059.015.109.056.124s.061-.017.118-.087l.048-.054a1.079,1.079,0,0,0,.1-.143c.028-.05.039-.063.076-.05.059.022.011.289-.024.478l-.011.069a4.612,4.612,0,0,1-.122.452,3.491,3.491,0,0,1,.424-.235c.568-.256.792-.178.8-.108,0,.034-.031.054-.081.087a.864.864,0,0,0-.2.171c-.109.128-.082.159-.082.159a1.2,1.2,0,0,0,.323-.066c.041-.011.081-.026.118-.039.117-.039.21-.071.248-.017.048.071-.175.369-.513.6a2.52,2.52,0,0,1-.619.325.414.414,0,0,0,.233.1,1.27,1.27,0,0,0,.151.018c.062,0,.092.006.1.036.019.066-.168.122-.487.157a.958.958,0,0,1-.686-.152.51.51,0,0,1-.011.332,1.308,1.308,0,0,0-.052.152c-.033.1-.055.167-.1.161-.028,0-.033-.035-.033-.083a.382.382,0,0,0-.08-.243.921.921,0,0,0-.278-.219,2.514,2.514,0,0,1-.247-.167c-.226-.174-.233-.309-.233-.309a2.213,2.213,0,0,0,1.043.044c.621-.1.812-.287.766-.354-.024-.04-.074-.024-.176.011-.063.019-.147.047-.26.073a3.6,3.6,0,0,1-1.323-.03A1.755,1.755,0,0,1,5.6,11.2a2.776,2.776,0,0,1,.261.706,2.15,2.15,0,0,1-.185,1.224c-.193.408-.517.769-.575.71-.03-.03-.019-.058,0-.1a.538.538,0,0,0,.043-.108l.041-.15a1.474,1.474,0,0,1-.4.317c-.3.193-.362.206-.412.13-.022-.03,0-.063.043-.117l.076-.113c.072-.126.05-.119.05-.119a1.749,1.749,0,0,1-.478-.12.987.987,0,0,1-.434-.362c.01-.05.072-.081.187-.137l.074-.037a1.356,1.356,0,0,0,.293-.2,1.472,1.472,0,0,1-.18-.056c-.1-.05-.209-.1-.143-.163.014-.015.048-.013.093-.009a.764.764,0,0,0,.664-.26A1.309,1.309,0,0,0,5,11.363a1.687,1.687,0,0,1-.056,1.086,1.271,1.271,0,0,1-.652.6c-.1.048-.162.078-.141.122.076.154.754.014,1.047-.695a2.523,2.523,0,0,0-.2-1.8c-.052-.126-.124-.3-.17-.434a1.468,1.468,0,0,0,.448.13v0l.022.037a1.024,1.024,0,0,0,.548.406l.01,0a1.133,1.133,0,0,0,.76.011.523.523,0,0,0,.2-.124A1.31,1.31,0,0,0,7,10.2c.03-.13.054-.236.086-.254Zm7.743,1.237c.1.007.181.047.177.065s-.013.013-.035.024a.54.54,0,0,0-.234.26l.039.014a2.685,2.685,0,0,1,.588.267,1.35,1.35,0,0,1,.621.751,1.1,1.1,0,0,1,0,.629,1,1,0,0,1-.66.734.918.918,0,0,1-.278.044,1.078,1.078,0,0,1-.586-.2.359.359,0,0,0-.23.039.556.556,0,0,0-.124.1c-.026.026-.041.041-.056.037s-.013-.009-.015-.018a.38.38,0,0,1,.052-.278A.65.65,0,0,1,14.2,13.5a.971.971,0,0,1,.02-.771.547.547,0,0,1,.668-.295.429.429,0,0,1,.3.41.307.307,0,0,1-.1.224.084.084,0,0,1-.076.013c-.03-.011-.033-.044-.035-.087a.249.249,0,0,0-.139-.243.252.252,0,0,0-.213-.011.284.284,0,0,0-.154.176.5.5,0,0,0,.018.4.64.64,0,0,0,.44.3.649.649,0,0,0,.734-.521.7.7,0,0,0,.01-.375,1.2,1.2,0,0,0-.716-.736c-.115-.057-.319-.15-.469-.215l-.124-.057c.043-.128.063-.2.076-.252l.022-.076a.536.536,0,0,1,.267-.2.333.333,0,0,1,.1-.007Z"/>
  </g>
</svg>
