<?xml version="1.0" encoding="UTF-8" standalone="no"?>
<!-- Created with Inkscape (http://www.inkscape.org/) -->

<svg
   width="20"
   height="20"
   viewBox="0 0 5.2916666 5.2916666"
   version="1.1"
   id="svg274"
   xml:space="preserve"
   inkscape:version="1.2 (dc2aedaf03, 2022-05-15)"
   sodipodi:docname="kaggle.svg"
   xmlns:inkscape="http://www.inkscape.org/namespaces/inkscape"
   xmlns:sodipodi="http://sodipodi.sourceforge.net/DTD/sodipodi-0.dtd"
   xmlns="http://www.w3.org/2000/svg"
   xmlns:svg="http://www.w3.org/2000/svg"><sodipodi:namedview
     id="namedview276"
     pagecolor="#ffffff"
     bordercolor="#000000"
     borderopacity="0.25"
     inkscape:showpageshadow="false"
     inkscape:pageopacity="0.0"
     inkscape:pagecheckerboard="0"
     inkscape:deskcolor="#d1d1d1"
     inkscape:document-units="px"
     showgrid="true"
     inkscape:zoom="45.254834"
     inkscape:cx="14.705611"
     inkscape:cy="11.998718"
     inkscape:window-width="2560"
     inkscape:window-height="1377"
     inkscape:window-x="-8"
     inkscape:window-y="-8"
     inkscape:window-maximized="1"
     inkscape:current-layer="layer1"
     showborder="true"><inkscape:grid
       type="xygrid"
       id="grid561"
       originx="0"
       originy="0" /></sodipodi:namedview><defs
     id="defs271"><style
       id="style432">.cls-1{fill:#130754;}.cls-2{fill:#ffca00;}.cls-3{fill:#e70488;}</style></defs><g
     inkscape:label="Layer 1"
     inkscape:groupmode="layer"
     id="layer1"><path
       clip-path="none"
       fill="#20beff"
       d="m 3.9874422,4.7375505 c -0.00421,0.016601 -0.02076,0.024881 -0.049712,0.024881 H 3.3844214 c -0.03324,0 -0.06212,-0.01452 -0.087012,-0.043576 L 2.3835706,3.5564589 2.128738,3.7988795 V 4.700308 c 0,0.041485 -0.02076,0.062192 -0.062192,0.062192 H 1.6376207 c -0.041485,0 -0.062192,-0.02072 -0.062192,-0.062192 V 0.59128687 c 0,-0.041344 0.02072,-0.0621202 0.062192,-0.0621202 h 0.4289259 c 0.041416,0 0.062192,0.02076 0.062192,0.0621202 V 3.1213381 L 3.222807,2.0148591 c 0.029,-0.028919 0.058008,-0.043504 0.087012,-0.043504 h 0.5719943 c 0.02484,0 0.041344,0.010405 0.049712,0.031041 0.00828,0.024881 0.0062,0.043504 -0.0062,0.055984 L 2.7689987,3.1771994 3.97497,4.6753734 c 0.01652,0.016601 0.02072,0.03732 0.01248,0.062192"
       id="path797-2"
       style="fill:#000000;stroke-width:0.0697214;stroke:none" /></g></svg>
