<svg id="ICONS_HERE_" data-name="ICONS HERE!" xmlns="http://www.w3.org/2000/svg" viewBox="0 0 20 16"><path id="kaggle-alt" d="M.085,4.123A.075.075,0,0,0,0,4.208V9.834a.075.075,0,0,0,.085.085H.673a.075.075,0,0,0,.085-.085V8.6l.349-.332L2.358,9.86a.152.152,0,0,0,.119.059h.758c.039,0,.062-.011.068-.034A.079.079,0,0,0,3.286,9.8L1.634,7.749,3.218,6.217a.07.07,0,0,0,.008-.077A.067.067,0,0,0,3.158,6.1H2.375a.175.175,0,0,0-.119.06L.758,7.672V4.208a.075.075,0,0,0-.085-.085Zm15.035,0a.075.075,0,0,0-.085.085V9.834a.075.075,0,0,0,.085.085h.587a.075.075,0,0,0,.085-.085V4.208a.075.075,0,0,0-.085-.085ZM4.967,6.021a2.368,2.368,0,0,0-1.362.451c-.045.046-.054.085-.025.119l.306.434c.023.04.06.046.111.017a1.706,1.706,0,0,1,.97-.34.672.672,0,0,1,.724.757,7.471,7.471,0,0,0-1.235.205q-1.038.3-1.038,1.132a1.11,1.11,0,0,0,.383.868A1.392,1.392,0,0,0,4.729,10a1.564,1.564,0,0,0,.962-.281v.119c0,.057.031.085.093.085h.588a.075.075,0,0,0,.085-.085V7.476a1.337,1.337,0,0,0-.562-1.2A1.636,1.636,0,0,0,4.967,6.021Zm3.6,0a1.5,1.5,0,0,0-1.3.655A2.218,2.218,0,0,0,6.875,8a2.223,2.223,0,0,0,.409,1.371A1.53,1.53,0,0,0,8.578,10a1.616,1.616,0,0,0,1.064-.332v.443q0,1.072-1.03,1.072a1.355,1.355,0,0,1-.928-.477.081.081,0,0,0-.059-.025.091.091,0,0,0-.068.025l-.4.4a.087.087,0,0,0,.009.128c.113.1.213.178.3.243s.159.117.221.157a1.888,1.888,0,0,0,.936.247A1.743,1.743,0,0,0,9.936,11.4,1.951,1.951,0,0,0,10.4,9.988v-3.8a.075.075,0,0,0-.085-.085H9.727a.075.075,0,0,0-.085.085v.17A1.715,1.715,0,0,0,8.569,6.021Zm4,0a1.5,1.5,0,0,0-1.3.655A2.218,2.218,0,0,0,10.877,8a2.217,2.217,0,0,0,.409,1.371A1.53,1.53,0,0,0,12.58,10a1.616,1.616,0,0,0,1.064-.332v.443q0,1.072-1.03,1.072a1.355,1.355,0,0,1-.928-.477.082.082,0,0,0-.06-.025.092.092,0,0,0-.068.025l-.4.4a.087.087,0,0,0,.009.128c.113.1.212.178.3.243s.158.117.221.157a1.888,1.888,0,0,0,.936.247,1.743,1.743,0,0,0,1.316-.481A1.951,1.951,0,0,0,14.4,9.988v-3.8a.075.075,0,0,0-.085-.085h-.587a.075.075,0,0,0-.085.085v.17A1.717,1.717,0,0,0,12.571,6.021Zm5.621,0a1.767,1.767,0,0,0-1.328.528,1.972,1.972,0,0,0-.553,1.413,1.988,1.988,0,0,0,.562,1.455A1.963,1.963,0,0,0,18.32,10a2.3,2.3,0,0,0,1.422-.46c.045-.034.045-.073,0-.119l-.4-.408c-.034-.034-.076-.034-.127,0a1.429,1.429,0,0,1-.843.263,1.3,1.3,0,0,1-.877-.3,1.1,1.1,0,0,1-.357-.7H19.9a.076.076,0,0,0,.086-.085L20,8a1.85,1.85,0,0,0-.5-1.43A1.728,1.728,0,0,0,18.192,6.021Zm-.017.655a1,1,0,0,1,.7.264.854.854,0,0,1,.315.656H17.137a1.133,1.133,0,0,1,.366-.664A.982.982,0,0,1,18.175,6.676Zm-9.52.085a.936.936,0,0,1,.987.545V8.711a.959.959,0,0,1-1.013.544.864.864,0,0,1-.638-.246A1.329,1.329,0,0,1,7.659,8Q7.659,6.762,8.655,6.761Zm4,0a.937.937,0,0,1,.988.545h0V8.711a.959.959,0,0,1-1.013.544.868.868,0,0,1-.639-.246A1.333,1.333,0,0,1,11.66,8Q11.66,6.762,12.656,6.761ZM5.691,8.14v.852a1.168,1.168,0,0,1-.954.315.745.745,0,0,1-.374-.132.431.431,0,0,1-.187-.3q-.043-.332.374-.51A4.284,4.284,0,0,1,5.691,8.14Z"/></svg>