<?xml version="1.0" encoding="UTF-8" standalone="no"?>
<!-- Created with Inkscape (http://www.inkscape.org/) -->

<svg
   width="20"
   height="20"
   viewBox="0 0 5.2916666 5.2916666"
   version="1.1"
   id="svg274"
   xml:space="preserve"
   inkscape:version="1.2 (dc2aedaf03, 2022-05-15)"
   sodipodi:docname="kaggle-alt.svg"
   xmlns:inkscape="http://www.inkscape.org/namespaces/inkscape"
   xmlns:sodipodi="http://sodipodi.sourceforge.net/DTD/sodipodi-0.dtd"
   xmlns:xlink="http://www.w3.org/1999/xlink"
   xmlns="http://www.w3.org/2000/svg"
   xmlns:svg="http://www.w3.org/2000/svg"><sodipodi:namedview
     id="namedview276"
     pagecolor="#ffffff"
     bordercolor="#000000"
     borderopacity="0.25"
     inkscape:showpageshadow="false"
     inkscape:pageopacity="0.0"
     inkscape:pagecheckerboard="0"
     inkscape:deskcolor="#d1d1d1"
     inkscape:document-units="px"
     showgrid="true"
     inkscape:zoom="32"
     inkscape:cx="9.859375"
     inkscape:cy="5.1875"
     inkscape:window-width="2560"
     inkscape:window-height="1377"
     inkscape:window-x="-8"
     inkscape:window-y="-8"
     inkscape:window-maximized="1"
     inkscape:current-layer="layer1"
     showborder="true"><inkscape:grid
       type="xygrid"
       id="grid561"
       originx="0"
       originy="0" /></sodipodi:namedview><defs
     id="defs271"><style
   id="style432">.cls-1{fill:#130754;}.cls-2{fill:#ffca00;}.cls-3{fill:#e70488;}</style><rect
   id="SVGID_1_"
   x="31.5"
   y="15.978"
   width="289"
   height="130.044" /><rect
   id="SVGID_3_"
   x="31.5"
   y="15.978"
   width="289"
   height="130.044" />
	

		<defs
   id="defs934">
			<rect
   id="rect974"
   x="31.5"
   y="15.978"
   width="289"
   height="130.04401" />
		</defs>
		
		
	
			<defs
   id="defs940">
				<rect
   id="rect979"
   x="31.5"
   y="15.978"
   width="289"
   height="130.04401" />
			</defs>
			<clipPath
   id="SVGID_4_">
				<use
   xlink:href="#SVGID_3_"
   overflow="visible"
   id="use942" />
			</clipPath>
			
			
			
			
			
			
			
			
		</defs><g
     inkscape:label="Layer 1"
     inkscape:groupmode="layer"
     id="layer1"><path
   id="path945"
   clip-path="url(#SVGID_4_)"
   d="m 72.047156,42.608781 c -0.594999,0 -0.892578,0.297626 -0.892578,0.890625 v 58.935544 c 0,0.595 0.297579,0.89063 0.892578,0.89063 H 78.1995 c 0.593999,0 0.890625,-0.29563 0.890625,-0.89063 V 89.505265 l 3.65625,-3.476562 13.107422,16.671877 c 0.357,0.417 0.771047,0.625 1.248047,0.625 h 7.935546 c 0.415,0 0.65289,-0.11942 0.71289,-0.35742 0.118,-0.357 0.0573,-0.65458 -0.17969,-0.89258 L 88.273719,80.587297 104.85966,64.540422 c 0.178,-0.179 0.20689,-0.445735 0.0879,-0.802735 -0.12,-0.295999 -0.35689,-0.445312 -0.71289,-0.445312 h -8.203129 c -0.415999,0 -0.832047,0.21 -1.248047,0.625 L 79.090125,79.786515 V 43.499406 c 0,-0.592999 -0.296626,-0.890625 -0.890625,-0.890625 z m 157.480464,0 c -0.59399,0 -0.89062,0.297626 -0.89062,0.890625 V 102.433 c 0,0.595 0.29663,0.89062 0.89062,0.89062 h 6.1543 c 0.593,0 0.89063,-0.29467 0.89063,-0.88867 V 43.499406 c 0,-0.593999 -0.29763,-0.890625 -0.89063,-0.890625 z M 123.18387,62.48964 c -4.93399,0 -9.69058,1.576566 -14.26757,4.726563 -0.475,0.475999 -0.56363,0.891047 -0.26563,1.248047 l 3.20899,4.546875 c 0.237,0.415999 0.62515,0.475734 1.16015,0.177734 3.447,-2.375997 6.83507,-3.566406 10.16406,-3.566406 2.555,0 4.50285,0.773361 5.83985,2.318359 1.337,1.545999 1.91533,3.41919 1.73633,5.617188 -5.766,0.594999 -10.07474,1.307626 -12.92774,2.140625 -7.25199,2.079998 -10.87695,6.032428 -10.87695,11.857422 0,3.684996 1.33672,6.716752 4.01172,9.093753 2.734,2.31699 5.9767,3.47656 9.7207,3.47656 4.101,0 7.45822,-0.98041 10.07422,-2.94141 v 1.24805 c 0,0.595 0.32647,0.89062 0.98047,0.89062 h 6.15234 c 0.593,0 0.89063,-0.29562 0.89063,-0.89062 V 77.735734 c 0,-5.764994 -1.95982,-9.954315 -5.88282,-12.570312 -2.67499,-1.782999 -5.91475,-2.675782 -9.71875,-2.675782 z m 37.73047,0.002 c -5.88499,0 -10.43162,2.289239 -13.64062,6.865234 -2.735,3.804996 -4.10352,8.440209 -4.10352,13.908203 0,5.764994 1.42826,10.55052 4.28125,14.353516 3.268,4.339997 7.78479,6.507817 13.55078,6.507817 4.637,0 8.35249,-1.15857 11.14649,-3.47656 v 4.63672 c 0,7.48899 -3.59807,11.23437 -10.78906,11.23437 -3.15,0 -6.3888,-1.66614 -9.7168,-4.99414 -0.178,-0.179 -0.388,-0.26758 -0.625,-0.26758 -0.297,0 -0.53489,0.0886 -0.71289,0.26758 l -4.19141,4.18945 c -0.356,0.536 -0.32715,0.98189 0.0898,1.33789 1.188,1.01 2.22909,1.85802 3.12109,2.54102 0.891,0.683 1.66336,1.23339 2.31836,1.65039 3.09,1.723 6.35864,2.58594 9.80664,2.58594 5.94299,0 10.53539,-1.68207 13.77539,-5.03907 3.239,-3.35799 4.85938,-8.27595 4.85938,-14.75195 V 64.186906 c 0,-0.593999 -0.29763,-0.892578 -0.89063,-0.892578 h -6.1543 c -0.595,0 -0.89062,0.298579 -0.89062,0.892578 v 1.78125 c -3.03,-2.318998 -6.77638,-3.476562 -11.23438,-3.476562 z m 41.91602,0 c -5.88499,0 -10.43063,2.289239 -13.64063,6.865234 -2.73399,3.804996 -4.10156,8.440209 -4.10156,13.908203 0,5.764994 1.4253,10.55052 4.2793,14.353516 3.268,4.339997 7.78674,6.507817 13.55273,6.507817 4.636,0 8.34954,-1.15857 11.14453,-3.47656 v 4.63672 c 0,7.48899 -3.59807,11.23437 -10.78906,11.23437 -3.15099,0 -6.3888,-1.66614 -9.7168,-4.99414 -0.17799,-0.179 -0.388,-0.26758 -0.625,-0.26758 -0.29699,0 -0.53489,0.0886 -0.71289,0.26758 l -4.18945,4.18945 c -0.357,0.536 -0.32811,0.98189 0.0879,1.33789 1.189,1.01 2.2291,1.85802 3.1211,2.54102 0.89099,0.683 1.66336,1.23339 2.31835,1.65039 3.09,1.723 6.3596,2.58594 9.8086,2.58594 5.94299,0 10.53439,-1.68207 13.77539,-5.03907 3.238,-3.35799 4.85742,-8.27595 4.85742,-14.75195 V 64.186906 c 0,-0.593999 -0.29762,-0.892578 -0.89062,-0.892578 h -6.15235 c -0.596,0 -0.89258,0.298579 -0.89258,0.892578 v 1.78125 c -3.03199,-2.318998 -6.77638,-3.476562 -11.23437,-3.476562 z m 58.87891,0 c -5.706,0 -10.34121,1.842347 -13.90821,5.527343 -3.86399,4.042996 -5.79492,8.975787 -5.79492,14.800782 0,6.181993 1.96277,11.264097 5.88477,15.246093 4.04199,4.042002 9.09325,6.060552 15.15625,6.060552 5.64499,0 10.61163,-1.6025 14.89062,-4.812505 0.476,-0.356999 0.476,-0.771047 0,-1.248047 l -4.19141,-4.28125 c -0.35699,-0.356999 -0.80189,-0.356999 -1.33789,0 -2.61699,1.842998 -5.55817,2.763672 -8.82617,2.763672 -3.68599,0 -6.74659,-1.039096 -9.18359,-3.121094 -2.14,-1.961998 -3.38814,-4.397549 -3.74414,-7.310546 h 28.97656 c 0.593,0 0.89258,-0.295626 0.89258,-0.890625 l 0.0879,-1.960938 c 0.297,-6.002994 -1.45677,-10.99552 -5.25977,-14.978516 -3.68699,-3.862996 -8.23458,-5.794921 -13.64257,-5.794921 z m -0.17774,6.863281 c 2.853,0 5.28955,0.921674 7.31055,2.763672 2.14,1.841998 3.24078,4.132237 3.30078,6.865234 h -21.48828 c 0.535,-2.852997 1.81298,-5.17208 3.83398,-6.955078 2.019,-1.781998 4.36797,-2.673828 7.04297,-2.673828 z m -99.72461,0.892578 c 5.408,0 8.8558,1.902082 10.3418,5.705078 v 14.712891 c -1.486,3.803996 -5.02338,5.705078 -10.60938,5.705078 -2.73499,0 -4.9645,-0.860939 -6.6875,-2.585938 -2.31799,-2.197997 -3.47656,-5.707489 -3.47656,-10.521484 0,-8.676991 3.47765,-13.015625 10.43164,-13.015625 z m 41.91602,0 c 5.40799,0 8.85675,1.902082 10.34375,5.705078 h -0.002 v 14.712891 c -1.48599,3.803996 -5.02338,5.705078 -10.60937,5.705078 -2.734,0 -4.9635,-0.860939 -6.6875,-2.585938 -2.317,-2.197997 -3.47656,-5.707489 -3.47656,-10.521484 0,-8.676991 3.47664,-13.015625 10.43164,-13.015625 z M 130.762,84.690812 v 8.916016 c -2.496,2.495997 -5.82633,3.595828 -9.98633,3.298828 -1.486,-0.118 -2.79387,-0.580813 -3.92187,-1.382812 -1.129,-0.802 -1.78489,-1.856064 -1.96289,-3.164063 -0.298,-2.318998 1.01083,-4.103564 3.92382,-5.351562 2.14,-0.949999 6.12128,-1.721407 11.94727,-2.316407 z"
   transform="matrix(0.02082735,0,0,0.02082735,-0.95279409,0.91257831)"
   style="stroke:none" />
			
		</g></svg>
