<svg xmlns="http://www.w3.org/2000/svg" viewBox="0 0 20 16">
  <g id="Icons">
    <path id="keras" d="M3,1V15H17V1ZM7.105,3.805h.827a.051.051,0,0,1,.031.013L8.2,4.07a.058.058,0,0,1,.012.034V7.346c0,.011.006.012.014.006l3.519-3.534a.057.057,0,0,1,.033-.013h1.151a.03.03,0,0,1,.025.017l.164.375a.123.123,0,0,1,.008.037v.053a.052.052,0,0,1-.016.033L10.277,7.139a.029.029,0,0,0,0,.031l3.081,4.463a.038.038,0,0,1,0,.033l-.211.408a.031.031,0,0,1-.027.018H11.957a.043.043,0,0,1-.031-.016l-2.633-3.9a.015.015,0,0,0-.023,0l-1.043,1a.055.055,0,0,0-.014.033v2.6a.054.054,0,0,1-.014.033l-.24.24a.058.058,0,0,1-.033.014H7.105a.054.054,0,0,1-.033-.014l-.24-.24a.058.058,0,0,1-.014-.033V4.111a.058.058,0,0,1,.014-.033l.24-.26a.051.051,0,0,1,.033-.013Z"/>
  </g>
</svg>
