<svg xmlns="http://www.w3.org/2000/svg" viewBox="0 0 20 16">
  <g id="Icons">
    <path id="path12662" d="M10,0A2.139,2.139,0,0,0,9.06.219l-5.541,3.1a2.034,2.034,0,0,0-.943,1.6v6.17a2.032,2.032,0,0,0,.943,1.6l5.535,3.1a2.14,2.14,0,0,0,1.886,0l5.541-3.1a2.032,2.032,0,0,0,.943-1.6V4.915a2.034,2.034,0,0,0-.943-1.6L10.946.219A2.142,2.142,0,0,0,10,0Zm0,3.281a1.713,1.713,0,0,1,1.714,1.713h0A1.714,1.714,0,0,1,10,6.708h0a1.714,1.714,0,1,1,0-3.427ZM4.317,6.469A5.467,5.467,0,0,1,9.7,12.143v.13h.617v-.13a5.465,5.465,0,0,1,5.371-5.674c.017.194.029.388.057.571a5.667,5.667,0,0,1-3.65,5.325,6.081,6.081,0,0,1-2.069.366,5.98,5.98,0,0,1-2.051-.366A5.662,5.662,0,0,1,4.318,7.04Z"/>
  </g>
</svg>
