<svg xmlns="http://www.w3.org/2000/svg" viewBox="0 0 20 16">
  <g id="Icons">
    <path id="path26296" d="M4.1,4.3c-.105,0-.129.032-.161.129L2.643,7.7c-.056.136-.153.385-.651.385v.2H3.237v-.2c-.249,0-.4-.112-.4-.273A.419.419,0,0,1,2.86,7.7l.273-.691h1.59l.321.819a.261.261,0,0,1,.032.1c0,.16-.3.16-.458.16v.2H6.2v-.2H6.088c-.377,0-.417-.056-.473-.216L4.249,4.426C4.217,4.329,4.2,4.3,4.1,4.3ZM0,4.434v.241H.185c.618,0,.635.088.635.377V9.269c0,.289-.017.378-.635.378H0V9.9H4.169l.217-2.065h-.2c-.08.82-.193,1.816-1.606,1.816H1.928c-.377,0-.394-.057-.394-.322V5.06c0-.273,0-.385.756-.385h.264V4.434c-.289.024-1.012.024-1.341.024-.313,0-.94,0-1.213-.024Zm14.482,0v.241h.153c.442,0,.594.056.747.281l1.47,2.225L15.543,9.117a1.211,1.211,0,0,1-1.157.53V9.9h.358c-.19,1.053-.442,1.558-1.715,1.558h-1.06c-.378,0-.394-.056-.394-.321V9h.715c.779,0,.867.257.867.94h.2V7.815h-.2c0,.683-.088.932-.867.932h-.715V6.827c0-.265.016-.321.394-.321H13c1.229,0,1.437.442,1.566,1.558h.2l-.225-1.8h-3.7l-.151-1.783H5.792l-.145,1.8H5.84c.112-1.293.233-1.558,1.446-1.558a3.373,3.373,0,0,1,.433.016c.169.032.169.12.169.3V9.261c0,.273,0,.385-.844.385H6.723V9.9c.329-.024,1.141-.024,1.51-.024s1.2,0,1.526.024V9.646H9.438c-.844,0-.844-.112-.844-.385V5.044c0-.161,0-.273.145-.3A3.8,3.8,0,0,1,9.2,4.723c1.2,0,1.324.263,1.436,1.542H10.04v.241h.185c.618,0,.634.088.634.377v4.193c0,.289-.016.378-.634.378H10.04V11.7h4.611L14.946,9.9H16.3V9.647c-.369-.008-.506-.225-.506-.37,0-.072.024-.1.08-.193L17,7.406l1.269,1.911a.279.279,0,0,1,.04.089c0,.1-.177.233-.522.241V9.9c.281-.025.867-.025,1.165-.025.337,0,.706.008,1.044.025V9.647h-.153c-.417,0-.586-.041-.755-.29L17.406,6.8l1.1-1.606a1.218,1.218,0,0,1,1.157-.522V4.434H17.751v.241c.321.008.5.184.5.369,0,.08-.016.1-.073.185L17.26,6.578,16.232,5.036a.33.33,0,0,1-.056-.12c0-.1.177-.233.514-.241V4.434c-.273.024-.86.024-1.165.024-.249,0-.747-.008-1.044-.024ZM3.928,5l.715,1.815H3.213Z"/>
  </g>
</svg>
