<svg xmlns="http://www.w3.org/2000/svg" viewBox="0 0 20 16">
  <g id="Icons">
    <path id="path3377" d="M1.816.344l-.007,0a6.12,6.12,0,0,0,.607.906h.008v0a1.974,1.974,0,0,0-.3-.022,2.231,2.231,0,0,0-.658.11,9.919,9.919,0,0,0,1.068.791,2.043,2.043,0,0,0-1.586.111,10,10,0,0,0,1.129.621,2.058,2.058,0,0,0-1.592.324c.374.167.7.294.985.389a5.7,5.7,0,0,1,2.447.766,8.081,8.081,0,0,1,2.1,1.48c.054.064-.015.105-.063.059A10.237,10.237,0,0,0,3.875,4.418a7.533,7.533,0,0,0-2.406-.84,2.04,2.04,0,0,0-1.4.6c.4.1.738.163,1.037.207a2.056,2.056,0,0,0-1.074.6c.27.059.514.1.737.135A2.106,2.106,0,0,0,0,5.771c.311.025.585.035.832.036A2.064,2.064,0,0,0,0,6.516a10.411,10.411,0,0,0,1.135,0,2.042,2.042,0,0,0-.953.808,10.063,10.063,0,0,0,1.343-.062c.1-.007.211-.011.321-.012A3.017,3.017,0,0,1,4,7.969c.044.047-.022.1-.063.06a3.736,3.736,0,0,0-2.41-.767,2.037,2.037,0,0,0-1.217.894,10.681,10.681,0,0,0,1.139-.039A2.034,2.034,0,0,0,.5,9.2c.4-.076.741-.157,1.031-.242a2.042,2.042,0,0,0-.726.994c.27-.06.508-.123.724-.185a2.1,2.1,0,0,0-.427.914c.293-.108.547-.212.773-.315a2.091,2.091,0,0,0-.459.992,10.489,10.489,0,0,0,1.031-.474A2.055,2.055,0,0,0,1.92,12.02a9.667,9.667,0,0,0,1.2-.622,2.037,2.037,0,0,0-.732,1.323,9.027,9.027,0,0,0,1.472-.8,2.066,2.066,0,0,0-.2,1.125A8.625,8.625,0,0,0,5,11.82a2.36,2.36,0,0,0,.062.739,2.808,2.808,0,0,1,1.129-1.133.753.753,0,0,0-.388.847,18.871,18.871,0,0,0,1.607-1.634A3.709,3.709,0,0,0,6.869,12a17.978,17.978,0,0,1-3.808,1.459c.439.161.911.321.716.545l-.519.518c.332-.1.67-.251.965-.049-.028.272-.372.409-.666.568.517-.186.629-.143.765-.1.068.326-.168.5-.322.718a13.517,13.517,0,0,1,4.2-2.1c1.685-.568,3.86-1.159,4.451-2.6l.592-2.369a1.124,1.124,0,0,1-.293-.111.555.555,0,0,1-.2-.248.467.467,0,0,1-.467-.075.753.753,0,0,1-.17-.408.436.436,0,0,1-.389-.062.6.6,0,0,1-.166-.372V7.281l.032-.013a.692.692,0,0,0,.25-.163.214.214,0,0,0,.058-.187V6.887l.026-.012a1.252,1.252,0,0,0,.357-.232.23.23,0,0,0,.043-.176.794.794,0,0,0-.129-.3l-.023-.033.033-.024a1.547,1.547,0,0,0,.258-.215.154.154,0,0,0,.039-.091.137.137,0,0,0-.053-.1l-.082-.078.111,0a1.337,1.337,0,0,0,.448-.043.434.434,0,0,0,.224-.152.249.249,0,0,1-.012-.094.4.4,0,1,1,.8,0,.267.267,0,0,1-.014.109.878.878,0,0,0,.417-.057v0l.031-.011c.2-.071.277.039.6-.381-1.408-1.826-3.465-.528-4.148,1.353-.175.481-1.17.48-1.459,0C8.235,3.9,4.767,1.3,1.816.344Zm.614.91a5.97,5.97,0,0,1,1.082.434c.423.235.884.526,1.3.806s.8.551,1.061.75c.13.1.231.182.293.238a.443.443,0,0,1,.066.069s0,.01.012.017v.039a.059.059,0,0,1-.035.026H6.189c-.046,0-.166-.136-.412-.346s-.582-.443-1-.723S3.9,2,3.477,1.764A5.367,5.367,0,0,0,2.43,1.254Zm.1.879A10.611,10.611,0,0,1,4.834,3.238c.357.228.677.454.928.651a2.713,2.713,0,0,1,.517.478c.045.085,0,.116-.068.051a5.244,5.244,0,0,0-.5-.461c-.248-.195-.569-.42-.924-.646C4.143,2.9,3.138,2.512,2.527,2.133Zm-.461.732a7.131,7.131,0,0,1,2.69,1.092,11.82,11.82,0,0,1,1.017.723c.132.105.242.2.325.273a.727.727,0,0,1,.164.176c.025.061-.016.085-.071.047-.026-.019-.072-.086-.152-.16s-.188-.166-.318-.27a11.857,11.857,0,0,0-1.01-.715A18.393,18.393,0,0,0,2.066,2.867ZM1.109,4.383a6.864,6.864,0,0,1,2.862.83,9.593,9.593,0,0,1,1.164.693,2.287,2.287,0,0,1,.609.547c.051.111-.014.11-.07.047a3.693,3.693,0,0,0-.588-.523,9.552,9.552,0,0,0-1.154-.688A10.136,10.136,0,0,0,1.109,4.383Zm12.432.644a.318.318,0,1,0,.318.317A.315.315,0,0,0,13.541,5.027ZM1.328,5.062c.029,0,.056,0,.084,0a6.522,6.522,0,0,1,2.111.625A6.158,6.158,0,0,1,5.551,7.08c.03.038-.011.11-.065.053a7.356,7.356,0,0,0-2-1.363A6.16,6.16,0,0,0,.77,5.121,3.875,3.875,0,0,1,1.328,5.062Zm13.7.012c-.3.4-.441.351-.584.385a1.036,1.036,0,0,0,.489.645l-.028,0A21.824,21.824,0,0,1,20,5.916Zm-.672.412a.984.984,0,0,1-.462.051.4.4,0,0,1-.354.209.4.4,0,0,1-.359-.221.523.523,0,0,1-.231.147,1.318,1.318,0,0,1-.41.047c.016.029.044.056.045.086a.231.231,0,0,1-.057.144,1.27,1.27,0,0,1-.246.207.788.788,0,0,1,.123.3.312.312,0,0,1-.056.234,1.05,1.05,0,0,1-.366.246.329.329,0,0,1-.076.223.751.751,0,0,1-.248.166.5.5,0,0,0,.129.293.363.363,0,0,0,.356.041l.044-.012L12.2,7.7a.763.763,0,0,0,.158.4c.082.082.2.113.418.047l.041-.014.012.041a.45.45,0,0,0,.176.236,1.29,1.29,0,0,0,.3.121,6.761,6.761,0,0,0,1.57-2.383,1.06,1.06,0,0,1-.512-.66ZM1.2,5.791A5.563,5.563,0,0,1,3.5,6.324a5.414,5.414,0,0,1,1.644,1.09c.062.073-.015.1-.06.061A6.826,6.826,0,0,0,3.465,6.4,8.412,8.412,0,0,0,.832,5.8Q1.015,5.789,1.2,5.791Zm13.686.322v.018c0-.006,0-.012.014-.018ZM1.494,6.471c.019,0,.04,0,.061,0a5.228,5.228,0,0,1,1.506.295,3.69,3.69,0,0,1,1.455.816c.036.042,0,.106-.061.057a4.493,4.493,0,0,0-1.422-.793,8.291,8.291,0,0,0-1.89-.33A3.377,3.377,0,0,1,1.494,6.471ZM2.3,7.957q.063,0,.129.006a2.512,2.512,0,0,1,1.119.34c.036.021.041.11-.041.072a2.875,2.875,0,0,0-2.049-.256A2.512,2.512,0,0,1,2.3,7.957Zm.283.65a2.236,2.236,0,0,1,.9.182c.037.015.065.105-.028.078a2.28,2.28,0,0,0-1.9.086A1.536,1.536,0,0,1,2.4,8.619C2.458,8.614,2.52,8.608,2.582,8.607Zm1.279.569h0a3.61,3.61,0,0,1,.379.021c.044.005.046.085,0,.082a6.559,6.559,0,0,0-1.531.1,4.164,4.164,0,0,0-1.17.383A2.687,2.687,0,0,1,2.7,9.293,6.543,6.543,0,0,1,3.861,9.176Zm.567.422h0c.034,0,.068,0,.1,0,.083,0,.052.086,0,.086a5.16,5.16,0,0,0-1.56.246,8.062,8.062,0,0,0-1.1.437A3.025,3.025,0,0,1,2.949,9.85,5.4,5.4,0,0,1,4.428,9.6Zm.547.334c.03-.005.086.07.013.084a10.1,10.1,0,0,0-1.494.377,5.65,5.65,0,0,0-1.037.49,2.5,2.5,0,0,1,1.012-.569A8.9,8.9,0,0,1,4.975,9.932Zm.269.422h0a.042.042,0,0,1,.01.084,4.391,4.391,0,0,0-2.117.955,3.618,3.618,0,0,1,2.1-1.038Zm.481.373h.017c.062,0,.073.073,0,.084A3.228,3.228,0,0,0,3.861,11.92,2.62,2.62,0,0,1,5.725,10.727Zm.314.326c.039-.005.1.06.02.082a2.162,2.162,0,0,0-.557.252,2.34,2.34,0,0,0-.5.422,1.152,1.152,0,0,1,.453-.493A1.678,1.678,0,0,1,6.039,11.053Z"/>
  </g>
</svg>
