<svg xmlns="http://www.w3.org/2000/svg" width="20" height="16" viewBox="0 0 20 16"><g id="Icons"><path id="_Compound_Path_" data-name="&lt;Compound Path&gt;" d="M8.416,0A4.688,4.688,0,0,0,3.334,5.025a10.332,10.332,0,0,0,.532,3.253l5.223.779a12.765,12.765,0,0,1-1.322-5.07c0-3.578,5.37-2.414,5.492-2.377.236.071.431-.177.105-.365A12.64,12.64,0,0,0,8.416,0Zm2,2.981A1.7,1.7,0,0,0,8.6,4.668c0,1.468,1.793,2.726,3.171,2.693.773-.018,1.817-.59,1.817-1.549A3.129,3.129,0,0,0,10.42,2.981Zm3.78.426a.17.17,0,0,0-.11.263,8.467,8.467,0,0,1,.637,2.28c0,2.454-3.6,3.861-6.85,3.861-2.845,0-3.809-.641-3.809-.641L6.79,16s9.876-1.817,9.876-7.9a5.988,5.988,0,0,0-2.292-4.627A.18.18,0,0,0,14.2,3.407Z"/></g></svg>