<svg xmlns="http://www.w3.org/2000/svg" width="20" height="16" viewBox="0 0 20 16"><defs><style>.cls-1{fill-rule:evenodd;}</style></defs><g id="Icons"><path class="cls-1" d="M14.258,11.984a.922.922,0,0,1,0,1.3l-1.6,1.595a3.85,3.85,0,0,1-5.375.05l-.025-.025h0L4.424,12.127l-.017-.016h0a3.94,3.94,0,0,1-.962-1.544,3.815,3.815,0,0,1-.22-1.046,3.573,3.573,0,0,1,.343-1.69A3.451,3.451,0,0,1,4.175,6.9L6.744,4.151h0l3.6-3.859a.92.92,0,1,1,1.343,1.259L10.337,3a3.875,3.875,0,0,1,1.859.79L14.53,5.678a.92.92,0,0,1-1.155,1.433L11.041,5.224a2.322,2.322,0,0,0-2.954.185L5.518,8.161a1.683,1.683,0,0,0-.365.607,1.731,1.731,0,0,0-.078.342,1.8,1.8,0,0,0-.011.352,1.959,1.959,0,0,0,.057.355,2.11,2.11,0,0,0,.572.977L8.557,13.6a2.014,2.014,0,0,0,2.8-.025l1.6-1.6A.918.918,0,0,1,14.258,11.984Zm1.6-3.44H9.078a.921.921,0,0,0,0,1.842H15.86a.921.921,0,0,0,0-1.842Z"/></g></svg>