<svg xmlns="http://www.w3.org/2000/svg" viewBox="0 0 20 16">
  <g id="Icons">
    <path d="M7.213,8.6,5.387,7.255C3.9,7.88,2.505,8.312,1.063,8.937c1.249.865,2.354,1.682,3.219,2.306A16.526,16.526,0,0,0,7.213,8.6Zm8.072-4.709a23.264,23.264,0,0,0-1.153-2.739C13.94.817,13.459,0,12.931,0a.545.545,0,0,0-.384.144,4.332,4.332,0,0,0-.961,1.3c-.337.577-.961,1.49-1.394,2.067a2.516,2.516,0,0,1-.48.528A3.869,3.869,0,0,1,8.7,4.757c-.1.048-.241.048-.385.1a1.807,1.807,0,0,0-.72.432,11.492,11.492,0,0,0-1.057,1.1c-.049.1-.145.193-.241.337L7.934,7.976a17.045,17.045,0,0,0,3.7-5.67,12.945,12.945,0,0,1-2.979,6.2,30.234,30.234,0,0,1-3.172,3.123,1.837,1.837,0,0,1,.865.048c.865.336,1.3,1.585,1.682,2.45.24.625.577,1.249.817,1.874a4.847,4.847,0,0,0,1.97-1.057,14.045,14.045,0,0,0,1.633-1.778c.961-1.153,2.259-2.787,3.748-2.018.24.144.529.288.721.433.288.24.528.48.817.72a9.466,9.466,0,0,0,1.2,1.009c-1.009-2.162-1.778-4.42-2.643-6.726C15.91,5.67,15.622,4.757,15.285,3.892Z"/>
  </g>
</svg>
