<svg xmlns="http://www.w3.org/2000/svg" width="20" height="16" viewBox="0 0 20 16"><g id="Icons"><path d="M1.818,5.927V6.95A2.427,2.427,0,0,1,3.7,5.938a2.3,2.3,0,0,1,2.26,1.2,2.865,2.865,0,0,1,2.2-1.2,2.221,2.221,0,0,1,2.534,2.534V11.23c0,1.254.657,1.255.657,1.249v.08H8.873v-.085s.565-.067.565-1.141V9.164c0-1.294-.361-2.274-1.5-2.275-1.349,0-1.65.842-1.706,1.715V11.23c0,1.254.657,1.255.657,1.249v.08H4.414v-.085s.565-.067.565-1.141V9.164c0-1.294-.5-2.275-1.5-2.275A1.488,1.488,0,0,0,1.818,8.47v3.08a.985.985,0,0,0,.531.92v.089H0v-.068a.938.938,0,0,0,.548-.967V7c0-.372-.265-.773-.548-.773V6.1H1.193c.425,0,.545-.125.545-.177Zm9.775-2.486v.223c.228.011.576.311.576,1v6.709c0,.567-.335.959-.576.959v.219h2.8v-.219c-.209,0-.638-.222-.638-1.341v-6.4a2.85,2.85,0,0,1,.913-.111,1.449,1.449,0,0,1,1.562,1.465c0,1.33-1.824,1.79-2.421,1.79v.017a31.9,31.9,0,0,0,3.334,4.427,1.935,1.935,0,0,0,1.235.352H20a9.658,9.658,0,0,1-1.822-1.423,37.112,37.112,0,0,1-2.43-2.94A2.775,2.775,0,0,0,17.8,5.649c0-1.532-1.491-2.208-2.87-2.208Z"/></g></svg>