<svg xmlns="http://www.w3.org/2000/svg" viewBox="0 0 20 16">
  <g id="Icons">
    <path id="mendeley" d="M10,5.639h.016a1.963,1.963,0,0,1,1.254,3.474,1.518,1.518,0,0,1-.713.377,1.975,1.975,0,0,1-.541.077H10a1.975,1.975,0,0,1-.541-.077,1.522,1.522,0,0,1-.714-.377A1.964,1.964,0,0,1,10,5.639m-8.318,7.9a1.869,1.869,0,0,0,2.091-1.715A2.05,2.05,0,0,0,3.6,10.793C2.12,7.549,9.414,7.475,8.181,10.537l-.008.013a1.928,1.928,0,0,0,.7,2.7,2.1,2.1,0,0,0,1.136.276,2.1,2.1,0,0,0,1.137-.276,1.928,1.928,0,0,0,.7-2.7l-.009-.013c-1.231-3.062,6.063-2.988,4.583.256a2.061,2.061,0,0,0-.178,1.032,1.87,1.87,0,0,0,2.092,1.715,1.957,1.957,0,0,0,1.189-.615,1.863,1.863,0,0,0,.483-1.446,1.955,1.955,0,0,0-.483-1.316,1.844,1.844,0,0,0-1.513-.538c-1.354-.03-1.555-1.09-1.173-3.089a2.792,2.792,0,0,0,.189-1.114,2.831,2.831,0,0,0-1.777-2.749c-.032-.014-.066-.025-.1-.039s-.074-.028-.111-.038a2.805,2.805,0,0,0-.937-.15,2.85,2.85,0,0,0-2.4,1.362c-.683.748-.99,1.2-1.692,1.2-.666,0-1.009-.455-1.692-1.2A2.84,2.84,0,0,0,4.981,2.6c-.038.011-.076.026-.112.038s-.065.025-.1.04a2.942,2.942,0,0,0-.354.17A2.86,2.86,0,0,0,2.992,5.422a2.792,2.792,0,0,0,.189,1.114c.382,2,.181,3.059-1.172,3.089a1.945,1.945,0,0,0-1.658.7,2.221,2.221,0,0,0,0,2.425,2,2,0,0,0,1.334.788"/>
  </g>
</svg>
