<svg xmlns="http://www.w3.org/2000/svg" width="20" height="16" viewBox="0 0 20 16"><g id="Icons"><path d="M15.5,8.852c-.161-.273-.247-.518-.419-.778a10.675,10.675,0,0,0-4.155-3.706A7.694,7.694,0,0,0,9.113,3.72c-.37-.07-.795.034-1.186-.01l-.252.026a2.127,2.127,0,0,1-.6-.349,6.072,6.072,0,0,0-1.246-.476c-.163-.056-.623-.177-.764-.03a.193.193,0,0,0-.152.174c-.081.153.025.36.1.485a6.034,6.034,0,0,0,.755.865,6.389,6.389,0,0,1,.694.86c.379.637.6,1.364.956,2a4.807,4.807,0,0,0,.51.722c.15.166.4.272.5.493.169.224-.109,1.051-.167,1.31a5.2,5.2,0,0,0,.438,3.184c.178.32.351.7.743.757.021-.026,0-.012.045-.029a6.841,6.841,0,0,1,.149-1.842,4.5,4.5,0,0,1,.49-.872c.127.059.149.275.236.411.194.354.4.744.633,1.095a15.363,15.363,0,0,0,1.565,2.04,5.156,5.156,0,0,0,.47.462h3.166A.811.811,0,0,0,17,14.188v-2.8c-.179-.276-.343-.568-.51-.856C16.18,9.98,15.807,9.414,15.5,8.852ZM8.869,5.934l-.02.026c-.116-.181-.219-.363-.335-.545a4.031,4.031,0,0,1-.434-.451l-.023,0,0-.024a1.946,1.946,0,0,1,.484-.111c.106.086.268.13.352.242a2.745,2.745,0,0,0,.17.237A.673.673,0,0,1,8.869,5.934ZM17,1.812V9.949c-.26-.422-.513-.859-.75-1.283a12.766,12.766,0,0,0-.751-1.3,12.127,12.127,0,0,0-5.092-4,5.746,5.746,0,0,0-1.582-.332c-.3.018-.6.026-.9.045a4.732,4.732,0,0,1-.594-.363c-.727-.36-2.581-1.111-2.957.173-.242.811.638,1.494.954,1.86a5.678,5.678,0,0,1,.7.834c.105.195.151.408.257.615A14.553,14.553,0,0,0,7.074,7.74a5.728,5.728,0,0,0,.518.7c.111.123.284.165.342.377a3.466,3.466,0,0,0-.183.926,5.3,5.3,0,0,0,.763,3.983c.222.28.745.891,1.329.576.516-.271.326-.94.42-1.554.02-.148-.013-.241.048-.344l0,.024c.2.318.4.623.593.943a6.893,6.893,0,0,0,1.721,1.441A2.2,2.2,0,0,1,12.89,15H3.812A.811.811,0,0,1,3,14.188V1.812A.811.811,0,0,1,3.812,1H16.188A.811.811,0,0,1,17,1.812Z"/></g></svg>