<svg id="ICONS_HERE_" data-name="ICONS HERE!" xmlns="http://www.w3.org/2000/svg" viewBox="0 0 20 16"><path id="numpy" d="M10.013.519l-2.4,1.2,2.5,1.26,2.325-1.241ZM6.449,2.3,3.705,3.666,6.273,4.955l2.676-1.4Zm7.147.02L11.254,3.55,13.88,4.875l2.409-1.209ZM10.1,4.137l-2.67,1.4L10,6.826,12.716,5.46ZM3,4.414v7.6l1.758.94V8.979s2.394,4.6,2.418,4.65a2.163,2.163,0,0,0,.522.705c.342.226,1.807,1.108,1.807,1.108V7.732L7.527,6.738v4.3s-2.42-5.148-2.644-5.61a.492.492,0,0,0-.178-.141C4.271,5.058,3,4.414,3,4.414Zm14,.108L14.49,5.769l0,3.282L17,7.776ZM13.471,6.276,10.542,7.732v3.277l2.932-1.458ZM17,8.937,14.493,10.2l0,3.306L17,12.259Zm-3.525,1.769-2.933,1.467v3.308l2.937-1.465Z"/></svg>