<svg xmlns="http://www.w3.org/2000/svg" viewBox="0 0 20 16">
  <g id="Icons">
    <path id="numpy" d="M10.014,0,7.449,1.28,10.12,2.627,12.606,1.3ZM6.2,1.9,3.269,3.365,6.014,4.744,8.876,3.251Zm7.642.021-2.5,1.32,2.808,1.417,2.576-1.294ZM10.1,3.869,7.246,5.363,10,6.744l2.908-1.46Zm-7.587.3v8.121l1.88,1V9.047s2.56,4.918,2.586,4.972a2.288,2.288,0,0,0,.557.754c.366.242,1.933,1.184,1.933,1.184V7.714L7.355,6.65v4.6s-2.587-5.5-2.826-6a.537.537,0,0,0-.191-.15C3.874,4.854,2.515,4.166,2.515,4.166Zm14.97.115L14.8,5.615l0,3.509,2.681-1.363ZM13.711,6.157,10.579,7.714v3.5l3.136-1.558ZM17.485,9l-2.68,1.353,0,3.536,2.678-1.337Zm-3.769,1.892-3.137,1.569V16l3.141-1.567Z"/>
  </g>
</svg>
