<?xml version="1.0" encoding="UTF-8" standalone="no"?>
<!-- Created with Inkscape (http://www.inkscape.org/) -->

<svg
   width="20"
   height="20"
   viewBox="0 0 5.2916666 5.2916666"
   version="1.1"
   id="svg274"
   xml:space="preserve"
   inkscape:version="1.2 (dc2aedaf03, 2022-05-15)"
   sodipodi:docname="numpy.svg"
   xmlns:inkscape="http://www.inkscape.org/namespaces/inkscape"
   xmlns:sodipodi="http://sodipodi.sourceforge.net/DTD/sodipodi-0.dtd"
   xmlns:xlink="http://www.w3.org/1999/xlink"
   xmlns="http://www.w3.org/2000/svg"
   xmlns:svg="http://www.w3.org/2000/svg"><sodipodi:namedview
     id="namedview276"
     pagecolor="#ffffff"
     bordercolor="#000000"
     borderopacity="0.25"
     inkscape:showpageshadow="false"
     inkscape:pageopacity="0.0"
     inkscape:pagecheckerboard="0"
     inkscape:deskcolor="#d1d1d1"
     inkscape:document-units="px"
     showgrid="true"
     inkscape:zoom="22.627419"
     inkscape:cx="16.020386"
     inkscape:cy="15.1586"
     inkscape:window-width="2560"
     inkscape:window-height="1377"
     inkscape:window-x="-8"
     inkscape:window-y="-8"
     inkscape:window-maximized="1"
     inkscape:current-layer="layer1"
     showborder="true"><inkscape:grid
       type="xygrid"
       id="grid561"
       originx="0"
       originy="0" /></sodipodi:namedview><defs
     id="defs271"><style
   id="style432">.cls-1{fill:#130754;}.cls-2{fill:#ffca00;}.cls-3{fill:#e70488;}</style><rect
   id="SVGID_1_"
   x="31.5"
   y="15.978"
   width="289"
   height="130.044" /><rect
   id="SVGID_3_"
   x="31.5"
   y="15.978"
   width="289"
   height="130.044" />
	

		<defs
   id="defs934">
			<rect
   id="rect974"
   x="31.5"
   y="15.978"
   width="289"
   height="130.04401" />
		</defs>
		
		
	
			<defs
   id="defs940">
				<rect
   id="rect979"
   x="31.5"
   y="15.978"
   width="289"
   height="130.04401" />
			</defs>
			<clipPath
   id="SVGID_4_">
				<use
   xlink:href="#SVGID_3_"
   overflow="visible"
   id="use942" />
			</clipPath>
			
			
			
			
			
			
			
			
		<style
   id="style869">.cls-1{fill:rgb(77, 171, 207);}.cls-2{fill:rgb(77, 119, 207);}</style></defs><g
     inkscape:label="Layer 1"
     inkscape:groupmode="layer"
     id="layer1">
			
		<path
   id="polygon873"
   class="cls-1"
   d="M 2.6491774,0.66635939 2.0146354,0.98295789 2.6755745,1.3162951 3.2906129,0.98792724 Z M 1.7062566,1.1367642 0.98026784,1.4990767 1.6596832,1.8402604 2.3677751,1.4706807 Z M 3.5972727,1.1418285 2.9775454,1.4685689 3.6725411,1.8191308 4.3097734,1.4990761 Z M 2.6709975,1.6237202 1.9645123,1.9933935 2.6449739,2.3351562 3.3645551,1.9737963 Z m -1.87724757,0.073363 v 2.009421 L 1.2589985,3.9551949 V 2.9048547 c 0,0 0.6333083,1.2169495 0.639717,1.2302449 0.00642,0.013295 0.070014,0.1415788 0.1379267,0.1866301 0.090485,0.059877 0.4782511,0.2930595 0.4782511,0.2930595 L 2.5148,2.5750484 1.9913952,2.3119168 V 3.449295 c 0,0 -0.6400831,-1.3619604 -0.6993861,-1.484297 C 1.2843491,1.949215 1.2528741,1.931899 1.2448381,1.92769 1.1300576,1.867431 0.79374975,1.6970838 0.79374993,1.6970832 Z M 4.4979166,1.7255728 3.8339137,2.0556782 3.8344741,2.9238906 4.4979166,2.5866303 Z M 3.5641688,2.189776 2.7891219,2.5750484 V 3.4418411 L 3.565028,3.0562698 Z M 4.4979166,2.8938512 3.8346609,3.228627 3.8351465,4.1033595 4.4979166,3.7726001 Z M 3.5653271,3.3618646 2.7891219,3.750014 V 4.625307 L 3.5661864,4.23755 Z"
   style="fill:#000000;stroke-width:0.00956506"
   clip-path="none"
   mask="none" /></g></svg>
