<svg xmlns="http://www.w3.org/2000/svg" viewBox="0 0 20 16">
  <g id="Icons">
    <path d="M10.85,2.588l.063-.786h0L11.182.131l.071.014-.092.9L10.913,2.6ZM9.044,2.6l.071-.007-.071-.779L8.782.131,8.7.145l.1.9Zm2.683.2.064.021.489-1.5.184-.878L12.386.414l-.524,1.607Zm-3.554.021.064-.021L8.1,2.028,7.572.414,7.5.435l.184.878Zm4.39.312.064.035.715-1.409L13.611.91,13.54.874l-.772,1.515Zm-5.225.035L7.4,3.126l-.213-.737L6.418.874,6.354.91l.269.842Zm-.772.474.057-.042-.269-.7-1-1.38-.064.042.347.8Zm7.1-.7L13.6,2.892l-.262.7.056.042.928-1.281.339-.8-.056-.042L13.6,2.892Zm.368,1.238.05.05L15.2,3.1l.41-.743-.056-.049-1.2,1.2Zm-8.155.05.049-.05-.318-.658L4.4,2.312l-.057.049.418.743Zm8.75.63.043.057,1.281-.935.467-.672-.042-.057L15,4.244ZM5.292,4.91l.043-.057-.369-.6L3.579,3.246,3.536,3.3l.475.672Zm9.82.708.028.056,1.416-.715.524-.594-.036-.071-1.529.779Zm.353.828.022.071L17,6.021l.559-.509-.021-.071L15.9,5.972Zm.227.878L15.7,7.4l-2.244.17-.255.361.014.184L17.4,7.791l.595-.375h0l-.021-.2L15.706,7.4l1.572-.248.58-.425-.014-.078-1.7.269Zm.021,1.812L15.7,9.2l-2.294-.559-.049.2,4.425,1.069.042-.2-2.081-.5,1.543.248.58-.241.015-.078-1.714-.269Zm-.205.885-.021.064,1.529.5.566-.149h0l.022-.071-1.657-.538Zm-11.037.064-.021-.064-.439-.2-1.65.538.021.071.56.149Zm10.7.779-.035.063.41-.127h0l-.41.127,1.437.73.524-.071.035-.064-1.55-.786Zm-10.35.063-.036-.063-.417-.128-1.551.786.036.064.531.071Zm9.876.715-.036.057h0l1.3.949.482.014.042-.064-1.409-1.019Zm-.581.7-.049.05,1.14,1.14.417.085L14.4,12.386l.057-.057ZM5.3,11.7l-.042-.057-.376-.063L3.465,12.6l.05.064L4,12.648Zm7.356,1.728-.057.028.729,1.444.269.191.071-.028-.8-1.558Zm-7.908.106,1.147-1.14-.05-.05-.332-.014L4.273,13.568l.056.05h0ZM14.4,12.386l1.232,1.232.057-.057-1.232-1.232Zm-2.584,1.4-.063.021.5,1.543.177.227.078-.022-.545-1.663Zm-3.667,0L8,13.887,7.458,15.55l.071.022.184-.227.5-1.543Zm.814.346-.276,1.728.078.007.092-.248.248-1.6L9.037,14ZM10.927,14l-.07.014.255,1.6.092.248.07-.007-.269-1.728ZM13.7,12.981l-.269-.043-.057.043.949,1.309.347.142-1.027-1.409,1.027,1.409.063-.043L13.7,12.981Zm-7.115,0h0l-.057-.043-.276.043L5.228,14.389l.057.043h0l.354-.142Zm.573.552.205-.078L7.3,13.427,7.09,13.5,6.3,15.062l.064.028L6.63,14.9l.736-1.444ZM10.014,2.524V.039H9.943v1.7l.007.786Zm0,11.554H9.943v1.883h.078l-.007-1.756ZM9.512.039l-.2.014.05.913.318,4.128.184-.014-.014-.588ZM10.7.966,10.75.06,10.559.046,10.2,4.492l-.014.588.177.014ZM9.186,5.186l.184-.043-.057-.58L8.28.216,8.088.258l.142.9Zm1.494-.043.177.05.977-4.028.148-.892-.2-.05-1.055,4.34Zm-1.961.213.169-.071L8.8,4.712,7.09.577,6.906.655l.227.864Zm2.442-.071.17.071,1.593-3.823.234-.864L12.973.591l-1.72,4.128Zm-2.888.3L8.435,5.5l-.127-.559L5.972,1.122l-.17.1.3.829ZM11.614,5.5l.156.092h0l2.18-3.532.312-.822-.17-.106-2.35,3.809Zm-3.738.39.142-.121-.156-.531L4.952,1.83,4.8,1.958l.383.771Zm4.149-.113.141.12L14.878,2.75l.382-.771-.148-.128-2.924,3.4Zm-4.5.474L7.65,6.12l-.185-.509L4.053,2.694l-.134.148.446.708Zm5.183-.482-.135-.148-.184.5.12.142,3.172-2.7.453-.708L16,2.715l-3.427,2.91Zm-5.466.892.1-.155-.212-.468L3.3,3.685l-.107.17.5.63ZM12.7,6.524l.1.156,3.562-2.167.5-.637-.1-.163L12.91,6.05Zm-5.67.595.07-.17L6.871,6.51,4.825,5.667l.028-.049-.411-.545-.035.063h0l.035-.063L2.913,4.294l-.035.071.524.594,1.239.623-1.94-.8-.078.184.545.553Zm5.911-.156.071.17L16.874,5.54,17.419,5l-.07-.184L13.172,6.524ZM6.885,7.6l.042-.177-.24-.4-2.2-.531L4.5,6.446,4.06,5.972,2.425,5.441,2.4,5.512l.56.509,1.2.39L2.29,5.958l-.049.191.573.467Zm6.52-.375-.049-.191-.248.4.042.184,4.078-.97.574-.46-.05-.191-4.4,1.041ZM6.814,8.1l.021-.184L6.581,7.55,4.265,7.366l.008-.042-.454-.4L2.113,6.644l-.007.078.581.425,1.2.191L2.064,7.189l-.014.2.587.375Zm.014.5-.014-.184L6.559,8.1l-2.371.177V8.23l-.461-.34H2v.078l.588.326h1.3l-1.848.141.015.2.587.283Zm9.02-.3H17.37l.588-.326V7.89H16.23l-.46.34v.064L13.476,8.1l-.262.325-.014.184,4.191.34.6-.283.014-.2Zm-2.74.814,4.1.984.574-.184L13.356,8.839l.049-.2-.255.283Zm-.1.3-.071.17,3.9,1.621.545-.1.078-.184L13.25,9.165Zm-.213.453-.1.163,3.6,2.209.5-.021.106-.17L13.023,9.653Zm-9.975.206-.573-.191-.043-.192,1.926-.46L2.68,9.455l-.588-.241-.007-.078,1.706-.269.46.269.007.057h0L6.63,8.627l.248.283.042.184ZM4.258,9.2l-.007-.007h0Zm8.255,1.076-.12.142,3.214,2.747.446.056.135-.148L12.712,10.1Zm-.347.368-.141.121,2.747,3.221.382.12.156-.127L12.343,10.5ZM7.083,9.568,7.019,9.4l-.24-.248L2.566,10.885l.071.184.545.1Zm.241.439-.092-.156-.227-.205L3.112,12.011l.1.177.509.014Zm.3.4-.113-.142-.2-.177-3.49,2.952.134.156.446-.057ZM8,10.758l-.162-.142h0l-.149-.128L4.7,13.958l.149.127.382-.12Zm.291.169-.17-.106L5.71,14.715l.17.106.311-.177,2.223-3.6Zm3.455.008-.135.113,2.216,3.61.3.177.17-.1-2.385-3.908Zm-2.967.226-.184-.078L6.828,15.31l.184.078.22-.22L8.867,11.26Zm2.471.007-.092.092,1.614,3.922L13,15.4l.184-.078L11.43,11.09ZM9.3,11.317,8.216,15.77l.134-.248,1-4.12Zm-.2-.05L8.025,15.72l.191.05L9.3,11.317Zm1.621.05-.049.085.984,4.127.127.248.2-.05L10.92,11.274Zm-1.083.056L9.271,15.94l.2.014.043-.262.339-4.227-.014-.077Zm.545.015-.014.077L10.5,15.7l.035.255.205-.014-.354-4.567Z"/>
  </g>
</svg>
