<?xml version="1.0" encoding="UTF-8" standalone="no"?>
<!-- Created with Inkscape (http://www.inkscape.org/) -->

<svg
   width="20"
   height="20"
   viewBox="0 0 5.2916666 5.2916666"
   version="1.1"
   id="svg274"
   xml:space="preserve"
   inkscape:version="1.2 (dc2aedaf03, 2022-05-15)"
   sodipodi:docname="papers-with-code.svg"
   xmlns:inkscape="http://www.inkscape.org/namespaces/inkscape"
   xmlns:sodipodi="http://sodipodi.sourceforge.net/DTD/sodipodi-0.dtd"
   xmlns="http://www.w3.org/2000/svg"
   xmlns:svg="http://www.w3.org/2000/svg"><sodipodi:namedview
     id="namedview276"
     pagecolor="#ffffff"
     bordercolor="#000000"
     borderopacity="0.25"
     inkscape:showpageshadow="false"
     inkscape:pageopacity="0.0"
     inkscape:pagecheckerboard="0"
     inkscape:deskcolor="#d1d1d1"
     inkscape:document-units="px"
     showgrid="true"
     inkscape:zoom="32"
     inkscape:cx="10.640625"
     inkscape:cy="5.40625"
     inkscape:window-width="2560"
     inkscape:window-height="1377"
     inkscape:window-x="-8"
     inkscape:window-y="-8"
     inkscape:window-maximized="1"
     inkscape:current-layer="layer1"
     showborder="true"><inkscape:grid
       type="xygrid"
       id="grid561"
       originx="0"
       originy="0" /></sodipodi:namedview><defs
     id="defs271"><style
       id="style432">.cls-1{fill:#130754;}.cls-2{fill:#ffca00;}.cls-3{fill:#e70488;}</style></defs><g
     inkscape:label="Layer 1"
     inkscape:groupmode="layer"
     id="layer1"><path
       id="rect336"
       style="fill:#000000;stroke-width:0.0333333"
       class="cls-1"
       d="M 3.9832194 0.88315022 L 3.9832194 1.3017293 C 3.9725527 1.3123893 4.3242838 1.3079305 4.3242838 1.3079305 L 4.3299682 3.9640991 L 3.9832194 3.9640991 L 3.9832194 4.3976643 L 4.7624999 4.3976643 L 4.7624999 0.88315022 L 3.9832194 0.88315022 z M 0.52916666 0.89400227 L 0.52916666 4.4085164 L 1.3084472 4.4085164 L 1.3084472 3.9749511 L 0.96273192 3.9739176 L 0.96841633 1.3182658 C 0.96841633 1.3182658 1.3191138 1.3232514 1.3084472 1.3125814 L 1.3084472 0.89400227 L 0.52916666 0.89400227 z M 1.1740885 1.5182536 L 1.1740885 3.7656616 L 1.6019694 3.7656616 L 1.6019694 1.5182536 L 1.1740885 1.5182536 z M 2.4370605 1.5203206 L 2.4370605 3.7677286 L 2.8644246 3.7677286 L 2.8644246 1.5203206 L 2.4370605 1.5203206 z M 3.692281 1.5203206 L 3.692281 3.7677286 L 4.1201619 3.7677286 L 4.1201619 1.5203206 L 3.692281 1.5203206 z M 1.7993733 1.6484782 L 1.7993733 3.6230346 L 2.2267374 3.6230346 L 2.2267374 1.6484782 L 1.7993733 1.6484782 z M 3.0576945 1.6567464 L 3.0576945 3.6313029 L 3.4850585 3.6313029 L 3.4850585 1.6567464 L 3.0576945 1.6567464 z "
       clip-path="none" /></g></svg>
