<svg xmlns="http://www.w3.org/2000/svg" width="20" height="16" viewBox="0 0 20 16"><g id="Icons"><path d="M6.823,6.748a.957.957,0,0,1,.1.829,1.392,1.392,0,0,1-.458.874,1.692,1.692,0,0,1-1.035.261h-.7l.428-2.206H5.95A1.178,1.178,0,0,1,6.823,6.748Zm8.09-.242h-.786L13.7,8.712h.7a1.692,1.692,0,0,0,1.035-.261,1.4,1.4,0,0,0,.459-.874.957.957,0,0,0-.1-.829A1.176,1.176,0,0,0,14.913,6.506ZM20,8c0,2.9-4.477,5.26-10,5.26S0,10.905,0,8,4.477,2.74,10,2.74,20,5.1,20,8ZM7.86,8.363a2.354,2.354,0,0,0,.253-.706A1.642,1.642,0,0,0,7.839,6.2a1.835,1.835,0,0,0-1.454-.523H4.177L3.152,10.946H4.3l.272-1.4h.984a3.5,3.5,0,0,0,1.071-.137,2.032,2.032,0,0,0,.764-.458A2.354,2.354,0,0,0,7.86,8.363Zm4.15,1.181.477-2.453a1.107,1.107,0,0,0-.218-1.083,1.982,1.982,0,0,0-1.322-.334H9.932l.273-1.4H9.065L8.041,9.544H9.18l.587-3.02h.911a.8.8,0,0,1,.571.145q.135.144.057.543l-.453,2.332ZM16.8,6.2a1.834,1.834,0,0,0-1.454-.523H13.14l-1.025,5.272h1.149l.272-1.4h.984a3.5,3.5,0,0,0,1.071-.137,2.044,2.044,0,0,0,.765-.458,2.3,2.3,0,0,0,.721-1.292A1.645,1.645,0,0,0,16.8,6.2Z"/></g></svg>