<svg xmlns="http://www.w3.org/2000/svg" viewBox="0 0 20 16">
  <g id="Icons">
    <path d="M13.868,1.568a5.342,5.342,0,0,0-3-1.523,7.177,7.177,0,0,0-2,.057A5.518,5.518,0,0,0,4.6,4.566c-.047.285-.056,1.171-.056,5.885h0V16h1.9V12.792c0-3.662-.038-3.336.351-3.045a5.662,5.662,0,0,0,2.023.941,6.163,6.163,0,0,0,2.122.058,5.424,5.424,0,0,0,3-1.6,5.128,5.128,0,0,0,1.231-2.023A5.4,5.4,0,0,0,13.868,1.568Zm-.5,4.78a3.445,3.445,0,0,1-1.893,2.278,3.169,3.169,0,0,1-1.136.322h0c-.184.021-.369.036-.41.033A3.538,3.538,0,0,1,6.878,7.02a3.5,3.5,0,0,1-.086-2.884,3.1,3.1,0,0,1,.632-.988A3.51,3.51,0,0,1,9.045,2.134a2.488,2.488,0,0,1,.943-.1,2.647,2.647,0,0,1,.914.084,3.547,3.547,0,0,1,2.487,2.567A3.764,3.764,0,0,1,13.371,6.348Z"/>
  </g>
</svg>
