<svg xmlns="http://www.w3.org/2000/svg" viewBox="0 0 20 16">
  <g id="Icons">
    <path d="M12.118,5.926a2.346,2.346,0,0,1-.011,1.041,2.152,2.152,0,0,1-1.183,1.424,2,2,0,0,1-.71.2c-.115.013-.231.023-.256.021a2.211,2.211,0,0,1-1.91-1.226A2.184,2.184,0,0,1,8,5.585a1.938,1.938,0,0,1,.4-.618A2.192,2.192,0,0,1,9.4,4.334a1.565,1.565,0,0,1,.589-.065,1.659,1.659,0,0,1,.572.053A2.216,2.216,0,0,1,12.118,5.926ZM17,1V15H3V1ZM12.418,3.98a3.341,3.341,0,0,0-1.877-.952,4.459,4.459,0,0,0-1.251.036,3.448,3.448,0,0,0-2.667,2.79c-.029.178-.035.732-.035,3.678h0V13H7.777V11c0-2.289-.023-2.085.22-1.9a3.552,3.552,0,0,0,1.264.588,3.853,3.853,0,0,0,1.326.037,3.266,3.266,0,0,0,.992-.334,3.19,3.19,0,0,0,.886-.665,3.192,3.192,0,0,0,.769-1.265A3.372,3.372,0,0,0,12.418,3.98Z"/>
  </g>
</svg>
