<svg xmlns="http://www.w3.org/2000/svg" viewBox="0 0 20 16">
  <g id="Icons">
    <path id="path1681-9" d="M8.316,1a1.487,1.487,0,0,0-.541.146c-.739.321-1.476.646-2.217.966a.615.615,0,0,0-.222.124.982.982,0,0,0-.009.342.587.587,0,0,0,.232.189,4.85,4.85,0,0,1,.671.394.9.9,0,0,1,.346.665,3.719,3.719,0,0,1,.009.472v8.514c-.016.326,0,.652-.042.977-.027.177-.106.392-.3.44-.3.053-.613,0-.917.033a1.572,1.572,0,0,0-.034.681l.07.056q2.25-.113,4.5,0c.086,0,.212.02.258-.073.01-.19,0-.379,0-.568.009-.065-.07-.1-.127-.1-.309-.007-.619.016-.926-.02a.368.368,0,0,1-.284-.313A7.618,7.618,0,0,1,8.7,12.507c-.009-1.025-.019-2.048-.039-3.072a4.486,4.486,0,0,0,2.22.321,4.083,4.083,0,0,0,2.654-1.43,5.223,5.223,0,0,0,1.186-3.148,5,5,0,0,0-.2-1.841,3.3,3.3,0,0,0-.456-.868A3.519,3.519,0,0,0,12.28,1.134a3.609,3.609,0,0,0-3.155.639,4.335,4.335,0,0,0-.5.471c-.055-.36-.1-.721-.156-1.081C8.429,1.1,8.4,1.017,8.313,1Zm2.016,1.166v0a1.747,1.747,0,0,1,1.039.318,2.572,2.572,0,0,1,.822,1.069A5.96,5.96,0,0,1,12.649,5.5a4.817,4.817,0,0,1-.34,2.405,1.828,1.828,0,0,1-1.3,1.069,2.454,2.454,0,0,1-2.044-.6,1.368,1.368,0,0,1-.306-.938c0-1.46.01-2.921,0-4.382a2.155,2.155,0,0,1,1.515-.873.645.645,0,0,1,.158-.013Z"/>
  </g>
</svg>
