<svg xmlns="http://www.w3.org/2000/svg" viewBox="0 0 20 16">
  <g id="Icons">
    <path id="path1795" d="M3,1V15H17V1ZM9.032,3.975c.048.008.066.056.091.092.031.207.058.414.09.621a2.594,2.594,0,0,1,.285-.27,2.075,2.075,0,0,1,1.814-.368,2.02,2.02,0,0,1,1.025.768,1.874,1.874,0,0,1,.262.5,2.865,2.865,0,0,1,.116,1.058,3.01,3.01,0,0,1-.682,1.811,2.353,2.353,0,0,1-1.526.822,2.569,2.569,0,0,1-1.276-.185q.017.884.022,1.766A4.436,4.436,0,0,0,9.3,11.4a.211.211,0,0,0,.163.179c.177.021.355.008.532.012.034,0,.076.022.074.059,0,.109.009.218,0,.327-.027.053-.1.041-.149.042q-1.293-.064-2.588,0L7.3,11.99a.9.9,0,0,1,.02-.391c.175-.021.353.011.527-.019.112-.028.157-.152.172-.253.024-.187.016-.375.025-.562V5.87A1.363,1.363,0,0,0,8.03,5.6a.518.518,0,0,0-.2-.383,2.773,2.773,0,0,0-.387-.226.346.346,0,0,1-.133-.109.592.592,0,0,1,.009-.2.347.347,0,0,1,.127-.071c.426-.184.85-.371,1.275-.556a.867.867,0,0,1,.311-.084Zm1.16.669a.4.4,0,0,0-.091.007,1.237,1.237,0,0,0-.87.5c.008.84,0,1.68,0,2.52a.783.783,0,0,0,.176.539,1.408,1.408,0,0,0,1.175.346,1.054,1.054,0,0,0,.746-.615,2.777,2.777,0,0,0,.2-1.383,3.387,3.387,0,0,0-.262-1.117,1.486,1.486,0,0,0-.473-.615,1,1,0,0,0-.6-.182Z"/>
  </g>
</svg>
