<svg xmlns="http://www.w3.org/2000/svg" viewBox="0 0 20 16">
  <g id="Icons">
    <path id="path30870" d="M5.379,0l.189,9.268S7.2,8.9,7.43,14.887v-.049C8.825,9.024,16.268,16,16.268,16V6S8.95-.171,7.467,5.393V4.65C7.206.943,5.375,0,5.375,0Zm-.3,9.892L4.9,1.158A1.86,1.86,0,0,0,4.092.926h0a1.112,1.112,0,0,0-.36.037l.08,10.205a2.3,2.3,0,0,1,2.913,1.385A6.3,6.3,0,0,0,6,10.107c-.172-.259-.468-.49-.779-.3m8.26-4.121h.578l1.4,6.26H14.016l-.7-3.488-1.269,3h-.643L10.26,8.6l-.7,3.361H8.213L9.609,5.7h.536l1.66,3.7Z"/>
  </g>
</svg>
