<?xml version="1.0" encoding="UTF-8" standalone="no"?>
<!-- Created with Inkscape (http://www.inkscape.org/) -->

<svg
   width="20"
   height="20"
   viewBox="0 0 5.2916666 5.2916666"
   version="1.1"
   id="svg274"
   xml:space="preserve"
   inkscape:version="1.2 (dc2aedaf03, 2022-05-15)"
   sodipodi:docname="python.svg"
   xmlns:inkscape="http://www.inkscape.org/namespaces/inkscape"
   xmlns:sodipodi="http://sodipodi.sourceforge.net/DTD/sodipodi-0.dtd"
   xmlns:xlink="http://www.w3.org/1999/xlink"
   xmlns="http://www.w3.org/2000/svg"
   xmlns:svg="http://www.w3.org/2000/svg"><sodipodi:namedview
     id="namedview276"
     pagecolor="#ffffff"
     bordercolor="#000000"
     borderopacity="0.25"
     inkscape:showpageshadow="false"
     inkscape:pageopacity="0.0"
     inkscape:pagecheckerboard="0"
     inkscape:deskcolor="#d1d1d1"
     inkscape:document-units="px"
     showgrid="true"
     inkscape:zoom="45.254837"
     inkscape:cx="13.468174"
     inkscape:cy="11.269514"
     inkscape:window-width="2560"
     inkscape:window-height="1377"
     inkscape:window-x="-8"
     inkscape:window-y="-8"
     inkscape:window-maximized="1"
     inkscape:current-layer="layer1"
     showborder="true"><inkscape:grid
       type="xygrid"
       id="grid561"
       originx="0"
       originy="0" /></sodipodi:namedview><defs
     id="defs271"><style
   id="style432">.cls-1{fill:#130754;}.cls-2{fill:#ffca00;}.cls-3{fill:#e70488;}</style><rect
   id="SVGID_1_"
   x="31.5"
   y="15.978"
   width="289"
   height="130.044" /><rect
   id="SVGID_3_"
   x="31.5"
   y="15.978"
   width="289"
   height="130.044" />
	

		<defs
   id="defs934">
			<rect
   id="rect974"
   x="31.5"
   y="15.978"
   width="289"
   height="130.04401" />
		</defs>
		
		
	
			<defs
   id="defs940">
				<rect
   id="rect979"
   x="31.5"
   y="15.978"
   width="289"
   height="130.04401" />
			</defs>
			<clipPath
   id="SVGID_4_">
				<use
   xlink:href="#SVGID_3_"
   overflow="visible"
   id="use942" />
			</clipPath>
			
			
			
			
			
			
			
			
		<linearGradient
   id="linearGradient2795"><stop
     style="stop-color:#b8b8b8;stop-opacity:0.49803922"
     offset="0"
     id="stop2797" /><stop
     style="stop-color:#7f7f7f;stop-opacity:0"
     offset="1"
     id="stop2799" /></linearGradient><linearGradient
   id="linearGradient2787"><stop
     style="stop-color:#7f7f7f;stop-opacity:0.5"
     offset="0"
     id="stop2789" /><stop
     style="stop-color:#7f7f7f;stop-opacity:0"
     offset="1"
     id="stop2791" /></linearGradient><linearGradient
   id="linearGradient3676"><stop
     style="stop-color:#b2b2b2;stop-opacity:0.5"
     offset="0"
     id="stop3678" /><stop
     style="stop-color:#b3b3b3;stop-opacity:0"
     offset="1"
     id="stop3680" /></linearGradient><linearGradient
   id="linearGradient3236"><stop
     style="stop-color:#f4f4f4;stop-opacity:1"
     offset="0"
     id="stop3244" /><stop
     style="stop-color:#ffffff;stop-opacity:1"
     offset="1"
     id="stop3240" /></linearGradient><linearGradient
   id="linearGradient4671"><stop
     style="stop-color:#ffd43b;stop-opacity:1"
     offset="0"
     id="stop4673" /><stop
     style="stop-color:#ffe873;stop-opacity:1"
     offset="1"
     id="stop4675" /></linearGradient><linearGradient
   id="linearGradient4689"><stop
     style="stop-color:#5a9fd4;stop-opacity:1"
     offset="0"
     id="stop4691" /><stop
     style="stop-color:#306998;stop-opacity:1"
     offset="1"
     id="stop4693" /></linearGradient><linearGradient
   x1="224.23996"
   y1="144.75717"
   x2="-65.308502"
   y2="144.75717"
   id="linearGradient2987"
   xlink:href="#linearGradient4671"
   gradientUnits="userSpaceOnUse"
   gradientTransform="translate(100.2702,99.61116)" /><linearGradient
   x1="172.94208"
   y1="77.475983"
   x2="26.670298"
   y2="76.313133"
   id="linearGradient2990"
   xlink:href="#linearGradient4689"
   gradientUnits="userSpaceOnUse"
   gradientTransform="translate(100.2702,99.61116)" /><linearGradient
   x1="224.23996"
   y1="144.75717"
   x2="-65.308502"
   y2="144.75717"
   id="linearGradient2255"
   xlink:href="#linearGradient4671"
   gradientUnits="userSpaceOnUse"
   gradientTransform="matrix(0.562541,0,0,0.567972,-11.5974,-7.60954)" /><linearGradient
   x1="172.94208"
   y1="76.176224"
   x2="26.670298"
   y2="76.313133"
   id="linearGradient2258"
   xlink:href="#linearGradient4689"
   gradientUnits="userSpaceOnUse"
   gradientTransform="matrix(0.562541,0,0,0.567972,-11.5974,-7.60954)" /><radialGradient
   cx="61.518883"
   cy="132.28575"
   r="29.036913"
   fx="61.518883"
   fy="132.28575"
   id="radialGradient2801"
   xlink:href="#linearGradient2795"
   gradientUnits="userSpaceOnUse"
   gradientTransform="matrix(1,0,0,0.177966,0,108.7434)" /><linearGradient
   x1="150.96111"
   y1="192.35176"
   x2="112.03144"
   y2="137.27299"
   id="linearGradient1475"
   xlink:href="#linearGradient4671"
   gradientUnits="userSpaceOnUse"
   gradientTransform="matrix(0.14883897,0,0,0.15027592,-55.981906,40.805722)" /><linearGradient
   x1="26.648937"
   y1="20.603781"
   x2="135.66525"
   y2="114.39767"
   id="linearGradient1478"
   xlink:href="#linearGradient4689"
   gradientUnits="userSpaceOnUse"
   gradientTransform="matrix(0.14883897,0,0,0.15027592,-14.255254,-18.326585)" /><radialGradient
   cx="61.518883"
   cy="132.28575"
   r="29.036913"
   fx="61.518883"
   fy="132.28575"
   id="radialGradient1480"
   xlink:href="#linearGradient2795"
   gradientUnits="userSpaceOnUse"
   gradientTransform="matrix(0,-0.06348597,0.27904758,1.0031798e-7,-74.161342,81.595048)" /></defs><g
     inkscape:label="Layer 1"
     inkscape:groupmode="layer"
     id="layer1">
			
		<path
   id="path1948"
   style="fill:#000000;fill-opacity:1;stroke-width:0.0376669;stroke:none"
   d="M 2.6209018,0.52920128 C 2.4482504,0.52999909 2.2833717,0.54472828 2.1382962,0.57040002 1.7109208,0.64590346 1.6333258,0.80393826 1.6333255,1.0953809 v 0.3849074 h 1.009941 V 1.608591 h -1.009941 -0.379022 c -0.29351664,0 -0.55052886,0.1764207 -0.63091884,0.5120329 -0.0927292,0.3846892 -0.0968418,0.6247428 0,1.0264201 0.0717898,0.2989934 0.24323542,0.5120329 0.53675184,0.5120329 H 1.5073773 V 3.1976582 c 0,-0.3333471 0.2884204,-0.6273874 0.6309189,-0.6273876 h 1.0087636 c 0.2808038,0 0.5049708,-0.2312051 0.5049705,-0.51321 V 1.0953802 c 0,-0.27369948 -0.2308971,-0.47930147 -0.5049705,-0.5249808 C 2.9735674,0.5415194 2.7935531,0.5283991 2.6209018,0.52920128 Z M 2.0747333,0.83877524 c 0.10432,0 0.1895111,0.0865832 0.1895111,0.19304226 0,0.1060822 -0.085192,0.1918653 -0.1895111,0.1918653 -0.104694,0 -0.189511,-0.085783 -0.189511,-0.1918653 0,-0.10645971 0.084817,-0.19304226 0.189511,-0.19304226 z M 3.7779786,1.6085902 v 0.4484704 c 0,0.3476925 -0.2947768,0.6403354 -0.6309188,0.6403354 H 2.1382962 c -0.2763172,0 -0.5049704,0.2364906 -0.5049707,0.51321 v 0.9616803 c 0,0.2736995 0.2380012,0.434687 0.5049707,0.5132102 0.3196901,0.094001 0.6262573,0.1109902 1.0087636,0 C 3.4013163,4.6118809 3.6520306,4.4637288 3.6520303,4.1722863 V 3.7873787 H 2.6432665 V 3.6590763 h 1.0087638 0.5049704 c 0.2935168,0 0.4028941,-0.2047344 0.5049703,-0.512033 0.1054424,-0.3163586 0.1009548,-0.6205899 0,-1.02642 C 4.5894334,1.8284255 4.4508906,1.6085902 4.1570007,1.6085902 Z m -0.567356,2.4353937 c 0.1046941,1e-7 0.1895111,0.085783 0.1895111,0.1918653 0,0.1064597 -0.084819,0.1930421 -0.1895111,0.1930421 -0.104321,0 -0.189511,-0.086583 -0.189511,-0.1930421 1e-7,-0.1060822 0.085192,-0.1918653 0.189511,-0.1918653 z"
   clip-path="none"
   mask="none" /><path
   id="path1894"
   style="opacity:0.44382;fill:url(#radialGradient1480);fill-opacity:1;fill-rule:nonzero;stroke:none;stroke-width:4.07918;stroke-miterlimit:4;stroke-dasharray:none;stroke-opacity:1"
   d="m -27.740583,77.689474 a 9.506738,1.8434347 0 1 1 -19.013476,0 9.506738,1.8434347 0 1 1 19.013476,0 z" /></g></svg>
