<svg xmlns="http://www.w3.org/2000/svg" viewBox="0 0 20 16">
  <g id="Icons">
    <path id="python" d="M9.906,0A10.89,10.89,0,0,0,8.082.156C6.466.441,6.173,1.039,6.173,2.14V3.6H9.99V4.08H4.741A2.384,2.384,0,0,0,2.356,6.015a7.138,7.138,0,0,0,0,3.879c.271,1.13.919,1.936,2.029,1.936H5.7V10.086A2.426,2.426,0,0,1,8.082,7.714h3.812A1.922,1.922,0,0,0,13.8,5.775V2.14A2.131,2.131,0,0,0,11.894.156,11.917,11.917,0,0,0,9.906,0ZM7.842,1.17a.728.728,0,1,1-.717.73A.724.724,0,0,1,7.842,1.17Zm6.437,2.91v1.7A2.448,2.448,0,0,1,11.894,8.2H8.082a1.947,1.947,0,0,0-1.909,1.94v3.634c0,1.035.9,1.643,1.909,1.94a6.39,6.39,0,0,0,3.812,0c.961-.278,1.909-.838,1.909-1.94V12.315H9.99V11.83h5.721c1.11,0,1.523-.774,1.909-1.936a6.542,6.542,0,0,0,0-3.879c-.274-1.1-.8-1.935-1.909-1.935Zm-2.144,9.2a.728.728,0,1,1-.717.726A.721.721,0,0,1,12.135,13.284Z"/>
  </g>
</svg>
