<?xml version="1.0" encoding="UTF-8" standalone="no"?>
<!-- Created with Inkscape (http://www.inkscape.org/) -->

<svg
   width="20"
   height="20"
   viewBox="0 0 5.2916666 5.2916666"
   version="1.1"
   id="svg274"
   xml:space="preserve"
   inkscape:version="1.2 (dc2aedaf03, 2022-05-15)"
   sodipodi:docname="python-alt.svg"
   xmlns:inkscape="http://www.inkscape.org/namespaces/inkscape"
   xmlns:sodipodi="http://sodipodi.sourceforge.net/DTD/sodipodi-0.dtd"
   xmlns:xlink="http://www.w3.org/1999/xlink"
   xmlns="http://www.w3.org/2000/svg"
   xmlns:svg="http://www.w3.org/2000/svg"><sodipodi:namedview
     id="namedview276"
     pagecolor="#ffffff"
     bordercolor="#000000"
     borderopacity="0.25"
     inkscape:showpageshadow="false"
     inkscape:pageopacity="0.0"
     inkscape:pagecheckerboard="0"
     inkscape:deskcolor="#d1d1d1"
     inkscape:document-units="px"
     showgrid="true"
     inkscape:zoom="45.254834"
     inkscape:cx="10.794427"
     inkscape:cy="7.3141358"
     inkscape:window-width="2560"
     inkscape:window-height="1377"
     inkscape:window-x="-8"
     inkscape:window-y="-8"
     inkscape:window-maximized="1"
     inkscape:current-layer="layer1"
     showborder="true"><inkscape:grid
       type="xygrid"
       id="grid561"
       originx="0"
       originy="0" /></sodipodi:namedview><defs
     id="defs271"><style
   id="style432">.cls-1{fill:#130754;}.cls-2{fill:#ffca00;}.cls-3{fill:#e70488;}</style><rect
   id="SVGID_1_"
   x="31.5"
   y="15.978"
   width="289"
   height="130.044" /><rect
   id="SVGID_3_"
   x="31.5"
   y="15.978"
   width="289"
   height="130.044" />
	

		<defs
   id="defs934">
			<rect
   id="rect974"
   x="31.5"
   y="15.978"
   width="289"
   height="130.04401" />
		</defs>
		
		
	
			<defs
   id="defs940">
				<rect
   id="rect979"
   x="31.5"
   y="15.978"
   width="289"
   height="130.04401" />
			</defs>
			<clipPath
   id="SVGID_4_">
				<use
   xlink:href="#SVGID_3_"
   overflow="visible"
   id="use942" />
			</clipPath>
			
			
			
			
			
			
			
			
		<linearGradient
   id="linearGradient2795"><stop
     style="stop-color:#b8b8b8;stop-opacity:0.49803922"
     offset="0"
     id="stop2797" /><stop
     style="stop-color:#7f7f7f;stop-opacity:0"
     offset="1"
     id="stop2799" /></linearGradient><linearGradient
   id="linearGradient2787"><stop
     style="stop-color:#7f7f7f;stop-opacity:0.5"
     offset="0"
     id="stop2789" /><stop
     style="stop-color:#7f7f7f;stop-opacity:0"
     offset="1"
     id="stop2791" /></linearGradient><linearGradient
   id="linearGradient3676"><stop
     style="stop-color:#b2b2b2;stop-opacity:0.5"
     offset="0"
     id="stop3678" /><stop
     style="stop-color:#b3b3b3;stop-opacity:0"
     offset="1"
     id="stop3680" /></linearGradient><linearGradient
   id="linearGradient3236"><stop
     style="stop-color:#f4f4f4;stop-opacity:1"
     offset="0"
     id="stop3244" /><stop
     style="stop-color:#ffffff;stop-opacity:1"
     offset="1"
     id="stop3240" /></linearGradient><linearGradient
   id="linearGradient4671"><stop
     style="stop-color:#ffd43b;stop-opacity:1"
     offset="0"
     id="stop4673" /><stop
     style="stop-color:#ffe873;stop-opacity:1"
     offset="1"
     id="stop4675" /></linearGradient><linearGradient
   id="linearGradient4689"><stop
     style="stop-color:#5a9fd4;stop-opacity:1"
     offset="0"
     id="stop4691" /><stop
     style="stop-color:#306998;stop-opacity:1"
     offset="1"
     id="stop4693" /></linearGradient><linearGradient
   x1="224.23996"
   y1="144.75717"
   x2="-65.308502"
   y2="144.75717"
   id="linearGradient2987"
   xlink:href="#linearGradient4671"
   gradientUnits="userSpaceOnUse"
   gradientTransform="translate(100.2702,99.61116)" /><linearGradient
   x1="172.94208"
   y1="77.475983"
   x2="26.670298"
   y2="76.313133"
   id="linearGradient2990"
   xlink:href="#linearGradient4689"
   gradientUnits="userSpaceOnUse"
   gradientTransform="translate(100.2702,99.61116)" /><linearGradient
   x1="224.23996"
   y1="144.75717"
   x2="-65.308502"
   y2="144.75717"
   id="linearGradient2255"
   xlink:href="#linearGradient4671"
   gradientUnits="userSpaceOnUse"
   gradientTransform="matrix(0.562541,0,0,0.567972,-11.5974,-7.60954)" /><linearGradient
   x1="172.94208"
   y1="76.176224"
   x2="26.670298"
   y2="76.313133"
   id="linearGradient2258"
   xlink:href="#linearGradient4689"
   gradientUnits="userSpaceOnUse"
   gradientTransform="matrix(0.562541,0,0,0.567972,-11.5974,-7.60954)" /><radialGradient
   cx="61.518883"
   cy="132.28575"
   r="29.036913"
   fx="61.518883"
   fy="132.28575"
   id="radialGradient2801"
   xlink:href="#linearGradient2795"
   gradientUnits="userSpaceOnUse"
   gradientTransform="matrix(1,0,0,0.177966,0,108.7434)" /><linearGradient
   x1="150.96111"
   y1="192.35176"
   x2="112.03144"
   y2="137.27299"
   id="linearGradient1475"
   xlink:href="#linearGradient4671"
   gradientUnits="userSpaceOnUse"
   gradientTransform="matrix(0.14883897,0,0,0.15027592,-63.188795,-17.760757)" /><linearGradient
   x1="26.648937"
   y1="20.603781"
   x2="135.66525"
   y2="114.39767"
   id="linearGradient1478"
   xlink:href="#linearGradient4689"
   gradientUnits="userSpaceOnUse"
   gradientTransform="matrix(0.14883897,0,0,0.15027592,-63.188795,-17.760757)" /><radialGradient
   cx="61.518883"
   cy="132.28575"
   r="29.036913"
   fx="61.518883"
   fy="132.28575"
   id="radialGradient1480"
   xlink:href="#linearGradient2795"
   gradientUnits="userSpaceOnUse"
   gradientTransform="matrix(0,-0.06348597,0.27904758,1.0031798e-7,-81.368231,23.028569)" /></defs><g
     inkscape:label="Layer 1"
     inkscape:groupmode="layer"
     id="layer1">
			
		<path
   id="path46"
   style="fill:#000000;fill-opacity:1;stroke-width:0.0142199;stroke:none"
   d="M 2.733222,1.84284 2.6065481,1.88275 V 3.0515863 H 2.733222 V 2.4654602 c 0.08718,-0.061263 0.1598062,-0.091902 0.2178806,-0.091902 0.047679,0 0.084842,0.02024 0.1115929,0.060712 0.023145,0.035759 0.034772,0.078582 0.034772,0.1283399 v 0.488976 H 3.2241691 V 2.5227004 c 0,-0.067083 -0.020797,-0.123232 -0.062518,-0.168278 -0.041581,-0.045045 -0.095917,-0.067627 -0.163001,-0.067627 -0.096051,0 -0.184485,0.029523 -0.2654285,0.088429 z m -0.4184314,0.1925242 -0.126535,0.045048 v 0.2116319 h -0.086764 v 0.07971 h 0.086764 v 0.4989738 c 0,0.060292 0.019933,0.1075473 0.059713,0.1417821 0.039918,0.034235 0.095787,0.051298 0.1674446,0.051298 0.012751,0 0.026609,-5.698e-4 0.041716,-0.0018 V 2.996018 C 2.4097259,2.9936434 2.3749332,2.9843754 2.3530343,2.9681571 2.3275319,2.9484754 2.3147913,2.914798 2.3147913,2.8672566 V 2.3717591 H 2.4571281 V 2.2920498 H 2.3147906 Z M 0.88399732,2.2729364 c -0.10783273,0.0011 -0.19944401,0.023691 -0.27484382,0.067627 -0.0324331,0.018572 -0.0591965,0.040487 -0.0799868,0.065989 v 0.997087 l 0.12670144,0.045187 V 2.9996225 c 0.0783104,0.048511 0.15439305,0.07165 0.2282681,0.069295 0.0979919,-0.00222 0.17463206,-0.04267 0.22993446,-0.1212579 0.049619,-0.06944 0.074293,-0.1567855 0.074293,-0.2619849 0,-0.1179504 -0.02495,-0.2144134 -0.074709,-0.2896747 C 1.0602921,2.3139468 0.9843489,2.2734942 0.88580267,2.2747414 Z m 0.56854578,0 -0.126674,0.043382 v 0.527247 c 0,0.065835 0.026596,0.120145 0.079821,0.1629733 0.047402,0.039362 0.1024353,0.058907 0.1648063,0.058907 0.094943,0 0.1857176,-0.019544 0.2723441,-0.058907 v 0.032994 c 0,0.098269 -0.00915,0.1646781 -0.027719,0.1994675 -0.023145,0.04269 -0.065272,0.074554 -0.1266737,0.095345 -0.031185,0.010393 -0.084965,0.020794 -0.1613347,0.031189 l 0.020915,0.07982 c 0.075122,-0.00237 0.1451273,-0.016212 0.2098545,-0.041716 0.079835,-0.032295 0.1338931,-0.075675 0.1623067,-0.1300066 0.028276,-0.054332 0.042409,-0.152049 0.042409,-0.2931463 V 2.2920442 H 1.8359246 v 0.6191484 c -0.066113,0.043937 -0.1283674,0.06638 -0.1864417,0.067627 -0.058075,0.0011 -0.1054692,-0.013584 -0.1420601,-0.044215 -0.036591,-0.030631 -0.05488,-0.07429 -0.05488,-0.1309784 z m 2.2349666,0 c -0.105199,0 -0.190314,0.038807 -0.2550415,0.1161475 -0.061263,0.072904 -0.091874,0.162426 -0.091874,0.2688726 0,0.113238 0.02827,0.207498 0.084958,0.282759 0.06251,0.08427 0.1491317,0.1265348 0.2602907,0.1265348 0.1121297,0 0.2000051,-0.042265 0.2636233,-0.1265348 0.057797,-0.075261 0.086764,-0.169521 0.086764,-0.282759 0,-0.1064466 -0.030639,-0.1959678 -0.091902,-0.2688726 C 3.8783539,2.3117438 3.7927089,2.2729364 3.6875097,2.2729364 Z m 0.8165049,0 c -0.043937,0 -0.094955,0.00747 -0.1527526,0.022579 -0.061263,0.016214 -0.12834,0.05087 -0.2012448,0.1039551 v 0.652115 H 4.2767187 V 2.4151342 c 0.054332,-0.038115 0.1115682,-0.057798 0.1717218,-0.058907 0.056689,-0.00126 0.1021591,0.014143 0.1362553,0.045881 0.034096,0.031878 0.05113,0.076095 0.05113,0.1327838 V 3.0515851 H 4.7624999 V 2.4707082 c 0,-0.04865 -0.017312,-0.090217 -0.052102,-0.1248685 -0.031185,-0.031324 -0.071666,-0.052679 -0.1214244,-0.064184 -0.026612,-0.00582 -0.054882,-0.00872 -0.084959,-0.00872 z m -3.65601132,0.084569 c 0.005836,-2.61e-5 0.0116791,1.119e-4 0.0175524,3.899e-4 0.11808924,0.00582 0.17713752,0.1121258 0.17713752,0.3191977 0,0.1930733 -0.0619473,0.2935506 -0.18571951,0.3017282 -0.0584903,0.00346 -0.12556754,-0.01856 -0.20110584,-0.065961 V 2.4186077 c 0.012613,-0.012751 0.0365893,-0.025382 0.0722101,-0.038133 0.0390511,-0.01516 0.0790563,-0.022786 0.11992533,-0.022969 z m 2.83783992,0.00219 c 0.075122,0.00346 0.1307136,0.036864 0.1664727,0.1002057 0.030076,0.051976 0.045187,0.1176595 0.045187,0.1972173 0,0.2191306 -0.069726,0.3291984 -0.2091603,0.3303069 -0.074291,0.00126 -0.1300209,-0.035632 -0.1671667,-0.1103388 -0.029107,-0.058632 -0.043521,-0.1316751 -0.043521,-0.219133 0,-0.1907171 0.069308,-0.2902177 0.2081881,-0.2982566 z"
   clip-path="none"
   mask="none" /></g></svg>
