<svg id="ICONS_HERE_" data-name="ICONS HERE!" xmlns="http://www.w3.org/2000/svg" viewBox="0 0 20 16"><path id="python-alt" d="M10.413,4.206l-.6.189V9.917h.6V7.148a1.938,1.938,0,0,1,1.029-.434A.6.6,0,0,1,11.969,7a1.09,1.09,0,0,1,.165.607v2.31h.6v-2.5a1.126,1.126,0,0,0-.295-.795,1,1,0,0,0-.77-.319,2.08,2.08,0,0,0-1.254.418Zm-1.977.91-.6.213v1h-.41v.376h.41V9.062a.836.836,0,0,0,.282.67,1.178,1.178,0,0,0,.791.243c.061,0,.126,0,.2-.009V9.654a.917.917,0,0,1-.491-.131.566.566,0,0,1-.181-.477V6.705h.672V6.329H8.436ZM1.676,6.238a2.585,2.585,0,0,0-1.3.32A1.334,1.334,0,0,0,0,6.87v4.71l.6.214V9.671A1.921,1.921,0,0,0,1.677,10a1.3,1.3,0,0,0,1.086-.573,2.073,2.073,0,0,0,.351-1.238A2.433,2.433,0,0,0,2.761,6.82a1.19,1.19,0,0,0-1.076-.573Zm2.686,0-.6.2V8.934a.947.947,0,0,0,.377.77,1.183,1.183,0,0,0,.779.278A3.072,3.072,0,0,0,6.206,9.7V9.86a2.255,2.255,0,0,1-.131.942,1,1,0,0,1-.6.451,4.756,4.756,0,0,1-.762.147l.1.377a2.923,2.923,0,0,0,.991-.2,1.408,1.408,0,0,0,.767-.614,3.323,3.323,0,0,0,.2-1.385V6.329h-.6V9.254a1.687,1.687,0,0,1-.881.319.978.978,0,0,1-.671-.209.761.761,0,0,1-.26-.619Zm10.559,0a1.5,1.5,0,0,0-1.2.549,1.907,1.907,0,0,0-.434,1.27,2.156,2.156,0,0,0,.4,1.336,1.444,1.444,0,0,0,1.229.6,1.476,1.476,0,0,0,1.246-.6,2.129,2.129,0,0,0,.41-1.336,1.907,1.907,0,0,0-.434-1.27A1.524,1.524,0,0,0,14.921,6.238Zm3.858,0a2.92,2.92,0,0,0-.722.107,2.962,2.962,0,0,0-.951.491V9.917h.6V6.91a1.437,1.437,0,0,1,.811-.278.877.877,0,0,1,.644.217.815.815,0,0,1,.242.627V9.917H20V7.173a.8.8,0,0,0-.246-.59,1.161,1.161,0,0,0-.574-.3A1.905,1.905,0,0,0,18.779,6.238Zm-17.273.4c.028,0,.055,0,.083,0q.837.041.837,1.508,0,1.368-.877,1.425A1.655,1.655,0,0,1,.6,9.262V6.926a.957.957,0,0,1,.341-.18A1.584,1.584,0,0,1,1.506,6.638Zm13.407.01a.9.9,0,0,1,.787.474,1.835,1.835,0,0,1,.213.931q0,1.554-.988,1.561a.828.828,0,0,1-.79-.521,2.329,2.329,0,0,1-.205-1.036Q13.93,6.705,14.913,6.648Z"/></svg>