<svg xmlns="http://www.w3.org/2000/svg" width="20" height="16" viewBox="0 0 20 16"><defs><style>.cls-1{fill-rule:evenodd;}</style></defs><g id="Icons"><path class="cls-1" d="M19.078,7.272c0-3.358-4.065-6.08-9.078-6.08S.922,3.914.922,7.272c0,2.991,3.23,5.473,7.48,5.979v1.94h3.1V13.261a12.484,12.484,0,0,0,2.167-.43l1.257,2.361h3.5l-2.109-3.557A5.357,5.357,0,0,0,19.078,7.272ZM4.49,7.725c0-2.295,3.089-4.156,6.9-4.156s6.623,1.273,6.623,4.156a3.546,3.546,0,0,1-2.2,3.324,1.973,1.973,0,0,0-.193-.113,6.848,6.848,0,0,0-.869-.328,2.891,2.891,0,0,0,2.707-2.9c0-2.695-2.833-2.746-2.833-2.746H8.4v6.5C6.09,10.8,4.49,9.375,4.49,7.725Zm8.91,1.2H11.524V7.184H13.4a.809.809,0,0,1,.869.852A.857.857,0,0,1,13.4,8.921Zm-1.9,2.266h.831a.57.57,0,0,1,.415.189,2.112,2.112,0,0,1,.331.409,14.661,14.661,0,0,1-1.577.094Z"/></g></svg>