<svg xmlns="http://www.w3.org/2000/svg" viewBox="0 0 20 16">
  <g id="Icons">
    <path d="M8.209,9.82a.812.812,0,0,1-.828-.827.828.828,0,1,1,.828.827Zm3.53,1.048a2.374,2.374,0,0,1-1.655.5,2.374,2.374,0,0,1-1.655-.5c-.11-.11-.22-.11-.275,0-.111.11-.111.221,0,.276a3.139,3.139,0,0,0,1.985.607,3.233,3.233,0,0,0,1.986-.607c-.055-.055-.055-.166-.111-.276C11.9,10.758,11.794,10.758,11.739,10.868Zm6.232-3.089v.442A8.006,8.006,0,0,1,9.753,16,8.068,8.068,0,0,1,2.031,8.165a7.972,7.972,0,0,1,15.94-.386Zm-2.758.386a1.122,1.122,0,0,0-.331-.827,1.2,1.2,0,0,0-1.654,0,5.869,5.869,0,0,0-3.089-.993l.552-2.482,1.709.386a.739.739,0,0,0,.442.717.826.826,0,0,0,.717-1.489.843.843,0,0,0-1.1.386l-1.931-.441a.2.2,0,0,0-.165.055.192.192,0,0,0-.055.111L9.7,6.345a5.883,5.883,0,0,0-3.144.993,1.125,1.125,0,0,0-.827-.331,1.01,1.01,0,0,0-1.048.662,1.2,1.2,0,0,0,.607,1.544v.331c0,1.82,2.1,3.254,4.688,3.254s4.688-1.434,4.688-3.254V9.213A.847.847,0,0,0,15.213,8.165Zm-3.364,0a.828.828,0,1,0,.827.828A.849.849,0,0,0,11.849,8.165Z"/>
  </g>
</svg>
