<svg xmlns="http://www.w3.org/2000/svg" viewBox="0 0 20 16">
  <defs>
    <style>
      .cls-1 {
        fill-rule: evenodd;
      }
    </style>
  </defs>
  <g id="Icons">
    <path id="researchgate" class="cls-1" d="M4.75,1h10.5A1.751,1.751,0,0,1,17,2.75v10.5A1.751,1.751,0,0,1,15.25,15H4.75A1.751,1.751,0,0,1,3,13.25V2.75A1.751,1.751,0,0,1,4.75,1ZM10.6,12.11a1.7,1.7,0,0,0,1.15.63l.087.087v.324l-.051.079a1.592,1.592,0,0,1-.606.107,2.18,2.18,0,0,1-1.726-.763A19,19,0,0,1,7.585,9.761c-.388,0-.532,0-.719-.013l-.095-.007v1.98c0,.667.108.846.433.895l.644.088.076.087v.36l-.091.088q-.79-.033-1.582-.037c-.335,0-.682.009-1.088.022l-.408.015-.09-.087v-.361l.072-.085.47-.088c.329-.062.437-.239.437-.894v-4.9c0-.655-.108-.832-.435-.895l-.471-.087L4.663,5.76V5.4l.091-.087q1.076.03,2.154-.006c.432-.013.691-.018,1-.018,1.565,0,2.577.761,2.577,2.124a2.374,2.374,0,0,1-1.7,2.18A14.953,14.953,0,0,0,10.6,12.11ZM7.574,9.026c-.268,0-.537-.007-.8-.03V6.04c.154-.01.339-.016.573-.017h.344A1.372,1.372,0,0,1,9.259,7.474,1.509,1.509,0,0,1,7.575,9.026Zm5.842-3.684a.141.141,0,0,1-.149-.149V4.78a.142.142,0,0,1,.149-.149h1.33a.142.142,0,0,1,.149.149v.354a4.636,4.636,0,0,1-.02.531,2.4,2.4,0,0,1-.079.419,1.387,1.387,0,0,1-.545.758,1.711,1.711,0,0,1-.963.275,1.68,1.68,0,0,1-.948-.258,1.415,1.415,0,0,1-.56-.77,1.509,1.509,0,0,1-.053-.2,3.851,3.851,0,0,1-.056-.556c-.009-.295-.009-.589,0-.884a3.97,3.97,0,0,1,.057-.555,1.444,1.444,0,0,1,.052-.2,1.425,1.425,0,0,1,.561-.77,1.673,1.673,0,0,1,.949-.259,1.873,1.873,0,0,1,.521.068,1.5,1.5,0,0,1,.415.188,1.387,1.387,0,0,1,.314.28,1.56,1.56,0,0,1,.21.333.145.145,0,0,1-.061.21l-.444.181a.14.14,0,0,1-.2-.065.892.892,0,0,0-.3-.367.753.753,0,0,0-.45-.118.64.64,0,0,0-.443.135.74.74,0,0,0-.289.393,1.254,1.254,0,0,0-.06.308,11.512,11.512,0,0,0,0,1.365,1.236,1.236,0,0,0,.06.308.592.592,0,0,0,.255.35.811.811,0,0,0,.477.138.853.853,0,0,0,.481-.135.606.606,0,0,0,.244-.333l.025-.084a1.584,1.584,0,0,0,.036-.166,1.841,1.841,0,0,0,.015-.309h-.673Z"/>
  </g>
</svg>
