<svg xmlns="http://www.w3.org/2000/svg" viewBox="0 0 20 16">
  <defs>
    <style>
      .cls-1 {
        fill-rule: evenodd;
      }
    </style>
  </defs>
  <g id="Icons">
    <path id="researchgate" class="cls-1" d="M11.742,15a2.029,2.029,0,0,0,.768-.134v-.434a2.438,2.438,0,0,1-1.636-.885,20.1,20.1,0,0,1-2.538-3.54A3.076,3.076,0,0,0,10.69,7.152c0-1.87-1.452-2.738-3.356-2.738-.985,0-1.77.05-2.5.05-.668,0-1.336,0-1.753-.017v.484l.635.117c.434.084.684.284.684,1.319v6.579c0,1.035-.25,1.236-.684,1.319l-.635.117v.484c.451-.016,1.236-.05,2.02-.05.752,0,1.72.034,2.138.05v-.484l-.868-.117c-.451-.066-.685-.284-.685-1.319V10.158c.4.033.751.033,1.286.033a25.339,25.339,0,0,0,2.538,3.824A2.828,2.828,0,0,0,11.742,15ZM6.883,9.44a11.731,11.731,0,0,1-1.2-.05V5.2c.384-.033.9-.033,1.352-.033A1.965,1.965,0,0,1,9.271,7.236a2.149,2.149,0,0,1-2.388,2.2Zm5.1-4.215q-.027-.153-.045-.309c-.015-.14-.025-.282-.029-.423,0-.2-.008-.4-.008-.593,0-.23,0-.428.008-.592,0-.142.014-.283.029-.424.014-.118.029-.22.045-.308a1.765,1.765,0,0,1,.066-.255,1.8,1.8,0,0,1,.706-.979,2.128,2.128,0,0,1,1.209-.33,2.357,2.357,0,0,1,.666.087,1.919,1.919,0,0,1,.526.239,1.732,1.732,0,0,1,.4.353,2.069,2.069,0,0,1,.272.433.076.076,0,0,1-.025.115l-.608.252c-.051.027-.088.013-.116-.042a1.3,1.3,0,0,0-.445-.538,1.124,1.124,0,0,0-.667-.177.968.968,0,0,0-.663.205,1.1,1.1,0,0,0-.432.588c-.016.049-.033.11-.049.181a1.85,1.85,0,0,0-.038.263c-.009.127-.016.254-.02.382-.006.182-.009.364-.008.547,0,.213,0,.4.008.547s.012.278.02.382a1.9,1.9,0,0,0,.037.264c.017.071.034.131.05.18a.922.922,0,0,0,.39.534,1.194,1.194,0,0,0,.7.206,1.247,1.247,0,0,0,.716-.205.94.94,0,0,0,.371-.51,2.505,2.505,0,0,0,.086-.353,3.4,3.4,0,0,0,.022-.5.044.044,0,0,0-.05-.049h-.971a.073.073,0,0,1-.082-.082V3.752a.073.073,0,0,1,.082-.083h1.786A.073.073,0,0,1,16,3.752V4.23a6.553,6.553,0,0,1-.025.7,3.03,3.03,0,0,1-.1.542,1.747,1.747,0,0,1-.685.961,2.166,2.166,0,0,1-1.227.352,2.135,2.135,0,0,1-1.21-.329,1.809,1.809,0,0,1-.707-.979,1.911,1.911,0,0,1-.066-.255Z"/>
  </g>
</svg>
