<svg xmlns="http://www.w3.org/2000/svg" viewBox="0 0 20 16">
  <defs>
    <style>
      .cls-1 {
        fill-rule: evenodd;
      }
    </style>
  </defs>
  <g id="Icons">
    <path id="path28486" class="cls-1" d="M9.756,0C6.421,0,4.093,2.045,4.093,4.973v.04a.954.954,0,0,1,0,.169,4.1,4.1,0,0,0,.835,2.7,2.663,2.663,0,0,0,2.139.967,2.292,2.292,0,0,0,1.746-.672,2.253,2.253,0,0,0,.636-1.607,1.915,1.915,0,0,0-.617-1.509,1.958,1.958,0,0,0-1.319-.549,3,3,0,0,0-.573.074,2.383,2.383,0,0,1-.458.087q-.51,0-.51-.616A2.161,2.161,0,0,1,7,2.282a4.671,4.671,0,0,1,.618-.38,5.152,5.152,0,0,1,2.131-.424,7.376,7.376,0,0,1,4.16,1.21L13,4l1.261.834,1.711-2.443-.533-.43A8.834,8.834,0,0,0,9.753,0Zm3.79,7.122a2.289,2.289,0,0,0-1.745.671A2.257,2.257,0,0,0,11.164,9.4a1.913,1.913,0,0,0,.618,1.509,1.955,1.955,0,0,0,1.318.548,3.009,3.009,0,0,0,.574-.074,2.353,2.353,0,0,1,.458-.086c.34,0,.509.205.509.616a1.909,1.909,0,0,1-.049.43c-.565,1.386-2.014,2.178-4.111,2.178A8.129,8.129,0,0,1,5.6,12.916l1.143-1.333-1.19-.927L3.5,13.087l.523.469A9.652,9.652,0,0,0,10.481,16c.268,0,.528-.013.782-.034A6.078,6.078,0,0,0,15,14.507a4.764,4.764,0,0,0,1.5-3.727,4.053,4.053,0,0,0-.815-2.691,2.66,2.66,0,0,0-2.139-.967Z"/>
  </g>
</svg>
