<svg xmlns="http://www.w3.org/2000/svg" viewBox="0 0 20 16">
  <defs>
    <style>
      .cls-1 {
        fill-rule: evenodd;
      }
    </style>
  </defs>
  <g id="Icons">
    <path id="rect31876" class="cls-1" d="M3.08,1A1.046,1.046,0,0,0,2.032,2.049V13.935A1.046,1.046,0,0,0,3.08,14.984h.35a1.047,1.047,0,0,0,1.049-1.049V2.049A1.047,1.047,0,0,0,3.43,1Zm3.5,0A1.046,1.046,0,0,0,5.528,2.049V13.935a1.046,1.046,0,0,0,1.048,1.049h.35a1.047,1.047,0,0,0,1.049-1.049V2.049A1.047,1.047,0,0,0,6.926,1Zm3.5,0A1.046,1.046,0,0,0,9.024,2.049V13.935a1.046,1.046,0,0,0,1.048,1.049h.35a1.047,1.047,0,0,0,1.049-1.049V2.049A1.047,1.047,0,0,0,10.422,1Zm2.733.614a1.061,1.061,0,0,0-.31.062l-.329.12a1.047,1.047,0,0,0-.627,1.344l4.066,11.169a1.046,1.046,0,0,0,1.344.627l.329-.119a1.046,1.046,0,0,0,.626-1.344L13.839,2.3a1.045,1.045,0,0,0-1.034-.689Z"/>
  </g>
</svg>
