<svg xmlns="http://www.w3.org/2000/svg" viewBox="0 0 20 16">
  <g id="Icons">
    <path id="path38548" d="M10,0a7.975,7.975,0,1,0,3.985,14.888L18,16l-1.008-4.151A7.97,7.97,0,0,0,10,0Zm3.014,4.207V8.059l.433-.43c.157-.157.312-.318.464-.48s.3-.318.432-.467.253-.281.351-.394h.889q-.187.2-.408.446t-.456.492c-.158.165-.317.331-.477.5l-.452.467a5.233,5.233,0,0,1,.517.463c.182.184.361.384.538.6s.344.431.5.65a7.237,7.237,0,0,1,.4.614h-.889a6.729,6.729,0,0,0-.395-.581c-.15-.2-.306-.387-.469-.569a6.711,6.711,0,0,0-.5-.5,4.418,4.418,0,0,0-.481-.382v2.032h-.759V4.337ZM6.077,6.182a2.214,2.214,0,0,1,.77.118,1.254,1.254,0,0,1,.5.333,1.274,1.274,0,0,1,.274.512,2.482,2.482,0,0,1,.081.654v2.642l-.273.045c-.117.019-.249.036-.4.052s-.305.032-.476.045-.342.02-.51.02a2.788,2.788,0,0,1-.661-.073A1.469,1.469,0,0,1,4.87,10.3a1.061,1.061,0,0,1-.343-.418,1.468,1.468,0,0,1-.122-.626,1.2,1.2,0,0,1,.142-.6,1.127,1.127,0,0,1,.388-.406,1.8,1.8,0,0,1,.571-.227,3.1,3.1,0,0,1,.685-.074,2.152,2.152,0,0,1,.236.013c.081.008.159.019.232.032l.192.037.114.024V7.84a1.7,1.7,0,0,0-.04-.37.838.838,0,0,0-.147-.325.746.746,0,0,0-.289-.228,1.138,1.138,0,0,0-.477-.085,3.615,3.615,0,0,0-.657.053,2.255,2.255,0,0,0-.42.11l-.09-.626a2.329,2.329,0,0,1,.489-.126,4.216,4.216,0,0,1,.743-.061Zm4,0a3.3,3.3,0,0,1,.358.02c.12.014.231.03.335.049s.194.04.273.061.139.041.183.057l-.138.65a1.97,1.97,0,0,0-.383-.134,2.5,2.5,0,0,0-.629-.069,1.159,1.159,0,0,0-.554.126.417.417,0,0,0-.237.394.528.528,0,0,0,.053.244.572.572,0,0,0,.164.191,1.328,1.328,0,0,0,.273.158c.109.049.239.1.392.155.2.076.38.15.538.223a1.7,1.7,0,0,1,.4.256.988.988,0,0,1,.257.354,1.294,1.294,0,0,1,.09.508,1,1,0,0,1-.437.885,2.17,2.17,0,0,1-1.243.3,3.232,3.232,0,0,1-.881-.094c-.212-.062-.355-.109-.431-.141l.138-.65c.087.032.225.08.416.146a2.437,2.437,0,0,0,.758.1,1.5,1.5,0,0,0,.689-.122.412.412,0,0,0,.224-.39.517.517,0,0,0-.22-.439,3.536,3.536,0,0,0-.725-.366c-.163-.065-.32-.131-.469-.2a1.656,1.656,0,0,1-.388-.239,1.133,1.133,0,0,1,.057-1.7,1.774,1.774,0,0,1,1.133-.33ZM6.341,8.667A2.692,2.692,0,0,0,6,8.689a1.025,1.025,0,0,0-.325.1.7.7,0,0,0-.246.2.529.529,0,0,0-.1.334.578.578,0,0,0,.243.533A1.256,1.256,0,0,0,6.235,10c.167,0,.315,0,.443-.012A1.8,1.8,0,0,0,7,9.946V8.759a.877.877,0,0,0-.246-.066,2.705,2.705,0,0,0-.413-.026Z"/>
  </g>
</svg>
