<svg xmlns="http://www.w3.org/2000/svg" viewBox="0 0 20 16">
  <defs>
    <style>
      .cls-1 {
        fill-rule: evenodd;
      }
    </style>
  </defs>
  <g id="Icons">
    <path id="path33849" class="cls-1" d="M7.783,0a.132.132,0,0,0-.073.03L7.686.052a.128.128,0,0,0-.015.179h0A.126.126,0,0,0,7.85.247L7.874.226A.127.127,0,0,0,7.891.047h0A.127.127,0,0,0,7.784,0Zm1.05.077a.129.129,0,0,0-.091.033L8.718.133a.127.127,0,0,0-.011.179h0A.127.127,0,0,0,8.887.32L8.91.3a.125.125,0,0,0-.078-.22Zm1.654,0a.128.128,0,0,0-.09.037l-.023.023a.129.129,0,0,0,0,.18h0a.129.129,0,0,0,.18,0L10.577.3a.126.126,0,0,0,0-.179.127.127,0,0,0-.09-.038ZM7.517.219a.127.127,0,0,0-.075.025l-.01.007L7.416.262A.128.128,0,0,0,7.387.44h0a.128.128,0,0,0,.178.028L7.582.456l.01-.007A.126.126,0,0,0,7.62.272a.128.128,0,0,0-.1-.053Zm1.06.092a.126.126,0,0,0-.093.03L8.46.361A.127.127,0,0,0,8.444.54h0a.127.127,0,0,0,.179.016h0l.024-.02a.128.128,0,0,0,.016-.18h0A.13.13,0,0,0,8.577.311Zm1.668.015a.128.128,0,0,0-.093.032l-.024.021A.128.128,0,0,0,10.3.57l.024-.021a.129.129,0,0,0,.011-.18.134.134,0,0,0-.087-.043Zm1.647.057a.126.126,0,0,0-.09.039L11.78.446a.125.125,0,1,0,.179.175L11.981.6a.126.126,0,0,0,0-.179A.128.128,0,0,0,11.89.383ZM7.238.41a.128.128,0,0,0-.077.015L7.133.441a.126.126,0,0,0-.049.173h0a.128.128,0,0,0,.173.049h0L7.285.647A.128.128,0,0,0,7.334.474h0a.125.125,0,0,0-.1-.064ZM8.312.526a.131.131,0,0,0-.1.02l-.01,0L8.185.565a.127.127,0,0,0,.146.209h0l.02-.015.01,0A.127.127,0,0,0,8.4.579h0A.122.122,0,0,0,8.313.526ZM9.986.553a.132.132,0,0,0-.094.025L9.868.6a.129.129,0,0,0-.025.179h0A.126.126,0,0,0,10.022.8l.026-.019A.128.128,0,0,0,10.071.6.131.131,0,0,0,9.987.553ZM6.923.569A.132.132,0,0,0,6.858.58h0L6.832.593a.127.127,0,0,0,.105.232L6.965.812h0A.128.128,0,0,0,7.028.642h0A.126.126,0,0,0,6.955.576h0A.165.165,0,0,0,6.923.569Zm4.729.067a.129.129,0,0,0-.09.038L11.54.7a.129.129,0,0,0,0,.18h0a.128.128,0,0,0,.18,0l.022-.023a.127.127,0,0,0,0-.18h0a.126.126,0,0,0-.09-.037ZM6.594.7a.115.115,0,0,0-.049.008l-.03.011a.127.127,0,0,0-.076.163h0A.127.127,0,0,0,6.6.961h0L6.632.95A.126.126,0,0,0,6.708.786h0A.127.127,0,0,0,6.594.7ZM7.98.713a.136.136,0,0,0-.047.015L7.905.743a.127.127,0,0,0-.051.173h0a.128.128,0,0,0,.173.051L8.055.951A.127.127,0,0,0,8.106.778h0A.126.126,0,0,0,7.981.713ZM9.661.758a.123.123,0,0,0-.046.018L9.589.794A.128.128,0,0,0,9.553.97a.126.126,0,0,0,.176.036h0L9.755.989A.126.126,0,0,0,9.791.813h0A.125.125,0,0,0,9.71.758a.14.14,0,0,0-.05,0Zm-3.4.049a.17.17,0,0,0-.04,0L6.2.818h-.01a.128.128,0,0,0,.056.249h0l.01,0,.025-.007A.128.128,0,0,0,6.374.9h0a.129.129,0,0,0-.116-.1ZM11.4.868A.124.124,0,0,0,11.311.9l-.025.02a.127.127,0,0,0-.021.179h0a.127.127,0,0,0,.179.02h0l.025-.02A.128.128,0,0,0,11.49.915h0A.126.126,0,0,0,11.4.868ZM7.675.873a.131.131,0,0,0-.048.012L7.615.891,7.6.9a.127.127,0,0,0-.066.168h0a.128.128,0,0,0,.167.067l.017-.007.017-.009A.127.127,0,0,0,7.724.88a.141.141,0,0,0-.05-.007Zm-1.783,0h-.01l-.021,0a.126.126,0,0,0-.109.143h0a.126.126,0,0,0,.142.109l.024,0h.01A.128.128,0,0,0,6.035.984h0A.128.128,0,0,0,5.89.877ZM13.105.9a.126.126,0,0,0-.088.043L13,.967a.127.127,0,1,0,.191.168h0l.021-.024a.127.127,0,0,0-.1-.211ZM9.388.933a.137.137,0,0,0-.064.015L9.3.963a.126.126,0,0,0-.053.172h0a.126.126,0,0,0,.172.053l.028-.015A.127.127,0,0,0,9.5,1h0A.131.131,0,0,0,9.388.933Zm-2.025.074a.157.157,0,0,0-.049.008l-.03.012a.126.126,0,0,0-.073.164h0a.127.127,0,0,0,.164.073h0L7.4,1.253a.127.127,0,0,0-.042-.246Zm3.772.07a.129.129,0,0,0-.1.016l-.019.013v0a.127.127,0,0,0,.128.22h0l.01,0,.022-.014a.128.128,0,0,0,.042-.175h0a.124.124,0,0,0-.08-.056Zm-2.051.006a.123.123,0,0,0-.066.009L9,1.1l-.01,0a.127.127,0,0,0-.07.166h0a.126.126,0,0,0,.165.07h0l.01,0,.023-.009a.127.127,0,0,0-.032-.244ZM7.04,1.122a.132.132,0,0,0-.049,0l-.03.009a.127.127,0,1,0,.075.243h0l.03-.009a.128.128,0,0,0,.085-.159h0a.128.128,0,0,0-.11-.089Zm5.836.035a.126.126,0,0,0-.09.037l-.022.023a.127.127,0,0,0,0,.18h0a.127.127,0,0,0,.18,0h0l.022-.023a.127.127,0,0,0-.09-.217Zm-4.113.05a.134.134,0,0,0-.066,0l-.014.005-.014,0a.127.127,0,0,0,.079.242l.017-.005.016-.006A.128.128,0,0,0,8.86,1.29h0a.127.127,0,0,0-.1-.083Zm-2.054.014a.12.12,0,0,0-.05,0h0l-.028.007a.128.128,0,0,0-.092.155h0a.127.127,0,0,0,.155.09l.031-.007h0a.127.127,0,0,0-.019-.249Zm4.138.034a.128.128,0,0,0-.1,0l-.029.014a.126.126,0,0,0-.062.169h0a.128.128,0,0,0,.169.062h0l.029-.013a.128.128,0,0,0,.061-.17h0a.126.126,0,0,0-.072-.066Zm-4.472.051a.14.14,0,0,0-.05,0l-.031.007a.127.127,0,0,0-.1.151h0a.127.127,0,0,0,.152.1l.031-.007a.127.127,0,0,0,0-.249Zm2.061,0a.123.123,0,0,0-.066,0l-.01,0-.024.006a.128.128,0,0,0,.065.247h0l.024-.007.01,0A.128.128,0,0,0,8.526,1.4h0a.128.128,0,0,0-.092-.091Zm-2.45.062-.032.006A.128.128,0,0,0,6,1.63l.031-.006a.127.127,0,0,0,.1-.147h0a.128.128,0,0,0-.148-.1Zm6.642.015a.13.13,0,0,0-.094.026l-.025.02a.127.127,0,0,0-.022.179h0a.127.127,0,0,0,.179.022h0l.025-.019a.127.127,0,0,0,.022-.178h0a.131.131,0,0,0-.085-.048ZM8.035,1.4,8,1.4a.128.128,0,0,0,.059.249h0l.031-.007A.127.127,0,0,0,8.035,1.4Zm2.4,0-.014,0-.013.005a.129.129,0,0,0-.077.163.127.127,0,0,0,.162.077l.017-.006.017-.007A.128.128,0,0,0,10.6,1.47h0a.127.127,0,0,0-.165-.073Zm-4.745.035a.12.12,0,0,0-.05,0l-.031.007a.126.126,0,0,0-.1.152.128.128,0,0,0,.152.1L5.7,1.681a.127.127,0,0,0,.1-.153h0a.126.126,0,0,0-.1-.1Zm2,.042-.031.007a.128.128,0,0,0,.057.249h0l.03-.007a.127.127,0,0,0,.1-.151h0a.128.128,0,0,0-.152-.1Zm2.42.029-.031.009A.128.128,0,0,0,10,1.67h0a.127.127,0,0,0,.158.087h0l.031-.009a.127.127,0,0,0-.07-.244h0Zm-4.763,0a.12.12,0,0,0-.05,0l-.016,0-.014,0a.127.127,0,0,0-.1.149h0a.129.129,0,0,0,.15.1h0l.016,0,.017,0a.128.128,0,0,0,0-.25Zm2,.044-.031.007a.127.127,0,1,0,.056.248h0L7.41,1.8a.127.127,0,0,0-.056-.248Zm2.429.034-.01,0-.022,0a.127.127,0,0,0-.1.15h0a.128.128,0,0,0,.151.1l.024-.005.01,0a.128.128,0,0,0-.056-.249h0Zm2.572,0a.129.129,0,0,0-.1.014l-.011.007-.016.009a.127.127,0,1,0,.129.219h0l.016-.01.012-.007a.128.128,0,0,0,.043-.175.134.134,0,0,0-.078-.058Zm1.823.007a.125.125,0,0,0-.089.04l-.011.013-.01.011a.128.128,0,0,0,.189.173l.01-.011.012-.013a.126.126,0,0,0-.01-.179.122.122,0,0,0-.091-.034ZM7.011,1.63l-.031.007a.127.127,0,0,0-.1.153h0a.127.127,0,0,0,.154.093l.031-.007a.126.126,0,0,0,.095-.152h0a.128.128,0,0,0-.154-.095h0Zm2.435.018-.031.005a.127.127,0,0,0-.1.146h0a.127.127,0,0,0,.145.106h0L9.488,1.9a.128.128,0,0,0,.105-.146.127.127,0,0,0-.146-.1ZM9.1,1.7l-.031,0a.126.126,0,0,0-.109.143h0a.127.127,0,0,0,.144.108h0l.032,0a.127.127,0,0,0,.108-.144h0A.127.127,0,0,0,9.1,1.7Zm-2.434.014-.031.008a.127.127,0,0,0-.093.154h0a.128.128,0,0,0,.155.092h0l.031-.007a.128.128,0,0,0,.092-.155h0a.127.127,0,0,0-.154-.093h0Zm2.087.035-.032,0a.127.127,0,0,0-.108.144h0a.127.127,0,0,0,.144.108l.032,0A.127.127,0,0,0,8.9,1.857h0A.127.127,0,0,0,8.756,1.749Zm3.3,0a.123.123,0,0,0-.1,0l-.026.011a.127.127,0,0,0-.07.166h0a.129.129,0,0,0,.167.07h0l.03-.014a.128.128,0,0,0,.065-.168.126.126,0,0,0-.071-.067ZM8.407,1.8l-.031.005a.128.128,0,0,0-.1.146.126.126,0,0,0,.146.1l.031,0a.127.127,0,0,0,.106-.145h0a.129.129,0,0,0-.147-.1Zm-2,.011a.12.12,0,0,0-.065,0l-.03.01a.128.128,0,0,0-.083.16.129.129,0,0,0,.161.082h0l.031-.01A.128.128,0,0,0,6.5,1.9h0a.126.126,0,0,0-.1-.085Zm7.54.031a.134.134,0,0,0-.092.033l-.024.022a.127.127,0,1,0,.17.189l.023-.021a.127.127,0,0,0-.078-.222Zm-5.883.022-.018,0-.015,0a.127.127,0,0,0,.052.249l.013,0,.017,0a.127.127,0,0,0,.1-.15h0a.127.127,0,0,0-.149-.1Zm3.589,0-.031.009a.127.127,0,0,0-.086.158h0a.127.127,0,0,0,.158.086h0l.03-.009a.127.127,0,0,0,.086-.159h0a.128.128,0,0,0-.158-.086h0Zm-5.576.044a.134.134,0,0,0-.066,0l-.018.006-.01,0a.127.127,0,0,0-.093.154h0a.129.129,0,0,0,.154.094h0l.012,0,.022-.007A.126.126,0,0,0,6.162,2h0a.129.129,0,0,0-.091-.09Zm1.639.033-.031.008a.128.128,0,0,0-.092.155h0a.128.128,0,0,0,.155.092h0l.031-.008a.127.127,0,0,0,.093-.154h0a.128.128,0,0,0-.155-.092h0Zm3.608,0-.025,0h0a.128.128,0,1,0,.045.251h.01l.028-.006a.128.128,0,0,0,.1-.149h0a.127.127,0,0,0-.15-.1h-.009Zm-5.646.044L5.642,2a.127.127,0,0,0-.1.151h0a.127.127,0,0,0,.151.1h0l.031-.007a.127.127,0,1,0-.053-.249ZM10.983,2h0l-.025,0a.128.128,0,0,0-.114.14h0a.128.128,0,0,0,.14.113l.028,0h.01a.127.127,0,0,0,.111-.142h0A.127.127,0,0,0,10.991,2h-.008Zm-.341.03-.032,0a.128.128,0,0,0,.015.255h0l.032,0a.126.126,0,0,0,.12-.134h0a.128.128,0,0,0-.135-.12ZM7.37,2.046h0l.047.135L7.362,2.05h0L7.34,2.06a.127.127,0,1,0,.1.234l.01,0h0l.01,0h0a.126.126,0,0,0-.086-.237Zm2.925,0h-.032a.127.127,0,0,0-.122.132h0a.128.128,0,0,0,.132.123h.032a.127.127,0,0,0,.122-.132h0a.128.128,0,0,0-.132-.122Zm3.389.011a.131.131,0,0,0-.1.02l-.016.01-.01.005a.127.127,0,1,0,.135.215h0l.011-.007.019-.012a.126.126,0,0,0,.034-.177.125.125,0,0,0-.081-.054Zm-3.738,0H9.914a.129.129,0,0,0-.123.132.127.127,0,0,0,.132.123h.032a.128.128,0,1,0-.009-.255Zm-4.614,0-.012,0-.017,0a.128.128,0,0,0,.046.251l.019,0,.013,0a.127.127,0,0,0-.048-.25h0Zm4.261.016-.032,0a.128.128,0,0,0-.12.135h0a.127.127,0,0,0,.135.119h0l.032,0a.128.128,0,0,0,.12-.135h0a.127.127,0,0,0-.135-.119Zm-.356.029-.032,0a.127.127,0,1,0,.029.253h0l.032,0a.127.127,0,0,0,.112-.141h0a.127.127,0,0,0-.141-.112ZM4.99,2.123l-.031,0a.127.127,0,0,0-.1.147h0a.126.126,0,0,0,.146.1l.032-.006a.127.127,0,1,0-.043-.25h0Zm3.893.036-.023,0-.01,0a.126.126,0,0,0-.1.149h0a.127.127,0,0,0,.149.1H8.91l.021,0a.129.129,0,0,0,.1-.148h0a.127.127,0,0,0-.148-.1h0Zm-1.838.015-.017.006-.011,0a.127.127,0,0,0-.08.161h0a.127.127,0,0,0,.161.079h0l.012,0,.019-.007a.126.126,0,0,0,.077-.162.128.128,0,0,0-.162-.078Zm-2.4.008h0l-.029.005a.127.127,0,0,0,.046.25l.028-.005h0a.128.128,0,0,0,.1-.147h0a.128.128,0,0,0-.148-.1h0Zm8.75.053a.128.128,0,0,0-.1.005h0l-.023.011a.127.127,0,0,0,.105.232l.027-.013v0a.128.128,0,0,0-.012-.235Zm-4.869.009-.031.01a.127.127,0,0,0,.078.242l.031-.01a.127.127,0,0,0,.082-.16h0a.128.128,0,0,0-.16-.082Zm6.079.011a.124.124,0,0,0-.089.039l-.015.017v0a.127.127,0,0,0,0,.18h0a.128.128,0,0,0,.18,0h0l.01-.007.019-.019a.128.128,0,0,0-.01-.18h0a.129.129,0,0,0-.091-.034Zm-7.887.023-.029.009a.127.127,0,1,0,.067.245h0l.031-.009a.126.126,0,0,0,.087-.157.128.128,0,0,0-.157-.088Zm6.272.078-.031.009a.127.127,0,1,0,.072.244l.03-.009a.128.128,0,0,0-.072-.245h0Zm-4.706.006a.128.128,0,0,0-.1.006l-.029.014a.127.127,0,1,0,.11.229L8.3,2.6a.128.128,0,0,0-.012-.235Zm-1.9,0-.031.007a.127.127,0,0,0,.057.248l.031-.007a.127.127,0,0,0-.056-.248Zm3.849.048H10.2a.127.127,0,0,0-.122.132h0a.127.127,0,0,0,.132.122h.03a.129.129,0,0,0,.125-.13.127.127,0,0,0-.13-.124Zm.328,0a.127.127,0,0,0-.011.254h.032a.127.127,0,1,0,.01-.254Zm2.1.015-.029,0a.128.128,0,0,0-.106.146h0a.127.127,0,0,0,.146.106h0l.032,0h0a.127.127,0,0,0-.043-.25Zm-1.747,0a.127.127,0,0,0-.135.119h0a.128.128,0,0,0,.119.135h0l.032,0a.128.128,0,0,0,.017-.255h0Zm-1.037,0-.026,0h-.01a.128.128,0,0,0-.113.14h0a.129.129,0,0,0,.141.113h.01l.024,0a.128.128,0,0,0-.024-.254h0Zm-3.831,0-.031.006a.128.128,0,0,0-.1.151h0a.128.128,0,0,0,.151.1L6.1,2.686a.128.128,0,0,0-.053-.25Zm5.218.018a.126.126,0,0,0-.135.118h0a.126.126,0,0,0,.118.135l.032,0a.127.127,0,0,0,.136-.118h0a.128.128,0,0,0-.119-.135Zm3.1.013a.127.127,0,0,0-.1.013l-.011.007-.011.006a.126.126,0,0,0-.053.172h0a.127.127,0,0,0,.172.053l.016-.008L14.4,2.7a.127.127,0,0,0-.031-.233Zm-2.035,0-.032,0a.127.127,0,1,0,.02.253h0l.032,0a.127.127,0,1,0-.02-.253h0Zm-.715,0a.127.127,0,0,0-.134.12h0a.127.127,0,0,0,.121.133h.032a.127.127,0,0,0,.134-.121h0a.127.127,0,0,0-.121-.133h-.032Zm.343.011a.127.127,0,0,0,0,.254h.032a.129.129,0,0,0,.128-.127h0a.127.127,0,0,0-.127-.127ZM9.512,2.5l-.03.008h0a.127.127,0,0,0-.087.158h0a.128.128,0,0,0,.157.087l.028-.007a.127.127,0,0,0,.091-.155h0A.127.127,0,0,0,9.517,2.5h0ZM5.705,2.5l-.031.006a.129.129,0,0,0-.1.15.126.126,0,0,0,.149.1l.031-.006a.127.127,0,1,0-.048-.25Zm2.167,0h0l-.025.01a.128.128,0,0,0,.09.239h0l.027-.01v0A.127.127,0,1,0,7.871,2.5ZM5.36,2.572l-.031.006a.129.129,0,0,0-.1.151h0a.127.127,0,0,0,.15.1h0l.031-.006a.128.128,0,0,0-.053-.25Zm3.9.043a.128.128,0,0,0-.1,0l-.029.013A.127.127,0,0,0,9.07,2.8a.128.128,0,0,0,.169.064l.029-.014a.127.127,0,0,0,.063-.168.124.124,0,0,0-.071-.066Zm-1.707,0-.03.009a.127.127,0,0,0-.085.159h0a.126.126,0,0,0,.159.084h0l.03-.01A.128.128,0,0,0,7.713,2.7h0a.127.127,0,0,0-.159-.084Zm6.416,0-.03.012a.127.127,0,0,0-.075.163.129.129,0,0,0,.164.076h0l.03-.011a.127.127,0,0,0,.075-.163.129.129,0,0,0-.164-.076ZM5.014,2.65l-.027.006h0a.128.128,0,1,0,.06.248h0L5.075,2.9a.128.128,0,0,0,.094-.154h0a.128.128,0,0,0-.154-.094h0ZM7.225,2.7l-.031.007a.128.128,0,0,0,.055.249h0l.031-.007A.128.128,0,0,0,7.225,2.7Zm6.422.02-.031.009a.127.127,0,0,0-.089.157h0a.126.126,0,0,0,.156.088l.031-.008a.127.127,0,0,0,.09-.156h0a.127.127,0,0,0-.157-.089h0Zm-2.745,0H10.87a.127.127,0,0,0,0,.254h.032a.127.127,0,0,0,.126-.129h0a.127.127,0,0,0-.129-.125Zm.346.018a.128.128,0,0,0-.151.1h0a.128.128,0,0,0,.1.15L11.226,3a.127.127,0,0,0,.151-.1h0a.127.127,0,0,0-.1-.151Zm-6.582,0-.031.011A.128.128,0,0,0,4.719,3l.03-.011a.127.127,0,0,0,.079-.162h0a.127.127,0,0,0-.162-.079Zm5.871,0-.031,0A.129.129,0,0,0,10.4,2.9h0a.128.128,0,0,0,.143.109l.032,0a.128.128,0,0,0-.033-.253h0Zm-1.591.02a.126.126,0,0,0-.1,0l-.012.006-.019.009a.127.127,0,0,0,.111.229l.018-.008.01,0a.128.128,0,0,0,.061-.169.133.133,0,0,0-.072-.066Zm-2.06,0-.031.006a.128.128,0,0,0-.1.149h0a.128.128,0,0,0,.149.1l.031-.006a.127.127,0,0,0,.1-.149h0a.127.127,0,0,0-.149-.1h0Zm6.43.026-.025.005h0a.126.126,0,0,0-.105.146.127.127,0,0,0,.146.1h.01l.028-.006a.128.128,0,0,0,.1-.149.126.126,0,0,0-.148-.1Zm-1.731.009a.127.127,0,0,0-.146.106h0a.128.128,0,0,0,.107.146h0l.031,0a.128.128,0,0,0,.04-.252h0Zm-5.042.027-.031.006a.128.128,0,0,0-.1.147h0a.128.128,0,0,0,.148.1l.032,0a.127.127,0,0,0-.044-.251h0Zm3.627.012-.027.011-.01,0a.127.127,0,0,0,.1.234h0l.023-.009a.127.127,0,0,0-.093-.237Zm2.809,0-.031,0a.127.127,0,0,0-.113.14h0a.127.127,0,0,0,.139.114h0l.031,0a.128.128,0,0,0,.114-.14h0a.127.127,0,0,0-.14-.113Zm-1.055,0a.128.128,0,0,0-.023.254h0l.032,0a.128.128,0,0,0,.023-.254h0Zm.715.021h-.03a.128.128,0,0,0-.125.13h0a.127.127,0,0,0,.131.124h.033a.128.128,0,0,0-.01-.255h0Zm-.372,0A.127.127,0,0,0,12.135,3h0a.126.126,0,0,0,.122.131h.034a.128.128,0,0,0,.131-.124h0a.127.127,0,0,0-.124-.13h-.031Zm-7.841.008a.128.128,0,0,0-.1.006L4.3,2.9a.127.127,0,0,0,.11.229l.029-.014A.127.127,0,0,0,4.5,2.948h0a.125.125,0,0,0-.073-.064ZM6.2,2.9,6.165,2.9a.128.128,0,0,0-.1.149h0a.128.128,0,0,0,.149.1l.029-.006h0A.128.128,0,1,0,6.2,2.9Zm2.34.01-.03.012a.127.127,0,0,0,.087.239l.03-.011A.126.126,0,0,0,8.7,2.984h0a.127.127,0,0,0-.163-.078h0Zm5.684.046a.126.126,0,0,0-.1.009l-.028.015a.127.127,0,0,0,.118.226h0l.028-.015a.128.128,0,0,0,.053-.171.13.13,0,0,0-.075-.063Zm-8.369.014-.029.006h-.01a.128.128,0,0,0-.094.153.126.126,0,0,0,.152.1h0L5.9,3.214A.128.128,0,0,0,6,3.062a.127.127,0,0,0-.151-.1Zm4.087.04a.128.128,0,0,0-.1.015h0l-.024.015a.127.127,0,1,0,.132.218h0l.024-.015v0a.127.127,0,0,0,.042-.175h0a.129.129,0,0,0-.079-.058Zm-1.726,0-.024.007h0A.127.127,0,0,0,8.1,3.17h0a.126.126,0,0,0,.155.091h.01l.026-.007A.128.128,0,0,0,8.378,3.1h0a.126.126,0,0,0-.156-.088Zm7.225.006a.128.128,0,0,0-.1,0l-.029.013a.127.127,0,0,0-.064.168.128.128,0,0,0,.168.065l.029-.014a.126.126,0,0,0,.064-.167.133.133,0,0,0-.07-.068ZM4.1,3.054a.129.129,0,0,0-.095.025L3.98,3.1a.126.126,0,0,0-.024.178h0a.128.128,0,0,0,.179.023l.026-.019A.128.128,0,0,0,4.183,3.1.126.126,0,0,0,4.1,3.054Zm1.4.005-.031.01a.127.127,0,0,0-.081.161h0a.128.128,0,0,0,.161.081l.03-.01A.127.127,0,0,0,5.5,3.059Zm2.381.027-.031.006a.126.126,0,0,0-.1.149h0a.127.127,0,0,0,.15.1l.032-.006a.127.127,0,1,0-.051-.249Zm6.033.022a.126.126,0,0,0-.1,0l-.029.013a.127.127,0,0,0,.1.233h0l.029-.013a.128.128,0,0,0,.065-.168h0a.128.128,0,0,0-.071-.066Zm2.146.013a.126.126,0,0,0-.1.019l-.027.017a.127.127,0,0,0,.141.212l.027-.018a.127.127,0,0,0-.046-.23Zm-8.52.026-.029.005A.126.126,0,0,0,7.4,3.3h0a.128.128,0,0,0,.146.106l.032,0a.128.128,0,0,0,.1-.146h0a.127.127,0,0,0-.146-.1Zm7.485.007-.03.011a.127.127,0,0,0,.094.237h0l.029-.012a.127.127,0,0,0,.072-.165h0A.126.126,0,0,0,15.024,3.154Zm-5.381.018a.128.128,0,0,0-.1,0l-.029.013a.128.128,0,0,0,.106.232l.029-.013a.127.127,0,0,0,.063-.168.129.129,0,0,0-.071-.067Zm-4.388.015a.126.126,0,0,0-.1.006h0l-.03.016a.127.127,0,0,0,.116.226l.025-.013h0a.127.127,0,0,0-.014-.234ZM7.2,3.2,7.164,3.2a.127.127,0,0,0-.107.145h0a.127.127,0,0,0,.145.107h0l.032,0A.127.127,0,1,0,7.2,3.2Zm6.3.04-.01,0-.022.008a.127.127,0,0,0-.076.163h0a.126.126,0,0,0,.162.076l.023-.008.01,0a.127.127,0,0,0-.09-.238Zm-6.652.014-.032.006a.127.127,0,0,0-.1.147h0a.127.127,0,0,0,.147.1l.032,0a.127.127,0,1,0-.043-.251Zm7.852.021-.01,0-.022.007a.127.127,0,0,0,.084.24h0l.022-.008.01,0a.126.126,0,0,0,.077-.162h0a.127.127,0,0,0-.162-.077h0Zm-10.882.02a.128.128,0,0,0-.086.045l-.021.025a.128.128,0,0,0,.2.162l.02-.025a.128.128,0,0,0-.017-.179.13.13,0,0,0-.093-.028Zm5.416,0-.03.009a.127.127,0,0,0-.083.159h0a.128.128,0,0,0,.16.083h0l.03-.01A.127.127,0,1,0,9.234,3.3Zm6.534.017a.132.132,0,0,0-.095.019l-.027.018a.128.128,0,0,0,.142.212l.026-.018a.127.127,0,0,0-.047-.231ZM6.5,3.327l-.02,0-.013,0a.128.128,0,0,0-.091.156h0a.128.128,0,0,0,.156.09h0l.011,0,.018,0a.128.128,0,0,0,.093-.154h0A.127.127,0,0,0,6.5,3.328Zm6.681.019-.031.009a.126.126,0,0,0-.087.157h0a.126.126,0,0,0,.157.087l.031-.009a.126.126,0,0,0,.087-.157h0A.126.126,0,0,0,13.176,3.346ZM4.933,3.37a.133.133,0,0,0-.094.028l-.016.013-.011.01a.127.127,0,1,0,.166.193h0l.01-.007L5,3.6a.127.127,0,0,0-.068-.225ZM8.9,3.388,8.874,3.4a.127.127,0,1,0,.058.247h0l.031-.007a.128.128,0,0,0-.06-.248h0Zm5.465,0-.03.01a.127.127,0,0,0,.082.241l.031-.01a.127.127,0,1,0-.082-.241h0Zm-3.263.042a.127.127,0,0,0-.008.254h.032a.127.127,0,0,0,.131-.123h0a.127.127,0,0,0-.123-.131Zm1.737,0-.012,0-.017,0a.128.128,0,0,0-.1.15h0a.126.126,0,0,0,.151.1h0l.018,0,.014,0a.127.127,0,1,0-.055-.248h0Zm-6.7,0-.01,0-.025.01a.128.128,0,0,0-.073.164h0a.129.129,0,0,0,.165.072h0l.021-.008h0a.128.128,0,0,0,.079-.162h0a.128.128,0,0,0-.162-.078h0Zm2.422.025-.032,0a.128.128,0,0,0-.1.147h0a.127.127,0,0,0,.147.1h0l.032-.005a.126.126,0,0,0,.1-.146h0a.128.128,0,0,0-.147-.1Zm2.19,0-.031.007a.128.128,0,0,0,.053.25l.031-.007a.128.128,0,0,0-.053-.25Zm.708,0a.129.129,0,0,0-.143.111h0a.128.128,0,0,0,.111.142h0l.032,0a.127.127,0,1,0,.031-.252Zm1.042.033-.032,0a.127.127,0,1,0,.036.251l.031,0a.126.126,0,0,0,.108-.144h0a.127.127,0,0,0-.144-.107Zm1.529.007-.031.01a.128.128,0,0,0,.081.242h0l.031-.01a.128.128,0,0,0,.08-.161h0a.127.127,0,0,0-.161-.079Zm-2.225.006a.127.127,0,0,0-.142.111h0a.127.127,0,0,0,.112.141h0l.032,0a.127.127,0,0,0,.03-.252Zm-3.585,0-.032,0a.127.127,0,1,0,.033.252h0l.031,0a.127.127,0,0,0,.11-.142h0a.126.126,0,0,0-.143-.109h0Zm7.247,0a.123.123,0,0,0-.1.019l-.027.017a.128.128,0,0,0,.142.212l.026-.018a.127.127,0,0,0-.048-.23Zm-3.31.018h-.019a.127.127,0,0,0,0,.254h.036a.126.126,0,0,0,.121-.133h0a.127.127,0,0,0-.133-.121ZM7.881,3.55l-.032,0A.126.126,0,0,0,7.74,3.7h0a.127.127,0,0,0,.143.11h0l.032,0a.127.127,0,0,0,.109-.143h0a.127.127,0,0,0-.143-.11Zm2.609.035a.129.129,0,0,0-.1.017l-.012.008-.018.012a.127.127,0,1,0,.145.209h0l.014-.01.01-.005a.128.128,0,0,0,.039-.176h0a.127.127,0,0,0-.08-.055Zm-4.589,0a.13.13,0,0,0-.095.023l-.025.019a.127.127,0,0,0,.15.206l.026-.019A.128.128,0,0,0,5.9,3.586Zm-2.3.005a.128.128,0,0,0-.074.063l-.014.029a.127.127,0,1,0,.227.115l.014-.029A.127.127,0,0,0,3.7,3.6a.122.122,0,0,0-.1-.007ZM7.531,3.6,7.5,3.607a.126.126,0,0,0-.1.146h0a.128.128,0,0,0,.147.1h0l.032,0a.127.127,0,0,0,.1-.147h0a.126.126,0,0,0-.146-.1Zm6.175.011-.03.011a.127.127,0,0,0,.085.239h0l.03-.01a.129.129,0,0,0,.077-.163h0a.128.128,0,0,0-.163-.077ZM4.66,3.628a.125.125,0,0,0-.081.053l-.018.026a.127.127,0,0,0,.033.177h0a.126.126,0,0,0,.176-.033h0l.018-.026a.128.128,0,0,0-.034-.177h0a.123.123,0,0,0-.1-.019Zm2.512.048-.03.009a.129.129,0,0,0-.085.159h0a.128.128,0,0,0,.159.085h0l.031-.009a.127.127,0,0,0-.073-.244h0Zm8.013.028a.125.125,0,0,0-.1.019l-.026.018a.127.127,0,0,0,.143.211h0l.026-.018a.127.127,0,0,0,.034-.177.129.129,0,0,0-.082-.054Zm-1.811.035-.03.012a.127.127,0,0,0-.07.166h0a.127.127,0,0,0,.166.07h0l.029-.012a.127.127,0,0,0,.07-.166h0a.127.127,0,0,0-.165-.07Zm-3.164.052a.124.124,0,0,0-.1.016l-.027.016A.127.127,0,0,0,10.044,4h0a.128.128,0,0,0,.175.041l.027-.016a.128.128,0,0,0,.041-.176h0a.127.127,0,0,0-.079-.057Zm-3.287.015a.128.128,0,0,0-.1.008l-.03.014A.127.127,0,0,0,6.743,4h0a.126.126,0,0,0,.17.055l.03-.015A.126.126,0,0,0,7,3.869H7a.125.125,0,0,0-.074-.063Zm-1.308.019a.125.125,0,0,0-.086.046l-.015.018L5.5,3.9a.127.127,0,0,0,.207.147l.01-.007.01-.011a.126.126,0,0,0-.019-.179.121.121,0,0,0-.093-.028Zm7.529.051a.126.126,0,0,0-.1,0l-.013.006-.017.008a.127.127,0,0,0,.109.23l.016-.007.011,0a.128.128,0,0,0,.063-.169h0a.123.123,0,0,0-.072-.066ZM14.9,3.9a.128.128,0,0,0-.095.02l-.026.019a.127.127,0,0,0-.032.177.128.128,0,0,0,.178.032h0l.025-.019A.127.127,0,0,0,14.9,3.9ZM3.551,3.916A.127.127,0,0,0,3.392,4l-.01.03a.127.127,0,1,0,.243.076l.01-.03a.127.127,0,0,0-.084-.16Zm1.017.027a.128.128,0,0,0-.164.074l-.01.017-.01.017a.127.127,0,0,0,.08.162h0a.128.128,0,0,0,.162-.08h0V4.12l.01-.012a.127.127,0,0,0-.074-.164Zm5.35.017a.124.124,0,0,0-.1,0l-.029.013a.126.126,0,0,0-.067.167h0a.127.127,0,0,0,.167.066l.03-.012a.127.127,0,0,0,.066-.167h0a.125.125,0,0,0-.07-.069ZM6.6,4a.129.129,0,0,0-.089.04l-.022.023a.126.126,0,1,0,.18.176h0l.022-.023a.128.128,0,0,0,0-.18h0A.126.126,0,0,0,6.6,4Zm6.226.03a.126.126,0,0,0-.1.01l-.02.011-.01.006a.126.126,0,0,0-.048.173.128.128,0,0,0,.173.049l.01,0,.019-.01a.128.128,0,0,0,.051-.173.133.133,0,0,0-.076-.062Zm-3.318.046-.031.009a.127.127,0,0,0,.075.243h0l.03-.009a.128.128,0,0,0,.085-.159h0A.127.127,0,0,0,9.5,4.077Zm5.1.027a.128.128,0,0,0-.095.023l-.026.019a.127.127,0,0,0-.028.177h0a.126.126,0,0,0,.177.027l.026-.018a.128.128,0,0,0,.028-.178h0a.125.125,0,0,0-.083-.05ZM5.5,4.136a.126.126,0,0,0-.162.076h0l-.01.029a.127.127,0,0,0,.076.163h0a.127.127,0,0,0,.163-.077l.011-.03A.127.127,0,0,0,5.5,4.136h0Zm3.678.025-.032.007a.127.127,0,0,0,.052.249l.031-.007a.127.127,0,0,0,.1-.15h0a.127.127,0,0,0-.15-.1Zm3.334.049a.127.127,0,0,0-.1.019l-.01,0-.022.016a.128.128,0,0,0-.029.178h0a.128.128,0,0,0,.178.028l.02-.013v0a.127.127,0,0,0-.047-.23Zm-1.082,0a.127.127,0,0,0-.062.023v0l-.021.014a.127.127,0,0,0,.141.211l.024-.015.01,0a.127.127,0,0,0,.03-.177.125.125,0,0,0-.115-.054Zm-2.59.01-.031,0a.127.127,0,1,0,.036.252l.032,0a.128.128,0,0,0-.035-.253h0Zm4.687.01a.129.129,0,0,0-.1.017l-.027.017a.128.128,0,0,0-.04.176h0a.126.126,0,0,0,.175.039l.028-.017a.128.128,0,0,0,.039-.176h0a.126.126,0,0,0-.081-.056ZM3.446,4.25a.127.127,0,0,0-.166.07l-.011.026a.127.127,0,0,0,.232.1h0l.013-.029v0a.127.127,0,0,0-.07-.166h0ZM8.5,4.264l-.032,0a.127.127,0,0,0-.113.14h0a.128.128,0,0,0,.14.112l.032,0A.127.127,0,0,0,8.5,4.264Zm-4.041.01a.127.127,0,0,0-.153.094l-.01.031a.127.127,0,0,0,.093.154h0a.128.128,0,0,0,.153-.094l.01-.031a.127.127,0,0,0-.093-.154h0ZM8.149,4.3l-.032,0A.128.128,0,0,0,8,4.442H8a.127.127,0,0,0,.141.112h0l.032,0A.127.127,0,0,0,8.149,4.3Zm-1.787,0a.128.128,0,0,0-.071.066l-.012.029v0a.127.127,0,0,0,.07.166h0a.127.127,0,0,0,.166-.07h0l.011-.024A.127.127,0,0,0,6.463,4.3h0a.126.126,0,0,0-.1,0Zm7.961.012a.133.133,0,0,0-.1.025l-.025.02a.127.127,0,1,0,.155.2h0l.026-.019a.127.127,0,0,0,.024-.178.132.132,0,0,0-.084-.05Zm-6.46.073a.131.131,0,0,0-.1.008l-.029.015h0a.127.127,0,1,0,.123.223l.025-.013a.128.128,0,0,0,.055-.171h0a.13.13,0,0,0-.075-.063Zm3.267.009a.136.136,0,0,0-.047.015l-.028.015A.129.129,0,0,0,11,4.6a.126.126,0,0,0,.172.051h0l.028-.015A.128.128,0,0,0,11.18,4.4a.12.12,0,0,0-.05,0Zm1.092.023a.126.126,0,0,0-.094.027v0l-.02.017a.126.126,0,0,0-.021.178h0a.128.128,0,0,0,.179.02h0l.02-.017.01,0a.127.127,0,0,0,.02-.179h0a.13.13,0,0,0-.085-.047Zm1.008.009a.133.133,0,0,0-.1.022l-.025.019a.127.127,0,0,0-.029.177.128.128,0,0,0,.178.03h0l.026-.019a.127.127,0,0,0,.029-.177.13.13,0,0,0-.083-.052Zm-7.839.042a.128.128,0,0,0-.149.1h0l-.01.031a.127.127,0,0,0,.1.148h0a.127.127,0,0,0,.149-.1h0l.01-.031a.127.127,0,0,0-.1-.148Zm10.848.015a.128.128,0,0,0-.08.054l-.018.026a.128.128,0,0,0,.037.177h0a.128.128,0,0,0,.176-.036l.018-.027a.127.127,0,0,0-.036-.176h0A.125.125,0,0,0,16.239,4.482Zm-2.2.043a.129.129,0,0,0-.094.027l-.025.02a.128.128,0,0,0-.02.179h0a.127.127,0,0,0,.179.02h0l.025-.02a.129.129,0,0,0,.02-.179h0a.122.122,0,0,0-.085-.047Zm-3.2.019a.13.13,0,0,0-.065.008l-.029.012a.127.127,0,0,0-.07.166h0a.127.127,0,0,0,.166.07l.029-.012a.127.127,0,0,0,.07-.166h0a.128.128,0,0,0-.1-.078Zm-7.636.015a.129.129,0,0,0-.076.061l-.016.028a.127.127,0,0,0,.051.173h0a.128.128,0,0,0,.173-.05l.015-.028a.128.128,0,0,0-.05-.173.131.131,0,0,0-.1-.011Zm4.332.02a.129.129,0,0,0-.09.038l-.022.022a.129.129,0,0,0,0,.18h0a.129.129,0,0,0,.181,0h0L7.632,4.8a.127.127,0,0,0,0-.18h0a.129.129,0,0,0-.09-.038ZM4.37,4.613a.128.128,0,0,0-.166.071l-.012.03a.127.127,0,0,0,.072.165h0a.128.128,0,0,0,.166-.072h0l.012-.029a.129.129,0,0,0-.072-.165Zm1.96.013a.127.127,0,0,0-.148.1h0l-.01.031a.127.127,0,0,0,.251.044l.01-.031a.127.127,0,0,0-.1-.148Zm5.623.007a.121.121,0,0,0-.094.022l-.026.018a.127.127,0,1,0,.146.208l.026-.018a.129.129,0,0,0,.031-.178.134.134,0,0,0-.083-.052Zm.992,0a.129.129,0,0,0-.094.027l-.01.006-.017.014a.127.127,0,1,0,.16.2h0L13,4.868l.01-.006a.128.128,0,0,0-.066-.226Zm-2.418.023a.123.123,0,0,0-.066,0l-.03.009a.127.127,0,0,0,.072.244l.03-.009a.127.127,0,0,0-.006-.245Zm3.242.087a.127.127,0,0,0-.093.029l-.022.019v0a.129.129,0,0,0-.014.18h0a.127.127,0,0,0,.179.015h0v0l.022-.018a.127.127,0,0,0-.071-.224Zm-3.641,0-.031.007A.127.127,0,0,0,10,4.912h0a.127.127,0,0,0,.154.093h0L10.19,5a.128.128,0,0,0,.093-.154h0a.128.128,0,0,0-.155-.092Zm5.918.02a.127.127,0,0,0-.082.053l-.018.026a.127.127,0,0,0,.033.177h0A.127.127,0,0,0,16.156,5h0l.018-.026a.127.127,0,0,0-.033-.177h0a.127.127,0,0,0-.095-.02Zm-10.718.04A.128.128,0,0,0,5.17,4.9l-.01.018v.01A.127.127,0,1,0,5.4,5h0V4.989l.01-.02a.127.127,0,0,0-.087-.158h0Zm6.344.013a.124.124,0,0,0-.1.012l-.028.014a.128.128,0,0,0-.051.173h0a.128.128,0,0,0,.173.049h0l.028-.015a.126.126,0,0,0,.049-.173h0a.128.128,0,0,0-.076-.061Zm-1.88,0-.031.007a.128.128,0,0,0-.1.15h0a.127.127,0,0,0,.15.1h0l.031-.006a.128.128,0,0,0-.051-.25h0Zm-6.754.03a.126.126,0,0,0-.081.054l-.014.023v0a.128.128,0,0,0,.21.145h0V5.076l.016-.025a.127.127,0,0,0-.132-.194Zm4.257,0a.123.123,0,0,0-.076.059L7.2,4.946v.006a.127.127,0,0,0,.226.118h0v0l.012-.022a.127.127,0,0,0-.048-.173.124.124,0,0,0-.1-.013Zm5.379,0a.125.125,0,0,0-.093.029l-.024.021a.127.127,0,0,0-.014.179h0a.127.127,0,0,0,.18.014h0l.024-.02a.128.128,0,0,0,.014-.179.123.123,0,0,0-.086-.044ZM9.452,4.89h-.01l-.022,0a.127.127,0,1,0,.04.251l.024,0h.01A.126.126,0,0,0,9.6,5h0a.127.127,0,0,0-.146-.105h0ZM4.14,4.928a.128.128,0,0,0-.075.062l-.014.029a.127.127,0,0,0,.225.118h0l.015-.028a.127.127,0,0,0-.053-.172h0a.131.131,0,0,0-.1-.008Zm11.1,0a.123.123,0,0,0-.087.044L15.13,5a.127.127,0,0,0,.013.179h0a.127.127,0,0,0,.18-.013h0l.021-.024a.128.128,0,0,0-.013-.18h0a.126.126,0,0,0-.093-.03ZM9.1,4.95l-.027.006-.01,0a.127.127,0,0,0,.059.248h0l.023,0a.127.127,0,0,0,.1-.15h0a.127.127,0,0,0-.15-.1Zm-2.825.022a.128.128,0,0,0-.147.1L6.12,5.1a.127.127,0,1,0,.25.05v0l.01-.031a.127.127,0,0,0-.1-.148Zm7.223,0a.128.128,0,0,0-.092.032l-.024.022a.127.127,0,1,0,.17.189l.023-.021a.129.129,0,0,0,.01-.18.131.131,0,0,0-.088-.042Zm-2.13.008a.128.128,0,0,0-.1,0L11.243,5a.128.128,0,0,0-.067.168h0a.127.127,0,0,0,.167.066l.029-.012a.126.126,0,0,0,.066-.167.123.123,0,0,0-.07-.068Zm-2.553.059a.134.134,0,0,0-.066,0l-.031.011A.127.127,0,1,0,8.8,5.3h0l.03-.009a.127.127,0,0,0,.084-.159h0a.126.126,0,0,0-.095-.085Zm7.03.017a.125.125,0,0,0-.082.052l-.018.026a.126.126,0,0,0,.031.177.128.128,0,0,0,.177-.031l.019-.026a.127.127,0,0,0-.126-.2Zm-3.438.022a.128.128,0,0,0-.1.023v0L12.3,5.12a.128.128,0,0,0,.145.21h0l.02-.015.01-.005a.128.128,0,0,0,.029-.178h0a.125.125,0,0,0-.083-.051Zm-1.453.02-.031.01A.127.127,0,0,0,11,5.354l.031-.009a.128.128,0,0,0,.083-.16h0a.127.127,0,0,0-.16-.082Zm6.636.039a.128.128,0,0,0-.075.062L17.5,5.23a.127.127,0,1,0,.225.118l.015-.028a.129.129,0,0,0-.054-.172.131.131,0,0,0-.1-.009Zm-14.749,0a.126.126,0,0,0-.084.049l-.019.025a.127.127,0,0,0,.2.154h0l.019-.025a.127.127,0,0,0-.024-.178.126.126,0,0,0-.1-.025Zm2.284,0a.123.123,0,0,0-.071.067V5.22l-.01.018a.127.127,0,0,0,.062.169h0a.127.127,0,0,0,.169-.062l.01-.019.01-.012a.128.128,0,0,0-.065-.168.135.135,0,0,0-.1,0Zm9.095,0a.131.131,0,0,0-.09.036l-.022.023a.127.127,0,0,0,0,.18h0a.128.128,0,0,0,.18,0h0l.022-.023a.128.128,0,0,0-.09-.217Zm-5.768.018a.137.137,0,0,0-.048.013l-.018.009L8.374,5.2a.127.127,0,1,0,.123.223h0l.01,0,.014-.007a.128.128,0,0,0,.055-.172h0A.128.128,0,0,0,8.5,5.171a.138.138,0,0,0-.049-.006Zm-1.227.017a.127.127,0,0,0-.159.085h0l-.01.03a.127.127,0,0,0,.244.074l.01-.031a.127.127,0,0,0-.086-.158h0Zm3.4.011L10.6,5.2a.125.125,0,0,0-.092.154h0a.127.127,0,0,0,.154.092h0l.031-.008a.127.127,0,0,0,.093-.155h0a.127.127,0,0,0-.154-.092h0Zm4.381,0a.126.126,0,0,0-.087.043l-.021.025a.127.127,0,0,0,.192.167h0l.021-.025a.127.127,0,0,0-.012-.179.123.123,0,0,0-.093-.031Zm-1.768.016a.128.128,0,0,0-.091.034l-.024.021a.126.126,0,1,0,.17.187h0l.022-.022a.126.126,0,0,0,.01-.179.122.122,0,0,0-.087-.041Zm-9.264.018a.124.124,0,0,0-.08.056l-.014.022v0a.127.127,0,0,0,.036.177h0a.126.126,0,0,0,.176-.036h0v0l.016-.025a.127.127,0,0,0-.038-.176h0a.124.124,0,0,0-.1-.016Zm6.315.039-.031.006a.127.127,0,0,0-.1.15h0a.127.127,0,0,0,.15.1h0l.031-.006a.127.127,0,0,0-.051-.249Zm1.838,0a.129.129,0,0,0-.1.011l-.028.016a.127.127,0,1,0,.123.223h0l.027-.015a.128.128,0,0,0-.026-.234Zm-5.916.046a.127.127,0,0,0-.164.074h0l-.011.03a.127.127,0,0,0,.238.089l.011-.03a.126.126,0,0,0-.075-.163Zm3.735.018-.031.006a.127.127,0,0,0-.1.15h0a.127.127,0,0,0,.149.1L10,5.585a.127.127,0,0,0-.049-.25Zm5.7.006a.129.129,0,0,0-.083.051l-.019.026a.127.127,0,0,0,.205.15l.019-.026a.127.127,0,0,0-.122-.2Zm-7.5.025a.127.127,0,0,0-.058.031l-.023.021a.127.127,0,1,0,.17.189h0l.023-.022a.127.127,0,0,0-.112-.218Zm5.825.027a.126.126,0,0,0-.09.037l-.023.022a.129.129,0,0,0,0,.181h0a.128.128,0,0,0,.18,0h0l.022-.022a.127.127,0,0,0,0-.18.132.132,0,0,0-.09-.038ZM9.6,5.408l-.031.007a.127.127,0,0,0,.058.248h0l.031-.007A.127.127,0,0,0,9.6,5.408Zm-6.97.007a.128.128,0,0,0-.085.047l-.019.025a.127.127,0,0,0,.02.179h0a.127.127,0,0,0,.179-.02h0l.019-.024a.127.127,0,0,0-.021-.179h0a.129.129,0,0,0-.093-.026Zm9.2.014a.13.13,0,0,0-.1,0l-.029.013a.127.127,0,1,0,.1.233l.029-.012A.128.128,0,0,0,11.9,5.5h0a.129.129,0,0,0-.07-.068Zm1.16.011a.126.126,0,0,0-.094.024l-.025.02a.127.127,0,1,0,.154.2l.025-.02a.126.126,0,0,0-.061-.226Zm-8.009.006A.129.129,0,0,0,4.9,5.5l-.017.028a.127.127,0,0,0,.041.175h0A.128.128,0,0,0,5.1,5.663h0l.017-.027a.128.128,0,0,0-.041-.175h0a.125.125,0,0,0-.1-.015Zm12.453,0a.122.122,0,0,0-.075.062l-.015.028a.127.127,0,1,0,.225.118l.015-.028a.128.128,0,0,0-.054-.172.13.13,0,0,0-.1-.009Zm-2.651.009a.122.122,0,0,0-.088.041l-.021.024a.127.127,0,0,0,.189.171l.022-.024a.127.127,0,0,0-.01-.18.124.124,0,0,0-.091-.032Zm1.484,0a.131.131,0,0,0-.08.058l-.016.027a.127.127,0,0,0,.042.175h0a.127.127,0,0,0,.175-.042h0l.016-.027a.127.127,0,0,0-.138-.19ZM9.252,5.5l-.025.009-.01,0a.127.127,0,0,0-.076.163h0a.126.126,0,0,0,.162.077h0l.01,0,.023-.007a.127.127,0,0,0,.081-.161h0a.127.127,0,0,0-.161-.081Zm-5.464.008A.129.129,0,0,0,3.7,5.56l-.019.025a.127.127,0,0,0,.02.179h0a.127.127,0,0,0,.178-.021L3.9,5.718a.127.127,0,0,0-.02-.179h0a.126.126,0,0,0-.094-.027Zm3.346.007a.128.128,0,0,0-.145.106v.037a.128.128,0,0,0,.254.03h0V5.664a.129.129,0,0,0-.107-.145h0Zm4.28.031-.029.009h0a.127.127,0,0,0,.077.243h0l.03-.009a.127.127,0,0,0-.079-.242h0Zm4.025.071a.131.131,0,0,0-.084.049l-.019.025a.128.128,0,0,0,.2.156l.019-.026a.128.128,0,0,0-.117-.2Zm-7.485.007a.127.127,0,0,0-.112.061v0l-.014.022a.128.128,0,0,0,.218.133h0l.014-.022V5.821a.127.127,0,0,0-.106-.193Zm-1.964,0a.132.132,0,0,0-.075.062L5.9,5.724a.127.127,0,1,0,.225.118h0l.015-.028a.127.127,0,0,0-.053-.172h0a.126.126,0,0,0-.1-.009Zm7.737,0a.128.128,0,0,0-.091.034l-.023.022a.128.128,0,0,0-.01.18h0a.127.127,0,0,0,.18.007h0l.023-.021a.128.128,0,0,0,.01-.18h0a.133.133,0,0,0-.09-.039Zm-4.72,0a.124.124,0,0,0-.1.01l-.029.015A.127.127,0,1,0,9,5.888l.028-.015A.127.127,0,0,0,9.083,5.7h0a.13.13,0,0,0-.075-.061Zm3.705,0a.129.129,0,0,0-.1.015l-.027.018a.128.128,0,0,0-.04.175.126.126,0,0,0,.175.04l.027-.016a.128.128,0,0,0,.041-.176h0a.124.124,0,0,0-.08-.056Zm-1.627,0-.022.006-.01,0a.127.127,0,0,0,.061.247l.01,0,.024-.006a.127.127,0,0,0,.092-.154h0a.128.128,0,0,0-.155-.092h0Zm3.46.072a.128.128,0,0,0-.088.043l-.021.024a.127.127,0,1,0,.19.169l.021-.024a.127.127,0,0,0-.1-.211Zm-3.8.006-.021,0-.01,0a.126.126,0,0,0-.1.151.128.128,0,0,0,.151.1h0l.01,0,.022,0a.127.127,0,0,0,.1-.151h0a.127.127,0,0,0-.152-.1Zm-5.956.013a.128.128,0,0,0-.082.052L4.7,5.807v0a.127.127,0,0,0,.2.152h0l.011-.007.014-.021a.127.127,0,0,0-.03-.177A.123.123,0,0,0,4.8,5.737Zm11.29.019a.124.124,0,0,0-.08.056l-.018.027a.126.126,0,0,0,.039.175h0a.126.126,0,0,0,.175-.038l.017-.027a.128.128,0,0,0-.039-.176.129.129,0,0,0-.1-.017Zm1.186,0a.13.13,0,0,0-.075.063l-.014.028a.127.127,0,0,0,.054.172h0a.129.129,0,0,0,.172-.054l.015-.029a.127.127,0,0,0-.151-.18Zm-13.7.029a.122.122,0,0,0-.085.047l-.01.012-.01.012a.127.127,0,0,0,.2.16h0l.01-.013.01-.013a.127.127,0,0,0-.02-.179h0a.123.123,0,0,0-.093-.026Zm6.835.007-.023.006-.01,0a.126.126,0,0,0-.1.152.127.127,0,0,0,.152.1l.01,0,.022,0a.128.128,0,0,0,.1-.151h0a.126.126,0,0,0-.151-.1Zm2.011.02a.126.126,0,0,0-.1.006l-.01,0-.019.009A.126.126,0,0,0,12.23,6h0a.128.128,0,0,0,.169.062h0l.021-.011.01,0a.127.127,0,0,0,.058-.17.13.13,0,0,0-.073-.065ZM8.69,5.834a.126.126,0,0,0-.091.034l-.024.021a.127.127,0,1,0,.17.188h0l.023-.021a.128.128,0,0,0,.01-.18h0a.124.124,0,0,0-.088-.041Zm-1.6.033a.127.127,0,0,0-.145.107h0v.031a.127.127,0,0,0,.252.038h0V6.012a.126.126,0,0,0-.107-.145Zm6.379,0a.127.127,0,0,0-.093.029l-.01.006-.015.011a.128.128,0,0,0,.156.2l.02-.015.01-.008a.128.128,0,0,0,.018-.179.134.134,0,0,0-.086-.046Zm-3.411.006-.025.006h-.01a.127.127,0,0,0-.093.154h0a.129.129,0,0,0,.154.094h0l.01,0,.025-.006a.126.126,0,0,0,.093-.154h0a.127.127,0,0,0-.154-.092h0Zm5.165.02a.129.129,0,0,0-.085.046l-.021.025a.128.128,0,0,0,.2.162h0l.02-.024a.127.127,0,0,0-.017-.179h0a.121.121,0,0,0-.093-.028Zm-9.4.035a.123.123,0,0,0-.082.052l-.02.026a.128.128,0,0,0,.21.146l.018-.026a.128.128,0,0,0-.031-.177.124.124,0,0,0-.1-.021Zm1.949.013a.128.128,0,0,0-.1.082l-.01.024v.009a.127.127,0,0,0,.08.161h0a.128.128,0,0,0,.161-.08v0l.01-.022a.126.126,0,0,0-.075-.163h0a.123.123,0,0,0-.066-.006Zm4.236.009-.03.011a.127.127,0,0,0-.076.163h0a.128.128,0,0,0,.163.075l.03-.011a.127.127,0,0,0-.087-.239Zm2.3.019a.125.125,0,0,0-.09.037l-.022.022a.128.128,0,0,0,0,.18h0a.128.128,0,0,0,.18,0h0L14.4,6.19a.127.127,0,0,0,0-.18h0a.127.127,0,0,0-.09-.038Zm-4.6.012L9.683,6h0a.128.128,0,0,0-.07.166h0a.127.127,0,0,0,.166.069h0l.026-.01a.128.128,0,0,0,.072-.165h0a.128.128,0,0,0-.163-.073Zm-5.125.029A.124.124,0,0,0,4.5,6.06l-.02.025a.127.127,0,1,0,.2.159l.02-.025a.127.127,0,0,0-.113-.206Zm11.307.034a.129.129,0,0,0-.082.052l-.018.027A.127.127,0,1,0,16,6.27h0l.018-.026a.127.127,0,0,0-.127-.2Zm-4.207.013-.031.009a.128.128,0,0,0-.087.157h0a.129.129,0,0,0,.158.087h0l.03-.009a.127.127,0,0,0,.087-.158h0a.126.126,0,0,0-.157-.087h0Zm-8.334,0a.125.125,0,0,0-.085.048l-.02.025a.126.126,0,0,0,.02.178h0a.128.128,0,0,0,.179-.02h0l.019-.025a.128.128,0,0,0-.113-.207Zm13.754.009a.13.13,0,0,0-.075.063l-.015.028a.127.127,0,0,0,.226.118l.015-.028a.127.127,0,0,0-.053-.172h0a.126.126,0,0,0-.1-.009Zm-3.9,0a.129.129,0,0,0-.1.017l-.027.016a.128.128,0,0,0-.041.176h0a.126.126,0,0,0,.175.04h0l.027-.017a.128.128,0,0,0,.04-.175A.129.129,0,0,0,13.2,6.074ZM8.428,6.1a.127.127,0,0,0-.08.056v.007l-.012.018a.128.128,0,0,0,.214.139h0l.012-.02.01-.008a.126.126,0,0,0-.04-.175h0a.134.134,0,0,0-.1-.016Zm1.048.027a.131.131,0,0,0-.1.012l-.027.017a.127.127,0,1,0,.126.22l.028-.015a.127.127,0,0,0,.048-.174h0a.128.128,0,0,0-.077-.06Zm1.878.017-.031.007a.128.128,0,1,0,.06.248l.031-.007a.128.128,0,0,0-.06-.248Zm3.651.018a.13.13,0,0,0-.087.045h0l-.019.021a.126.126,0,0,0,.011.179h0a.128.128,0,0,0,.18-.012h0l.02-.022v0a.127.127,0,0,0-.014-.18h0A.126.126,0,0,0,15,6.164ZM5.624,6.21a.13.13,0,0,0-.085.047l-.02.025a.127.127,0,0,0,.021.179h0a.129.129,0,0,0,.179-.02l.02-.025a.127.127,0,0,0-.02-.179h0a.129.129,0,0,0-.094-.027Zm8.439,0a.13.13,0,0,0-.092.031l-.024.02a.128.128,0,0,0,.168.193l.024-.021a.127.127,0,0,0,.012-.18h0a.126.126,0,0,0-.087-.043Zm-7.025,0a.126.126,0,0,0-.152.095h0l-.01.031a.128.128,0,0,0,.249.056l.01-.03a.127.127,0,0,0-.1-.153Zm3.977.011-.031.007a.127.127,0,1,0,.056.248l.031-.007a.127.127,0,0,0-.056-.248Zm1.895.026a.124.124,0,0,0-.1.008l-.019.009-.01,0a.127.127,0,0,0,.109.229h0l.01,0,.022-.011a.127.127,0,0,0,.055-.171h0a.13.13,0,0,0-.074-.064Zm-5.179.033a.127.127,0,0,0-.153.1h0l-.01.031a.128.128,0,1,0,.249.055l.01-.031a.127.127,0,0,0-.1-.151Zm-3.364,0a.129.129,0,0,0-.086.046l-.02.024a.127.127,0,0,0,.016.179h0a.128.128,0,0,0,.18-.017h0l.02-.025a.127.127,0,0,0-.016-.179h0a.125.125,0,0,0-.093-.029Zm6.3.023-.031.007a.128.128,0,0,0-.093.155h0a.128.128,0,0,0,.155.092h0l.031-.008a.127.127,0,0,0,.092-.155h0a.126.126,0,0,0-.155-.091h0ZM15.7,6.33a.13.13,0,0,0-.085.049l-.019.025a.127.127,0,1,0,.2.155h0l.019-.025a.128.128,0,0,0-.024-.179A.13.13,0,0,0,15.7,6.33Zm-6.532,0a.128.128,0,0,0-.091.036l-.023.022a.127.127,0,0,0,0,.18h0a.128.128,0,0,0,.18,0h0l.023-.022a.127.127,0,0,0,0-.18.131.131,0,0,0-.09-.039Zm-6.031,0a.13.13,0,0,0-.084.049l-.019.026a.127.127,0,1,0,.2.154h0l.019-.025a.128.128,0,0,0-.024-.179.133.133,0,0,0-.1-.025Zm13.81.043a.127.127,0,0,0-.074.062l-.015.029a.127.127,0,0,0,.052.172h0a.127.127,0,0,0,.172-.053l.015-.028a.127.127,0,0,0-.053-.172h0a.126.126,0,0,0-.1-.009ZM12.506,6.4l-.03.011a.127.127,0,0,0,.09.238l.03-.011a.127.127,0,1,0-.09-.238Zm-2.182.012-.03.011a.127.127,0,0,0-.079.162h0a.126.126,0,0,0,.162.077h0l.03-.011a.127.127,0,0,0-.085-.24Zm-2.079.011a.123.123,0,0,0-.068.07l-.01.019v.011a.127.127,0,0,0,.071.165h0A.127.127,0,0,0,8.4,6.612h0V6.6l.01-.019a.127.127,0,0,0-.07-.166h0a.128.128,0,0,0-.1,0Zm6.532.006a.123.123,0,0,0-.089.038l-.022.023a.128.128,0,0,0,0,.18h0a.128.128,0,0,0,.18,0h0l.022-.023a.125.125,0,0,0-.091-.215Zm-.972.008a.128.128,0,0,0-.095.02l-.026.018a.128.128,0,0,0,.145.21l.027-.018a.128.128,0,0,0-.05-.23Zm-8.4.047a.131.131,0,0,0-.087.044L5.3,6.548a.127.127,0,0,0,.192.166h0l.02-.025A.127.127,0,0,0,5.5,6.51.13.13,0,0,0,5.4,6.479Zm6.776.024-.031.009a.129.129,0,0,0-.085.159h0a.127.127,0,0,0,.158.084l.031-.009a.127.127,0,0,0-.074-.244Zm-2.1.043a.13.13,0,0,0-.1.009l-.027.015v0a.127.127,0,0,0-.05.173h0a.126.126,0,0,0,.173.049h0l.025-.014a.127.127,0,0,0,.053-.172h0a.128.128,0,0,0-.075-.062Zm-5.939.009a.128.128,0,0,0-.085.047l-.021.025a.127.127,0,1,0,.2.16l.02-.025a.128.128,0,0,0-.019-.179.125.125,0,0,0-.094-.028Zm2.815,0a.128.128,0,0,0-.16.083l-.01.031a.127.127,0,0,0,.243.077h0l.01-.03a.128.128,0,0,0-.083-.16Zm4.892.04L11.82,6.6a.127.127,0,0,0-.093.154h0a.127.127,0,0,0,.154.093h0l.031-.008a.127.127,0,0,0,.093-.154h0a.127.127,0,0,0-.154-.093Zm3.634.009a.128.128,0,0,0-.087.045l-.021.024a.127.127,0,0,0,.016.179h0a.129.129,0,0,0,.18-.015h0l.021-.024a.128.128,0,0,0-.109-.209Zm-6.573,0a.131.131,0,0,0-.08.056l-.017.027a.127.127,0,1,0,.214.137h0L9.047,6.8a.128.128,0,0,0-.039-.176h0a.123.123,0,0,0-.095-.018Zm4.607.014a.127.127,0,0,0-.1.012v0l-.021.012a.127.127,0,1,0,.123.223l.023-.013.01,0A.126.126,0,0,0,13.6,6.68a.123.123,0,0,0-.077-.06Zm-10.6,0a.128.128,0,0,0-.081.053L2.827,6.7V6.7a.127.127,0,0,0,.036.177h0a.127.127,0,0,0,.176-.036h0v0l.014-.02a.127.127,0,0,0-.13-.2Zm4.673,0a.124.124,0,0,0-.091.089l-.01.024h0a.126.126,0,0,0,.08.161h0a.127.127,0,0,0,.16-.081h0V6.813l.01-.03a.127.127,0,0,0-.087-.157h0a.123.123,0,0,0-.066,0Zm6.941.04a.125.125,0,0,0-.093.03l-.024.021A.127.127,0,0,0,14.4,6.9h0a.126.126,0,0,0,.179.014h0l.024-.021a.126.126,0,0,0,.014-.179h0a.123.123,0,0,0-.087-.044Zm-3.025.012-.031.007a.128.128,0,1,0,.06.248l.03-.007a.128.128,0,0,0,.095-.153h0a.129.129,0,0,0-.154-.094h0Zm5.269,0a.129.129,0,0,0-.081.055l-.012.019v.006a.128.128,0,0,0,.21.145h0l.01-.007.014-.021a.126.126,0,0,0-.036-.176h0a.126.126,0,0,0-.1-.019Zm-.64.023a.126.126,0,0,0-.084.049l-.019.025a.129.129,0,0,0,.025.179h0a.129.129,0,0,0,.179-.025h0L16.26,6.9a.127.127,0,0,0-.025-.178h0a.132.132,0,0,0-.094-.025Zm-6.375.031a.126.126,0,0,0-.093.03l-.022.019v0a.126.126,0,0,0-.011.179.128.128,0,0,0,.18.012v0l.02-.017a.128.128,0,0,0,.016-.179.134.134,0,0,0-.086-.046Zm-4.588.012a.127.127,0,0,0-.087.044l-.014.016-.01.009a.128.128,0,0,0,.2.165h0l.01-.007.014-.016a.128.128,0,0,0-.013-.18h0a.126.126,0,0,0-.093-.03Zm3.04,0a.127.127,0,0,0-.154.092l-.01.031a.127.127,0,0,0,.092.154h0A.128.128,0,0,0,8.3,6.931h0l.01-.031a.127.127,0,0,0-.093-.154h0Zm2.952.018h0l-.029.008a.128.128,0,0,0-.088.158h0a.126.126,0,0,0,.157.087l.027-.007h0a.127.127,0,0,0-.066-.246h0Zm2.05.018a.128.128,0,0,0-.1,0l-.029.013a.127.127,0,0,0,.1.233h0l.029-.013a.126.126,0,0,0,.064-.167.133.133,0,0,0-.07-.068Zm-9.295.051a.133.133,0,0,0-.083.051l-.019.025a.127.127,0,0,0,.027.178h0a.126.126,0,0,0,.177-.028l.02-.026a.128.128,0,0,0-.123-.2Zm11.337.033a.128.128,0,0,0-.09.039l-.022.022a.127.127,0,0,0,0,.18h0a.128.128,0,0,0,.18,0h0l.022-.023a.129.129,0,0,0,0-.181h0a.127.127,0,0,0-.091-.035Zm-4.437.007-.03.011a.127.127,0,0,0,.088.239l.03-.011a.127.127,0,0,0-.088-.239Zm-4.071.009a.128.128,0,0,0-.073.064l-.014.029a.128.128,0,0,0,.057.171h0a.127.127,0,0,0,.17-.058l.014-.029a.127.127,0,0,0-.058-.17.13.13,0,0,0-.1-.007Zm7.519,0a.134.134,0,0,0-.1.022l-.026.019a.127.127,0,0,0,.147.207l.026-.018a.126.126,0,0,0,.031-.177h0a.126.126,0,0,0-.083-.053Zm-1.466.026-.01,0-.02.006a.127.127,0,0,0,.08.242h0l.021-.007.011,0a.128.128,0,0,0-.084-.241ZM2.727,6.922a.127.127,0,0,0-.076.06l-.016.028a.127.127,0,0,0,.222.125h0l.016-.028a.127.127,0,0,0-.145-.185Zm6.1,0a.126.126,0,0,0-.166.07l-.012.029a.128.128,0,0,0,.069.166h0a.128.128,0,0,0,.166-.069l.013-.03a.128.128,0,0,0-.07-.166h0ZM7.507,6.95a.132.132,0,0,0-.048.009.123.123,0,0,0-.071.067v.006l-.01.016a.127.127,0,1,0,.225.118l.013-.023.01-.013a.127.127,0,0,0-.064-.168h0a.113.113,0,0,0-.048-.011Zm9.08.012a.127.127,0,0,0-.085.048l-.019.025a.127.127,0,1,0,.2.158l.02-.025a.127.127,0,0,0-.02-.179h0a.13.13,0,0,0-.093-.027Zm-.656.012a.125.125,0,0,0-.088.044l-.02.023a.127.127,0,1,0,.191.168h0l.021-.024a.126.126,0,0,0-.012-.179.124.124,0,0,0-.092-.032Zm-6.436.011a.125.125,0,0,0-.084.048l-.017.021-.01.007a.127.127,0,1,0,.2.152h0v0L9.6,7.19a.126.126,0,0,0-.021-.178h0a.13.13,0,0,0-.094-.026Zm2.983.024-.03.009a.128.128,0,0,0,.069.246h0l.031-.009a.128.128,0,0,0,.088-.157.126.126,0,0,0-.156-.089h0Zm-7.53.006a.13.13,0,0,0-.085.047l-.02.025a.127.127,0,0,0,.02.179h0a.127.127,0,0,0,.179-.02h0l.02-.025a.126.126,0,0,0-.02-.178h0a.126.126,0,0,0-.094-.027Zm5.635,0a.128.128,0,0,0-.1.011l-.027.015h0a.127.127,0,0,0-.045.175h0a.126.126,0,0,0,.174.045h0l.025-.014a.128.128,0,0,0-.027-.234Zm3.4.056a.129.129,0,0,0-.1.013l-.01,0-.019.01a.127.127,0,1,0,.123.223l.02-.011.01-.006a.126.126,0,0,0,.047-.173h0a.125.125,0,0,0-.077-.059ZM8.14,7.088a.127.127,0,0,0-.157.086v.007l-.01.025a.128.128,0,0,0,.088.157h0a.127.127,0,0,0,.156-.089l.01-.023V7.245a.127.127,0,0,0-.086-.158Zm4,.01-.031.008a.128.128,0,0,0-.092.155.127.127,0,0,0,.154.092h0l.031-.007a.127.127,0,0,0,.092-.155h0a.126.126,0,0,0-.154-.092h0Zm2.875.009a.127.127,0,0,0-.092.031l-.024.021a.128.128,0,0,0-.013.18h0a.128.128,0,0,0,.18.013h0l.024-.021a.127.127,0,0,0,.013-.179h0a.133.133,0,0,0-.088-.045Zm-11.3.017a.127.127,0,0,0-.079.057l-.017.027a.127.127,0,0,0,.216.135h0l.017-.027a.129.129,0,0,0-.04-.176.134.134,0,0,0-.1-.016Zm2.867.044a.129.129,0,0,0-.084.048l-.02.025a.128.128,0,0,0,.2.157h0L6.7,7.372a.128.128,0,0,0-.022-.179h0a.128.128,0,0,0-.094-.025Zm5.218.019-.027.007-.01,0a.127.127,0,0,0,.069.245h0l.025-.007a.128.128,0,0,0,.091-.156h0a.128.128,0,0,0-.156-.089Zm-1.53.02a.125.125,0,0,0-.093.03l-.019.015-.01.007a.127.127,0,0,0,.168.191l.01,0,.016-.014a.127.127,0,0,0,.016-.179.132.132,0,0,0-.085-.045Zm6.1.022a.127.127,0,0,0-.088.042l-.01.009-.011.012a.129.129,0,0,0,.189.175l.014-.014.01-.012a.127.127,0,0,0-.01-.179h0a.125.125,0,0,0-.092-.033Zm-.669,0a.129.129,0,0,0-.091.037l-.021.023a.127.127,0,0,0,.179.181h0l.022-.022a.127.127,0,0,0,0-.18h0a.123.123,0,0,0-.09-.038Zm-2.015,0a.126.126,0,0,0-.1,0l-.029.013a.127.127,0,0,0-.063.168.128.128,0,0,0,.169.065h0l.029-.013a.127.127,0,0,0,.064-.168h0a.128.128,0,0,0-.072-.067Zm-11.128,0a.126.126,0,0,0-.071.067v0l-.013.03a.127.127,0,0,0,.235.1l.011-.027a.128.128,0,0,0-.065-.168.135.135,0,0,0-.1,0Zm6.137.01a.127.127,0,0,0-.157.089h0l-.01.031a.128.128,0,0,0,.089.157h0a.128.128,0,0,0,.156-.089h0l.01-.03A.127.127,0,0,0,8.7,7.248h0Zm-1.357.009a.127.127,0,0,0-.112.063l-.012.022v0a.127.127,0,0,0,.041.175h0a.128.128,0,0,0,.176-.042h0v0l.014-.024A.128.128,0,0,0,7.4,7.275a.124.124,0,0,0-.062-.018Zm1.949.027a.122.122,0,0,0-.076.061L9.2,7.369v.009a.127.127,0,0,0,.228.112h0v0l.01-.019a.127.127,0,0,0-.05-.173h0a.126.126,0,0,0-.1-.01Zm2.173.006-.013,0-.019.007a.127.127,0,1,0,.085.24h0l.017-.006.01,0a.127.127,0,0,0,.081-.161h0a.127.127,0,0,0-.161-.081ZM4.729,7.3a.127.127,0,0,0-.081.052l-.018.027a.127.127,0,0,0,.032.177h0a.129.129,0,0,0,.177-.033l.018-.026a.128.128,0,0,0-.032-.178.125.125,0,0,0-.1-.019Zm10.026.029a.123.123,0,0,0-.1.022l-.013.009-.011.007a.127.127,0,0,0-.033.177h0a.127.127,0,0,0,.177.032h0l.012-.009.015-.011a.128.128,0,0,0,.029-.178h0a.12.12,0,0,0-.083-.051Zm-1.481.038-.028.01a.127.127,0,1,0,.081.24h0l.031-.01h0a.127.127,0,1,0-.087-.239ZM7.939,7.42a.123.123,0,0,0-.07.068l-.01.023h0a.127.127,0,0,0,.229.111V7.617L8.1,7.589a.127.127,0,0,0-.066-.168.133.133,0,0,0-.1,0Zm3.276,0a.123.123,0,0,0-.1.007l-.029.014a.128.128,0,0,0-.057.171h0a.126.126,0,0,0,.171.056h0l.028-.015a.126.126,0,0,0,.056-.171h0a.13.13,0,0,0-.074-.064Zm-7.678.014a.125.125,0,0,0-.073.064v.009l-.011.023a.128.128,0,0,0,.063.169h0a.127.127,0,0,0,.169-.062l.01-.02V7.611a.128.128,0,0,0-.057-.171h0a.126.126,0,0,0-.1-.006Zm2.832,0a.131.131,0,0,0-.086.044l-.02.025a.127.127,0,0,0,.2.164l.021-.024a.127.127,0,0,0-.015-.18h0a.125.125,0,0,0-.093-.029ZM10,7.456a.13.13,0,0,0-.085.047l-.011.013L9.9,7.53a.126.126,0,0,0,.023.178.127.127,0,0,0,.179-.023l.01-.011.01-.011a.128.128,0,0,0-.019-.179.132.132,0,0,0-.093-.028Zm2.946.009-.031.009a.127.127,0,0,0-.087.158h0a.127.127,0,0,0,.158.086l.031-.009a.127.127,0,0,0-.072-.244Zm2.5,0a.13.13,0,0,0-.093.029l-.01.006-.016.013a.128.128,0,0,0,.16.2h0l.018-.015.01-.007a.127.127,0,0,0,.016-.179.125.125,0,0,0-.086-.046Zm.679.011Zm0,0a.125.125,0,0,0-.09.034l-.019.017v0a.127.127,0,0,0,.168.191v0l.021-.02a.126.126,0,0,0,.01-.179.128.128,0,0,0-.088-.041Zm-1.659.04a.126.126,0,0,0-.1.011l-.015.008-.011.006a.128.128,0,0,0-.051.173h0a.127.127,0,0,0,.173.051h0l.013-.007.017-.009a.128.128,0,0,0,.049-.173h0a.126.126,0,0,0-.077-.06Zm-7.35.037a.125.125,0,0,0-.081.053l-.018.026a.127.127,0,1,0,.209.145h0l.018-.026a.129.129,0,0,0-.032-.178.131.131,0,0,0-.1-.02Zm5.489,0-.014,0-.017,0a.128.128,0,0,0-.091.156h0a.127.127,0,0,0,.156.09l.017,0,.014,0a.128.128,0,0,0,.09-.156h0a.127.127,0,0,0-.156-.09ZM2.519,7.563a.127.127,0,0,0-.158.085l-.01.027v.006a.129.129,0,0,0,.09.157h0A.127.127,0,0,0,2.6,7.749h0v0l.01-.024a.127.127,0,0,0-.084-.159Zm6.091.023a.128.128,0,0,0-.159.084l-.01.018V7.7a.127.127,0,0,0,.085.158h0a.128.128,0,0,0,.158-.086V7.762l.01-.017a.128.128,0,0,0-.084-.159ZM10.9,7.6a.13.13,0,0,0-.094.022h0l-.024.018v0a.127.127,0,0,0-.025.178h0a.127.127,0,0,0,.178.025h0l.022-.016a.127.127,0,0,0,.029-.177A.129.129,0,0,0,10.9,7.6Zm-6.366,0a.128.128,0,0,0-.076.061l-.015.028a.128.128,0,0,0,.052.173h0a.127.127,0,0,0,.172-.052l.017-.028a.128.128,0,0,0-.052-.172.126.126,0,0,0-.1-.01Zm4.694.011a.126.126,0,0,0-.16.076l-.01.026v.008a.127.127,0,0,0,.081.16A.128.128,0,0,0,9.3,7.8v0l.01-.022a.127.127,0,0,0-.076-.162Zm3.046.044-.03.009a.128.128,0,0,0-.086.159h0a.128.128,0,0,0,.158.086h0l.03-.009a.128.128,0,0,0,.086-.158h0a.129.129,0,0,0-.159-.085h0Zm2.915.026a.125.125,0,0,0-.1.019l-.027.018a.127.127,0,0,0,.142.211l.027-.017a.126.126,0,0,0,.034-.177h0a.128.128,0,0,0-.081-.053Zm-1.015,0a.124.124,0,0,0-.1,0l-.029.013a.127.127,0,0,0-.063.168h0a.127.127,0,0,0,.169.062h0l.029-.013a.127.127,0,0,0,.062-.169h0a.123.123,0,0,0-.072-.066ZM6.144,7.7a.127.127,0,0,0-.087.042l-.012.013-.01.011a.128.128,0,0,0,.01.18h0a.127.127,0,0,0,.179-.011l.01-.01.011-.012a.128.128,0,0,0-.009-.18h0A.131.131,0,0,0,6.145,7.7Zm9.733,0a.126.126,0,0,0-.094.026l-.025.019a.128.128,0,0,0-.022.179h0a.127.127,0,0,0,.179.023h0l.025-.02a.127.127,0,0,0,.022-.178.125.125,0,0,0-.085-.048Zm-8.088.021a.127.127,0,0,0-.077.057l-.018.028a.127.127,0,0,0,.044.174h0a.127.127,0,0,0,.175-.043h0l.016-.027a.128.128,0,0,0-.044-.175h0A.123.123,0,0,0,7.789,7.724Zm2,.029a.13.13,0,0,0-.075.061L9.7,7.842a.128.128,0,1,0,.225.121l.016-.028a.128.128,0,0,0-.052-.172.126.126,0,0,0-.1-.01Zm-6.3,0a.127.127,0,0,0-.16.081l-.01.031a.127.127,0,0,0,.241.079l.01-.031a.127.127,0,0,0-.082-.16h0Zm8.445.006-.03.011a.128.128,0,0,0-.075.164h0a.127.127,0,0,0,.164.074l.03-.01a.127.127,0,0,0,.075-.164h0a.128.128,0,0,0-.164-.074Zm1.83.048-.03.01a.128.128,0,0,0-.076.164h0a.127.127,0,0,0,.163.076l.03-.011a.129.129,0,0,0,.077-.163h0a.127.127,0,0,0-.163-.076Zm-3.151.012a.128.128,0,0,0-.09.039l-.013.013-.01.012a.127.127,0,0,0,.01.18h0a.126.126,0,0,0,.18-.009l.01-.009.011-.011a.129.129,0,0,0,0-.18.127.127,0,0,0-.091-.035Zm-3.685.01a.125.125,0,0,0-.085.046l-.02.025a.127.127,0,0,0,.02.179h0a.127.127,0,0,0,.179-.02h0l.02-.025a.127.127,0,0,0-.02-.179h0A.127.127,0,0,0,6.924,7.833Zm7.974.028a.13.13,0,0,0-.1.011l-.012.007-.014.007a.127.127,0,0,0-.053.172h0a.127.127,0,0,0,.172.052L14.91,8.1l.014-.008a.126.126,0,0,0,.05-.172h0a.122.122,0,0,0-.076-.061ZM2.425,7.9a.127.127,0,0,0-.146.105h0l-.01.031a.129.129,0,0,0,.1.147.127.127,0,0,0,.146-.106h0l.01-.031A.126.126,0,0,0,2.425,7.9Zm9.267,0a.131.131,0,0,0-.1.009l-.028.015a.128.128,0,0,0-.055.172h0a.127.127,0,0,0,.172.054h0l.029-.014a.129.129,0,0,0,.054-.172h0a.123.123,0,0,0-.074-.062Zm3.912.007a.13.13,0,0,0-.1.017l-.027.016a.127.127,0,0,0-.04.176h0a.127.127,0,0,0,.175.04l.027-.017a.126.126,0,0,0,.04-.175h0a.132.132,0,0,0-.08-.056Zm-11.14.007a.127.127,0,0,0-.165.073h0l-.011.03a.126.126,0,0,0,.072.164h0a.129.129,0,0,0,.165-.073h0l.011-.03a.129.129,0,0,0-.073-.165Zm3.942,0a.133.133,0,0,0-.072.066l-.013.029a.127.127,0,0,0,.062.169h0a.128.128,0,0,0,.169-.062h0l.014-.028A.126.126,0,0,0,8.5,7.92h0a.125.125,0,0,0-.1,0Zm5.029,0-.011,0-.016,0a.128.128,0,0,0-.091.156h0a.128.128,0,0,0,.155.091l.02-.005.014,0a.127.127,0,0,0-.07-.245Zm-4.321.022a.128.128,0,0,0-.155.092h0l-.01.026v0a.129.129,0,0,0,.091.156h0A.127.127,0,0,0,9.2,8.123h0v0l.01-.026a.127.127,0,0,0-.092-.155h0Zm-3.205.03a.128.128,0,0,0-.086.045l-.01.011L5.8,8.038A.127.127,0,1,0,6,8.2l.011-.013.01-.01A.126.126,0,0,0,6,8H6a.125.125,0,0,0-.093-.029Zm7.187.04-.031.009a.127.127,0,0,0-.086.158h0a.128.128,0,0,0,.159.085h0l.03-.009a.128.128,0,0,0,.086-.158h0a.127.127,0,0,0-.159-.086h0Zm3.8.005a.131.131,0,0,0-.06.027l-.025.021a.127.127,0,1,0,.161.2h0L17,8.236a.126.126,0,0,0,.018-.179.128.128,0,0,0-.118-.045Zm-9.287,0a.13.13,0,0,0-.081.054h0L7.512,8.1a.127.127,0,1,0,.209.145h0l.017-.026v0A.126.126,0,0,0,7.7,8.035h0a.125.125,0,0,0-.1-.019Zm6.983,0a.13.13,0,0,0-.1,0h0l-.025.012a.127.127,0,0,0,.1.233l.027-.012v0a.128.128,0,0,0-.009-.236Zm-4.87.054a.127.127,0,0,0-.165.072h0l-.012.03a.127.127,0,0,0,.073.165h0a.128.128,0,0,0,.165-.073h0L9.8,8.237a.128.128,0,0,0-.073-.165Zm1.656.01a.128.128,0,0,0-.1.023l-.012.009-.017.013a.127.127,0,0,0,.158.2h0l.013-.011.01-.006a.127.127,0,0,0,.028-.177.125.125,0,0,0-.083-.051Zm3.932,0a.124.124,0,0,0-.1.01l-.021.011-.01,0a.127.127,0,0,0,.118.226l.01,0,.022-.012a.126.126,0,0,0,.052-.172h0a.128.128,0,0,0-.075-.062Zm-11.93,0a.128.128,0,0,0-.147.1l-.01.031a.127.127,0,0,0,.1.147h0a.127.127,0,0,0,.146-.1l.01-.031a.127.127,0,0,0-.1-.147ZM6.706,8.1a.122.122,0,0,0-.087.041L6.6,8.162a.128.128,0,0,0,.189.173l.022-.024a.127.127,0,0,0-.01-.179A.122.122,0,0,0,6.707,8.1Zm3.664,0a.126.126,0,0,0-.081.054v.007l-.015.022a.127.127,0,0,0,.04.176h0a.126.126,0,0,0,.175-.04L10.5,8.3v0a.126.126,0,0,0-.036-.176h0a.129.129,0,0,0-.1-.019Zm2.387.015-.03.01a.128.128,0,0,0-.08.161h0a.128.128,0,0,0,.162.079h0l.03-.01a.127.127,0,1,0-.082-.241Zm1.423.036h0l-.025.009a.127.127,0,0,0-.077.163h0a.127.127,0,0,0,.162.077h0l.027-.009.01,0a.128.128,0,0,0-.089-.239ZM8.254,8.22a.129.129,0,0,0-.078.059l-.016.027a.127.127,0,0,0,.044.175h0a.127.127,0,0,0,.174-.044h0L8.4,8.409a.127.127,0,0,0-.044-.174h0a.125.125,0,0,0-.1-.015Zm8.408.012a.125.125,0,0,0-.094.025l-.025.019a.126.126,0,0,0-.025.178h0a.126.126,0,0,0,.178.025h0l.025-.019a.129.129,0,0,0,.025-.179h0a.135.135,0,0,0-.084-.049Zm-4.238,0-.03.012a.127.127,0,0,0,.091.238l.031-.012a.128.128,0,0,0-.092-.238Zm-6.737.007a.13.13,0,0,0-.084.049l-.01.009-.013.018a.128.128,0,0,0,.205.152L5.8,8.454l.01-.007a.127.127,0,0,0-.024-.178.125.125,0,0,0-.1-.025Zm-1.344,0a.127.127,0,0,0-.154.093h0l-.01.027v.007a.127.127,0,1,0,.248.053v0l.01-.023a.126.126,0,0,0-.093-.154h0Zm10.662,0a.124.124,0,0,0-.1,0l-.029.014a.126.126,0,0,0-.064.168h0a.127.127,0,0,0,.168.063l.029-.013A.128.128,0,0,0,15,8.244Zm-12.631,0a.126.126,0,0,0-.132.121V8.4a.127.127,0,0,0,.124.131h0a.128.128,0,0,0,.13-.124V8.38a.127.127,0,0,0-.122-.133Zm11.479.017-.031.01a.127.127,0,0,0-.081.161h0a.127.127,0,0,0,.16.081l.032-.01a.127.127,0,1,0-.08-.242Zm-4.832.012a.127.127,0,0,0-.165.072h0l-.012.03a.127.127,0,0,0,.073.165h0a.127.127,0,0,0,.165-.073h0l.012-.03a.127.127,0,0,0-.073-.164ZM7.411,8.3a.133.133,0,0,0-.085.049l-.01.007L7.3,8.371a.127.127,0,0,0,.02.179h0A.128.128,0,0,0,7.5,8.529l.014-.017.01-.009a.128.128,0,0,0-.117-.2Zm3.682.018a.126.126,0,0,0-.088.041l-.02.024a.127.127,0,0,0,.009.18h0a.127.127,0,0,0,.179-.009L11.2,8.53a.128.128,0,0,0-.009-.18h0a.131.131,0,0,0-.091-.033ZM6.469,8.36a.127.127,0,0,0-.088.044l-.021.023a.127.127,0,1,0,.192.167h0l.021-.024a.127.127,0,0,0-.013-.179h0a.127.127,0,0,0-.092-.031Zm7.052.009-.03.01a.127.127,0,1,0,.075.243l.031-.01a.127.127,0,0,0-.075-.243h0Zm-1.336,0a.131.131,0,0,0-.1.011L12.06,8.4a.126.126,0,0,0-.051.172h0a.129.129,0,0,0,.173.051h0l.028-.015a.128.128,0,0,0-.025-.234Zm2.5.011a.133.133,0,0,0-.1,0l-.015.006L14.56,8.4a.128.128,0,0,0-.07.166h0a.128.128,0,0,0,.166.07l.015-.006.016-.007a.128.128,0,0,0,.068-.167.129.129,0,0,0-.069-.069ZM9.6,8.4a.127.127,0,0,0-.159.083l-.01.031a.127.127,0,0,0,.083.159h0a.126.126,0,0,0,.159-.084l.01-.03A.127.127,0,0,0,9.6,8.4Zm.583.009a.128.128,0,0,0-.073.064L10.1,8.5a.127.127,0,0,0,.23.11l.013-.029a.127.127,0,0,0-.157-.174Zm6.165.018a.13.13,0,0,0-.063.02l-.027.018a.127.127,0,1,0,.137.214h0l.027-.017a.128.128,0,0,0,.039-.176h0a.13.13,0,0,0-.113-.059ZM3.323,8.436h0Zm0,0a.128.128,0,0,0-.133.121v.031a.128.128,0,0,0,.121.134h0A.129.129,0,0,0,3.445,8.6h0V8.57a.128.128,0,0,0-.12-.133Zm9.954.054a.128.128,0,0,0-.1,0L13.15,8.5a.128.128,0,0,0-.068.167h0a.127.127,0,0,0,.166.067l.03-.012a.128.128,0,0,0,.069-.167h0a.13.13,0,0,0-.071-.069Zm-5.2.024a.125.125,0,0,0-.081.053l-.018.026a.127.127,0,1,0,.209.144h0L8.2,8.712a.128.128,0,0,0-.033-.177h0a.124.124,0,0,0-.1-.02Zm6.192,0-.029.012a.127.127,0,0,0-.071.165h0a.127.127,0,0,0,.166.069l.03-.012a.127.127,0,0,0,.069-.166h0A.127.127,0,0,0,14.265,8.518Zm-8.789.01a.127.127,0,0,0-.082.053v.006l-.015.021a.128.128,0,0,0,.212.143l.014-.02v0a.127.127,0,0,0-.127-.2Zm6.4.033a.13.13,0,0,0-.094.024l-.011.008-.018.015a.127.127,0,1,0,.161.2l.013-.011.01-.005a.128.128,0,0,0,.024-.179.126.126,0,0,0-.084-.049ZM7.2,8.567a.13.13,0,0,0-.087.043L7.1,8.624l-.01.008a.128.128,0,0,0,.009.18h0a.127.127,0,0,0,.18-.008h0l.01-.009L7.3,8.778a.127.127,0,0,0-.011-.18A.13.13,0,0,0,7.2,8.567Zm-2.927.018a.127.127,0,0,0-.141.112h0v.035a.128.128,0,0,0,.116.138h0a.127.127,0,0,0,.137-.117h0V8.727h0a.128.128,0,0,0-.112-.141Zm4.519,0a.135.135,0,0,0-.076.061L8.7,8.676a.127.127,0,0,0,.223.123l.015-.028a.127.127,0,0,0-.05-.173.13.13,0,0,0-.1-.011Zm2.071.007a.131.131,0,0,0-.082.055l-.01.018-.011.011a.128.128,0,0,0,.04.175h0a.128.128,0,0,0,.175-.04l.01-.009.011-.016a.127.127,0,0,0-.037-.176h0a.126.126,0,0,0-.1-.018Zm-8.493,0a.13.13,0,0,0-.12.135v.031a.127.127,0,0,0,.135.12h0A.127.127,0,0,0,2.5,8.747h0V8.716a.127.127,0,0,0-.134-.12Zm13.674.021a.147.147,0,0,0-.047.017l-.028.016a.128.128,0,0,0,.132.219h0l.027-.017a.127.127,0,0,0,.043-.175.129.129,0,0,0-.077-.058.146.146,0,0,0-.051,0Zm-9.766.012a.127.127,0,0,0-.119.046l-.02.024a.128.128,0,0,0,.2.161l.02-.025a.128.128,0,0,0-.018-.179.131.131,0,0,0-.06-.027Zm6.678.007a.131.131,0,0,0-.1.008l-.018.009-.012.006a.127.127,0,0,0-.051.173h0a.127.127,0,0,0,.172.052l.01-.006.016-.007a.129.129,0,0,0,.055-.172h0a.13.13,0,0,0-.075-.063Zm1.084.018a.126.126,0,0,0-.1,0l-.029.013a.129.129,0,0,0-.062.169.127.127,0,0,0,.169.062h0l.03-.013a.129.129,0,0,0,.062-.169h0a.129.129,0,0,0-.072-.066Zm-3.9.08a.126.126,0,0,0-.162.078h0l-.01.029v0a.126.126,0,1,0,.24.08h0l.011-.027a.129.129,0,0,0-.078-.163Zm-.634,0a.127.127,0,0,0-.165.069v0l-.01.023A.127.127,0,0,0,9.39,9h0a.125.125,0,0,0,.167-.065h0l.012-.026V8.9A.127.127,0,0,0,9.5,8.737h0Zm7.525.044a.128.128,0,0,0-.095.023l-.026.019a.127.127,0,0,0,.151.205l.025-.019a.127.127,0,0,0-.055-.228Zm-13.716,0a.127.127,0,0,0-.12.134h0v.032a.127.127,0,1,0,.254-.014h0V8.906a.127.127,0,0,0-.134-.12Zm4.567.01a.125.125,0,0,0-.085.048l-.02.025a.127.127,0,1,0,.2.158h0L7.992,9a.128.128,0,0,0-.021-.179h0A.124.124,0,0,0,7.877,8.8Zm3.715,0a.127.127,0,0,0-.088.042l-.021.024a.128.128,0,0,0,.009.18h0a.127.127,0,0,0,.179-.01l.022-.024a.126.126,0,0,0-.01-.179.124.124,0,0,0-.092-.032Zm4.147,0a.147.147,0,0,0-.047.017l-.027.017a.127.127,0,0,0,.132.218h0l.027-.017a.127.127,0,0,0,.045-.174h0a.127.127,0,0,0-.079-.057.141.141,0,0,0-.05,0Zm-2.026.009a.134.134,0,0,0-.1.012l-.028.016a.127.127,0,1,0,.124.222h0l.028-.016a.127.127,0,0,0,.05-.173h0a.128.128,0,0,0-.076-.061Zm-1.077,0a.13.13,0,0,0-.1.018l-.027.017a.128.128,0,0,0,.139.214h0l.027-.017a.127.127,0,0,0,.037-.176A.128.128,0,0,0,12.636,8.809Zm-7.361.017a.122.122,0,0,0-.076.061l-.016.028a.128.128,0,0,0,.224.122l.015-.028a.128.128,0,0,0-.051-.173.124.124,0,0,0-.1-.01Zm1.688,0a.126.126,0,0,0-.087.043L6.855,8.9a.128.128,0,0,0,.192.168h0l.021-.025a.127.127,0,0,0-.012-.179.124.124,0,0,0-.093-.031Zm1.654.057a.124.124,0,0,0-.08.056L8.52,8.97a.126.126,0,0,0,.039.175h0a.128.128,0,0,0,.175-.04l.018-.027A.128.128,0,0,0,8.714,8.9h0a.124.124,0,0,0-.1-.016Zm2.054.017a.125.125,0,0,0-.073.064L10.584,9a.127.127,0,0,0,.228.112h0l.014-.029a.127.127,0,0,0-.058-.17.128.128,0,0,0-.1-.006ZM6.02,8.9a.128.128,0,0,0-.085.049l-.019.026a.127.127,0,1,0,.2.154h0l.019-.025a.126.126,0,0,0-.023-.178h0a.133.133,0,0,0-.1-.025Zm-1.785.031Zm0,0a.128.128,0,0,0-.12.133V9.1a.128.128,0,0,0,.133.121h0a.128.128,0,0,0,.121-.133V9.055a.128.128,0,0,0-.132-.12Zm11.219.046a.127.127,0,0,0-.063.02l-.027.017a.127.127,0,0,0,.136.215h0l.027-.017a.128.128,0,0,0,.04-.176h0a.128.128,0,0,0-.114-.059Zm1.289.008a.13.13,0,0,0-.094.022l-.026.019a.128.128,0,0,0-.029.178h0a.127.127,0,0,0,.178.028l.026-.018a.128.128,0,0,0,.029-.178h0a.129.129,0,0,0-.083-.051Zm-3.343,0a.129.129,0,0,0-.1.024l-.026.019a.128.128,0,0,0-.024.178.126.126,0,0,0,.177.026l.026-.019a.127.127,0,0,0,.026-.178h0a.129.129,0,0,0-.084-.05Zm-1.057.037a.126.126,0,0,0-.091.034l-.01.007-.018.018a.127.127,0,0,0,.179.181h0l.016-.015v0a.126.126,0,0,0-.078-.221Zm1.982.011a.144.144,0,0,0-.046.019l-.027.018a.127.127,0,1,0,.141.211l.027-.017a.127.127,0,0,0,.035-.177.129.129,0,0,0-.082-.054.135.135,0,0,0-.049,0Zm-5.057.011a.128.128,0,0,0-.075.062l-.015.028a.127.127,0,0,0,.05.172h0A.126.126,0,0,0,9.4,9.262l.016-.028a.126.126,0,0,0-.051-.172h0a.127.127,0,0,0-.1-.011ZM7.66,9.066a.128.128,0,0,0-.088.043l-.021.023a.128.128,0,0,0,.19.172h0l.021-.024A.127.127,0,0,0,7.753,9.1h0a.128.128,0,0,0-.092-.032Zm2.361,0a.128.128,0,0,0-.161.081h0l-.01.024v.007a.127.127,0,0,0,.081.161h0a.128.128,0,0,0,.161-.082V9.251l.01-.023a.128.128,0,0,0-.08-.161Zm1.336.008a.123.123,0,0,0-.081.055l-.018.026a.127.127,0,0,0,.211.142l.018-.026a.127.127,0,0,0-.034-.177h0a.131.131,0,0,0-.1-.02ZM6.731,9.1a.125.125,0,0,0-.087.044l-.02.024a.127.127,0,0,0,.194.165l.021-.024a.129.129,0,0,0-.014-.18h0A.127.127,0,0,0,6.732,9.1Zm-3.4.041a.127.127,0,0,0-.1.146v.034a.129.129,0,0,0,.149.1h0a.128.128,0,0,0,.1-.149h0V9.242a.129.129,0,0,0-.146-.106Zm1.774.009a.126.126,0,0,0-.07.068l-.012.029A.128.128,0,0,0,5.1,9.41a.127.127,0,0,0,.166-.069l.012-.029a.127.127,0,0,0-.068-.166.12.12,0,0,0-.1,0Zm3.318.028a.129.129,0,0,0-.083.051l-.017.024h0a.129.129,0,0,0,.025.179h0A.128.128,0,0,0,8.529,9.4v0l.018-.025a.127.127,0,0,0-.123-.2Zm6.765,0a.127.127,0,0,0-.1.02l-.01,0-.022.016a.127.127,0,0,0-.029.178h0a.127.127,0,0,0,.177.029l.021-.014v0a.127.127,0,0,0,.033-.177h0a.129.129,0,0,0-.082-.053Zm-9.35.009a.128.128,0,0,0-.116.053l-.019.025a.127.127,0,0,0,.03.178h0a.127.127,0,0,0,.177-.03l.019-.025A.128.128,0,0,0,5.9,9.209h0a.123.123,0,0,0-.061-.023Zm10.618.006a.128.128,0,0,0-.095.023l-.025.018a.128.128,0,0,0-.029.178h0a.128.128,0,0,0,.178.029h0l.026-.018a.128.128,0,0,0,.029-.178h0a.13.13,0,0,0-.083-.052Zm-3.344.022h0Zm0,0a.13.13,0,0,0-.09.033v0L13,9.272a.127.127,0,0,0,0,.18h0a.129.129,0,0,0,.18,0l.02-.02h0a.129.129,0,0,0,.011-.18h0a.126.126,0,0,0-.088-.039Zm-2.5.011a.127.127,0,0,0-.164.075l-.011.03h0a.127.127,0,1,0,.24.086h0l.01-.029a.128.128,0,0,0-.075-.164Zm3.429.019a.131.131,0,0,0-.06.027l-.024.021a.126.126,0,0,0-.018.179.128.128,0,0,0,.179.018h0l.024-.02a.127.127,0,0,0,.019-.179h0a.125.125,0,0,0-.119-.045Zm-9.789.039a.127.127,0,0,0-.108.143h0v.031a.128.128,0,0,0,.144.108h0A.127.127,0,0,0,4.4,9.423h0l-.01-.032a.127.127,0,0,0-.144-.107Zm7.83,0A.128.128,0,0,0,12,9.334l-.02.025A.128.128,0,0,0,12,9.538a.127.127,0,0,0,.178-.021l.02-.025a.126.126,0,0,0-.02-.178h0a.126.126,0,0,0-.094-.026Zm-4.66.041a.127.127,0,0,0-.087.044L7.318,9.4a.127.127,0,1,0,.191.167h0l.02-.024a.127.127,0,0,0-.1-.211ZM9.1,9.35a.126.126,0,0,0-.08.057L9,9.434a.127.127,0,0,0,.215.135l.017-.027a.128.128,0,0,0-.039-.176h0a.124.124,0,0,0-.1-.016Zm-2.6.013a.125.125,0,0,0-.086.046L6.4,9.433a.128.128,0,0,0,.017.18h0A.126.126,0,0,0,6.593,9.6h0l.02-.025A.128.128,0,0,0,6.6,9.391.13.13,0,0,0,6.5,9.363Zm4.66.016a.133.133,0,0,0-.074.064l-.014.028a.127.127,0,0,0,.227.116h0l.014-.028a.128.128,0,0,0-.055-.171h0a.124.124,0,0,0-.1-.007Zm3.735.008a.131.131,0,0,0-.093.031l-.024.02a.129.129,0,0,0-.014.18h0a.128.128,0,0,0,.18.014h0l.024-.021a.126.126,0,0,0,.014-.179h0a.131.131,0,0,0-.087-.044Zm-5.1,0a.131.131,0,0,0-.07.067l-.01.017v.006a.127.127,0,0,0,.055.171h0A.127.127,0,0,0,9.948,9.6h0l.01-.013.01-.023A.126.126,0,0,0,9.9,9.4a.121.121,0,0,0-.1,0Zm6.371.007a.125.125,0,0,0-.095.025l-.026.019a.127.127,0,0,0-.025.178h0a.126.126,0,0,0,.178.025h0l.025-.018a.128.128,0,0,0,.024-.179h0a.127.127,0,0,0-.083-.05Zm-7.955.05a.128.128,0,0,0-.086.045l-.016.02v0A.126.126,0,0,0,8.13,9.7h0a.126.126,0,0,0,.179-.014h0v0l.018-.021a.127.127,0,0,0-.018-.179.124.124,0,0,0-.093-.029Zm-3.143.022a.128.128,0,0,0-.158.086v0l-.01.03A.127.127,0,0,0,5,9.747H5a.127.127,0,0,0,.156-.09h0l.01-.026h0a.127.127,0,0,0-.086-.158h0Zm7.788,0a.129.129,0,0,0-.086.046l-.01.011-.014.019a.127.127,0,0,0,.2.154h0l.011-.015.01-.006a.128.128,0,0,0-.11-.208Zm-9.47.009h0Zm0,0a.127.127,0,0,0-.112.139v.029a.128.128,0,0,0,.137.117.127.127,0,0,0,.116-.137V9.594A.127.127,0,0,0,3.4,9.481Zm10.444,0a.128.128,0,0,0-.123.035l-.018.018-.01.007a.128.128,0,0,0,.01.18h0a.127.127,0,0,0,.18-.007V9.712l.016-.015a.127.127,0,0,0,0-.18h0a.128.128,0,0,0-.058-.032Zm3.008.025a.133.133,0,0,0-.059.03l-.024.021a.128.128,0,0,0,.17.191h0l.023-.021a.127.127,0,0,0-.11-.22Zm-6.351.047a.127.127,0,0,0-.162.077l-.01.016v.012a.128.128,0,0,0,.075.164h0a.128.128,0,0,0,.164-.074h0l.01-.013.01-.019a.126.126,0,0,0-.077-.162Zm1.376.021a.129.129,0,0,0-.079.058v.007l-.014.024A.127.127,0,0,0,12,9.792l.012-.021v0a.127.127,0,0,0-.042-.175h0a.125.125,0,0,0-.1-.015Zm-4.676.015a.128.128,0,0,0-.088.043l-.021.024a.127.127,0,1,0,.191.168h0L7.3,9.8a.127.127,0,0,0-.011-.18.131.131,0,0,0-.093-.031Zm8.7.023a.13.13,0,0,0-.093.029l-.024.02a.129.129,0,0,0-.018.18h0a.128.128,0,0,0,.179.017l.025-.021a.128.128,0,0,0,.017-.179.134.134,0,0,0-.086-.046ZM14.6,9.627a.13.13,0,0,0-.057.032l-.023.022a.127.127,0,0,0,0,.18h0a.128.128,0,0,0,.18,0l.023-.022a.127.127,0,0,0,0-.18h0a.125.125,0,0,0-.123-.034Zm-10.287,0a.128.128,0,0,0-.1.15v.033a.127.127,0,1,0,.248-.055V9.73a.127.127,0,0,0-.15-.1Zm1.97.009a.127.127,0,0,0-.084.05l-.019.025a.127.127,0,0,0,.025.179h0a.127.127,0,0,0,.178-.026h0L6.4,9.842a.128.128,0,0,0-.026-.179h0a.128.128,0,0,0-.095-.024Zm2.629,0a.125.125,0,0,0-.082.052l-.015.021v0a.127.127,0,1,0,.205.151v0l.017-.023A.128.128,0,0,0,9,9.662H9a.129.129,0,0,0-.1-.022Zm.74.057a.128.128,0,0,0-.077.06v.006l-.012.02a.128.128,0,0,0,.045.174h0a.129.129,0,0,0,.175-.045h0l.013-.022V9.883A.127.127,0,0,0,9.648,9.7Zm1.452,0a.127.127,0,0,0-.164.075l-.011.03a.127.127,0,0,0,.239.088l.011-.03A.127.127,0,0,0,11.1,9.7Zm-3.11.014a.126.126,0,0,0-.087.043l-.01.012-.01.011a.128.128,0,0,0,.191.169l.011-.013L8.1,9.924a.128.128,0,0,0-.013-.18h0a.126.126,0,0,0-.093-.03Zm5.569.032a.132.132,0,0,0-.084.05l-.019.026a.127.127,0,0,0,.2.152l.019-.025a.126.126,0,0,0-.025-.178h0a.131.131,0,0,0-.094-.024Zm3.025,0a.126.126,0,0,0-.058.031l-.013.012L16.5,9.8a.128.128,0,0,0,.18.183h0l.01-.009.012-.011a.126.126,0,0,0-.111-.217Zm-3.941.014a.127.127,0,0,0-.079.057l-.017.025v0a.127.127,0,0,0,.042.175h0a.127.127,0,0,0,.175-.042v0l.014-.023a.126.126,0,0,0-.039-.175.128.128,0,0,0-.094-.018Zm4.967.011a.13.13,0,0,0-.09.041l-.022.023a.129.129,0,0,0,.01.18.127.127,0,0,0,.18-.006h0l.022-.023a.128.128,0,0,0-.01-.18.13.13,0,0,0-.091-.035ZM4.985,9.809a.128.128,0,0,0-.146.106h0V9.95a.128.128,0,0,0,.253.034h0V9.954a.127.127,0,0,0-.106-.145Zm-1.563.022a.127.127,0,0,0-.139.112v.028a.127.127,0,0,0,.108.143h0a.126.126,0,0,0,.143-.108V9.971a.127.127,0,0,0-.113-.14Zm12.2.015a.129.129,0,0,0-.091.034h0l-.021.02v0a.126.126,0,1,0,.17.186h0v0l.021-.02a.129.129,0,0,0,.01-.18.125.125,0,0,0-.088-.04Zm-8.657.01a.131.131,0,0,0-.087.044l-.016.019-.01.006a.127.127,0,0,0,.193.165h0v-.006l.016-.018a.127.127,0,0,0-.012-.18h0a.129.129,0,0,0-.094-.03Zm3.312.023a.123.123,0,0,0-.072.066v.006l-.01.019a.127.127,0,0,0,.227.116h0l.011-.023v-.009a.126.126,0,0,0-.062-.169h0a.125.125,0,0,0-.1,0Zm4.1,0a.127.127,0,0,0-.085.048l-.02.026a.127.127,0,0,0,.2.155l.02-.025a.126.126,0,0,0-.023-.178h0a.128.128,0,0,0-.094-.025ZM11.7,9.893a.126.126,0,0,0-.072.066l-.013.029a.127.127,0,1,0,.231.107h0l.013-.03a.127.127,0,0,0-.062-.168h0a.135.135,0,0,0-.1,0ZM8.7,9.917a.127.127,0,0,0-.084.046l-.011.014-.01.009a.127.127,0,1,0,.195.163l.01-.011.012-.015A.128.128,0,0,0,8.8,9.944.134.134,0,0,0,8.7,9.916Zm-2.636.009a.127.127,0,0,0-.08.055l-.017.027a.128.128,0,0,0,.214.139L6.2,10.12a.127.127,0,0,0-.038-.176h0a.13.13,0,0,0-.1-.017Zm-1.689.047a.128.128,0,0,0-.119.136h0v.028a.127.127,0,0,0,.254-.008h0v-.036a.127.127,0,0,0-.135-.119h0Zm3.382,0a.127.127,0,0,0-.088.042l-.021.025a.127.127,0,1,0,.189.169l.021-.024a.127.127,0,0,0-.1-.212Zm1.713.016a.132.132,0,0,0-.082.054l-.017.026a.127.127,0,0,0,.033.177h0a.127.127,0,0,0,.176-.035l.018-.026a.126.126,0,0,0-.034-.177.128.128,0,0,0-.095-.02Zm6.922,0a.128.128,0,0,0-.122.034l-.022.023a.127.127,0,0,0,0,.18h0a.128.128,0,0,0,.18,0l.022-.023a.129.129,0,0,0,0-.18h0a.13.13,0,0,0-.057-.032Zm.975.034a.124.124,0,0,0-.089.039l-.022.023a.127.127,0,0,0,0,.18h0a.127.127,0,0,0,.18,0h0l.022-.024a.127.127,0,0,0,0-.179.131.131,0,0,0-.092-.035Zm-6.389,0a.128.128,0,0,0-.166.071h0l-.012.029a.128.128,0,0,0,.237.095l.012-.03a.126.126,0,0,0-.071-.165Zm2.417.006a.105.105,0,0,0-.05,0,.123.123,0,0,0-.078.057l-.016.027a.127.127,0,1,0,.217.132l.017-.028a.126.126,0,0,0-.044-.174h0a.111.111,0,0,0-.047-.017Zm-.937.034a.13.13,0,0,0-.074.064l-.014.028a.127.127,0,1,0,.226.115l.014-.029a.127.127,0,0,0-.056-.171h0a.131.131,0,0,0-.1-.007Zm2.9.024a.129.129,0,0,0-.088.042l-.022.023a.127.127,0,0,0,.01.18h0a.127.127,0,0,0,.18-.01l.021-.023a.128.128,0,0,0-.01-.18.13.13,0,0,0-.092-.032Zm-8.625.032a.124.124,0,0,0-.086.045l-.02.025a.127.127,0,0,0,.2.162l.02-.025a.127.127,0,0,0-.111-.207Zm-1.8.031a.127.127,0,0,0-.131.124h0v.03a.128.128,0,0,0,.255.011h0v-.034a.127.127,0,0,0-.124-.131Zm9.267.006a.14.14,0,0,0-.05,0,.129.129,0,0,0-.081.056l-.017.026a.127.127,0,1,0,.213.139l.018-.026a.127.127,0,0,0-.036-.176h0a.123.123,0,0,0-.046-.018Zm-10.829.015a.126.126,0,0,0-.164.074h0l-.01.025a.126.126,0,0,0,.07.165.127.127,0,0,0,.166-.07h0l.011-.028v-.005a.128.128,0,0,0-.075-.164Zm5.105.006a.123.123,0,0,0-.087.044v0l-.018.02a.127.127,0,1,0,.192.167h0l.019-.021v0a.129.129,0,0,0-.014-.18h0a.132.132,0,0,0-.091-.03Zm1.64,0a.123.123,0,0,0-.077.059l-.017.027a.127.127,0,1,0,.22.128l.017-.028a.128.128,0,0,0-.046-.173.124.124,0,0,0-.1-.013Zm1.53.031a.127.127,0,0,0-.165.071v.01l-.011.019a.128.128,0,0,0,.07.166h0a.128.128,0,0,0,.166-.069l.01-.02v-.011a.128.128,0,0,0-.071-.166Zm-5.771.013a.122.122,0,0,0-.076.061h0l-.015.028a.127.127,0,0,0,.053.172h0a.128.128,0,0,0,.172-.054h0l.014-.026h0a.128.128,0,0,0-.05-.172h0a.126.126,0,0,0-.1-.01Zm1.647.008a.131.131,0,0,0-.088.042l-.021.023a.128.128,0,0,0,.19.171l.021-.024a.127.127,0,0,0-.01-.179.125.125,0,0,0-.092-.033Zm8.624.01a.127.127,0,0,0-.121.04l-.021.024a.127.127,0,1,0,.19.169l.021-.024a.128.128,0,0,0-.011-.179.133.133,0,0,0-.059-.03Zm-6.873.029a.124.124,0,0,0-.084.049l-.02.025a.128.128,0,0,0,.2.155L9.4,10.48a.128.128,0,0,0-.023-.179h0a.132.132,0,0,0-.094-.025Zm7.851,0a.125.125,0,0,0-.089.04l-.022.023a.127.127,0,0,0,0,.18h0a.128.128,0,0,0,.18-.005h0l.022-.023a.128.128,0,0,0-.009-.18h0a.128.128,0,0,0-.091-.035ZM4.39,10.324a.128.128,0,0,0-.151.1l-.01.031a.127.127,0,0,0,.1.15h0a.128.128,0,0,0,.151-.1l.01-.031a.127.127,0,0,0-.1-.15Zm8.828.015a.106.106,0,0,0-.05.006.121.121,0,0,0-.074.064l-.01.018-.01.012a.127.127,0,1,0,.229.111h0l.01-.01.01-.017a.127.127,0,0,0-.056-.171.133.133,0,0,0-.048-.014Zm-2.467.01a.13.13,0,0,0-.072.066l-.011.025a.127.127,0,0,0,.227.115v0l.014-.03a.128.128,0,0,0-.062-.169h0a.128.128,0,0,0-.1,0Zm4.375.009a.13.13,0,0,0-.086.047l-.012.015-.01.012a.126.126,0,0,0,.021.178h0a.126.126,0,0,0,.178-.023l.01-.009.01-.013a.128.128,0,0,0-.111-.208Zm-2.813.03a.128.128,0,0,0-.073.064l-.014.029a.126.126,0,0,0,.059.17h0a.126.126,0,0,0,.17-.059h0l.014-.029a.126.126,0,0,0-.059-.17h0a.126.126,0,0,0-.1-.006Zm-5.8.013a.126.126,0,0,0-.084.049v0l-.018.026a.127.127,0,1,0,.206.149l.017-.024h0a.128.128,0,0,0-.026-.178h0a.126.126,0,0,0-.094-.024Zm1.74.044a.127.127,0,0,0-.088.042l-.022.024a.127.127,0,0,0,.19.17l.021-.023a.128.128,0,0,0-.01-.18.125.125,0,0,0-.092-.033Zm5.759.013a.14.14,0,0,0-.05,0,.127.127,0,0,0-.077.061l-.016.028a.127.127,0,1,0,.222.124h0l.017-.027a.128.128,0,0,0-.049-.173h0a.134.134,0,0,0-.048-.015Zm-10.867.017a.124.124,0,0,0-.085.047l-.013.016-.01.006a.127.127,0,1,0,.2.162l.01-.009.015-.019a.127.127,0,0,0-.116-.2Zm6.8.006a.126.126,0,0,0-.081.054l-.017.027a.128.128,0,0,0,.213.141l.017-.027a.127.127,0,0,0-.036-.177h0a.13.13,0,0,0-.1-.018Zm-2.65.016a.128.128,0,0,0-.088.043l-.021.023a.127.127,0,1,0,.189.17l.021-.024a.126.126,0,0,0-.01-.179.129.129,0,0,0-.092-.033Zm-2.36.009a.127.127,0,0,0-.12.134v.027a.127.127,0,1,0,.254,0v-.037a.127.127,0,0,0-.134-.12Zm10.951.006a.127.127,0,0,0-.085.048l-.02.025a.127.127,0,0,0,.02.179h0a.127.127,0,0,0,.179-.02h0l.02-.025a.127.127,0,0,0-.02-.179h0a.126.126,0,0,0-.094-.027Zm1,.022a.128.128,0,0,0-.088.041l-.022.023a.129.129,0,0,0,.19.173l.022-.023a.127.127,0,0,0-.01-.179h0a.129.129,0,0,0-.091-.034Zm-5.466,0a.126.126,0,0,0-.072.066l-.014.029a.126.126,0,0,0,.062.169h0a.127.127,0,0,0,.169-.061l.014-.029a.127.127,0,0,0-.062-.169h0a.124.124,0,0,0-.1,0Zm-5.7.011a.133.133,0,0,0-.07.068l-.01.019-.01.012a.128.128,0,0,0,.068.167h0a.127.127,0,0,0,.166-.069v-.011l.01-.016a.128.128,0,0,0-.066-.168.13.13,0,0,0-.1,0Zm3.347,0a.128.128,0,0,0-.086.045l-.021.024a.127.127,0,0,0,.015.179h0a.128.128,0,0,0,.179-.015l.021-.025a.126.126,0,0,0-.014-.179h0a.125.125,0,0,0-.093-.029Zm5.845.1a.127.127,0,0,0-.082.053l-.018.027a.127.127,0,0,0,.21.144l.019-.027A.128.128,0,0,0,15,10.664a.124.124,0,0,0-.095-.021Zm-1.846.009a.117.117,0,0,0-.049,0,.13.13,0,0,0-.076.06l-.016.028a.127.127,0,0,0,.05.173h0a.127.127,0,0,0,.173-.051l.015-.027a.128.128,0,0,0-.049-.173h0a.136.136,0,0,0-.047-.015Zm-8.85,0a.124.124,0,0,0-.078.058l-.016.028a.127.127,0,0,0,.219.129l.016-.027a.128.128,0,0,0-.044-.175h0a.128.128,0,0,0-.1-.013Zm6.385,0a.127.127,0,0,0-.076.06h0l-.014.025a.127.127,0,1,0,.22.128h0l.016-.027v0a.127.127,0,0,0-.048-.173.124.124,0,0,0-.1-.012Zm-4.292.035a.128.128,0,0,0-.08.054l-.01.014-.01.015a.127.127,0,0,0,.215.136h0l.01-.014.01-.011A.127.127,0,0,0,6.4,10.71a.125.125,0,0,0-.1-.018Zm5.856.011a.125.125,0,0,0-.074.063l-.014.029a.127.127,0,0,0,.227.116h0l.014-.029a.127.127,0,0,0-.057-.17h0a.13.13,0,0,0-.1-.007Zm-4.144,0a.133.133,0,0,0-.089.04l-.022.024a.128.128,0,0,0,.19.173l.022-.023a.129.129,0,0,0-.1-.214Zm5.822.056a.12.12,0,0,0-.05,0,.124.124,0,0,0-.08.056l-.011.018-.01.011a.127.127,0,0,0,.042.175h0a.126.126,0,0,0,.174-.042h0l.01-.009.01-.016a.128.128,0,0,0-.04-.175.13.13,0,0,0-.046-.018Zm-6.78,0a.126.126,0,0,0-.087.043l-.014.016-.01.01a.127.127,0,0,0,.195.163h0l.01-.008.012-.014a.128.128,0,0,0-.013-.18h0a.126.126,0,0,0-.093-.03Zm2.69,0a.124.124,0,0,0-.083.049l-.017.023h0a.127.127,0,1,0,.2.156h0v0l.019-.025a.129.129,0,0,0-.025-.179h0a.129.129,0,0,0-.093-.024Zm5.916.027a.13.13,0,0,0-.082.051l-.019.027a.127.127,0,0,0,.208.147h0l.018-.026a.128.128,0,0,0-.03-.177.125.125,0,0,0-.1-.022Zm.979,0a.128.128,0,0,0-.085.047l-.02.025a.127.127,0,0,0,.02.179h0a.127.127,0,0,0,.179-.02h0L16.757,11a.127.127,0,0,0-.113-.206Zm-7.807.016a.131.131,0,0,0-.088.042l-.021.024a.127.127,0,1,0,.19.17l.021-.024a.127.127,0,0,0-.1-.212Zm2.434.035a.125.125,0,0,0-.075.062l-.01.02v.007a.128.128,0,0,0,.223.124v-.008l.012-.022a.128.128,0,0,0-.052-.172.122.122,0,0,0-.1-.01Zm-6.332.01a.128.128,0,0,0-.15.1h0l-.01.031a.127.127,0,0,0,.1.149h0a.126.126,0,0,0,.149-.1l.01-.031a.127.127,0,0,0-.1-.15Zm.739.015a.127.127,0,0,0-.159.085h0l-.01.03a.127.127,0,0,0,.083.159h0a.127.127,0,0,0,.159-.084h0l.01-.031a.127.127,0,0,0-.084-.159Zm-1.646.049a.129.129,0,0,0-.091.033l-.024.022a.127.127,0,0,0-.011.179h0a.127.127,0,0,0,.179.008l.024-.022a.128.128,0,0,0,.01-.18.13.13,0,0,0-.088-.041Zm10.683.019a.133.133,0,0,0-.078.055h0V11l.01-.006a.129.129,0,0,0,.18.184h0c.033-.032.035-.036.01-.013l.016-.013.015-.025a.127.127,0,0,0-.041-.175h0a.124.124,0,0,0-.094-.014Zm-4.292.013a.127.127,0,0,0-.08.055l-.017.027a.127.127,0,0,0,.213.139l.018-.027a.127.127,0,0,0-.037-.176.13.13,0,0,0-.1-.019Zm-2.644.007A.124.124,0,0,0,7.69,11l-.022.023a.127.127,0,0,0,.009.18h0a.128.128,0,0,0,.18-.006h0l.022-.023A.127.127,0,0,0,7.87,11h0a.128.128,0,0,0-.091-.034Zm5.115,0a.117.117,0,0,0-.049,0,.128.128,0,0,0-.075.062l-.015.028a.128.128,0,0,0,.053.172h0a.128.128,0,0,0,.173-.053L13,11.147a.127.127,0,0,0-.052-.172h0a.12.12,0,0,0-.049-.014Zm-6.777.033a.124.124,0,0,0-.077.059l-.014.025v0a.127.127,0,1,0,.223.123v0l.013-.023a.128.128,0,0,0-.048-.174.129.129,0,0,0-.1-.012ZM12,11.012a.125.125,0,0,0-.075.062l-.016.028a.126.126,0,0,0,.051.172h0a.127.127,0,0,0,.172-.052h0l.015-.028a.127.127,0,0,0-.051-.173h0a.126.126,0,0,0-.1-.01Zm-5.172.021a.127.127,0,0,0-.085.048l-.02.024a.128.128,0,0,0,.022.179h0a.128.128,0,0,0,.179-.022l.02-.025a.127.127,0,0,0-.022-.179h0a.128.128,0,0,0-.094-.026Zm2.707.006a.124.124,0,0,0-.086.045l-.021.024a.127.127,0,1,0,.2.164l.021-.024a.128.128,0,0,0-.016-.18h0a.127.127,0,0,0-.093-.029Zm4.1.023a.127.127,0,0,0-.107.069l-.014.028a.127.127,0,0,0,.052.172h0a.126.126,0,0,0,.171-.054l.015-.028a.127.127,0,0,0-.052-.172h0a.132.132,0,0,0-.065-.015ZM8.6,11.071a.129.129,0,0,0-.089.04l-.022.023a.128.128,0,0,0,.009.18h0a.127.127,0,0,0,.18-.005h0l.022-.023a.127.127,0,0,0-.01-.179.122.122,0,0,0-.091-.034Zm6.856,0a.133.133,0,0,0-.085.049l-.013.017-.01.011a.128.128,0,0,0,.029.178h0a.127.127,0,0,0,.178-.028l.01-.008.011-.014a.128.128,0,0,0-.022-.179.13.13,0,0,0-.094-.026Zm.966,0a.13.13,0,0,0-.084.049l-.014.019-.01.009a.128.128,0,0,0,.029.178h0a.128.128,0,0,0,.178-.029l.01-.007.012-.017a.127.127,0,0,0-.024-.177h0a.129.129,0,0,0-.095-.025Zm-12.65.058a.122.122,0,0,0-.1.013l-.023.013a.128.128,0,0,0,.12.225v0l.029-.017a.126.126,0,0,0,.046-.174.129.129,0,0,0-.078-.059Zm7.327.018a.124.124,0,0,0-.079.057l-.017.026a.129.129,0,0,0,.041.176h0a.127.127,0,0,0,.175-.042h0l.017-.027a.128.128,0,0,0-.042-.175.124.124,0,0,0-.1-.015Zm-6.341.042a.128.128,0,0,0-.073.064l-.01.014-.01.009a.128.128,0,0,0,.223.124l.01-.014.01-.019a.128.128,0,0,0-.057-.171h0a.126.126,0,0,0-.1-.007Zm.816.017a.128.128,0,0,0-.149.1l-.01.032a.127.127,0,0,0,.25.047l.01-.031A.127.127,0,0,0,5.578,11.209Zm1.96.006a.127.127,0,0,0-.089.04v0l-.019.021a.128.128,0,0,0,.19.172l.019-.02v0a.126.126,0,0,0-.01-.179h0a.129.129,0,0,0-.091-.034Zm6.975.015a.124.124,0,0,0-.078.058l-.016.027a.127.127,0,0,0,.219.13l.016-.028a.128.128,0,0,0-.045-.175.133.133,0,0,0-.1-.013Zm-4.283.01a.125.125,0,0,0-.083.051l-.013.017-.01.007a.127.127,0,0,0,.2.154h0l.01-.008.013-.018a.127.127,0,0,0-.026-.178h0a.13.13,0,0,0-.094-.023Zm2.484.029a.129.129,0,0,0-.109.067l-.015.028a.128.128,0,0,0,.225.121h0l.015-.028a.127.127,0,0,0-.116-.187Zm-9.332.014-.03.011a.127.127,0,0,0-.076.163h0a.129.129,0,0,0,.164.076h0l.03-.011a.127.127,0,0,0,.076-.163h0a.127.127,0,0,0-.163-.075Zm5.929.021a.123.123,0,0,0-.087.042l-.022.023a.127.127,0,0,0,.19.17l.021-.024a.127.127,0,0,0-.1-.211Zm-2.7.008a.12.12,0,0,0-.083.051l-.019.025a.127.127,0,0,0,.205.151l.019-.026a.128.128,0,0,0-.027-.178.13.13,0,0,0-.095-.023Zm5.22,0a.124.124,0,0,0-.078.058l-.016.027a.127.127,0,0,0,.044.175h0a.127.127,0,0,0,.174-.044h0l.016-.027a.128.128,0,0,0-.044-.175h0a.124.124,0,0,0-.1-.014Zm-3.472.009a.127.127,0,0,0-.089.038l-.01.011-.011.011a.127.127,0,1,0,.18.179h0l.012-.012.011-.012a.127.127,0,0,0,0-.179.123.123,0,0,0-.09-.036Zm7.843.023a.127.127,0,0,0-.083.05l-.014.019-.01.009a.127.127,0,0,0,.207.148l.01-.007.012-.017a.127.127,0,0,0-.027-.178h0a.13.13,0,0,0-.094-.022Zm-.907.019a.163.163,0,0,0-.049,0,.13.13,0,0,0-.075.063l-.01.011-.01.019a.128.128,0,0,0,.057.171h0a.127.127,0,0,0,.171-.057l.01-.018.01-.009a.125.125,0,0,0-.054-.171.133.133,0,0,0-.048-.014Zm-1.824.007a.13.13,0,0,0-.107.07l-.015.028a.127.127,0,0,0,.056.171h0a.128.128,0,0,0,.171-.056l.014-.028a.128.128,0,0,0-.055-.172h0a.132.132,0,0,0-.065-.014Zm-2.557.069a.127.127,0,0,0-.081.055l-.01.013-.01.011a.127.127,0,1,0,.209.145h0l.011-.012.01-.015a.128.128,0,0,0-.034-.177.126.126,0,0,0-.1-.019Zm-6.32.029a.127.127,0,0,0-.089.04l-.019.019a.127.127,0,0,0,0,.18h0a.127.127,0,0,0,.18,0v0l.022-.023a.127.127,0,0,0-.01-.18h0a.126.126,0,0,0-.091-.035Zm2.7,0a.129.129,0,0,0-.088.042l-.021.023a.128.128,0,0,0,.19.171l.022-.023a.128.128,0,0,0-.01-.18h0a.128.128,0,0,0-.091-.033Zm2.722.041a.128.128,0,0,0-.086.045l-.02.025a.127.127,0,0,0,.2.163h0l.02-.024a.127.127,0,0,0-.017-.179h0a.129.129,0,0,0-.093-.028Zm4.318.026a.128.128,0,0,0-.073.064l-.014.029h0a.128.128,0,0,0,.23.111l.013-.028a.126.126,0,0,0-.057-.17h0a.13.13,0,0,0-.1-.006Zm-8.824.014a.128.128,0,0,0-.16.08v.007l-.01.019a.127.127,0,0,0,.238.09h0l.01-.023v-.011a.128.128,0,0,0-.08-.161Zm3.564.006a.131.131,0,0,0-.09.039l-.022.023a.128.128,0,0,0,0,.18h0a.128.128,0,0,0,.18,0h0l.022-.023a.126.126,0,0,0,0-.179.124.124,0,0,0-.091-.036Zm-.961.012a.129.129,0,0,0-.09.038l-.022.022a.128.128,0,0,0,.18.181h0l.022-.023a.127.127,0,0,0,0-.179.129.129,0,0,0-.09-.038Zm4.447,0a.14.14,0,0,0-.05,0,.124.124,0,0,0-.077.061l-.016.028a.126.126,0,0,0,.048.173h0a.126.126,0,0,0,.173-.048l.016-.028a.128.128,0,0,0-.048-.174.136.136,0,0,0-.047-.015ZM6.408,11.6a.127.127,0,0,0-.08.056l-.017.026a.128.128,0,0,0,.039.176h0a.127.127,0,0,0,.176-.039h0l.018-.027a.127.127,0,0,0-.039-.175h0a.125.125,0,0,0-.1-.016Zm5.248.011a.127.127,0,0,0-.08.056l-.017.027a.127.127,0,1,0,.214.137l.017-.027a.127.127,0,0,0-.038-.176.129.129,0,0,0-.1-.017Zm4.4.033a.115.115,0,0,0-.049.007.127.127,0,0,0-.073.065l-.014.029a.127.127,0,1,0,.23.11l.014-.029a.127.127,0,0,0-.061-.169.115.115,0,0,0-.048-.013Zm-.912.037a.127.127,0,0,0-.118.078l-.012.029a.127.127,0,1,0,.234.1h0l.012-.03a.126.126,0,0,0-.068-.166.112.112,0,0,0-.048-.01Zm-1.825,0a.131.131,0,0,0-.107.069l-.015.029a.127.127,0,0,0,.227.116l.014-.029a.128.128,0,0,0-.055-.171A.13.13,0,0,0,13.316,11.687Zm-8.96.009a.126.126,0,0,0-.1.019l-.015.009-.01.006a.128.128,0,0,0-.041.175h0a.128.128,0,0,0,.176.041l.012-.007.018-.012a.127.127,0,0,0-.046-.23Zm6.364.031a.135.135,0,0,0-.084.049l-.019.026a.127.127,0,0,0,.025.178h0a.128.128,0,0,0,.179-.024h0l.019-.024a.129.129,0,0,0-.025-.179h0a.133.133,0,0,0-.095-.025Zm-3.656.009a.127.127,0,0,0-.087.044v0l-.017.02a.128.128,0,0,0,.013.18h0a.127.127,0,0,0,.179-.014h0l.017-.02v0a.127.127,0,0,0-.012-.18.122.122,0,0,0-.093-.031ZM9.8,11.78a.128.128,0,0,0-.088.043l-.01.008-.013.015a.127.127,0,0,0,.189.171L9.89,12l.01-.009a.127.127,0,0,0-.1-.211Zm-.961.03a.132.132,0,0,0-.091.036l-.022.023a.127.127,0,0,0,0,.18h0a.127.127,0,0,0,.18,0h0l.022-.022a.128.128,0,0,0,0-.18h0a.126.126,0,0,0-.09-.038Zm-.966.009a.127.127,0,0,0-.09.038l-.022.022a.128.128,0,0,0,.18.181h0l.022-.023a.128.128,0,0,0,0-.18h0a.126.126,0,0,0-.09-.038Zm6.315.04a.126.126,0,0,0-.072.066l-.013.029a.127.127,0,1,0,.231.107h0l.013-.028a.126.126,0,0,0-.062-.169h0a.124.124,0,0,0-.1,0ZM5.3,11.864a.129.129,0,0,0-.081.054l-.018.026a.128.128,0,0,0,.034.177.127.127,0,0,0,.177-.033h0l.017-.026a.128.128,0,0,0-.034-.177h0a.128.128,0,0,0-.095-.02Zm-1.322,0-.031.013a.127.127,0,0,0-.07.165h0a.127.127,0,0,0,.166.069l.031-.012a.127.127,0,0,0,.07-.166h0a.128.128,0,0,0-.166-.07Zm8.4.011a.126.126,0,0,0-.111.061l-.016.027a.127.127,0,1,0,.217.132h0l.017-.028a.127.127,0,0,0-.044-.174h0a.118.118,0,0,0-.063-.018Zm-.909.025a.122.122,0,0,0-.082.052l-.018.026a.127.127,0,1,0,.208.146l.018-.026a.126.126,0,0,0-.031-.177.122.122,0,0,0-.1-.021Zm-5.244,0a.127.127,0,0,0-.076.06l-.016.028a.127.127,0,1,0,.221.126h0l.017-.028a.128.128,0,0,0-.049-.173h0a.127.127,0,0,0-.1-.012Zm9.685.063a.116.116,0,0,0-.049.01.128.128,0,0,0-.069.068l-.012.03a.127.127,0,0,0,.234.1l.012-.029a.127.127,0,0,0-.067-.167h0a.112.112,0,0,0-.048-.01ZM13.173,12a.14.14,0,0,0-.05,0,.129.129,0,0,0-.076.061l-.015.028a.127.127,0,0,0,.223.123l.016-.028a.127.127,0,0,0-.05-.173A.129.129,0,0,0,13.174,12Zm-2.664,0a.129.129,0,0,0-.086.046l-.02.024a.128.128,0,0,0,.2.164h0l.02-.024a.127.127,0,0,0-.015-.179h0A.13.13,0,0,0,10.511,12ZM6.836,12a.123.123,0,0,0-.087.046l-.02.024a.126.126,0,0,0,.016.179h0a.127.127,0,0,0,.179-.016l.02-.025a.127.127,0,0,0-.016-.179A.13.13,0,0,0,6.835,12Zm8.155.006a.128.128,0,0,0-.1.078l-.012.03a.127.127,0,1,0,.236.095l.012-.029a.128.128,0,0,0-.07-.166.132.132,0,0,0-.065-.008Zm-5.427.026a.128.128,0,0,0-.09.039l-.022.023a.126.126,0,1,0,.18.176l.022-.022a.129.129,0,0,0,0-.18h0a.123.123,0,0,0-.09-.036Zm-.978.016a.131.131,0,0,0-.091.035l-.023.022a.127.127,0,0,0-.011.18h0a.126.126,0,0,0,.179.006h0l.023-.021a.128.128,0,0,0,.01-.18h0a.124.124,0,0,0-.089-.039Zm-.965.014a.127.127,0,0,0-.09.036l-.023.023a.129.129,0,0,0,0,.18h0a.127.127,0,0,0,.18,0h0l.022-.022a.127.127,0,0,0,0-.18h0a.132.132,0,0,0-.09-.038Zm-2.521.06a.129.129,0,0,0-.092.033l-.024.021a.127.127,0,0,0,.17.19l.023-.022a.127.127,0,0,0,.01-.179.132.132,0,0,0-.088-.043Zm7.09.048a.127.127,0,0,0-.114.057l-.01.017-.01.008a.128.128,0,0,0,.034.177h0a.128.128,0,0,0,.177-.034h0l.01-.01.012-.018a.127.127,0,0,0-.036-.177h0a.124.124,0,0,0-.063-.02Zm1.849,0a.125.125,0,0,0-.072.065l-.014.029a.127.127,0,0,0,.061.169h0a.126.126,0,0,0,.169-.061l.014-.028a.127.127,0,0,0-.06-.169.124.124,0,0,0-.1-.005Zm-2.775.007a.128.128,0,0,0-.085.047l-.02.025a.126.126,0,0,0,.021.179h0a.127.127,0,0,0,.179-.021h0l.02-.024a.128.128,0,0,0-.021-.179h0a.128.128,0,0,0-.094-.026Zm-5.206.033a.123.123,0,0,0-.074.062l-.017.028a.128.128,0,0,0,.225.12l.016-.028a.128.128,0,0,0-.052-.172.126.126,0,0,0-.1-.009Zm4.225.047a.129.129,0,0,0-.088.042l-.01.008-.012.013a.129.129,0,0,0,.19.174h0l.015-.016.01-.01a.128.128,0,0,0-.1-.212Zm-.963.019a.124.124,0,0,0-.091.036l-.023.021a.127.127,0,0,0,0,.18h0a.127.127,0,0,0,.18,0h0l.023-.022a.128.128,0,0,0,0-.18h0a.127.127,0,0,0-.09-.04Zm6.45.007a.127.127,0,0,0-.119.077l-.01.02v.007a.127.127,0,1,0,.231.105V12.49l.01-.022a.127.127,0,0,0-.065-.167.121.121,0,0,0-.049-.011Zm-7.439,0a.126.126,0,0,0-.092.033l-.024.021a.127.127,0,1,0,.17.189l.024-.022a.127.127,0,0,0-.078-.222Zm4.655.009a.128.128,0,0,0-.111.06l-.016.027a.127.127,0,0,0,.216.134l.017-.027a.127.127,0,0,0-.042-.175h0a.128.128,0,0,0-.063-.018Zm-5.614.013a.128.128,0,0,0-.09.037h0l-.022.022a.128.128,0,0,0,.18.181h0l.022-.022a.127.127,0,0,0-.091-.217Zm7.505.02a.118.118,0,0,0-.049.008.123.123,0,0,0-.072.066l-.01.021v.008a.127.127,0,0,0,.231.105v-.008l.01-.021a.127.127,0,0,0-.063-.169h0a.13.13,0,0,0-.048-.011Zm-10.034.006a.129.129,0,0,0-.1.014l-.027.016a.128.128,0,0,0-.045.174.126.126,0,0,0,.174.045h0l.027-.016a.128.128,0,0,0,.044-.175h0a.124.124,0,0,0-.078-.058Zm6.2.115a.129.129,0,0,0-.087.044l-.02.024a.128.128,0,0,0,.013.18h0a.128.128,0,0,0,.18-.014h0l.021-.024a.126.126,0,0,0-.014-.179h0a.131.131,0,0,0-.093-.031Zm.917.006a.131.131,0,0,0-.085.048l-.019.026a.127.127,0,0,0,.2.155l.019-.025a.127.127,0,0,0-.116-.2Zm1.925.029a.13.13,0,0,0-.075.063l-.014.026h0a.128.128,0,0,0,.052.173.127.127,0,0,0,.172-.052v0l.014-.028a.127.127,0,0,0-.055-.171h0a.133.133,0,0,0-.1-.009Zm-9.34.013a.124.124,0,0,0-.1,0l-.016.007-.013.005a.127.127,0,0,0-.069.166h0a.127.127,0,0,0,.166.069h0l.013-.006.017-.007a.127.127,0,0,0,.069-.166h0a.126.126,0,0,0-.07-.068Zm1.342,0a.124.124,0,0,0-.086.045l-.02.024a.127.127,0,0,0,.2.164h0L6,12.712A.128.128,0,0,0,5.89,12.5Zm4.157.014a.128.128,0,0,0-.09.037l-.022.023a.127.127,0,0,0,0,.18h0a.129.129,0,0,0,.18,0l.022-.022a.129.129,0,0,0,0-.18.127.127,0,0,0-.09-.038Zm-.978.006a.124.124,0,0,0-.092.032l-.024.021a.127.127,0,0,0,.168.191l.023-.021a.127.127,0,0,0,.011-.18.124.124,0,0,0-.087-.043Zm-1,0a.127.127,0,0,0-.092.031l-.018.016-.01.005a.127.127,0,0,0,.167.192h0l.01-.006.019-.016a.126.126,0,0,0,.012-.179.124.124,0,0,0-.088-.043Zm-.945.036a.132.132,0,0,0-.09.037h0l-.02.021v0a.127.127,0,1,0,.18.179h0v0l.02-.02a.129.129,0,0,0,0-.18h0a.128.128,0,0,0-.09-.037Zm5.676.033a.125.125,0,0,0-.115.054l-.019.026a.126.126,0,0,0,.031.177.128.128,0,0,0,.177-.031l.019-.026a.127.127,0,0,0-.031-.177h0a.136.136,0,0,0-.062-.022Zm2.827.014a.163.163,0,0,0-.049,0,.128.128,0,0,0-.075.062l-.014.028a.126.126,0,0,0,.051.172h0a.127.127,0,0,0,.172-.053h0l.015-.028a.128.128,0,0,0-.052-.172.14.14,0,0,0-.049-.015Zm-.913.04a.13.13,0,0,0-.108.067l-.016.028a.127.127,0,0,0,.052.172h0a.129.129,0,0,0,.173-.051h0l.015-.029a.127.127,0,0,0-.052-.172.132.132,0,0,0-.064-.016Zm-3.9.064a.129.129,0,0,0-.09.038l-.022.023a.129.129,0,0,0,0,.18h0a.13.13,0,0,0,.181,0h0l.022-.022a.127.127,0,0,0,0-.18h0a.132.132,0,0,0-.09-.037Zm.963.022a.127.127,0,0,0-.12.043l-.014.017v0a.128.128,0,0,0,.19.172h0l.01-.007.018-.02a.126.126,0,0,0-.016-.179h0a.129.129,0,0,0-.059-.028Zm-6.117.016a.121.121,0,0,0-.093.028l-.011.009L5.55,12.8a.127.127,0,1,0,.155.2h0l.014-.011.014-.011a.128.128,0,0,0,.018-.179.131.131,0,0,0-.085-.046Zm3.142,0a.127.127,0,0,0-.093.029L8.69,12.8A.127.127,0,1,0,8.854,13h0l.024-.02a.127.127,0,0,0,.016-.179.134.134,0,0,0-.086-.046Zm-1,0a.125.125,0,0,0-.093.029l-.024.021a.126.126,0,0,0-.015.179h0a.128.128,0,0,0,.18.014h0l.024-.021A.127.127,0,0,0,7.9,12.8h0a.123.123,0,0,0-.086-.044Zm1.991.007a.123.123,0,0,0-.091.033l-.019.019a.127.127,0,0,0-.013.179h0a.128.128,0,0,0,.18.014h0v0l.023-.021a.128.128,0,0,0,.01-.18.125.125,0,0,0-.089-.04Zm3.925.031a.127.127,0,0,0-.078.058v0l-.014.024a.127.127,0,1,0,.218.13h0l.014-.022v0a.128.128,0,0,0-.043-.175h0a.129.129,0,0,0-.1-.015Zm-6.847.019a.127.127,0,0,0-.09.04l-.012.013-.01.011a.128.128,0,0,0,.01.18.127.127,0,0,0,.179-.006l.01-.009.012-.013a.128.128,0,0,0,0-.18h0a.127.127,0,0,0-.091-.035Zm5.723.063a.128.128,0,0,0-.119.045l-.011.014-.01.009a.128.128,0,0,0,.2.164h0l.01-.011.012-.015a.127.127,0,0,0-.018-.179.131.131,0,0,0-.06-.027ZM5.4,12.95a.129.129,0,0,0-.1.013l-.028.015a.128.128,0,0,0-.047.174h0A.127.127,0,0,0,5.4,13.2h0l.027-.017a.128.128,0,0,0,.048-.173.132.132,0,0,0-.077-.06Zm9.153,0a.13.13,0,0,0-.113.06l-.012.018v0a.127.127,0,1,0,.211.143h0l.01-.008.014-.022a.126.126,0,0,0-.039-.175h0a.129.129,0,0,0-.063-.019Zm-3.973.007a.129.129,0,0,0-.092.033l-.024.021a.127.127,0,1,0,.17.19l.024-.022a.127.127,0,0,0-.078-.222Zm-2.037.017A.128.128,0,0,0,8.445,13l-.024.02a.127.127,0,0,0-.02.179h0a.127.127,0,0,0,.178.021L8.6,13.2a.127.127,0,0,0-.064-.226Zm-1,0a.13.13,0,0,0-.093.028l-.024.02a.128.128,0,0,0,.161.2h0l.024-.02a.127.127,0,0,0-.068-.225Zm2,.012a.127.127,0,0,0-.093.029l-.011.009-.012.011a.127.127,0,0,0,.163.2l.014-.011.012-.01a.127.127,0,0,0,.014-.18h0a.126.126,0,0,0-.086-.045Zm1.946,0a.129.129,0,0,0-.058.033h0l-.018.017v0a.126.126,0,1,0,.17.187l.01-.005.02-.021a.127.127,0,0,0,0-.18h0a.13.13,0,0,0-.123-.034Zm-4.846.072a.131.131,0,0,0-.092.035l-.023.022a.129.129,0,0,0,0,.18.127.127,0,0,0,.18,0h0l.023-.023a.127.127,0,0,0,0-.179.124.124,0,0,0-.089-.039Zm6.9.017a.125.125,0,0,0-.084.051l-.019.026a.127.127,0,1,0,.205.15l.019-.025a.128.128,0,0,0-.027-.178.131.131,0,0,0-.094-.024ZM5.1,13.11a.125.125,0,0,0-.1,0l-.014.006-.012,0a.127.127,0,0,0,.094.236l.016-.006.018-.007a.127.127,0,0,0,.066-.168h0a.126.126,0,0,0-.07-.068Zm7.284.028a.128.128,0,0,0-.123.034l-.022.023a.127.127,0,1,0,.18.179h0l.022-.023a.127.127,0,0,0,0-.18.136.136,0,0,0-.057-.033Zm-2.061.049a.128.128,0,0,0-.094.026l-.025.02a.127.127,0,0,0-.022.179h0a.127.127,0,0,0,.178.021l.026-.019a.127.127,0,0,0,.021-.179h0a.127.127,0,0,0-.085-.048Zm-2.053,0a.131.131,0,0,0-.094.024l-.024.017h0a.128.128,0,0,0-.029.178h0a.127.127,0,0,0,.178.03h0v0l.025-.018a.128.128,0,0,0,.027-.178.133.133,0,0,0-.083-.051Zm-1,.014a.125.125,0,0,0-.093.027l-.022.019h0a.127.127,0,1,0,.16.2h0v0l.022-.019a.127.127,0,0,0,.02-.179.134.134,0,0,0-.086-.046Zm2,.009a.122.122,0,0,0-.094.026l-.025.019a.127.127,0,0,0,.156.2l.025-.02a.127.127,0,0,0,.022-.178.125.125,0,0,0-.085-.048Zm1.968.02a.131.131,0,0,0-.059.029h0l-.02.018h0a.127.127,0,0,0,.162.2h0v0l.023-.021a.127.127,0,0,0-.108-.22Zm3.083,0a.128.128,0,0,0-.087.043h0l-.019.022a.128.128,0,1,0,.191.169l.02-.023h0a.127.127,0,0,0-.105-.211Zm-7.932.063a.126.126,0,0,0-.094.023l-.026.019a.127.127,0,1,0,.15.205l.025-.018a.127.127,0,0,0,.028-.178.124.124,0,0,0-.083-.051Zm6.943.061a.131.131,0,0,0-.088.042l-.021.024a.127.127,0,1,0,.19.169l.021-.024a.126.126,0,0,0-.011-.179.124.124,0,0,0-.092-.032Zm-1.265.021a.121.121,0,0,0-.06.029l-.024.02a.127.127,0,0,0-.014.18h0a.128.128,0,0,0,.179.014l.024-.021a.128.128,0,0,0,.015-.179.129.129,0,0,0-.121-.043Zm-4.085.015a.126.126,0,0,0-.1.02l-.026.018a.128.128,0,0,0-.034.177h0a.128.128,0,0,0,.176.033l.027-.018a.128.128,0,0,0,.034-.177h0a.124.124,0,0,0-.082-.053Zm2.062.009a.125.125,0,0,0-.1.022l-.01.006-.016.011a.128.128,0,0,0,.145.21h0l.018-.011.01-.007a.129.129,0,0,0,.031-.178.134.134,0,0,0-.083-.052Zm-1.052.015a.133.133,0,0,0-.095.022v0l-.021.015a.128.128,0,0,0-.029.178h0a.127.127,0,0,0,.177.029l.02-.014.01,0a.128.128,0,0,0,.03-.178h0A.13.13,0,0,0,9,13.415ZM7,13.419a.126.126,0,0,0-.094.027l-.025.019a.127.127,0,0,0,.156.2l.025-.019a.127.127,0,0,0,.023-.179h0A.128.128,0,0,0,7,13.419Zm3.971.029a.131.131,0,0,0-.06.027l-.018.012a.127.127,0,0,0-.033.177h0a.128.128,0,0,0,.177.034h0l.026-.018.01-.006a.127.127,0,0,0-.1-.225Zm3.12.032a.123.123,0,0,0-.091.035l-.017.016a.127.127,0,0,0-.011.18h0a.126.126,0,0,0,.179,0h0l.017-.016a.128.128,0,0,0,.01-.18.125.125,0,0,0-.089-.04Zm-2.286.109a.127.127,0,0,0-.062.023l-.026.018a.127.127,0,1,0,.145.209h0l.026-.018a.127.127,0,0,0,.032-.177.128.128,0,0,0-.115-.055Zm1.3.014a.133.133,0,0,0-.091.033l-.01.009-.012.011a.128.128,0,0,0-.013.18h0a.128.128,0,0,0,.18.013h0l.014-.013.012-.01a.127.127,0,0,0-.078-.222Zm-4.394.006a.13.13,0,0,0-.1.017l-.027.017a.127.127,0,0,0-.04.176h0a.128.128,0,0,0,.176.04h0l.027-.018a.127.127,0,0,0,.04-.175.124.124,0,0,0-.08-.056Zm-1.982.015a.125.125,0,0,0-.1.017l-.027.016a.128.128,0,0,0-.04.176h0a.128.128,0,0,0,.176.04h0l.027-.017a.128.128,0,0,0,.041-.176h0a.124.124,0,0,0-.08-.056Zm4,.022a.128.128,0,0,0-.095.02v0l-.019.013a.126.126,0,0,0-.039.175h0a.127.127,0,0,0,.176.038h0l.022-.014.01,0a.126.126,0,0,0,.034-.177h0a.126.126,0,0,0-.081-.054Zm.8.131a.127.127,0,0,0-.063.017l-.015.009-.011.006a.128.128,0,0,0-.049.173h0a.128.128,0,0,0,.173.049h0l.012-.007.018-.01a.127.127,0,0,0-.063-.238Zm-3.107.012a.127.127,0,0,0-.1.012l-.027.016a.127.127,0,1,0,.125.221l.027-.015a.127.127,0,0,0,.05-.173h0a.124.124,0,0,0-.077-.061ZM6.433,13.8a.126.126,0,0,0-.1.009l-.028.015A.127.127,0,0,0,6.255,14h0a.128.128,0,0,0,.172.053l.029-.015a.127.127,0,0,0-.022-.234Zm3.95.015a.136.136,0,0,0-.047.015l-.028.016a.127.127,0,1,0,.123.222l.028-.015a.127.127,0,0,0,.05-.173.124.124,0,0,0-.077-.061.115.115,0,0,0-.049,0Zm2.466.01a.129.129,0,0,0-.1.021l-.026.018a.127.127,0,0,0-.033.177h0a.127.127,0,0,0,.177.032l.026-.018a.127.127,0,0,0,.033-.177h0A.127.127,0,0,0,12.849,13.827Zm-1.625.113a.131.131,0,0,0-.065.01l-.029.013a.128.128,0,0,0,.1.233l.029-.013a.127.127,0,0,0-.038-.243Zm-3.113.015a.13.13,0,0,0-.1.007l-.029.015a.127.127,0,0,0-.057.17h0a.129.129,0,0,0,.171.057h0l.029-.015a.126.126,0,0,0,.057-.17h0a.128.128,0,0,0-.073-.064Zm1.967.011a.141.141,0,0,0-.049.012L10,13.991a.128.128,0,0,0-.064.168h0a.128.128,0,0,0,.169.064h0l.029-.013a.128.128,0,0,0-.008-.235.118.118,0,0,0-.049-.008Zm2.486.053a.124.124,0,0,0-.1.013l-.028.016a.127.127,0,0,0,.128.22h0l.028-.016a.127.127,0,0,0,.045-.174.122.122,0,0,0-.076-.059Zm-1.655.055a.124.124,0,0,0-.066.006l-.03.011a.127.127,0,1,0,.087.239h0l.03-.011a.126.126,0,0,0,.075-.163h0a.125.125,0,0,0-.1-.082Zm-1.13.023a.124.124,0,0,0-.066.006l-.03.011a.127.127,0,0,0-.077.162h0a.128.128,0,0,0,.163.078h0l.03-.011a.128.128,0,0,0,.077-.163h0a.128.128,0,0,0-.1-.083ZM7.8,14.111a.126.126,0,0,0-.1,0l-.029.013a.128.128,0,0,0-.064.168h0a.129.129,0,0,0,.169.064l.029-.014a.127.127,0,0,0,.063-.168A.128.128,0,0,0,7.8,14.11Zm4.464.07a.128.128,0,0,0-.1,0l-.023.011-.01,0a.127.127,0,1,0,.106.231l.01,0,.023-.01a.128.128,0,0,0,.063-.169.131.131,0,0,0-.071-.066Zm-2.816.034a.142.142,0,0,0-.065.006l-.03.011a.126.126,0,0,0-.075.163.127.127,0,0,0,.163.076h0l.03-.011a.127.127,0,0,0,.075-.164.129.129,0,0,0-.1-.081Zm-1.965.037a.133.133,0,0,0-.1,0l-.029.013a.127.127,0,0,0,.1.234l.03-.013a.127.127,0,0,0,.068-.166.133.133,0,0,0-.069-.069Zm4.369.056-.029.01a.128.128,0,0,0,.081.242l.029-.01h0a.127.127,0,1,0-.08-.241Zm-2.732.024a.131.131,0,0,0-.065,0l-.03.01a.127.127,0,0,0-.08.162h0a.127.127,0,0,0,.162.079l.031-.01a.128.128,0,0,0-.017-.246Zm-2.056.049-.02.007a.126.126,0,0,0-.073.164h0a.127.127,0,0,0,.164.074l.021-.007a.128.128,0,0,0,.073-.165h0a.126.126,0,0,0-.164-.073Zm4.461.026-.015,0-.013,0a.127.127,0,0,0-.093.154h0a.126.126,0,0,0,.154.092h0l.017,0,.018,0a.127.127,0,0,0,.089-.156h0a.127.127,0,0,0-.157-.089h0Zm-2.733.035a.123.123,0,0,0-.066,0l-.031.01a.127.127,0,1,0,.075.243h0l.031-.009a.13.13,0,0,0,.083-.16.128.128,0,0,0-.093-.086Zm2.4.042-.031.009a.128.128,0,0,0-.091.156h0a.129.129,0,0,0,.157.09h0l.031-.008a.128.128,0,0,0,.091-.156h0a.126.126,0,0,0-.156-.089Zm2.243.046a.132.132,0,0,0-.049.007l-.031.011a.127.127,0,0,0,.084.24l.03-.01a.127.127,0,0,0,.079-.162h0a.128.128,0,0,0-.113-.086Zm-4.975.012a.114.114,0,0,0-.066,0l-.01,0-.022.006a.127.127,0,0,0-.089.156h0a.127.127,0,0,0,.157.089l.024-.007.01,0a.127.127,0,0,0,.087-.157h0a.126.126,0,0,0-.091-.089Zm2.394.034-.031.009a.127.127,0,0,0-.09.156h0a.127.127,0,0,0,.156.09l.031-.009a.128.128,0,0,0,.09-.156h0a.129.129,0,0,0-.157-.09h0Zm-2.795.056-.031.008a.128.128,0,0,0,.064.247h0l.031-.008a.128.128,0,0,0,.092-.155h0a.128.128,0,0,0-.155-.092h0Zm5.048.005a.132.132,0,0,0-.049,0l-.031.009a.128.128,0,0,0,.073.245l.03-.009a.127.127,0,0,0,.085-.159h0a.127.127,0,0,0-.109-.09Zm-2.59.029-.031.007a.128.128,0,0,0-.091.156h0a.127.127,0,0,0,.155.091l.031-.008a.127.127,0,0,0-.064-.246Zm2.256.07a.12.12,0,0,0-.05,0l-.025.007h0a.127.127,0,0,0-.088.157h0a.127.127,0,0,0,.157.088h.01l.026-.008a.128.128,0,0,0,.087-.157.129.129,0,0,0-.108-.091Zm-2.594.015-.03.007a.127.127,0,1,0,.06.247L10.239,15a.127.127,0,1,0-.06-.247Zm2.259.079a.139.139,0,0,0-.05,0l-.031.008a.127.127,0,0,0-.09.156h0a.126.126,0,0,0,.155.09h0l.03-.009a.127.127,0,0,0-.016-.249Zm-2.6,0-.031.007a.127.127,0,0,0,.058.248l.031-.007a.127.127,0,0,0-.058-.248Zm-.34.075-.031.007a.127.127,0,1,0,.053.249h0l.031-.007a.128.128,0,0,0-.053-.25h0Zm2.6.009a.12.12,0,0,0-.05,0l-.031.006a.127.127,0,0,0-.1.15h0a.127.127,0,0,0,.15.1l.031-.006a.126.126,0,0,0,.1-.149h0a.128.128,0,0,0-.1-.1Zm-2.946.062-.032.006a.127.127,0,0,0-.1.15h0a.127.127,0,0,0,.15.1h0l.031-.006a.128.128,0,0,0,.1-.151h0a.127.127,0,0,0-.15-.1Zm2.6.021a.122.122,0,0,0-.05,0l-.031.008a.127.127,0,0,0-.091.155h0a.128.128,0,0,0,.155.092l.031-.008a.128.128,0,0,0,.091-.156h0A.127.127,0,0,0,11.757,15Zm-.338.088a.139.139,0,0,0-.05,0l-.031.007a.128.128,0,0,0-.092.155h0a.127.127,0,0,0,.155.091h0l.031-.008a.127.127,0,0,0-.015-.249Zm-.339.088a.139.139,0,0,0-.05,0L11,15.187a.128.128,0,0,0,.064.247h0l.031-.008a.128.128,0,0,0,.091-.155.126.126,0,0,0-.105-.094Zm-.336.086a.12.12,0,0,0-.05,0l-.031.007a.127.127,0,0,0-.1.151.129.129,0,0,0,.153.1h0l.031-.007a.127.127,0,0,0-.007-.25Zm-.388.072-.031.006a.127.127,0,1,0,.047.25h0l.031-.006a.127.127,0,1,0-.047-.25Zm-.341.061-.031.005a.127.127,0,0,0-.106.146h0a.127.127,0,0,0,.146.106l.031,0a.128.128,0,0,0,.106-.145h0a.128.128,0,0,0-.146-.106Zm2.233,0a.136.136,0,0,0-.04,0l-.031.009a.128.128,0,0,0,.069.246l.031-.009a.127.127,0,0,0,.089-.157h0a.127.127,0,0,0-.117-.093Zm-.337.094a.133.133,0,0,0-.04,0l-.027.008h0a.127.127,0,0,0-.09.156h0a.126.126,0,0,0,.156.089h0l.029-.008a.127.127,0,0,0,.087-.157.125.125,0,0,0-.116-.093Zm-.336.091a.1.1,0,0,0-.04,0l-.031.008a.128.128,0,0,0-.092.155h0a.128.128,0,0,0,.156.091h0l.03-.009a.128.128,0,0,0,.092-.155h0a.128.128,0,0,0-.117-.1Zm-.337.091a.175.175,0,0,0-.04,0l-.03.008a.127.127,0,0,0-.092.155h0a.127.127,0,0,0,.154.092h0l.031-.008a.127.127,0,0,0,.092-.155h0a.126.126,0,0,0-.115-.1Zm-.369.068-.032.005a.127.127,0,1,0,.035.252h0l.032,0a.127.127,0,0,0,.108-.144h0a.127.127,0,0,0-.143-.109Z"/>
  </g>
</svg>
