<svg xmlns="http://www.w3.org/2000/svg" viewBox="0 0 20 16">
  <defs>
    <style>
      .cls-1 {
        fill-rule: evenodd;
      }
    </style>
  </defs>
  <g id="Icons">
    <path id="path31148" class="cls-1" d="M10.607,0c-.173,0-.26.043-.26.173v.951c0,.13.086.173.216.173h.3a2.466,2.466,0,0,1,2.5,2.29V6.57A2.454,2.454,0,0,0,15.05,8.731c.043.043.086.086.086.129s0,.087-.086.087a2.623,2.623,0,0,0-1.686,2.334v2.593c0,1.123-1.08.82-2.506.82h-.3c-.13,0-.216.044-.216.173v.952c0,.129.129.172.259.172h.389c2.377,0,4.119.216,4.119-1.815V11.453h0a1.805,1.805,0,0,1,1.522-1.815c.475-.13.648-.216.648-.389V8.471c0-.3-.173-.3-.562-.432-.994-.345-1.6-.865-1.6-1.815V3.76A3.891,3.891,0,0,0,11,0ZM4.936.013c-.129,0-.216.044-.216.174V15.823c0,.129.087.172.216.172V16H8.787c.173,0,.216-.086.259-.216v-.917c0-.129-.129-.173-.259-.173H6.713c-.173,0-.26-.042-.26-.172v-13c0-.13.044-.216.26-.216H8.83c.13,0,.216-.043.216-.173V.187c0-.13-.129-.174-.259-.174Zm5.839,5.605a.426.426,0,0,0-.432.389v.952a.4.4,0,0,0,.432.388h.864a.426.426,0,0,0,.433-.388V6.007a.4.4,0,0,0-.433-.389Z"/>
  </g>
</svg>
