<svg xmlns="http://www.w3.org/2000/svg" viewBox="0 0 20 16">
  <defs>
    <style>
      .cls-1 {
        fill-rule: evenodd;
      }
    </style>
  </defs>
  <g id="Icons">
    <path id="semantic-scholar" class="cls-1" d="M20,5.4c-.7.433-1.2.7-1.779,1.034a36.93,36.93,0,0,0-9.375,7.476L7.6,15.423,3.8,9.365a38.818,38.818,0,0,0,3.846,3l2.789-2.115C12.38,8.885,17.885,5.9,20,5.4ZM5.577,9.918c.1.072.168.144.264.217A15.712,15.712,0,0,0,1.9,4.149H0A21.69,21.69,0,0,1,5.577,9.918Zm.625.553c.072.072.168.12.24.192a14.119,14.119,0,0,0-3.2-8.245h-1.8A15.634,15.634,0,0,1,6.2,10.471Zm.5.409c.288.24.577.457.817.625A13.159,13.159,0,0,0,5.962,2.3c2.812-.048,5.625-.072,8.413-.12A12.707,12.707,0,0,1,15.457,6.6c.24-.12.481-.24.745-.361A16.41,16.41,0,0,0,14.808,1H3.293A14.013,14.013,0,0,1,6.707,10.88Z"/>
  </g>
</svg>
