<svg xmlns="http://www.w3.org/2000/svg" viewBox="0 0 20 16">
  <g id="Icons">
    <path id="path10520" d="M10,0a8,8,0,1,0,8,8A8,8,0,0,0,10,0ZM6.75,5.45c1.3,0,2.1.5,2.1,1.45H7.3a.431.431,0,0,0-.55-.45.342.342,0,0,0-.35.35c0,.2.1.35.45.4l.9.25A1.4,1.4,0,0,1,8.9,8.85c0,1-.8,1.55-2.05,1.55-1.3,0-2.2-.6-2.2-1.5h1.6c0,.3.25.45.6.45.2-.05.45-.15.45-.4s-.1-.35-.4-.45l-1-.25A1.345,1.345,0,0,1,4.75,6.9C4.75,6.05,5.55,5.45,6.75,5.45Zm2.85.1h1.45v2L12.5,5.6h1.75l-1.8,2.2,1.8,2.45h-1.8L11.05,8.2v2.05H9.6ZM15.4,8.6a.95.95,0,1,1-.95.95A.95.95,0,0,1,15.4,8.6Z"/>
  </g>
</svg>
