<svg id="ICONS_HERE_" data-name="ICONS HERE!" xmlns="http://www.w3.org/2000/svg" viewBox="0 0 20 16"><path id="sklearn-alt" d="M13.134,2.607A6.93,6.93,0,0,0,8.309,4.741C5.867,7.183,6.573,11.85,7.4,12.679c.67.67,5.5,1.536,7.938-.907.172-.172.334-.35.486-.532a.825.825,0,0,0-.009.119.539.539,0,0,0,.116.352.353.353,0,0,0,.284.142q.369,0,1.043-.653c0,.032,0,.065,0,.1,0,.122.01.307.03.556l.61-.144c0-.166,0-.3.009-.4a4.007,4.007,0,0,1,.055-.431.571.571,0,0,1,.127-.262l.155-.18c.057-.066.11-.125.16-.177s.109-.112.155-.154A1.11,1.11,0,0,1,18.7,10a.218.218,0,0,1,.1-.039c.045,0,.069.03.069.089a1.66,1.66,0,0,1-.13.414,2.768,2.768,0,0,0-.244.9.507.507,0,0,0,.114.348.375.375,0,0,0,.3.13A1.723,1.723,0,0,0,20,11.174v-.318q-.451.534-.654.534c-.09,0-.135-.056-.135-.167a2.037,2.037,0,0,1,.163-.541,2.836,2.836,0,0,0,.237-.873.385.385,0,0,0-.094-.266.3.3,0,0,0-.234-.106.833.833,0,0,0-.473.194,5.336,5.336,0,0,0-.719.7,6.355,6.355,0,0,1,.279-.9l-.674.13a5.439,5.439,0,0,0-.333.895,3.055,3.055,0,0,0-.076.4c-.212.2-.348.328-.409.374a.312.312,0,0,1-.19.067.174.174,0,0,1-.145-.069.293.293,0,0,1-.054-.185,1.054,1.054,0,0,1,.047-.286c.031-.107.1-.311.207-.609L17,9.442l-.061,0c-.08.186-.17.37-.268.552l-.034.061-.045.081c-.021.037-.043.075-.066.113a7.687,7.687,0,0,1-.437.655l-.021.029c-.023.03-.046.061-.07.091s-.06.078-.091.116l-.066.08-.014.017a2.54,2.54,0,0,1,.408-.924,1.541,1.541,0,0,1-.448.146,3.15,3.15,0,0,1-.563.713h0a5.874,5.874,0,0,1-.633.547.657.657,0,0,1-.364.127q-.437,0-.412-.771a2.812,2.812,0,0,1-.51.583.756.756,0,0,1-.482.188.5.5,0,0,1-.413-.228.868.868,0,0,1-.162-.422,3.334,3.334,0,0,1-.6.486,1.2,1.2,0,0,1-.616.164.8.8,0,0,1-.606-.24.816.816,0,0,1-.215-.436v0a4.024,4.024,0,0,1-.658.51,1.086,1.086,0,0,1-.54.164.578.578,0,0,1-.477-.229A.971.971,0,0,1,8.351,11,4.82,4.82,0,0,1,8.6,9.611a8.845,8.845,0,0,1,.61-1.5l.7-.259a.151.151,0,0,1,.05-.011c.053,0,.1.039.13.117a.788.788,0,0,1,.052.316,2.441,2.441,0,0,1-.26,1.091,4.911,4.911,0,0,1-.812,1.127c-.015.192-.022.323-.022.395a.713.713,0,0,0,.088.382.266.266,0,0,0,.235.14.6.6,0,0,0,.318-.107,3.747,3.747,0,0,0,.5-.435,1.6,1.6,0,0,1,.4-.953,1.178,1.178,0,0,1,.9-.474.606.606,0,0,1,.411.133.436.436,0,0,1,.155.348q0,.572-1.215.928c.073.359.266.538.577.538a.678.678,0,0,0,.348-.1,2.964,2.964,0,0,0,.478-.414,1.52,1.52,0,0,1,.216-.607,1.877,1.877,0,0,1,.584-.608,1.2,1.2,0,0,1,.63-.232.489.489,0,0,1,.484.318l.564-.312h.155l-.244.809a3.52,3.52,0,0,0-.188.837c0,.158.056.237.169.237a.377.377,0,0,0,.237-.114c.087-.077.208-.193.365-.35v0a3.817,3.817,0,0,0,.326-.413.336.336,0,0,1-.238-.312.889.889,0,0,1,.145-.455.447.447,0,0,1,.4-.242.193.193,0,0,1,.216.221,1.53,1.53,0,0,1-.125.5c.306-.034.573-.267.8-.7l.19-.009a5.006,5.006,0,0,0-.692-5.61,4.356,4.356,0,0,0-3.113-1.227ZM2.519,7.005a2.529,2.529,0,0,0-1.807.712c-1.126,1.127-.891,3.189.526,4.606a4.243,4.243,0,0,0,4.606.526,4.438,4.438,0,0,0-.526-4.606A4.021,4.021,0,0,0,2.519,7.005Zm10.314.32h.146v.169h-.146Zm.37,0h.146v.68l.346-.351h.19l-.33.32.363.543h-.18l-.286-.442-.1.1v.342H13.2Zm.832,0h.147v.169h-.147Zm.541.027v.3h.148v.114h-.148v.5a.26.26,0,0,0,.008.081.062.062,0,0,0,.025.028.1.1,0,0,0,.05.011.458.458,0,0,0,.065-.006l.021.129a.519.519,0,0,1-.111.013.246.246,0,0,1-.123-.025.146.146,0,0,1-.062-.066.52.52,0,0,1-.018-.173v-.5h-.107V7.654h.107V7.44Zm-3.124.282a.5.5,0,0,1,.177.029.245.245,0,0,1,.114.08.3.3,0,0,1,.051.133l-.143.02a.158.158,0,0,0-.057-.1.205.205,0,0,0-.132-.038.242.242,0,0,0-.144.034.1.1,0,0,0-.043.078.079.079,0,0,0,.018.051.127.127,0,0,0,.056.039c.015,0,.058.018.129.037a1.732,1.732,0,0,1,.217.069.215.215,0,0,1,.1.076.209.209,0,0,1,.035.125.242.242,0,0,1-.043.138.27.27,0,0,1-.122.1.446.446,0,0,1-.183.035.4.4,0,0,1-.256-.07.325.325,0,0,1-.113-.207l.145-.023a.2.2,0,0,0,.068.134.236.236,0,0,0,.156.046.223.223,0,0,0,.149-.041.12.12,0,0,0,.049-.1.088.088,0,0,0-.043-.078.625.625,0,0,0-.15-.05,1.366,1.366,0,0,1-.223-.07A.217.217,0,0,1,11.166,8a.214.214,0,0,1-.032-.116.217.217,0,0,1,.026-.107.247.247,0,0,1,.072-.082.288.288,0,0,1,.093-.042.433.433,0,0,1,.127-.018Zm.9,0a.355.355,0,0,1,.23.072.322.322,0,0,1,.114.2l-.142.022a.232.232,0,0,0-.072-.131.187.187,0,0,0-.125-.044.227.227,0,0,0-.179.08.375.375,0,0,0-.069.25.391.391,0,0,0,.066.253.217.217,0,0,0,.174.079.2.2,0,0,0,.144-.053.256.256,0,0,0,.073-.162l.144.018a.372.372,0,0,1-.121.234.354.354,0,0,1-.238.083.372.372,0,0,1-.285-.115.471.471,0,0,1-.108-.332A.6.6,0,0,1,12,7.844a.321.321,0,0,1,.14-.157.425.425,0,0,1,.207-.053Zm.484.02h.146v.863h-.146Zm1.2,0h.147v.863h-.147ZM9.829,8.16q-.1,0-.3.509a9.589,9.589,0,0,0-.383,1.425,3.394,3.394,0,0,0,.57-.874,2.1,2.1,0,0,0,.218-.833.377.377,0,0,0-.031-.164C9.886,8.181,9.86,8.16,9.829,8.16Zm3.884,1.5c-.184,0-.359.157-.523.47a1.877,1.877,0,0,0-.248.865.375.375,0,0,0,.074.241.225.225,0,0,0,.186.093c.184,0,.357-.157.521-.471a1.906,1.906,0,0,0,.244-.869.376.376,0,0,0-.069-.241A.223.223,0,0,0,13.713,9.657Zm-2.373.006c-.122,0-.237.093-.348.278a1.388,1.388,0,0,0-.166.722c.471-.133.707-.377.707-.735C11.533,9.751,11.469,9.663,11.34,9.663Z"/></svg>