<svg xmlns="http://www.w3.org/2000/svg" viewBox="0 0 20 16">
  <g id="Icons">
    <path id="springer" d="M8.977,0A2.413,2.413,0,0,0,8.69.014a7.721,7.721,0,0,1,.023.948A1.442,1.442,0,0,0,7.223.691l.226,1.536-.632.88-.61.226L5.8,4.552,3.52,7.645a.275.275,0,0,0-.023.113.346.346,0,0,0,.068.158L5.01,9.588l.543-.452-.023.677H7.178a3.466,3.466,0,0,1,1.58-2.438h1.31C8.939,9.091,6.907,9.881,6.749,12h-.9v.654H16.5V12h-.947c.112-.52.2-1.016.292-1.513h.023a.353.353,0,0,0,.362-.339.365.365,0,0,0-.317-.361c.045-.5.067-1.017.067-1.491a.367.367,0,0,0,.338-.36.352.352,0,0,0-.361-.339c-.045-.5-.113-.971-.2-1.445A.327.327,0,0,0,16,5.817a.332.332,0,0,0-.338-.339.132.132,0,0,0-.09.023,6.374,6.374,0,0,0-.542-1.333.3.3,0,0,0,.18-.293.352.352,0,0,0-.361-.339.429.429,0,0,0-.158.045A5.883,5.883,0,0,0,13.7,2.475a.276.276,0,0,0,.068-.2.333.333,0,0,0-.339-.339.321.321,0,0,0-.271.136,6.5,6.5,0,0,0-1.332-.632v-.09a.333.333,0,0,0-.338-.339.364.364,0,0,0-.339.248,7.782,7.782,0,0,0-.813-.113A1.338,1.338,0,0,0,8.976,0Zm.368.714c.542.339.5,1.874.474,2.1l.655.112s.023-.225.023-.5a5.406,5.406,0,0,0-.023-.587c4.177.5,5.713,4.787,4.4,10.183H7.426A3.352,3.352,0,0,1,8.6,9.949c1.6-1.581,2.891-2.6,2.891-5.171h-.655a4.662,4.662,0,0,1-.407,1.964l-1.693.023-.474-.587-.5.429.339.407A4.43,4.43,0,0,0,6.636,9.181H6.162V8.074l-.2-.134-.88.744-.791-.948,2.1-2.89.338-.971,1.2-.406-.181-.52.384-.564L7.968,1.279a.911.911,0,0,1,.587.948l.61.112A8.458,8.458,0,0,0,9.345.714ZM8.036,4.123l-1.062.113.069.836L8.058,4.53ZM5.055,7.014a1.491,1.491,0,0,1-.248.812l.474.181a1.753,1.753,0,0,0,.181-.971Zm.791,7.676V16H16.5V14.69Z"/>
  </g>
</svg>
