<svg xmlns="http://www.w3.org/2000/svg" viewBox="0 0 20 16">
  <g id="Icons">
    <path id="springer-nature" d="M2,0V13.476C2,14.815,2.622,16,4.09,16a2.9,2.9,0,0,0,.734-.094L18,12.048V0ZM6.509,3.048a3.918,3.918,0,0,1,2.037.569l-.56,1.126a3.33,3.33,0,0,0-1.358-.382.676.676,0,0,0-.725.7c0,.427.466.647,1.006.9.783.37,1.758.831,1.758,2.116a2.065,2.065,0,0,1-2.319,2.17,4.275,4.275,0,0,1-2.222-.622l.561-1.207a3.468,3.468,0,0,0,1.531.464c.526,0,.879-.268.879-.668,0-.464-.491-.711-1.059-1-.784-.394-1.761-.883-1.761-2.149A1.963,1.963,0,0,1,6.509,3.048Zm3.236.065h1.8L13.81,8V3.113h1.422v7H13.41L11.159,5.283v4.832H9.745Z"/>
  </g>
</svg>
