<svg xmlns="http://www.w3.org/2000/svg" viewBox="0 0 20 16">
  <g id="Icons">
    <path id="path34422" d="M2.572,4.035a2.129,2.129,0,0,0-2.4,2,1.8,1.8,0,0,0,.509,1.3A3.821,3.821,0,0,0,2.4,8.255,4.341,4.341,0,0,1,3.764,8.8a1.393,1.393,0,0,1,.549,1.085,1.676,1.676,0,0,1-1.794,1.527A2.374,2.374,0,0,1,.9,10.786,2.761,2.761,0,0,1,.228,9.648C.2,9.581.175,9.541.121,9.541S0,9.607,0,9.7a3.107,3.107,0,0,0,.147.71c.08.282.134.469.134.5.08.4.094.415.2.509a3.682,3.682,0,0,0,1.728.415A2.411,2.411,0,0,0,4.849,9.487c0-1.005-.656-1.728-2.009-2.17S1.42,6.835,1.112,6.5A1.229,1.229,0,0,1,.79,5.656,1.288,1.288,0,0,1,2.2,4.41,2.233,2.233,0,0,1,4.34,5.776c.067.215.094.255.174.255.053,0,.107-.067.107-.161,0-.04-.013-.134-.027-.241-.147-.911-.161-.951-.174-1.112,0-.187-.04-.268-.134-.268a.11.11,0,0,0-.054.027c-.134.107-.147.121-.214.121A.434.434,0,0,1,3.91,4.37a2.665,2.665,0,0,0-1.339-.335Zm4.381.027A2.352,2.352,0,0,0,4.782,5.147l.082.549a1.017,1.017,0,0,1,.012.161.411.411,0,0,1-.308.415,1.724,1.724,0,0,0,.509,1.072,3.831,3.831,0,0,0,1.715.924,4.957,4.957,0,0,1,1.366.549A1.376,1.376,0,0,1,8.708,9.9a1.677,1.677,0,0,1-1.795,1.527A2.374,2.374,0,0,1,5.292,10.8a2.376,2.376,0,0,1-.322-.4,3.4,3.4,0,0,1-.281.536c.08.375.094.4.2.482a3.682,3.682,0,0,0,1.728.415A2.419,2.419,0,0,0,9.257,9.487C9.23,8.509,8.56,7.8,7.208,7.344s-1.434-.483-1.729-.818a1.231,1.231,0,0,1-.321-.844A1.279,1.279,0,0,1,6.564,4.437,2.248,2.248,0,0,1,8.708,5.8c.066.214.107.255.174.255s.107-.067.107-.161c0-.04-.013-.121-.027-.241-.148-.911-.161-.951-.175-1.112,0-.188-.04-.268-.134-.268A.069.069,0,0,0,8.6,4.3c-.133.107-.147.12-.214.12A.621.621,0,0,1,8.278,4.4a2.483,2.483,0,0,0-1.326-.335Zm3.884.147c-.254,0-.535.013-.817.027-.6.04-.6.04-.884.04H9.029a.669.669,0,0,1,.04.254c.013.108.014.161.094.6l.094.59a.937.937,0,0,1,.013.16.421.421,0,0,1-.121.308V8.3A2.058,2.058,0,0,1,9.511,9.5a2.488,2.488,0,0,1-.4,1.38c-.067.482-.241.6-.683.737-.107.027-.134.04-.134.107s.04.107.147.107c.04,0,.175-.013.282-.027a5.938,5.938,0,0,1,.737-.04c.522,0,1.1.014,1.232.04s.268.027.335.027c.094,0,.174-.04.174-.107s-.067-.107-.2-.121c-.777-.08-1.032-.361-1-1.125V8.495c.013-.187.04-.214.322-.2h.6a.394.394,0,0,1,.428.227.63.63,0,0,1,.067.121l1.353,2.076c.55.844,1.032,1.166,1.7,1.166.4,0,.777-.107.777-.215a.089.089,0,0,0-.094-.08c-.576.014-.965-.308-1.648-1.353L11.976,8.013A2.15,2.15,0,0,0,13.342,6.1a1.756,1.756,0,0,0-.67-1.434,2.9,2.9,0,0,0-1.835-.455Zm9,.094c-.067,0-.147.013-.268.027a2.421,2.421,0,0,1-.5.04c-.322,0-.858-.027-1.059-.04l-.241-.014c-.107,0-.161.041-.161.107s.041.121.161.148c1.045.147,1.139.388,1.112,2.947v2.625c0,.175-.013.215-.067.2-.027,0-.067-.04-.147-.134L13.637,4.477a.351.351,0,0,0-.294-.161,1.046,1.046,0,0,0-.188.014h-.094c-.027,0-.268,0-.429-.014.067.04.134.094.2.134A2.052,2.052,0,0,1,13.61,6.1a2.114,2.114,0,0,1-.027.308V9.889l.134.2c.121.174.214.321.308.455V6.62c0-.187.027-.241.107-.241.054,0,.067.014.134.08l4.622,5.305c.174.2.174.2.255.2.133,0,.173-.08.173-.321v-.107c.013-.322.014-.818.014-1.514V6.459l.013-.348c-.013-1.326.04-1.46.55-1.594.08-.013.107-.04.107-.094s-.067-.12-.161-.12Zm-9.3.281a2.145,2.145,0,0,1,1.367.456,1.814,1.814,0,0,1,.616,1.366,1.391,1.391,0,0,1-1.54,1.473h-.616c-.362-.013-.389-.04-.389-.388V5.267c0-.375,0-.415.067-.509a.591.591,0,0,1,.495-.174Z"/>
  </g>
</svg>
