<svg xmlns="http://www.w3.org/2000/svg" viewBox="0 0 20 16">
  <g id="Icons">
    <path d="M9.4,5.52c0,.26-.2.38-.44.38H8.42V5.14h.54C9.2,5.14,9.4,5.26,9.4,5.52ZM20,10.64v1a1.541,1.541,0,0,1-1.52,1.56h-2.3a1.541,1.541,0,0,1-1.52-1.56v-.62a1.921,1.921,0,0,0-1.9-1.94H1.9A1.908,1.908,0,0,1,0,7.14V4.74A1.921,1.921,0,0,1,1.9,2.8H12.76a1.908,1.908,0,0,1,1.9,1.94v2.4a1.921,1.921,0,0,0,1.9,1.94h1.92A1.541,1.541,0,0,1,20,10.64ZM3.96,6.54a.843.843,0,0,0-.66-.82l-.52-.16c-.22-.06-.32-.12-.32-.26s.22-.22.4-.22a1.459,1.459,0,0,1,.5.1.992.992,0,0,0,.26.06.264.264,0,0,0,.26-.3c0-.3-.54-.46-1.02-.46-.6,0-1.04.34-1.04.84a.8.8,0,0,0,.62.76l.46.14c.24.08.42.14.42.28-.04.2-.28.3-.48.3a1.618,1.618,0,0,1-.54-.1.706.706,0,0,0-.28-.06.268.268,0,0,0-.28.3c0,.3.6.46,1.12.46C3.48,7.4,3.96,7.06,3.96,6.54Zm3.1-1.72a.278.278,0,0,0-.32-.32.285.285,0,0,0-.32.32V6.06a.625.625,0,1,1-1.24,0V4.82a.278.278,0,0,0-.32-.32.285.285,0,0,0-.32.32V6.06a1.262,1.262,0,1,0,2.52,0ZM9.62,6.3a.824.824,0,0,0,.44-.78.972.972,0,0,0-1.02-1h-.9a.285.285,0,0,0-.32.32v2.2a.278.278,0,0,0,.32.32.285.285,0,0,0,.32-.32V6.46H9l.32.68a.269.269,0,0,0,.26.2c.16,0,.36-.12.36-.3a.584.584,0,0,0-.04-.18Zm3.24-1.48a.265.265,0,0,0-.3-.3H11.04a.285.285,0,0,0-.32.32v2.2a.278.278,0,0,0,.32.32.285.285,0,0,0,.32-.32v-.7c0,.02.76.02.76.02a.265.265,0,0,0,.3-.3.28.28,0,0,0-.3-.32h-.76v-.6h1.2C12.76,5.14,12.86,5.04,12.86,4.82Z"/>
  </g>
</svg>
