<svg xmlns="http://www.w3.org/2000/svg" width="20" height="16" viewBox="0 0 20 16"><g id="Icons"><path d="M9.74,1.965H8.412V1.482H9.74V0h.52V1.482h1.361v.483H10.26v1.48H9.74ZM5.4,6.566h.746V4.377H8.186V3.7H6.145V1.546H5.4V3.7H3.389v.676H5.4Zm8.426,0H14.6V4.411h2.01V3.7H14.6V1.546h-.776V3.7H11.814v.71h2.011Zm-3.372,4.251V8.4H12.69V7.5H10.453V5.087H9.547V7.5H7.31v.9H9.547v2.415Zm6.352-3.155V6.149h-.68V7.662H14.764v.613h1.361V9.787h.68V8.275h1.361V7.662Zm-13.123,2V8.208L5.043,8.16V7.7H3.682V6.246h-.52V7.7H1.834v.513H3.162V9.657ZM6.175,9.3H5.4V11.46H3.389v.709H5.4v2.156h.776V12.169H8.186V11.46H6.175Zm8.426,0h-.776V11.46H11.814v.676h2.011v2.189H14.6V12.136h2.01V11.46H14.6Zm-4.245,3.058H9.677v1.513H8.315v.613H9.677V16h.679V14.488h1.362v-.613H10.356Z"/></g></svg>