<svg xmlns="http://www.w3.org/2000/svg" viewBox="0 0 20 16">
  <g id="Icons">
    <path id="twitter" d="M16.361,4.736c.01.141.01.282.01.425A9.276,9.276,0,0,1,7.032,14.5v0A9.287,9.287,0,0,1,2,13.026a6.593,6.593,0,0,0,4.857-1.36,3.287,3.287,0,0,1-3.066-2.28A3.27,3.27,0,0,0,5.274,9.33,3.284,3.284,0,0,1,2.641,6.112V6.071a3.254,3.254,0,0,0,1.49.41A3.285,3.285,0,0,1,3.115,2.1,9.317,9.317,0,0,0,9.879,5.528a3.286,3.286,0,0,1,5.594-2.994,6.56,6.56,0,0,0,2.084-.8,3.291,3.291,0,0,1-1.443,1.816A6.525,6.525,0,0,0,18,3.036a6.636,6.636,0,0,1-1.638,1.7Z"/>
  </g>
</svg>
