<svg xmlns="http://www.w3.org/2000/svg" viewBox="0 0 20 16">
  <defs>
    <style>
      .cls-1 {
        fill-rule: evenodd;
      }
    </style>
  </defs>
  <g id="Icons">
    <path class="cls-1" d="M17,1.57h0l-.923-.538a.052.052,0,0,0-.051,0L12.241,3.16a.051.051,0,0,0-.026.045l0,6.661a4.182,4.182,0,0,1-.086.83,4.085,4.085,0,0,1-.243.771c-.02.046-.041.092-.062.138l-.01.02-.022,0c-.064-.008-.106-.016-.219-.037l-.029-.006a3.9,3.9,0,0,1-1.295-.555,3.688,3.688,0,0,1-.99-.992,3.614,3.614,0,0,1-.547-1.306A3.515,3.515,0,0,1,8.656,8V1.609a.051.051,0,0,0-.025-.044l-.922-.557A.05.05,0,0,0,7.682,1a.045.045,0,0,0-.025.007L3,3.667a.051.051,0,0,0-.026.044l0,6.127A5.162,5.162,0,0,0,8.127,15h.015a5.189,5.189,0,0,0,2.576-.684l3.768-2.157a4.67,4.67,0,0,0,2.54-4.146v-6.4A.051.051,0,0,0,17,1.57ZM11.182,12.6a1.631,1.631,0,0,1-.148.175,4.166,4.166,0,0,1-.614.5,4.089,4.089,0,0,1-.7.377h0a4.138,4.138,0,0,1-.776.237,3.824,3.824,0,0,1-.779.082H8.138a4.291,4.291,0,0,1-.834-.087,4.084,4.084,0,0,1-.774-.242,4.167,4.167,0,0,1-.7-.381,4.237,4.237,0,0,1-.611-.5,4.145,4.145,0,0,1-.5-.612,4.081,4.081,0,0,1-.379-.7,3.987,3.987,0,0,1-.238-.772,4.135,4.135,0,0,1-.064-.831V4.279L4.05,4.27,7.594,2.211l0,5.773a4.724,4.724,0,0,0,3.569,4.565l.047.011ZM15.964,8.01a3.722,3.722,0,0,1-.072.737,3.6,3.6,0,0,1-.216.684,3.691,3.691,0,0,1-1.335,1.605,3.743,3.743,0,0,1-.624.335,3.324,3.324,0,0,1-.687.21l-.03.005-.051.009.017-.049a5.07,5.07,0,0,0,.312-1.676v-6.1l2.686-1.536Z"/>
  </g>
</svg>
