<svg xmlns="http://www.w3.org/2000/svg" viewBox="0 0 20 16">
  <defs>
    <style>
      .cls-1 {
        fill: #191919;
      }
    </style>
  </defs>
  <g id="Icons">
    <path class="cls-1" d="M19.966,6.678a1.892,1.892,0,0,0-.389-.573A1.806,1.806,0,0,0,19,5.722a1.817,1.817,0,0,0-1.4,0,1.886,1.886,0,0,0-.3.164,1.949,1.949,0,0,0-.269.219,1.98,1.98,0,0,0-.144.16,2.2,2.2,0,0,0-.135.2,2.142,2.142,0,0,0-.171.386,1.5,1.5,0,0,1,.171-.748V4.477a.356.356,0,0,0-.115-.269A.376.376,0,0,0,16,4.477V5.921a1.987,1.987,0,0,0-.493-.249,1.7,1.7,0,0,0-.553-.09,1.763,1.763,0,0,0-.7.14,1.794,1.794,0,0,0-.574.383,1.851,1.851,0,0,0-.387.573c-.008.016-.014.033-.021.049-.006-.016-.013-.033-.02-.049a1.856,1.856,0,0,0-.389-.573,1.79,1.79,0,0,0-.572-.383,1.767,1.767,0,0,0-.7-.14,1.749,1.749,0,0,0-.7.14,1.846,1.846,0,0,0-.573.383,1.74,1.74,0,0,0-.388.573c-.007.015-.013.031-.019.047l-.019-.047a1.871,1.871,0,0,0-.388-.573,1.806,1.806,0,0,0-.573-.383,1.82,1.82,0,0,0-1.4,0,1.841,1.841,0,0,0-.572.383,1.742,1.742,0,0,0-.389.573l-.017.043-.018-.043a1.874,1.874,0,0,0-.389-.573,1.8,1.8,0,0,0-.572-.383,1.767,1.767,0,0,0-.7-.14,1.749,1.749,0,0,0-.7.14,1.842,1.842,0,0,0-.535.348V6.01a.385.385,0,0,0-.385-.385H.554a.385.385,0,1,0,0,.77H2.677L.186,9.75a.387.387,0,0,0-.076.23v.251a.386.386,0,0,0,.386.386H3.372a.386.386,0,0,0,.384-.357,1.821,1.821,0,0,0,.425.252,1.746,1.746,0,0,0,.7.14,1.727,1.727,0,0,0,1-.3,1.8,1.8,0,0,0,.558-.6v.52a.376.376,0,0,0,.379.379.37.37,0,0,0,.263-.11.356.356,0,0,0,.115-.269V8.923h0v0H6.244a.365.365,0,0,0-.214.065A.347.347,0,0,0,5.9,9.16l-.062.127a1.035,1.035,0,0,1-.956.607,1.057,1.057,0,0,1-.4-.079.968.968,0,0,1-.333-.224,1.145,1.145,0,0,1-.224-.334.967.967,0,0,1-.084-.4V8.521H7.189V7.375a1,1,0,0,1,.08-.4,1.038,1.038,0,0,1,.224-.334,1.037,1.037,0,0,1,.741-.3,1.055,1.055,0,0,1,.4.08.977.977,0,0,1,.334.224,1.165,1.165,0,0,1,.224.334.971.971,0,0,1,.085.4v2.9a.377.377,0,0,0,.642.269.359.359,0,0,0,.114-.269v-.52a1.89,1.89,0,0,0,.287.376,1.806,1.806,0,0,0,.573.383,1.82,1.82,0,0,0,1.395,0,1.87,1.87,0,0,0,.577-.383,1.74,1.74,0,0,0,.388-.573l.015-.039.016.039a1.74,1.74,0,0,0,.388.573,1.864,1.864,0,0,0,.573.383,1.83,1.83,0,0,0,1.4,0,1.79,1.79,0,0,0,.572-.383,1.856,1.856,0,0,0,.389-.573l.02-.049c.007.017.013.033.02.049a1.856,1.856,0,0,0,.389.573,1.79,1.79,0,0,0,.572.383,1.82,1.82,0,0,0,1.395,0,1.858,1.858,0,0,0,.577-.383,1.758,1.758,0,0,0,.389-.573,1.781,1.781,0,0,0,.139-.7V7.375A1.736,1.736,0,0,0,19.966,6.678ZM1.075,9.846,3.092,7.13a1.8,1.8,0,0,0-.016.245V8.859a1.7,1.7,0,0,0,.144.7,1.967,1.967,0,0,0,.158.29h-2.3ZM5.923,7.763H3.832V7.375a1,1,0,0,1,.08-.4,1.038,1.038,0,0,1,.966-.638,1.05,1.05,0,0,1,.4.08.968.968,0,0,1,.334.224,1.165,1.165,0,0,1,.224.334.954.954,0,0,1,.084.4Zm6.716,1.1a1.013,1.013,0,0,1-.079.4A1.04,1.04,0,0,1,12,9.815a1.041,1.041,0,0,1-.408.079,1.057,1.057,0,0,1-.4-.079.959.959,0,0,1-.333-.224,1.145,1.145,0,0,1-.224-.334.967.967,0,0,1-.084-.4V7.375a1.017,1.017,0,0,1,.079-.4,1.038,1.038,0,0,1,.966-.638,1.053,1.053,0,0,1,.4.08.968.968,0,0,1,.334.224,1.165,1.165,0,0,1,.224.334.97.97,0,0,1,.084.4Zm3.357,0a.967.967,0,0,1-.084.4,1.155,1.155,0,0,1-.225.334.95.95,0,0,1-.333.224,1.083,1.083,0,0,1-.812,0,1.018,1.018,0,0,1-.333-.224,1.041,1.041,0,0,1-.225-.334,1.013,1.013,0,0,1-.079-.4V7.375a.97.97,0,0,1,.084-.4,1.186,1.186,0,0,1,.224-.334.987.987,0,0,1,.334-.224,1.058,1.058,0,0,1,.4-.08,1.045,1.045,0,0,1,.408.08,1.048,1.048,0,0,1,.558.558,1.017,1.017,0,0,1,.079.4V8.859Zm3.357,0a1.014,1.014,0,0,1-.08.4,1.04,1.04,0,0,1-.558.558,1.041,1.041,0,0,1-.408.079,1.061,1.061,0,0,1-.4-.079.968.968,0,0,1-.333-.224,1.145,1.145,0,0,1-.224-.334.952.952,0,0,1-.085-.4V7.375a1.018,1.018,0,0,1,.08-.4,1.038,1.038,0,0,1,.224-.334,1.028,1.028,0,0,1,.334-.224,1.068,1.068,0,0,1,.811,0,.968.968,0,0,1,.334.224,1.165,1.165,0,0,1,.224.334.97.97,0,0,1,.084.4V8.859Z"/>
  </g>
</svg>
