<?xml version="1.0" standalone="no"?>
<!DOCTYPE svg PUBLIC "-//W3C//DTD SVG 1.1//EN" "http://www.w3.org/Graphics/SVG/1.1/DTD/svg11.dtd" >
<svg xmlns="http://www.w3.org/2000/svg">
<metadata>Generated by IcoMoon</metadata>
<defs>
<font id="icomoon" horiz-adv-x="1024">
<font-face units-per-em="1024" ascent="960" descent="-64" />
<missing-glyph horiz-adv-x="1024" />
<glyph unicode="&#x20;" horiz-adv-x="512" d="" />
<glyph unicode="&#xe900;" glyph-name="acm" d="M512.002 857.609l-409.606-409.606 409.606-409.607 409.606 409.607zM511.991 699.14c138.713 0 251.154-112.435 251.154-251.137 0-138.719-112.441-251.137-251.154-251.137-138.69 0-251.121 112.419-251.121 251.137 0 138.702 112.43 251.137 251.121 251.137zM512.002 674.039c-124.824 0-226.037-101.202-226.037-226.037 0-124.852 101.213-226.004 226.037-226.004 124.846 0 226.020 101.152 226.020 226.004 0 124.835-101.174 226.037-226.020 226.037zM360.516 504.52c18.756 0 32.428-3.137 40.984-9.384 8.556-6.222 12.85-15.75 12.85-28.55v-74.118h-33.967v11.517c-2.304-1.925-4.4-3.655-6.217-5.183-1.845-1.577-4.311-3.132-7.4-4.667-3.022-1.468-5.967-2.6-8.834-3.333-2.867-0.735-6.878-1.133-12.034-1.133-9.6 0-17.567 3.217-23.9 9.684-6.356 6.445-9.517 14.578-9.517 24.4 0 8.111 1.594 14.6 4.817 19.584 3.222 4.978 7.873 8.906 13.917 11.817 6.134 2.954 13.422 5.022 21.934 6.2 8.511 1.155 17.65 2.072 27.45 2.717v0.584c0 6-2.233 10.128-6.633 12.417-4.422 2.3-11.022 3.45-19.867 3.45-3.978 0-8.644-0.736-14-2.2-5.333-1.468-10.561-3.333-15.65-5.6h-2.883v26.35c3.356 0.977 8.772 2.118 16.284 3.45 7.489 1.332 15.045 2 22.667 2zM487.885 504.304c6.022 0 12.045-0.701 18.067-2.1 6.022-1.368 12.061-3.6 18.15-6.633v-29.117h-4.383c-1.355 1.29-3.006 2.712-4.983 4.267s-4.133 2.994-6.467 4.283c-2.445 1.368-5.245 2.505-8.333 3.45-3.112 0.932-6.578 1.4-10.4 1.4-8.689 0-15.411-3.005-20.167-9.050-4.756-6.022-7.134-14.117-7.134-24.317 0-10.894 2.543-19.017 7.633-24.35s11.811-8.050 20.234-8.050c4.267 0 8.023 0.509 11.267 1.467 3.244 0.932 6.033 2.115 8.367 3.45 2.267 1.355 4.194 2.732 5.817 4.2 1.622 1.422 3.011 2.732 4.167 3.867h4.383v-29c-1.954-0.845-4.194-1.804-6.75-2.917-2.554-1.067-5.155-1.948-7.8-2.683-3.311-0.913-6.411-1.599-9.3-2.067-2.867-0.468-6.672-0.75-11.384-0.75v0.011c-9 0-17.25 1.132-24.717 3.4-7.467 2.222-13.962 5.733-19.45 10.467-5.445 4.689-9.689 10.6-12.734 17.734s-4.55 15.523-4.55 25.217c0 10.4 1.639 19.25 4.95 26.55 3.289 7.278 7.756 13.278 13.4 18 5.422 4.511 11.811 7.872 19.167 10.017 7.356 2.155 14.995 3.25 22.95 3.25zM608.154 504.304c6.667 0 12.512-1.584 17.534-4.75 5.045-3.167 8.889-7.884 11.533-14.15 6.534 6.066 12.689 10.733 18.467 14s11.65 4.9 17.584 4.9c5.045 0 9.55-0.82 13.55-2.433 4.022-1.622 7.406-4.033 10.183-7.267 3.045-3.489 5.306-7.645 6.817-12.467 1.535-4.811 2.283-11.1 2.283-18.834v-70.851l-33.951 0.011v54.417c0 5.355-0.139 9.894-0.3 13.584-0.193 3.667-0.773 6.683-1.75 9.017-0.977 2.312-2.49 4.028-4.533 5.083-2.045 1.077-4.905 1.617-8.617 1.617-2.577 0-5.156-0.584-7.667-1.683-2.535-1.155-5.306-2.767-8.283-4.833v-77.201h-33.967v54.417c0 5.289-0.13 9.8-0.333 13.534-0.258 3.711-0.823 6.733-1.8 9.067-0.977 2.312-2.49 4.028-4.533 5.083-2.045 1.077-4.878 1.6-8.5 1.6-2.777 0-5.517-0.63-8.183-1.917-2.667-1.309-5.273-2.84-7.783-4.583v-77.201h-33.951v108.802h33.951v-12c5.533 4.733 10.789 8.406 15.7 11.050 4.911 2.667 10.417 3.983 16.55 3.983zM380.4 443.52c-5.711-0.577-10.322-1.1-13.834-1.5-3.533-0.422-6.989-1.244-10.367-2.467-2.954-1.029-5.256-2.572-6.9-4.683-1.622-2.067-2.45-4.872-2.45-8.317 0-5.089 1.388-8.556 4.1-10.467 2.713-1.89 6.734-2.817 12.067-2.817 2.932 0 5.928 0.668 9.017 2 3.067 1.332 5.856 3.261 8.367 5.683z" />
<glyph unicode="&#xe901;" glyph-name="arxiv" d="M246.2 870c-23.547-1.253-44.813-15.817-54.2-37.7v-0.4c-4.479-10.728-5.635-24.603-2.3-35.9s8.848-19.559 15.5-29.1l0.8-1.2 209.3-253.8-28.1-25.4c-13.095-12.676-21.223-30.414-21.223-50.050s8.129-37.374 21.204-50.032l0.019-0.018 28.5-27.4-134.9-165.9c-17.581-18.18-24.028-44.505-17-68.8l0.4-1.5 0.4-1.1c9.796-23.803 33.161-39.527 58.9-39.3h0.4c16.127 0.339 31.44 7.475 42.3 19.3l0.2 0.2 160.8 149.6 224.9-216.7c5.69-5.92 13.676-9.599 22.521-9.599 0.873 0 1.737 0.036 2.591 0.106l-0.112-0.007c14.633 0.232 27.069 9.392 32.118 22.262l0.082 0.238c1.004 3.444 1.581 7.401 1.581 11.492 0 11.859-4.851 22.586-12.676 30.303l-0.005 0.005-193.8 233.6 49.1 45.7c39.55 35.588 39.399 98.445 0 134.2l-46.8 45 129.7 152.4c11.914 15.863 17.536 24.2 11.9 37.7-6.094 14.311-19.678 24.339-35.697 25.196l-0.103 0.004c-0.55 0.034-1.192 0.053-1.839 0.053-8.596 0-16.404-3.372-22.174-8.865l0.013 0.013-154-137.3-238.2 228.6c-10.724 12.263-25.145 20.732-41.2 23.8l-2.2 0.3h-1.9c-1.587 0.037-3.23 0.084-4.8 0zM250.3 844.3c11.413-2.23 21.141-8.269 28.032-16.714l0.068-0.086 358-343.4c13.12-11.926 21.323-29.060 21.323-48.11 0-19.145-8.285-36.354-21.465-48.239l-0.058-0.051-48.2-44.8-76.9 92.7 0.1 0.1-284.8 345.7c-12.353 17.719-16.436 27.2-10.8 40.7 5.791 13.177 18.729 22.212 33.777 22.212 0.325 0 0.648-0.004 0.971-0.013l-0.048 0.001zM434.2 341.1l74.6-71.9-160.1-148.8c-6.056-7.376-15.107-12.101-25.267-12.299l-0.033-0.001c-0.097-0.001-0.212-0.001-0.326-0.001-15.608 0-28.995 9.511-34.682 23.054l-0.092 0.248c-1.131 3.759-1.782 8.078-1.782 12.55 0 12.188 4.836 23.247 12.693 31.362l-0.012-0.012 135 165.8z" />
<glyph unicode="&#xe902;" glyph-name="devto" d="M345.792 524.336c-6.208 4.64-12.432 6.96-18.64 6.96h-27.904v-167.152h27.92c6.208 0 12.432 2.319 18.64 6.96 6.208 4.64 9.312 11.6 9.312 20.896v111.44c-0.016 9.28-3.136 16.256-9.328 20.896zM800.16 806.4h-576.32c-38.72 0-70.144-31.344-70.24-70.080v-576.64c0.096-38.736 31.52-70.080 70.24-70.080h576.32c38.736 0 70.144 31.344 70.24 70.080v576.64c-0.096 38.736-31.52 70.080-70.24 70.080zM400.32 391.696c0-30.096-18.576-75.696-77.376-75.6h-74.24v264.736h75.808c56.704 0 75.776-45.536 75.792-75.648zM561.408 533.552h-85.248v-61.472h52.112v-47.312h-52.112v-61.456h85.264v-47.312h-99.488c-17.856-0.463-32.704 13.648-33.152 31.504v200.176c-0.432 17.84 13.696 32.656 31.536 33.104h101.104zM727.232 349.088c-21.12-49.2-58.96-39.408-75.904 0l-61.648 231.68h52.112l47.536-181.952 47.312 181.952h52.128z" />
<glyph unicode="&#xe903;" glyph-name="github" d="M511.978 846.848c-226.304 0-409.6-183.296-409.6-409.6 0-181.248 117.248-334.336 280.065-388.608 20.48-3.584 28.16 8.704 28.16 19.456 0 9.728-0.513 41.984-0.513 76.288-102.911-18.944-129.535 25.088-137.727 48.128-4.608 11.776-24.576 48.128-41.984 57.856-14.337 7.68-34.817 26.623-0.513 27.136 32.256 0.512 55.296-29.696 62.976-41.984 36.864-61.952 95.744-44.544 119.296-33.792 3.584 26.624 14.336 44.544 26.112 54.784-91.136 10.24-186.368 45.568-186.368 202.24 0 44.544 15.872 81.408 41.984 110.080-4.096 10.24-18.432 52.224 4.096 108.544 0 0 34.304 10.752 112.64-41.984 32.768 9.216 67.584 13.824 102.4 13.824s69.632-4.608 102.4-13.824c78.336 53.248 112.64 41.984 112.64 41.984 22.528-56.32 8.192-98.304 4.096-108.544 26.112-28.672 41.984-65.024 41.984-110.080 0-157.184-95.744-192-186.88-202.24 14.848-12.8 27.648-37.376 27.648-75.776 0-54.784-0.513-98.816-0.513-112.64 0-10.752 7.68-23.552 28.16-19.456 161.792 54.272 279.040 207.872 279.040 388.608 0 226.304-183.296 409.6-409.6 409.6z" />
<glyph unicode="&#xe904;" glyph-name="google-scholar" d="M512 857.6l-409.6-324.3 151.7-123.5c49.133 94.299 146.113 157.603 257.887 157.7h0.013c111.807-0.037 208.827-63.312 257.239-155.999l0.761-1.601 151.6 123.4-409.6 324.3zM512 516.3c-131.945-0.019-238.9-106.985-238.9-238.933 0-0.024 0-0.047 0-0.071v0.004c0.019-131.933 106.967-238.881 238.898-238.9h0.002c131.933 0.019 238.881 106.967 238.9 238.898v0.001c0 0.020 0 0.044 0 0.067 0 131.947-106.955 238.914-238.898 238.933h-0.002z" />
<glyph unicode="&#xe905;" glyph-name="ieee" d="M489.454 377.565c-2.244-43.249-2.802-83.284-5.992-126.671 17.11-1.529 36.433-3.037 54.682-0.381l-5.442 120.881-0.956 5.774c-13.905-0.553-27.058-1.107-42.287 0.401zM382.536 499.031c-21.083-10.57-52.106-26.542-48.691-55.466 4.523-15.787 21.616-25.977 35.149-32.501 74.78-32.938 174.058-34.068 253.021-9.472 19.492 7.533 45.646 18.426 49.232 42.304-0.211 19.735-21.091 32.154-36.102 39.704v0.937c5.233 2.074 11.248 3.925 16.674 4.506v0.515c-26.453 4.731-51.985 11.651-77.598 18.426 4.933-11.241 8.486-23.094 12.604-34.779 7.695 2.464 15.591 4.336 23.893 5.467 13.509-5.256 32.848-12.782 34.762-29.675 1.509-15.787-15.779-23.482-26.695-29.885-57.912-21.083-123.075-23.134-183.474-7.13-16.682 5.281-40.761 12.024-42.828 33.26 11.846 27.963 42.465 33.785 68.046 40.585-13.145 8.463-26.509 15.964-39.259 25.387-13.752-0.764-26.332-6.783-38.734-12.194zM510.487 667.76l-7.493-24.071-37.596-107.679c9.407-0.956 21.067 0 30.313-0.956v-0.879l-5.499-121.802 0.956-1.298c12.023-1.165 27.042-1.776 39.291 0.325v1.922l-4.902 118.152 0.726 3.998 33.082 0.573c-16.505 43.588-32.509 87.621-47.916 131.75zM493.012 721.862c27.664 18.847 52.478-7.493 73.908-22.553 82.863-66.691 161.058-143.031 220.633-229.246 7.518-11.128 10.901-28.399 4.175-40.988-15.456-25.775-36.288-49.289-56.047-73.167v-1.298c-49.264-52.439-101.289-106.363-157.513-150.767-27.43-16.707-52.615-53.173-87.958-30.579-80.464 58.809-157.465 131.911-222.749 210.327-11.063 17.255-28.35 31.379-36.045 50.928-10.748 26.469 12.944 45.478 26.501 65.407 66.552 82.098 149.213 162.596 235.095 221.93zM562.374 800.262l-30.627 43.403c-3.755 2.302-8.446 6.080-12.581 7.195-9.044 3.908-18.781-0.821-26.154-6.42l-55.417-72.19c-88.911-110.101-194.156-212.935-308.987-291.754-9.076-7.090-22.577-14.010-25.379-25.702-3.020-10.522 2.462-19.194 8.979-25.727 91.947-63.356 179.864-138.533 258.108-224.28 13.897-14.608 25.161-29.102 38.743-42.813 22.884-30.467 49.78-61.143 70.815-93.814 6.589-6.92 7.728-18.233 18.048-21.6 8.075-2.795 18.048-4.699 25.742 0l7.663 7.696c95.144 134.786 215.805 255.829 350.612 353.543 13.5 12.064 39.267 16.552 39.639 38.921-0.955 10.32-6.96 20.486-15.826 26.13l-2.212 0.344c-69.37 47.197-134.008 100.572-194.907 161.118l-67.295 70.308c-27.268 30.232-53.761 63.703-78.962 95.639zM483.073 738.422c27.050 21.051 61.085 3.577 83.848-15.787 23.836-18.226 48.666-38.864 70.452-59.964l3.965-2.277c60.342-55.983 116.381-118.208 162.423-184.003 7.46-11.451 14.058-24.418 9.892-39.615-15.358-38.38-46.551-68.984-73.827-102.479-59.010-63.541-121.258-124.999-190.951-174.038-14.098-9.957-33.106-19.17-49.99-11.264-51.299 26.857-94.555 70.841-139.45 110.925-52.074 48.288-104.333 104.497-143.803 163.29-5.862 8.276-7.51 18.443-7.34 29.328 5.079 20.308 18.976 37.007 32.137 54.118 46.639 59.431 103.752 115.802 161.43 167.296 1.337 1.318 3.803 4.118 5.887 5.467 24.773 21.415 49.385 40.374 75.329 59.003z" />
<glyph unicode="&#xe906;" glyph-name="ieee-alt" d="M102.378 583.734v-271.463h75.196v271.463zM217.038 583.734v-271.468h206.781v52.657h-131.59v57.521h121.055v52.641h-121.055v56.017h131.59v52.631zM465.951 583.734v-271.468h206.734v52.657h-131.559v57.521h121.018v52.641h-121.018v56.017h131.559v52.631zM714.786 583.734v-271.468h206.792v52.657h-131.549v57.521h121.029v52.641h-121.029v56.017h131.549v52.631z" />
<glyph unicode="&#xe907;" glyph-name="kaggle" d="M771.617 43.228c-0.815-3.212-4.017-4.815-9.62-4.815h-107.072c-6.432 0-12.021 2.81-16.838 8.432l-176.839 224.937-49.313-46.911v-174.437c0-8.028-4.017-12.035-12.035-12.035h-83.002c-8.028 0-12.035 4.010-12.035 12.035v795.144c0 8.001 4.010 12.021 12.035 12.021h83.002c8.014 0 12.035-4.017 12.035-12.021v-489.595l211.715 214.117c5.612 5.596 11.225 8.419 16.838 8.419h110.688c4.807 0 8.001-2.013 9.62-6.007 1.602-4.815 1.2-8.419-1.2-10.834l-223.763-216.505 233.37-289.914c3.197-3.212 4.010-7.222 2.415-12.035z" />
<glyph unicode="&#xe908;" glyph-name="keras" d="M153.6 806.4v-717h717v717zM363.9 662.7h42.3c0.579 0 1.221-0.337 1.6-0.701l12.1-12.9c0.358-0.41 0.6-1.151 0.6-1.701v-165.998c0-0.579 0.292-0.642 0.701-0.3l180.199 180.9c0.358 0.358 1.155 0.701 1.701 0.701h58.9c0.513 0 1.097-0.404 1.3-0.9l8.4-19.2c0.205-0.513 0.401-1.358 0.401-1.9v-2.7c0-0.579-0.391-1.316-0.799-1.701l-145.003-144.299c-0.358-0.358-0.457-1.149-0.199-1.6l157.7-228.5c0.308-0.41 0.404-1.223 0.199-1.701l-10.8-20.9c-0.205-0.513-0.855-0.9-1.399-0.9h-59.501c-0.513 0-1.304 0.339-1.6 0.799l-134.8 199.602c-0.308 0.41-0.815 0.559-1.2 0.199l-53.4-50.999c-0.358-0.358-0.701-1.155-0.701-1.701v-133.2c0-0.513-0.292-1.316-0.701-1.701l-12.3-12.3c-0.358-0.358-1.153-0.701-1.701-0.701h-41.998c-0.513 0-1.314 0.292-1.699 0.701l-12.3 12.3c-0.358 0.358-0.701 1.151-0.701 1.701v393.901c0 0.579 0.358 1.306 0.701 1.701l12.3 13.3c0.358 0.41 1.151 0.701 1.699 0.701z" />
<glyph unicode="&#xe909;" glyph-name="linkedin" d="M204.8 806.4c-28.365 0-51.2-22.835-51.2-51.2v-614.4c0-28.365 22.835-51.2 51.2-51.2h614.4c28.365 0 51.2 22.835 51.2 51.2v614.4c0 28.365-22.835 51.2-51.2 51.2h-614.4zM312.2 707.8c0.019 0 0.041 0 0.063 0 33.918 0 61.416-27.485 61.437-61.398v-0.002c0-0.019 0-0.041 0-0.064 0-33.93-27.506-61.437-61.437-61.437-0.022 0-0.045 0-0.067 0h0.003c-33.915 0.021-61.4 27.519-61.4 61.437 0 0.022 0 0.045 0 0.067v-0.003c0.021 33.902 27.498 61.379 61.398 61.4h0.002zM639.2 543.6c61.309 0.412 123.9-37.884 123.9-133.5v-212.7h-104.7v176.3c0 106.034-126.6 98.016-126.6 0v-176.3h-104.3v335.8h104.3v-45.2c18.559 34.347 62.661 55.299 107.4 55.6zM259.3 533.2h105v-335.8h-105v335.8z" />
<glyph unicode="&#xe90a;" glyph-name="medium" d="M333.42 680.625c-127.602 0-231.043-104.18-231.043-232.629s103.449-232.62 231.043-232.62c127.594 0 231.035 104.147 231.035 232.62s-103.433 232.629-231.035 232.629zM702.38 666.997c-63.801 0-115.514-98.072-115.514-219.002s51.72-219.002 115.521-219.002c63.801 0 115.521 98.072 115.521 219.002h-0.008c0 120.961-51.72 219.002-115.521 219.002zM880.947 644.187c-22.434 0-40.621-87.845-40.621-196.192s18.179-196.19 40.621-196.19c22.442 0 40.63 87.867 40.63 196.19 0 108.355-18.196 196.192-40.63 196.192z" />
<glyph unicode="&#xe90b;" glyph-name="numpy" d="M512.647 831.052l-122.791-61.266 127.9-64.505 119.017 63.543zM330.181 740.023l-140.487-70.112 131.475-66.023 137.024 71.518zM696.115 739.043l-119.925-63.228 134.49-67.838 123.312 61.934zM516.87 645.791l-136.713-71.536 131.677-66.135 139.247 69.927zM153.6 631.594v-388.847l90.031-48.125v203.253c0 0 122.553-235.494 123.793-238.067 1.242-2.573 13.549-27.397 26.69-36.115 17.51-11.587 92.547-56.71 92.547-56.71l-0.018 394.714-101.285 50.919v-220.096c0 0-123.864 263.555-135.339 287.229-1.482 3.054-7.573 6.405-9.128 7.22-22.211 11.661-87.291 44.625-87.291 44.625zM870.4 626.081l-128.492-63.879 0.108-168.009 128.384 65.264zM689.709 536.252l-149.981-74.555v-167.735l150.147 74.613zM870.4 400.006l-128.348-64.783 0.094-169.271 128.254 64.006zM689.933 309.439l-150.205-75.111v-169.38l150.371 75.036z" />
<glyph unicode="&#xe90c;" glyph-name="opencv" d="M509.911 857.6c-106.161-0.013-192.217-86.077-192.217-192.24 0-70.78 38.251-132.625 95.21-165.992l0.907-0.491 57.875 100.25c-23.022 13.469-38.241 38.074-38.241 66.234 0 42.238 34.241 76.479 76.479 76.479s76.479-34.241 76.479-76.479c0-28.16-15.219-52.765-37.881-66.038l-0.361-0.195 57.875-100.25c57.866 33.858 96.117 95.703 96.117 166.483 0 106.171-86.069 192.24-192.24 192.24 0 0-0.001 0-0.001 0v0zM323.286 475.952c-8.609 1.366-18.535 2.146-28.644 2.146-106.173 0-192.243-86.070-192.243-192.243s86.070-192.243 192.243-192.243c106.172 0 192.242 86.069 192.243 192.24v0h-115.775c0-42.239-34.241-76.48-76.48-76.48s-76.48 34.241-76.48 76.48c0 42.239 34.241 76.48 76.48 76.48 14.086 0 27.282-3.808 38.616-10.45l-0.361 0.195 57.875 100.275c-19.438 11.423-42.169 19.705-66.397 23.462l-1.078 0.138zM633.235 452.327c-57.865-33.858-96.116-95.703-96.116-166.482 0-106.171 86.069-192.24 192.24-192.24s192.24 86.069 192.24 192.24c0 70.779-38.251 132.624-95.208 165.991l-0.907 0.491-57.9-100.25c23.022-13.469 38.241-38.074 38.241-66.234 0-42.238-34.241-76.479-76.479-76.479s-76.479 34.241-76.479 76.479c0 28.16 15.219 52.764 37.88 66.038l0.361 0.195z" />
<glyph unicode="&#xe90d;" glyph-name="orcid" d="M512 857.6c-226.24 0-409.6-183.36-409.6-409.6s183.36-409.6 409.6-409.6c226.24 0 409.6 183.36 409.6 409.6s-183.36 409.6-409.6 409.6zM353.919 708.162c17.92 0 32.319-14.725 32.319-32.325s-14.399-32.319-32.319-32.319c-17.92 0-32.319 14.719-32.319 32.319 0 17.92 14.399 32.325 32.319 32.325zM329.281 604.481h49.281v-342.719h-49.281zM450.881 604.481h133.119c126.72 0 182.4-90.559 182.4-171.519 0-88-68.803-171.525-181.763-171.525h-133.756zM500.163 560v-254.081h78.4c111.68 0 137.275 84.804 137.275 127.044 0 68.8-43.838 127.038-139.837 127.038z" />
<glyph unicode="&#xe90e;" glyph-name="pandas" d="M679.963 857.6v-617.92h89.527v617.92zM398.302 809.178v-185.891h89.527v185.891zM254.51 656.32v-617.92h89.534v617.92zM539.154 656.098v-185.892h89.527v185.892zM398.302 569.024v-87.705h89.527v87.705zM398.302 427.323v-185.891h89.527v185.891zM539.154 415.948v-87.705h89.527v87.705zM539.154 273.949v-185.899h89.527v185.899z" />
<glyph unicode="&#xe90f;" glyph-name="papers-with-code" d="M770.8 789.1v-81c-2.064-2.063 66-1.2 66-1.2l1.1-514h-67.1v-83.9h150.8v680.1h-150.8zM102.4 787v-680.1h150.8v83.9l-66.9 0.2 1.1 513.9c0 0 67.864-0.965 65.8 1.1v81h-150.8zM227.2 666.2v-434.9h82.8v434.9h-82.8zM471.6 665.8v-434.9h82.7v434.9h-82.7zM714.5 665.8v-434.9h82.8v434.9h-82.8zM348.2 641v-382.1h82.7v382.1h-82.7zM591.7 639.4v-382.1h82.7v382.1h-82.7z" />
<glyph unicode="&#xe910;" glyph-name="python" d="M507.175 857.593c-33.41-0.154-65.316-3.005-93.39-7.972-82.702-14.611-97.718-45.192-97.718-101.59v-74.484h195.436v-24.828h-268.781c-56.799 0-106.534-34.139-122.090-99.084-17.944-74.442-18.74-120.895 0-198.624 13.892-57.859 47.069-99.084 103.868-99.084h67.195v89.29c0 64.507 55.813 121.407 122.090 121.407h195.208c54.339 0 97.718 44.741 97.718 99.312v186.097c0 52.964-44.681 92.75-97.718 101.59-33.573 5.589-68.408 8.128-101.818 7.972zM401.485 797.687c20.187 0 36.673-16.755 36.673-37.356 0-20.528-16.486-37.128-36.673-37.128-20.26 0-36.673 16.6-36.673 37.128 0 20.601 16.413 37.356 36.673 37.356zM731.083 648.719v-86.784c0-67.283-57.043-123.912-122.090-123.912h-195.208c-53.471 0-97.718-45.764-97.718-99.312v-186.096c0-52.964 46.056-84.117 97.718-99.312 61.864-18.19 121.188-21.478 195.208 0 49.202 14.245 97.718 42.915 97.718 99.312v74.484h-195.208v24.828h292.925c56.799 0 77.965 39.619 97.718 99.084 20.404 61.219 19.536 120.091 0 198.624-14.037 56.544-40.847 99.084-97.718 99.084zM621.293 177.441c20.26 0 36.673-16.6 36.673-37.128 0-20.601-16.413-37.356-36.673-37.356-20.187 0-36.673 16.755-36.673 37.356 0 20.528 16.486 37.128 36.673 37.128z" />
<glyph unicode="&#xe911;" glyph-name="pytorch" d="M511.486 857.6l-238.54-238.54c-133.145-133.145-133.145-347.656 0-480.801s347.649-133.145 478.020 0c133.145 134.069 133.145 347.656 0 480.801l-61.021-61.021c99.859-99.859 99.859-260.749 0-358.759-99.859-99.859-260.749-99.859-358.759 0-99.859 99.859-99.859 260.749 0 358.759l180.301 180.301zM631.686 722.61c-24.512 0-44.371-19.859-44.371-44.371s19.859-44.389 44.371-44.389c24.512 0 44.389 19.877 44.389 44.389s-19.877 44.371-44.389 44.371z" />
<glyph unicode="&#xe912;" glyph-name="researchgate" d="M616.74 115.515c13.495 0 27.783 2.381 36.515 6.35v20.639c-28.577 0-57.154 19.845-77.793 42.072-34.927 38.103-81.762 99.226-120.658 168.287 64.298 15.082 111.927 75.411 111.927 135.741 0 88.906-69.061 130.184-159.555 130.184-46.835 0-84.143-2.381-119.071-2.381-31.752 0-63.504 0-83.35 0.795v-23.020l30.165-5.557c20.639-3.969 32.546-13.495 32.546-62.711v-312.759c0-49.216-11.907-58.742-32.546-62.711l-30.165-5.558v-23.020c21.433 0.795 58.742 2.381 96.050 2.381 35.721 0 81.762-1.589 101.607-2.381v23.020l-41.278 5.557c-21.433 3.175-32.546 13.495-32.546 62.711v132.565c19.051-1.589 35.721-1.589 61.123-1.589 48.422-86.524 94.463-151.616 120.658-181.78 23.814-28.577 60.329-46.835 106.37-46.834zM385.743 379.852c-26.989 0-38.896 0.795-57.154 2.381v199.245c18.258 1.589 42.865 1.589 64.298 1.589 66.68 0 106.37-34.927 106.37-98.432 0-62.711-42.866-104.782-113.514-104.782zM628.016 580.217c-0.71 3.587-1.464 8.592-2.047 13.649l-0.096 1.020c-0.67 5.761-1.163 12.74-1.362 19.793l-0.008 0.351c-0.251 7.762-0.393 16.888-0.393 26.048 0 0.744 0.001 1.488 0.003 2.231v-0.115c0 10.945 0.132 20.335 0.391 28.153 0.207 7.403 0.698 14.382 1.471 21.277l-0.103-1.133c0.652 5.6 1.358 10.494 2.147 14.669 0.761 4.17 1.792 8.21 3.099 12.124 6.742 20.606 17.997 36.113 33.601 46.541 15.659 10.439 34.797 15.659 57.469 15.659 11.744 0 22.292-1.376 31.643-4.11 9.39-2.746 17.725-6.524 25.032-11.352 7.233-4.75 13.432-10.312 18.701-16.673l0.111-0.138c5.22-6.415 9.515-13.266 12.913-20.552 1.306-2.338 0.908-4.186-1.178-5.491l-28.925-11.962c-2.392-1.306-4.186-0.652-5.491 1.957-6.525 11.983-12.016 19.9-21.15 25.619-9.134 5.736-17.616 8.4-31.698 8.4-15.115 0-22.020-2.991-31.535-9.765-9.515-6.742-16.365-15.169-20.552-27.946-0.761-2.338-1.56-5.219-2.338-8.59-0.79-3.371-1.358-7.557-1.767-12.505-0.391-4.773-0.743-11.080-0.961-17.422l-0.020-0.738c-0.244-7.055-0.383-15.345-0.383-23.668 0-0.816 0.001-1.632 0.004-2.447v0.126c0-10.167 0.125-18.839 0.379-26.011 0.275-7.177 0.596-13.234 0.981-18.187 0.379-4.948 0.981-9.134 1.755-12.521 0.79-3.371 1.577-6.253 2.338-8.59 4.186-12.777 10.031-19.736 18.556-25.364 8.503-5.633 18.377-9.787 33.492-9.787 13.555 0 25.956 3.86 34.003 9.732 8.047 5.856 14.68 13.592 17.67 24.249 1.306 4.426 3.045 10.031 4.078 16.8 1.033 6.797 1.018 14.027 1.018 23.966 0 1.577-0.784 2.354-2.338 2.354h-46.16c-2.61 0-3.915 1.306-3.915 3.915v26.479c0 2.61 1.306 3.915 3.915 3.915h84.872c2.61 0 3.915-1.306 3.915-3.915v-22.754c0-11.994-0.039-23.14-1.211-33.438-1.157-10.298-2.789-19.247-4.893-25.771-6.498-20.335-16.801-34.884-32.568-45.704s-36.156-16.724-58.307-16.724c-22.716 0-41.865 5.219-57.524 15.648-15.643 10.439-26.859 25.951-33.634 46.541-1.15 3.301-2.233 7.373-3.034 11.545l-0.093 0.579z" />
<glyph unicode="&#xe913;" glyph-name="researchgate-square" d="M243.2 806.4v0c-49.485 0-89.6-40.115-89.6-89.6v-537.6c0-49.485 40.115-89.6 89.6-89.6h537.6c49.485 0 89.6 40.115 89.6 89.6v537.6c0 49.485-40.115 89.6-89.6 89.6h-537.6zM542.733 237.574c18.323-19.802 39.693-32.256 58.867-32.256l4.48-4.48v-16.576l-2.643-4.032c-7.526-3.45-19.488-5.51-31.002-5.51-36.736 0-67.693 14.157-88.39 39.066-24.64 28.403-61.242 82.701-95.693 144.077-19.846 0-27.238 0.134-36.826 0.627l-4.838 0.36v-101.382c0-34.138 5.51-43.322 22.131-45.83l32.973-4.48 3.898-4.48v-18.413l-4.659-4.48c-23.541 1.035-51.867 1.716-80.316 1.878l-0.683 0.003c-17.114 0-34.899-0.449-55.686-1.118l-20.877-0.807-4.614 4.48v18.456l3.674 4.39 24.058 4.48c16.845 3.181 22.4 12.23 22.4 45.786v250.701c0 33.555-5.555 42.605-22.31 45.83l-24.102 4.48-3.853 4.346v18.458l4.659 4.48c14.942-0.453 32.52-0.712 50.158-0.712 21.148 0 42.21 0.371 63.179 1.108l-3.039-0.085c22.131 0.671 35.392 0.94 51.296 0.94 80.147 0 131.981-38.976 131.981-108.774 0-49.28-37.363-97.082-87.181-111.597 27.507-47.98 62.048-95.11 92.96-128.934zM387.814 395.45c-1.278-0.014-2.788-0.022-4.3-0.022-12.996 0-25.857 0.577-38.559 1.707l1.643-0.118v151.335c7.84 0.536 17.338 0.807 29.299 0.896l17.651 0.045c51.475 0 80.506-26.566 80.506-74.368 0-48.429-32.928-79.475-86.195-79.475zM686.899 584.102c-4.57 0-7.616 3.046-7.616 7.616v21.146c0 4.525 3.046 7.616 7.616 7.616h68.096c4.525 0 7.616-3.091 7.616-7.616v-18.099c0-13.574-0.223-20.026-1.029-27.194-0.755-7.975-2.179-15.269-4.241-22.29l0.209 0.83c-5.555-17.203-14.426-29.568-27.91-38.797-13.44-9.184-30.688-14.112-49.28-14.112-19.040 0-35.258 4.39-48.563 13.216-13.396 8.871-22.983 22.086-28.673 39.424-0.993 2.802-1.923 6.246-2.61 9.777l-0.078 0.482c-1.549 8.375-2.58 18.181-2.861 28.175l-0.006 0.273c-0.227 6.743-0.356 14.668-0.356 22.624s0.129 15.882 0.386 23.776l-0.030-1.152c0.35 10.328 1.395 20.128 3.097 29.702l-0.185-1.254c0.671 3.539 1.525 6.944 2.643 10.259 5.735 17.338 15.322 30.554 28.717 39.424 13.305 8.871 29.568 13.261 48.608 13.261 9.811 0 18.682-1.165 26.656-3.45 7.93-2.33 15.053-5.51 21.28-9.632s11.558-8.87 16.038-14.336c4.435-5.376 8.064-11.2 10.797-17.069 2.195-3.898 1.345-8.064-3.136-10.752l-22.714-9.274c-4.166-2.33-8.422-0.807-10.483 3.315-5.555 10.17-9.498 15.098-15.411 18.816-5.902 3.83-13.12 6.108-20.87 6.108-0.759 0-1.513-0.022-2.261-0.065l0.103 0.005c-10.304 0-15.053-1.567-22.669-6.944-6.991-4.799-12.212-11.732-14.757-19.849l-0.072-0.267c-1.566-4.632-2.651-10.003-3.035-15.567l-0.011-0.203c-0.673-10.446-1.057-22.65-1.057-34.944s0.384-24.498 1.14-36.601l-0.083 1.657c0.387-5.763 1.473-11.135 3.178-16.222l-0.132 0.453c2.041-7.568 6.717-13.818 12.962-17.847l0.12-0.072c6.467-4.419 14.456-7.056 23.062-7.056 0.476 0 0.951 0.008 1.423 0.024l-0.069-0.002c0.334-0.009 0.728-0.014 1.122-0.014 8.737 0 16.872 2.578 23.685 7.016l-0.168-0.102c5.932 4.033 10.346 9.913 12.441 16.803l0.058 0.221 1.254 4.346c0.684 2.291 1.324 5.15 1.785 8.069l0.052 0.398c0.627 3.898 0.761 7.168 0.761 15.814h-34.449z" />
<glyph unicode="&#xe914;" glyph-name="sklearn" d="M718.006 700.714c-76.32 0.44-159.89-33.828-226.059-99.993-114.454-114.451-81.346-333.114-42.482-371.986 31.406-31.406 257.512-71.959 371.959 42.488 114.461 114.454 133.485 280.995 42.488 371.986-38.384 38.382-90.214 57.184-145.907 57.505zM220.608 494.635c-32.317-0.184-62.396-11.097-84.673-33.373-52.792-52.795-41.754-149.444 24.66-215.834 66.414-66.421 193.293-47.208 215.828-24.653 18.236 18.205 41.774 149.427-24.647 215.834-38.388 38.388-86.881 58.279-131.168 58.026z" />
<glyph unicode="&#xe915;" glyph-name="tensorflow" d="M527.574 857.6l350.418-199.349v-182.217l-210.251 123.036v-91.887l104.347-60.739 1.556-157.299-105.904 60.739v-230.497l-140.167-80.986zM496.426 857.6v-819.2l-140.167 80.986v479.684l-210.251-123.036v182.217z" />
</font>
</defs>
</svg>
